<svg xmlns="http://www.w3.org/2000/svg" width="27.75" height="39.471" viewBox="0 0 27.75 39.471">
  <path id="_001-pin" data-name="001-pin" d="M14.375,39.471l-.835-.9a75.094,75.094,0,0,1-6.006-7.565C3.419,25.093,1.092,19.906.617,15.591A13.667,13.667,0,0,1,.5,13.875a13.875,13.875,0,1,1,27.635,1.692c-.464,4.317-2.788,9.509-6.908,15.432a75.086,75.086,0,0,1-6.017,7.576Zm0-37.188A11.6,11.6,0,0,0,2.784,13.875a11.4,11.4,0,0,0,.1,1.439l0,.019c.866,7.92,8.857,17.709,11.489,20.744,2.636-3.037,10.644-12.842,11.491-20.764l0-.019a11.433,11.433,0,0,0,.1-1.422A11.606,11.606,0,0,0,14.375,2.283Zm0,20.924a9.332,9.332,0,1,1,9.33-9.332A9.343,9.343,0,0,1,14.375,23.207Zm0-16.381a7.049,7.049,0,1,0,7.046,7.049,7.057,7.057,0,0,0-7.046-7.049Zm0,0" transform="translate(-0.5 0)" fill="#fff"/>
</svg>
