<svg id="_004-account" data-name="004-account" xmlns="http://www.w3.org/2000/svg" width="36.667" height="36.667" viewBox="0 0 36.667 36.667">
  <path id="Path_4019" data-name="Path 4019" d="M36.667,18.333A18.333,18.333,0,1,0,18.333,36.667,18.323,18.323,0,0,0,36.667,18.333ZM18.333,2.148A16.187,16.187,0,0,1,31.747,27.394a18.326,18.326,0,0,0-26.827,0A16.187,16.187,0,0,1,18.333,2.148ZM6.26,29.112a16.181,16.181,0,0,1,24.146,0A16.17,16.17,0,0,1,6.26,29.112Zm0,0" fill="#fff"/>
  <path id="Path_4020" data-name="Path 4020" d="M172.445,76.039a6.453,6.453,0,0,0,6.445-6.445V67.445a6.445,6.445,0,0,0-12.891,0v2.148A6.453,6.453,0,0,0,172.445,76.039Zm-4.3-8.594a4.3,4.3,0,1,1,8.594,0v2.148a4.3,4.3,0,0,1-8.594,0Zm0,0" transform="translate(-154.112 -56.631)" fill="#fff"/>
</svg>
