<svg xmlns="http://www.w3.org/2000/svg" width="287.103" height="74.402" viewBox="0 0 287.103 74.402"><defs><style>.a,.b{fill:#212121;}.b{fill-rule:evenodd;}</style></defs><path class="a" d="M53.286,61.818c-2.948,4.285-6,8.544-10.814,8.633-4.737.089-6.258-2.789-11.664-2.789s-7.106,2.7-11.581,2.881c-4.648.172-8.181-4.63-11.154-8.895C2,52.926-2.634,36.986,3.6,26.228A17.3,17.3,0,0,1,18.21,17.416c4.565-.085,8.879,3.06,11.666,3.06S37.9,16.7,43.405,17.255a16.524,16.524,0,0,1,12.918,6.96C56,24.429,48.608,28.7,48.7,37.6A15.527,15.527,0,0,0,58.18,51.818a38.642,38.642,0,0,1-4.894,10ZM33.07,5.575A15.89,15.89,0,0,1,43.477.25,15.447,15.447,0,0,1,39.8,11.478c-2.469,2.97-6.511,5.283-10.478,4.974C28.78,12.417,30.78,8.21,33.07,5.575Z" transform="translate(-0.64 -0.25)"/><path class="b" d="M44.355,2.335h5.4c4.674,0,7.437,2.916,7.437,7.873,0,4.972-2.749,7.886-7.437,7.886H44.352V2.335ZM46.321,4.1V16.327h3.308c3.572,0,5.558-2.185,5.558-6.095,0-3.941-1.975-6.126-5.558-6.126h-3.31ZM66.476,18.2c-3.31,0-5.428-2.348-5.428-5.994,0-3.661,2.12-6,5.428-6S71.9,8.548,71.9,12.207,69.787,18.2,66.476,18.2Zm0-1.693c2.2,0,3.5-1.606,3.5-4.3s-1.3-4.3-3.5-4.3-3.494,1.606-3.494,4.3S64.294,16.51,66.476,16.51ZM91.034,6.32H89.155l-2.391,9.622h-.043l-2.7-9.622H82.191l-2.7,9.622h-.045L77.055,6.32H75.177l3.3,11.773H80.4l2.684-9.152h.045l2.684,9.152h1.923l3.3-11.773ZM94.89,18.094h1.9V11.257c0-2.02,1.167-3.353,3.1-3.353,1.856,0,2.751,1.051,2.751,2.97v7.22h1.9V10.548c0-2.675-1.5-4.337-4.084-4.337a3.87,3.87,0,0,0-3.735,2.022h-.045V6.32H94.892V18.094Zm14.522,0h1.9V1.646h-1.9Zm11.675.11c-3.31,0-5.43-2.348-5.43-5.994,0-3.661,2.12-6,5.428-6s5.428,2.335,5.428,5.994-2.118,5.994-5.428,5.994Zm0-1.693c2.192,0,3.493-1.606,3.493-4.3s-1.3-4.3-3.5-4.3-3.494,1.606-3.494,4.3,1.311,4.3,3.494,4.3Zm13.5.045a3.06,3.06,0,0,0,3.332-2.939v-.951l-3.08.2c-1.769.11-2.688.754-2.688,1.89,0,1.091.951,1.8,2.438,1.8Zm-.4,1.648c-2.393,0-3.977-1.375-3.977-3.462,0-2.02,1.552-3.212,4.413-3.386l3.3-.2v-.982c0-1.463-.962-2.272-2.7-2.272a2.437,2.437,0,0,0-2.608,1.812h-1.825c.054-1.986,1.988-3.5,4.455-3.5,2.785,0,4.576,1.485,4.576,3.8v8.081h-1.8V16.052h-.045a4.2,4.2,0,0,1-3.789,2.152Zm14.86,0c-2.959,0-5.046-2.4-5.046-5.994s2.076-6,5-6a4.11,4.11,0,0,1,3.757,2.02h.042V1.646h1.9V18.094h-1.814V16.105h-.034A4.151,4.151,0,0,1,149.048,18.2Zm.34-10.3c-2.064,0-3.442,1.7-3.442,4.3s1.378,4.3,3.442,4.3c2.042,0,3.429-1.736,3.429-4.3s-1.387-4.3-3.429-4.3Zm22.679,10.3c-3.31,0-5.43-2.348-5.43-5.994,0-3.661,2.12-6,5.428-6s5.428,2.335,5.428,5.994-2.118,5.994-5.428,5.994Zm0-1.693c2.192,0,3.494-1.606,3.494-4.3s-1.3-4.3-3.5-4.3-3.494,1.606-3.494,4.3,1.311,4.3,3.494,4.3Zm9.662,1.583h1.9V11.257c0-2.02,1.167-3.353,3.1-3.353,1.856,0,2.751,1.051,2.751,2.97v7.22h1.9V10.548c0-2.675-1.5-4.337-4.084-4.337a3.87,3.87,0,0,0-3.735,2.022h-.045V6.32h-1.789ZM204.352,3.668V6.32h-1.639V7.893h1.639v7.144c0,2.259.828,3.145,2.959,3.145a6.978,6.978,0,0,0,1.223-.1V16.477a7.873,7.873,0,0,1-.819.056c-1.006,0-1.465-.492-1.465-1.572V7.893h2.295V6.32H206.25V3.668h-1.9ZM213,18.094h1.9v-6.77a3.1,3.1,0,0,1,3.209-3.42c1.868,0,2.818,1.136,2.818,3.015v7.175h1.9V10.579c0-2.619-1.575-4.366-4.151-4.366a3.879,3.879,0,0,0-3.735,2.02h-.045V1.646h-1.9V18.094ZM232.28,7.884a3.3,3.3,0,0,0-3.31,3.33h6.477a3.121,3.121,0,0,0-3.167-3.332ZM235.4,14.73h1.879c-.327,2.02-2.371,3.473-4.88,3.473-3.31,0-5.395-2.3-5.395-5.951s2.1-6.039,5.307-6.039c3.145,0,5.111,2.214,5.111,5.777v.743h-8.454v.107a3.37,3.37,0,0,0,3.473,3.69,2.879,2.879,0,0,0,2.959-1.8ZM64.2,65.062l-2.883-8.519H49.311l-2.89,8.519H41.333l11.38-31.518H58L69.38,65.062H64.2ZM55.247,38.786l-4.7,13.826h9.526l-4.7-13.826h-.132ZM84.6,41.1c6.05,0,10.027,4.742,10.027,12.1,0,7.34-3.954,12.1-9.917,12.1A8.131,8.131,0,0,1,77.2,61.174h-.085V72.925H72.37V41.343h4.567v3.93h.11A8.377,8.377,0,0,1,84.6,41.1ZM83.4,61.284c3.847,0,6.379-3.167,6.379-8.083,0-4.891-2.534-8.081-6.379-8.081-3.757,0-6.312,3.254-6.334,8.081C77.089,58.05,79.623,61.284,83.4,61.284ZM110.637,41.1c6.05,0,10.024,4.742,10.024,12.1,0,7.34-3.952,12.1-9.915,12.1a8.127,8.127,0,0,1-7.515-4.126h-.087V72.925H98.406V41.343h4.565v3.93h.112A8.375,8.375,0,0,1,110.637,41.1Zm-1.2,20.183c3.845,0,6.376-3.167,6.376-8.083,0-4.891-2.532-8.081-6.376-8.081-3.757,0-6.312,3.254-6.334,8.081C103.125,58.05,105.657,61.284,109.436,61.284Zm24.4-5c.306,5.7,5.023,9.3,12.013,9.3,7.47,0,12.167-3.69,12.167-9.588,0-4.607-2.686-7.206-9.152-8.736l-3.473-.85c-4.062-1.006-5.721-2.317-5.721-4.545,0-2.8,2.6-4.719,6.4-4.719s6.4,1.9,6.687,5.046h4.759c-.152-5.437-4.719-9.172-11.38-9.172-6.728,0-11.467,3.735-11.467,9.172,0,4.39,2.686,7.1,8.477,8.5l4.082.982c4.086,1,5.811,2.467,5.811,4.914,0,2.818-2.863,4.871-6.837,4.871-4.149,0-7.184-2.053-7.535-5.178h-4.827ZM163.34,36.013v5.33h-3.274v3.735h3.274V58.815c0,4.585,1.834,6.4,6.575,6.4a13.291,13.291,0,0,0,2.664-.239V61.239a14.956,14.956,0,0,1-1.615.11c-1.988,0-2.908-.962-2.908-3.015V45.076H172.6V41.341h-4.542V36.013Zm23.417,29.333c-6.86,0-11.228-4.674-11.228-12.145,0-7.448,4.39-12.167,11.228-12.167s11.2,4.7,11.2,12.167-4.346,12.145-11.205,12.145Zm0-3.932c4.017,0,6.4-3.035,6.4-8.213s-2.38-8.233-6.4-8.233-6.423,3.08-6.423,8.233c0,5.178,2.4,8.213,6.421,8.213Zm15,3.648H206.5V50.909c0-3.341,1.964-5.5,5.088-5.5a6.975,6.975,0,0,1,2.163.284V41.253a7.774,7.774,0,0,0-1.662-.152,5.677,5.677,0,0,0-5.721,4.238h-.089v-4h-4.518V65.062Zm24.9-20.16c-3.406,0-5.875,2.492-6.137,6.137h12.033c-.107-3.69-2.445-6.137-5.9-6.137Zm5.875,13.216h4.52c-.675,4.258-4.847,7.229-10.176,7.229-6.88,0-11.16-4.63-11.16-12.055s4.323-12.256,10.964-12.256c6.508,0,10.615,4.522,10.615,11.708V54.4H220.5v.284c0,4.106,2.577,6.815,6.464,6.815,2.753,0,4.916-1.311,5.571-3.384Z" transform="translate(49.679 1.476)"/></svg>