<svg id="_001-award" data-name="001-award" xmlns="http://www.w3.org/2000/svg" width="119.697" height="152.32" viewBox="0 0 119.697 152.32">
  <path id="Path_4022" data-name="Path 4022" d="M203.362,165.629a22.308,22.308,0,1,0-22.308-22.308A22.333,22.333,0,0,0,203.362,165.629Zm0-35.692a13.385,13.385,0,1,1-13.385,13.385A13.4,13.4,0,0,1,203.362,129.936Z" transform="translate(-143.513 -85.019)" fill="#030303"/>
  <path id="Path_4023" data-name="Path 4023" d="M67.488,70.949,62.858,88.226l17.277,4.629,3.053,11.395L66.017,135.091l21.4-1.769,9.824,19,17.447-31.07,17.447,31.07,9.824-19,21.4,1.769L146.189,104.25l3.053-11.395,17.277-4.629L161.89,70.949,174.537,58.3,161.88,45.645l4.619-17.57-17.256-4.624L144.481,5.683,127.1,12.414,114.689,0,102.276,12.414,84.9,5.683,80.135,23.451,62.879,28.075,67.5,45.645,54.84,58.3Zm30.078,62.57-4.954-9.58-10.663.881,9.118-16.378L102,105.513l7.161,7.349Zm49.864-8.7-10.663-.881-4.954,9.58-11.6-20.657,7.161-7.349,10.938,2.931ZM73.767,34.4l13.654-3.659,3.522-13.143,13.532,5.241,10.215-10.215L124.9,22.834l13.532-5.24,3.522,13.143L155.611,34.4l-3.664,13.936,9.971,9.971-9.981,9.981,3.653,13.634L141.957,85.57,138.3,99.2,124.632,95.54l-9.943,10.2-9.943-10.2L91.074,99.2,87.421,85.57,73.787,81.917,77.44,68.283,67.459,58.3l9.971-9.971Z" transform="translate(-54.84 0)" fill="#030303"/>
</svg>
