<?xml version="1.0" encoding="utf-8"?>
<!-- Generator: Adobe Illustrator 22.0.0, SVG Export Plug-In . SVG Version: 6.00 Build 0)  -->
<svg version="1.1" id="Layer_1" xmlns="http://www.w3.org/2000/svg" xmlns:xlink="http://www.w3.org/1999/xlink" x="0px" y="0px"
	 viewBox="0 0 50 50" style="enable-background:new 0 0 50 50;" xml:space="preserve">
<g id="bookmark-white_1_" transform="translate(-38.261 -32)">
	<path id="Path_4613" d="M83.6,33.8c-0.4-0.6-1-1.1-1.7-1.3c-0.5-0.2-0.9-0.3-1.4-0.3H46.1c-0.5,0-1,0.1-1.4,0.3
		c-0.7,0.3-1.3,0.7-1.7,1.3c-0.4,0.6-0.6,1.3-0.6,2v42.3c0,0.7,0.2,1.4,0.6,2c0.4,0.6,1,1.1,1.7,1.3c0.5,0.2,0.9,0.3,1.4,0.3
		c1,0,2-0.4,2.7-1.1l14.5-13.9l14.5,13.9c0.7,0.7,1.7,1.1,2.7,1c1.3,0,2.4-0.6,3.2-1.6c0.4-0.6,0.6-1.3,0.6-2V35.8
		C84.3,35.1,84,34.4,83.6,33.8z M80.1,77.1L66.2,63.8L63.3,61l-2.9,2.8L46.5,77.1V36.4h33.6C80.1,36.4,80.1,77.1,80.1,77.1z"/>
</g>
</svg>
