<svg xmlns="http://www.w3.org/2000/svg" width="140.789" height="134.666" viewBox="0 0 140.789 134.666"><defs><style>.a{fill:#49555a;}.b{fill:#ffc107;}.c{fill:#fafafa;}</style></defs><g transform="translate(0 -10.67)"><g transform="translate(36.727 114.73)"><circle class="a" cx="15.303" cy="15.303" r="15.303" transform="translate(61.212)"/><circle class="a" cx="15.303" cy="15.303" r="15.303"/></g><path class="b" d="M200.869,75.705a3.06,3.06,0,0,0-2.3-1.034H88.392a3.06,3.06,0,0,0-3,3.673l12.242,61.212a3.315,3.315,0,0,0,3.4,2.448l91.818-12.242a3.06,3.06,0,0,0,2.632-2.657l6.121-48.969A3.059,3.059,0,0,0,200.869,75.705Z" transform="translate(-60.847 -45.637)"/><g transform="translate(42.863 41.207)"><path class="c" d="M158.552,160.412a3.06,3.06,0,0,1-3.018-2.559l-6.121-36.727a3.061,3.061,0,0,1,6.036-1l6.121,36.727a3.061,3.061,0,0,1-2.516,3.52A2.941,2.941,0,0,1,158.552,160.412Z" transform="translate(-149.385 -117.494)"/><path class="c" d="M219.42,157.093a3.061,3.061,0,0,1-3.061-2.785L213.3,120.642a3.061,3.061,0,0,1,2.761-3.334l.025,0a3.061,3.061,0,0,1,3.324,2.773h0l3.061,33.666a3.061,3.061,0,0,1-2.773,3.324h0Z" transform="translate(-194.95 -117.236)"/><path class="c" d="M280.394,154.064A3.061,3.061,0,0,1,277.333,151V120.4a3.061,3.061,0,0,1,6.121,0V151A3.061,3.061,0,0,1,280.394,154.064Z" transform="translate(-240.621 -117.268)"/><path class="c" d="M333.675,150.964h-.343a3.061,3.061,0,0,1-2.721-3.366l0-.031,3.061-27.545a3.1,3.1,0,0,1,3.4-2.724,3.061,3.061,0,0,1,2.706,3.379h0l-3.061,27.545A3.061,3.061,0,0,1,333.675,150.964Z" transform="translate(-278.6 -117.228)"/><path class="c" d="M387.063,147.771a3.061,3.061,0,0,1-2.969-3.8l6.121-24.485a3.061,3.061,0,0,1,5.972,1.344q-.015.069-.034.138l-6.121,24.485A3.06,3.06,0,0,1,387.063,147.771Z" transform="translate(-316.684 -117.096)"/></g><path class="a" d="M125.484,108.609H54.839A21.485,21.485,0,0,1,33.832,91.39l-14.917-74.6H3.061a3.061,3.061,0,1,1,0-6.121H21.424a3.06,3.06,0,0,1,3,2.448L39.836,90.184a15.346,15.346,0,0,0,15,12.3h70.644a3.061,3.061,0,0,1,0,6.121Z" transform="translate(0 0)"/></g></svg>