<svg xmlns="http://www.w3.org/2000/svg" width="81.378" height="107.598" viewBox="0 0 81.378 107.598">
  <g id="courier" transform="translate(0)">
    <path id="Path_4351" data-name="Path 4351" d="M187.687,0H204.71a9.47,9.47,0,0,1,9.457,9.457v5.672H219a3.152,3.152,0,1,1,0,6.3h-4.9a17.969,17.969,0,0,1-35.869-1.576V9.457A9.47,9.47,0,0,1,187.687,0Zm0,0" transform="translate(-178.23 0)" fill="#fff" fill-rule="evenodd"/>
    <path id="Path_4352" data-name="Path 4352" d="M25.313,211.532a18.1,18.1,0,0,1,6,4.391l16.947,17.352H71.921a9.457,9.457,0,0,1,0,18.914H45.441a10.808,10.808,0,0,1-7.948-2.908l-2.818-2.837v23.817a3.223,3.223,0,0,1-2.525,3.154l-29,0A3.152,3.152,0,0,1,0,270.261V227.917a17.985,17.985,0,0,1,25.314-16.384Zm0,0" transform="translate(0.001 -165.817)" fill="#fff" fill-rule="evenodd"/>
    <path id="Path_4353" data-name="Path 4353" d="M52.076,182.787h-22.7a3.152,3.152,0,0,1-3.152-3.152V157.148A3.152,3.152,0,0,1,29.379,154h8.2v5.415a3.152,3.152,0,1,0,6.3,0V154h8.2a3.153,3.153,0,0,1,3.152,3.152v22.486a3.153,3.153,0,0,1-3.152,3.152Zm0,0" transform="translate(20.638 -121.633)" fill="#fff" fill-rule="evenodd"/>
  </g>
</svg>
