<svg id="_005-cutlery" data-name="005-cutlery" xmlns="http://www.w3.org/2000/svg" width="151.947" height="151.947" viewBox="0 0 151.947 151.947">
  <path id="Path_4034" data-name="Path 4034" d="M151.938,133.554a17.9,17.9,0,0,0-6-12.794L95.393,75l12.829-14.174a23.411,23.411,0,0,0,22.217-6.186c4.325-4.325,8.939-12.369,11.481-20.015,3.432-10.323,2.81-18.216-1.8-22.824S127.621,6.57,117.3,10c-7.647,2.542-15.69,7.156-20.015,11.481A23.416,23.416,0,0,0,91.1,43.706L75.967,57.41,61.142,43.988a22.268,22.268,0,0,0-5.7-21.7L34.461,1.305a4.452,4.452,0,1,0-6.3,6.3L40.127,19.562,32.992,26.7,21.03,14.735a4.452,4.452,0,0,0-6.3,6.3L26.7,32.992l-7.135,7.135L7.6,28.166a4.452,4.452,0,0,0-6.3,6.3L22.289,55.446a22.242,22.242,0,0,0,21.7,5.7L56.537,75,6.013,120.76a17.835,17.835,0,1,0,25.175,25.176L75.966,96.463l44.792,49.472a17.835,17.835,0,0,0,31.18-12.38ZM103.578,27.779c4.938-4.938,17.336-11.03,25.506-11.03,2.177,0,3.842.447,4.742,1.347,1.918,1.918,1.778,7.3-.355,13.719-2.111,6.351-5.947,13.148-9.328,16.528a14.548,14.548,0,0,1-15.814,3.173l-.022-.008A14.551,14.551,0,0,1,103.578,27.779ZM95.086,52.106a23.626,23.626,0,0,0,4.735,4.734L88.793,69.024,82.6,63.415Zm-66.5-2.955-2.728-2.728L46.421,25.858l2.728,2.728A13.346,13.346,0,0,1,51.928,43.42c-1.282,2.74-2.318,3.591-4.457,5.73a13.37,13.37,0,0,1-18.886,0Zm-4.015,90.83a8.932,8.932,0,1,1-12.6-12.6L62.512,81.6l7.449,8.227Zm115.858.448a8.923,8.923,0,0,1-13.012-.405c-.026-.03,1.307,1.443-75.258-83.12A47.622,47.622,0,0,0,56.9,52.159c93.478,84.637,54.053,48.94,83.078,75.219A8.92,8.92,0,0,1,140.428,140.429Z" transform="translate(0 -0.001)" fill="#030303"/>
</svg>
