<svg xmlns="http://www.w3.org/2000/svg" width="59.333" height="59.333" viewBox="0 0 59.333 59.333">
  <g id="edit_3_" data-name="edit (3)" transform="translate(0 -0.004)">
    <g id="Group_2526" data-name="Group 2526" transform="translate(0 4.242)">
      <g id="Group_2525" data-name="Group 2525">
        <path id="Path_4617" data-name="Path 4617" d="M48.738,59.565a2.119,2.119,0,0,0-2.119,2.119v21.19A2.119,2.119,0,0,1,44.5,84.994H6.357a2.119,2.119,0,0,1-2.119-2.119V40.494a2.119,2.119,0,0,1,2.119-2.119H31.785a2.119,2.119,0,1,0,0-4.238H6.357A6.357,6.357,0,0,0,0,40.494v42.38a6.357,6.357,0,0,0,6.357,6.357H44.5a6.357,6.357,0,0,0,6.357-6.357V61.684A2.119,2.119,0,0,0,48.738,59.565Z" transform="translate(0 -34.137)" fill="#ff5a5f"/>
      </g>
    </g>
    <g id="Group_2528" data-name="Group 2528" transform="translate(12.715 0.004)">
      <g id="Group_2527" data-name="Group 2527">
        <path id="Path_4618" data-name="Path 4618" d="M146.652,2.38a8.111,8.111,0,0,0-11.473,0l-27.912,27.91a2.142,2.142,0,0,0-.511.829l-4.238,12.714a2.119,2.119,0,0,0,2.009,2.789,2.152,2.152,0,0,0,.67-.108l12.714-4.238a2.119,2.119,0,0,0,.829-.513l27.912-27.912A8.112,8.112,0,0,0,146.652,2.38Zm-3,8.477L116.107,38.4l-8.23,2.748,2.74-8.22L138.175,5.386a3.872,3.872,0,1,1,5.48,5.471Z" transform="translate(-102.409 -0.004)" fill="#ff5a5f"/>
      </g>
    </g>
  </g>
</svg>
