<?xml version="1.0" encoding="utf-8"?>
<!-- Generator: Adobe Illustrator 22.0.0, SVG Export Plug-In . SVG Version: 6.00 Build 0)  -->
<svg version="1.1" id="Layer_1" xmlns="http://www.w3.org/2000/svg" xmlns:xlink="http://www.w3.org/1999/xlink" x="0px" y="0px"
	 viewBox="0 0 50 50" style="enable-background:new 0 0 50 50;" xml:space="preserve">
<g id="edit_3_" transform="translate(0 -0.004)">
	<g id="Group_2526" transform="translate(0 4.242)">
		<g id="Group_2525">
			<path id="Path_4617" d="M40.7,20.8c-1,0-1.7,0.8-1.7,1.7V40c0,1-0.8,1.8-1.7,1.8c0,0,0,0,0,0H5.7C4.8,41.8,4,41,4,40l0,0V5
				c0-1,0.8-1.7,1.7-1.7h21c1,0,1.8-0.8,1.8-1.7c0-1-0.8-1.8-1.7-1.8c0,0,0,0,0,0h-21C2.9-0.2,0.5,2.1,0.5,5v35
				c0,2.9,2.4,5.2,5.2,5.2c0,0,0,0,0,0h31.5c2.9,0,5.2-2.4,5.2-5.2l0,0V22.5C42.5,21.5,41.7,20.8,40.7,20.8z"/>
		</g>
	</g>
	<g id="Group_2528" transform="translate(12.715 0.004)">
		<g id="Group_2527">
			<path id="Path_4618" d="M34.8,2.5c-2.6-2.6-6.9-2.6-9.5,0c0,0,0,0,0,0l-23.1,23c-0.2,0.2-0.3,0.4-0.4,0.7l-3.5,10.5
				c-0.3,0.9,0.2,1.9,1.1,2.2C-0.3,39-0.2,39,0,39c0.2,0,0.4,0,0.6-0.1l10.5-3.5c0.3-0.1,0.5-0.2,0.7-0.4l23.1-23.1
				C37.4,9.3,37.4,5.1,34.8,2.5z M32.3,9.5L9.6,32.2l-6.8,2.3l2.3-6.8L27.8,4.9c1.2-1.3,3.3-1.3,4.5-0.1S33.6,8.2,32.3,9.5
				C32.4,9.4,32.4,9.4,32.3,9.5L32.3,9.5z"/>
		</g>
	</g>
</g>
</svg>
