<?xml version="1.0" encoding="utf-8"?>
<!-- Generator: Adobe Illustrator 22.0.0, SVG Export Plug-In . SVG Version: 6.00 Build 0)  -->
<svg version="1.1" id="Layer_1" xmlns="http://www.w3.org/2000/svg" xmlns:xlink="http://www.w3.org/1999/xlink" x="0px" y="0px"
	 viewBox="0 0 50 50" style="enable-background:new 0 0 50 50;" xml:space="preserve">
<g id="favorite" transform="translate(0 -3.81)">
	<g id="Group_69005" transform="translate(3.639 3.81)">
		<g id="Group_69004">
			<path id="Path_21041" d="M42.1,19.8c1.3-1.2,1.3-3.3,0.1-4.6c-0.5-0.5-1.1-0.8-1.8-0.9l-10.7-1.6c-0.2,0-0.4-0.2-0.5-0.4
				l-4.8-9.7c-0.8-1.6-2.7-2.3-4.3-1.5c-0.6,0.3-1.2,0.8-1.5,1.5l-4.8,9.7c-0.1,0.2-0.3,0.3-0.5,0.4L2.5,14.3
				c-1.8,0.3-3,1.9-2.7,3.7c0.1,0.7,0.4,1.4,0.9,1.8l7.8,7.6c0.2,0.1,0.2,0.4,0.2,0.6L6.8,38.6c-0.3,1.8,0.9,3.4,2.6,3.7
				c0.7,0.1,1.4,0,2-0.3l9.6-5c0.2-0.1,0.4-0.1,0.6,0l9.6,5c1.6,0.8,3.5,0.2,4.4-1.4c0.3-0.6,0.4-1.3,0.3-2l-1.8-10.7
				c0-0.2,0-0.4,0.2-0.6L42.1,19.8z M31.6,28.4l1.8,10.7c0.1,0.4-0.2,0.7-0.5,0.7c-0.1,0-0.3,0-0.4-0.1l-9.6-5c-0.9-0.5-2.1-0.5-3,0
				l-9.6,5c-0.3,0.2-0.7,0-0.9-0.3c-0.1-0.1-0.1-0.3-0.1-0.4l1.8-10.7c0.2-1-0.2-2.1-0.9-2.9L2.5,18c-0.3-0.2-0.3-0.7,0-0.9
				c0.1-0.1,0.2-0.2,0.4-0.2l10.7-1.6c1.1-0.2,2-0.8,2.4-1.8l4.8-9.7c0.2-0.3,0.5-0.5,0.9-0.3c0.1,0.1,0.2,0.2,0.3,0.3l0,0l4.8,9.7
				c0.5,1,1.4,1.6,2.4,1.8l10.7,1.6c0.4,0.1,0.6,0.4,0.5,0.7c0,0.1-0.1,0.3-0.2,0.4l-7.8,7.6C31.7,26.3,31.4,27.3,31.6,28.4z"/>
		</g>
	</g>
	<g id="Group_69007" transform="translate(46.512 5.808)">
		<g id="Group_69006" transform="translate(0 0)">
			<path id="Path_21042" d="M-6.4,0.7C-7,0.2-7.8,0.4-8.2,1l-1.4,1.9C-10,3.4-9.9,4.2-9.3,4.6c0.6,0.4,1.4,0.3,1.8-0.3l1.4-1.9
				C-5.7,1.9-5.8,1.1-6.4,0.7C-6.4,0.7-6.4,0.7-6.4,0.7z"/>
		</g>
	</g>
	<g id="Group_69009" transform="translate(11.393 5.798)">
		<g id="Group_69008" transform="translate(0 0)">
			<path id="Path_21043" d="M1.7,2.8L0.3,1c-0.4-0.6-1.2-0.7-1.8-0.3s-0.7,1.2-0.3,1.8l1.4,1.9C0,4.9,0.8,5.1,1.4,4.7
				C2,4.2,2.1,3.4,1.7,2.8C1.7,2.8,1.7,2.8,1.7,2.8L1.7,2.8z"/>
		</g>
	</g>
	<g id="Group_69011" transform="translate(0 39.947)">
		<g id="Group_69010">
			<path id="Path_21044" d="M5.3-6.3C5-7,4.3-7.3,3.6-7.1c0,0,0,0,0,0L1.4-6.4C0.7-6.2,0.3-5.4,0.6-4.8c0.2,0.7,0.9,1.1,1.6,0.9
				c0,0,0,0,0,0l2.2-0.7C5.1-4.9,5.5-5.6,5.3-6.3C5.3-6.3,5.3-6.3,5.3-6.3z"/>
		</g>
	</g>
	<g id="Group_69013" transform="translate(29.839 59.547)">
		<g id="Group_69012">
			<path id="Path_21045" d="M-4.8-11.5c-0.7,0-1.3,0.6-1.3,1.3v2.3c0,0.7,0.6,1.3,1.3,1.3s1.3-0.6,1.3-1.3v-2.3
				C-3.5-10.9-4.1-11.5-4.8-11.5z"/>
		</g>
	</g>
	<g id="Group_69015" transform="translate(56.821 39.949)">
		<g id="Group_69014">
			<path id="Path_21046" d="M-8.2-6.4l-2.2-0.7c-0.7-0.2-1.4,0.2-1.6,0.9c-0.2,0.7,0.2,1.4,0.8,1.6L-9-3.9c0.7,0.2,1.4-0.2,1.6-0.9
				C-7.2-5.4-7.5-6.2-8.2-6.4z"/>
		</g>
	</g>
</g>
</svg>
