<svg xmlns="http://www.w3.org/2000/svg" width="718.788" height="603.2" viewBox="0 0 718.788 603.2">
  <g id="Character_2" transform="translate(-17.838 -29.71)">
    <g id="Group_10857" data-name="Group 10857" transform="translate(17.838 29.71)">
      <g id="Group_10845" data-name="Group 10845">
        <path id="Path_4667" data-name="Path 4667" d="M543.11,54.812S432.062.065,310.714,52.272,116.7,227.945,55.177,326.435c-61.38,98.49-45.435,207.844,35.7,266.4s148.44-5.785,270.635,4.939c122.054,10.865,152.814,32.03,261.886-24.834S769.72,355.784,704.249,226.252C638.636,96.72,543.11,54.812,543.11,54.812Z" transform="translate(-17.838 -29.71)" fill="#ffdee0"/>
        <path id="Path_4668" data-name="Path 4668" d="M543.11,54.812S432.062.065,310.714,52.272,116.7,227.945,55.177,326.435c-61.38,98.49-45.435,207.844,35.7,266.4s148.44-5.785,270.635,4.939c122.054,10.865,152.814,32.03,261.886-24.834S769.72,355.784,704.249,226.252C638.636,96.72,543.11,54.812,543.11,54.812Z" transform="translate(-17.838 -29.71)" fill="#ffdee0" opacity="0.7"/>
      </g>
      <g id="Group_10846" data-name="Group 10846" transform="translate(65.769 344.377)">
        <path id="Path_4669" data-name="Path 4669" d="M126.875,303.745a56.828,56.828,0,0,0-1.129-5.644c-1.27-3.81-5.785-10.3-10.159-10.3a5.272,5.272,0,0,0-5.08,5.926c.282,3.1,3.1,5.785,5.644,7.337C119.115,302.9,126.875,303.745,126.875,303.745Z" transform="translate(-45.527 -268.005)" fill="#f45d6f"/>
        <path id="Path_4670" data-name="Path 4670" d="M152.54,274.094c-4.233,1.552-6.209,9.172-6.067,13.123,0,.282.847,5.644.847,5.644h.141c-.282,1.27-.706,2.54-.988,3.951-.564,2.681-1.27,5.644-1.834,9.031a80.723,80.723,0,0,0-1.129,10.724,71.266,71.266,0,0,0,.423,12.135v.141c-.564-1.129-2.117-4.374-2.4-4.656-2.117-3.245-8.325-8.466-12.558-7.2a5.179,5.179,0,0,0-3.245,7.055c1.129,2.963,4.515,4.8,7.337,5.5,3.245.847,10.3-.141,10.865-.282a98.943,98.943,0,0,0,2.681,12.135c.706,2.258,1.411,4.656,2.117,6.914a11.4,11.4,0,0,1-.988-1.975c-2.117-3.245-8.325-8.466-12.558-7.2a5.179,5.179,0,0,0-3.245,7.055c1.129,2.963,4.515,4.8,7.337,5.5,2.822.847,9.031,0,10.583-.141.282.847.564,1.834.847,2.681,1.411,4.233,2.963,8.466,4.233,12.558.423,1.411.847,2.963,1.27,4.374l-.847-1.693c-2.117-3.245-8.325-8.466-12.558-7.2a5.179,5.179,0,0,0-3.245,7.055c1.129,2.963,4.515,4.8,7.337,5.5,2.681.847,8.325.141,10.3-.141.423,1.552.706,2.963.988,4.515.141.988.423,1.975.564,2.963l.423,2.963c.141,1.975.423,3.951.564,5.785.141,1.27.141,2.54.282,3.81-.423-1.411-1.411-4.374-1.552-4.515a21.525,21.525,0,0,0-6.773-7.761,2.274,2.274,0,0,0-.564-.988,5.349,5.349,0,0,0-7.761-1.27c-3.386,2.822-2.54,10.865-.988,14.534.141.282,1.27,2.4,2.117,3.81-.564-.706-1.129-1.411-1.834-2.258-1.27-1.552-2.54-2.963-3.81-4.515-.706-.706-1.411-1.552-2.117-2.258l-2.258-2.258c-1.834-1.693-3.669-3.387-5.644-4.939,1.27-1.129,5.926-4.939,7.2-7.62s2.258-6.35.847-9.172c-1.411-2.681-4.8-4.092-7.478-2.4-3.81,2.4-4.092,10.3-3.1,14.11,0,.282,1.129,2.963,1.693,4.374a34.346,34.346,0,0,0-3.528-2.822c-3.528-2.681-7.055-5.362-10.724-7.9-1.129-.847-2.258-1.693-3.245-2.4.423-.423,6.067-4.939,7.478-7.9,1.27-2.681,2.258-6.35.847-9.172-1.411-2.681-4.8-4.092-7.478-2.4-3.81,2.4-4.092,10.3-3.1,14.11.141.282,1.552,4.092,1.975,5.08-2.4-1.834-4.8-3.669-7.055-5.5a96.664,96.664,0,0,1-8.748-8.184c.282-.141,6.067-4.8,7.62-7.9,1.27-2.681,2.258-6.35.847-9.172-1.411-2.681-4.8-4.092-7.478-2.4-3.81,2.4-4.092,10.3-3.1,14.11a41.4,41.4,0,0,0,1.693,4.515c-.141.141-.141,0-.282.141a63.039,63.039,0,0,1-7.2-9.595,54.167,54.167,0,0,1-3.1-5.5c1.129-.706,6.491-4.233,8.184-6.914,1.552-2.54,2.963-6.067,1.834-9.03a5.158,5.158,0,0,0-7.055-3.1c-3.951,1.975-5.221,9.736-4.656,13.687,0,.282.564,2.4.988,3.951l-1.27-2.54c-1.411-2.963-2.54-5.926-3.669-8.325-.564-1.411-.988-2.822-1.411-3.951.706-1.411,3.81-6.773,4.092-9.877.282-2.963-.141-6.773-2.54-8.889a5.185,5.185,0,0,0-7.761.423c-2.681,3.528-.141,11.147,2.117,14.393.141.282,3.81,4.233,3.81,4.233v-.141c.423,1.129.847,2.54,1.27,3.81.988,2.54,1.975,5.5,3.386,8.466a88.783,88.783,0,0,0,4.939,9.595,57.724,57.724,0,0,0,7.055,9.877l.141.141a43.7,43.7,0,0,0-4.515-2.54c-3.669-1.552-11.57-2.4-14.534.847-2.117,2.4-1.27,5.926,1.129,7.761,2.54,1.834,6.35,1.411,9.172.564,3.1-.988,8.466-5.785,8.889-6.208a85.827,85.827,0,0,0,8.889,8.607c1.834,1.552,3.669,3.1,5.644,4.656-.988-.564-1.834-.988-1.975-1.129-3.669-1.552-11.57-2.4-14.534.847-2.117,2.4-1.27,5.926,1.129,7.761,2.54,1.834,6.35,1.411,9.172.564s7.478-4.939,8.748-6.067c.706.564,1.411,1.129,2.258,1.693,3.528,2.681,7.055,5.362,10.442,8.184,1.27.988,2.4,1.975,3.528,2.963-.847-.564-1.552-.847-1.693-.988-3.669-1.552-11.57-2.4-14.534.847-2.117,2.4-1.27,5.926,1.129,7.761,2.54,1.834,6.35,1.411,9.172.564,2.681-.847,7.055-4.515,8.466-5.785,1.129.988,2.258,2.117,3.386,3.245.706.706,1.411,1.411,2.117,2.258a28.249,28.249,0,0,1,1.975,2.258c1.27,1.552,2.54,3.1,3.669,4.515.847.988,1.552,1.975,2.4,3.1-1.129-.988-3.528-2.822-3.81-2.963-3.386-2.117-11.006-4.092-14.392-1.27a5.185,5.185,0,0,0,0,7.761c2.258,2.117,6.067,2.4,9.031,1.975,3.245-.564,9.031-4.233,9.736-4.8,1.27,1.693,2.54,3.245,3.669,4.8,3.951,5.362,6.914,10.018,9.031,13.4a.437.437,0,0,1,.141.282l2.681-1.27a3.084,3.084,0,0,1-.423-.706c-2.117-3.245-5.362-7.9-9.454-13.264-1.27-1.693-2.681-3.528-4.092-5.362a54.515,54.515,0,0,0,4.233-5.221c3.1,1.27,9.595,1.27,10.442,1.27.141,2.117.282,4.092.282,6.067.282,6.632.282,12.276.141,16.086v.423l2.963-1.411c0-3.81-.141-9.031-.564-15.239-.141-2.116-.282-4.374-.564-6.773.847-.141,7.62-1.975,10.159-3.951,2.258-1.834,4.8-4.8,4.656-7.9s-2.54-5.644-5.785-5.221c-4.374.564-8.043,7.62-8.748,11.57,0,.282-.282,2.822-.282,4.374-.141-.988-.141-1.834-.282-2.822-.141-1.975-.423-3.81-.706-5.926l-.423-2.963c-.141-.988-.423-2.117-.564-3.1-.564-2.4-1.129-4.8-1.834-7.2,1.693-.141,7.761-.847,10.3-2.4,2.54-1.411,5.362-4.092,5.785-7.2a5.21,5.21,0,0,0-4.939-6.067c-4.374-.141-9.172,6.35-10.442,10.018-.141.282-.706,2.963-.988,4.515-.423-1.411-.847-2.963-1.411-4.374-1.411-4.233-2.963-8.325-4.515-12.558-.423-1.27-.988-2.54-1.411-3.81.564,0,7.761-.705,10.583-2.4,2.54-1.411,5.362-4.092,5.785-7.2a5.21,5.21,0,0,0-4.939-6.067c-4.374-.141-9.172,6.35-10.442,10.018-.141.282-.988,4.233-1.129,5.362-.988-2.822-1.975-5.644-2.822-8.466-1.129-3.951-2.117-7.761-2.822-11.57.282,0,7.761-.705,10.724-2.4,2.54-1.411,5.362-4.092,5.785-7.2a5.21,5.21,0,0,0-4.939-6.067c-4.374-.141-9.172,6.35-10.442,10.018-.141.282-.847,3.245-1.129,4.8h-.282a70.063,70.063,0,0,1-.706-11.994c0-2.258.282-4.374.423-6.35,1.411,0,7.761,0,10.583-1.27,2.681-1.129,5.785-3.386,6.491-6.491a5.331,5.331,0,0,0-4.233-6.632c-4.374-.564-9.736,5.362-11.429,8.889a28.018,28.018,0,0,0-1.27,3.81c.141-.988.141-1.834.282-2.822.423-3.245,1.129-6.35,1.693-9.031.282-1.552.706-2.822.988-4.092,1.411-.705,6.914-3.669,8.889-5.926,1.834-2.258,3.528-5.785,2.822-8.748A4.21,4.21,0,0,0,152.54,274.094Z" transform="translate(-62.585 -273.771)" fill="#f45d6f"/>
        <path id="Path_4671" data-name="Path 4671" d="M74.4,325.682c3.528-.141,10.442-3.669,10.442-3.669.141,0-3.669-3.81-3.951-4.092-3.1-2.4-10.442-5.362-14.251-2.963-2.681,1.693-2.822,5.362-.847,7.761C67.625,325.118,71.435,325.824,74.4,325.682Z" transform="translate(-64.449 -257.207)" fill="#f45d6f"/>
      </g>
      <g id="Group_10847" data-name="Group 10847" transform="translate(279.189 403.27)">
        <path id="Path_4672" data-name="Path 4672" d="M380.226,378.287s-1.129-54.748-12.981-57.005c-11.712-2.258-10.583,82.4-10.583,82.4s-9.172-78.312-32.595-87.484-19.331,75.067.988,110.483c0,0-27.233-68.858-58.84-68.576s30.478,83.533,30.478,83.533-41.766-33.582-40.92-19.9c.988,13.687,14.957,21.589,14.957,21.589L215.7,424.992l187.666,73.091-40.638-20.6s52.349-4.8,44.024-18.2-41.484-4.374-41.484-4.374,63.778-31.748,62.367-53.619c-1.411-21.73-59.969,15.239-59.969,15.239s57.288-53.76,55.594-67.87C421.569,334.686,380.226,378.287,380.226,378.287Z" transform="translate(-215.7 -315.509)" fill="#f45d6f"/>
        <path id="Path_4673" data-name="Path 4673" d="M380.226,378.287s-1.129-54.748-12.981-57.005c-11.712-2.258-10.583,82.4-10.583,82.4s-9.172-78.312-32.595-87.484-19.331,75.067.988,110.483c0,0-27.233-68.858-58.84-68.576s30.478,83.533,30.478,83.533-41.766-33.582-40.92-19.9c.988,13.687,14.957,21.589,14.957,21.589L215.7,424.992l187.666,73.091-40.638-20.6s52.349-4.8,44.024-18.2-41.484-4.374-41.484-4.374,63.778-31.748,62.367-53.619c-1.411-21.73-59.969,15.239-59.969,15.239s57.288-53.76,55.594-67.87C421.569,334.686,380.226,378.287,380.226,378.287Z" transform="translate(-215.7 -315.509)" fill="#f45d6f" opacity="0.4"/>
      </g>
      <path id="Path_4674" data-name="Path 4674" d="M361.53,83.7H275.74l-3.527,6.632a22.3,22.3,0,0,1-38.944,0L229.741,83.7H143.95c-9.172,0-16.65,7.2-16.65,16.086V541.719c0,8.889,7.478,16.086,16.65,16.086H361.671c9.172,0,16.65-7.2,16.65-16.086V99.927A16.722,16.722,0,0,0,361.53,83.7Z" transform="translate(27.154 -7.518)" fill="#ffa1ac"/>
      <g id="Group_10848" data-name="Group 10848" transform="translate(370.764 82.532)">
        <rect id="Rectangle_1591" data-name="Rectangle 1591" width="17.356" height="9.454" fill="none" stroke="#263238" stroke-linecap="round" stroke-linejoin="round" stroke-miterlimit="10" stroke-width="0.911"/>
        <rect id="Rectangle_1592" data-name="Rectangle 1592" width="13.546" height="9.454" fill="#263238" stroke="#263238" stroke-linecap="round" stroke-linejoin="round" stroke-miterlimit="10" stroke-width="0.804"/>
        <rect id="Rectangle_1593" data-name="Rectangle 1593" width="2.399" height="4.233" transform="translate(17.214 2.681)" fill="#263238" stroke="#263238" stroke-linecap="round" stroke-linejoin="round" stroke-miterlimit="10" stroke-width="0.804"/>
      </g>
      <g id="Group_10849" data-name="Group 10849" transform="translate(168.705 81.403)">
        <rect id="Rectangle_1594" data-name="Rectangle 1594" width="3.104" height="5.503" transform="translate(0 4.092)" fill="#263238" stroke="#263238" stroke-linecap="round" stroke-linejoin="round" stroke-miterlimit="10" stroke-width="0.979"/>
        <rect id="Rectangle_1595" data-name="Rectangle 1595" width="3.104" height="7.337" transform="translate(5.08 2.258)" fill="#263238" stroke="#263238" stroke-linecap="round" stroke-linejoin="round" stroke-miterlimit="10" stroke-width="0.979"/>
        <rect id="Rectangle_1596" data-name="Rectangle 1596" width="3.104" height="9.595" transform="translate(10.018)" fill="#263238" stroke="#263238" stroke-linecap="round" stroke-linejoin="round" stroke-miterlimit="10" stroke-width="0.979"/>
      </g>
      <line id="Line_3" data-name="Line 3" x2="235.5" transform="translate(162.073 95.372)" fill="none" stroke="#263238" stroke-linecap="round" stroke-linejoin="round" stroke-miterlimit="10" stroke-width="1.109"/>
      <path id="Path_4675" data-name="Path 4675" d="M392.676,238.956a1.716,1.716,0,0,0,1.693-1.693V190.134a1.716,1.716,0,0,0-1.693-1.693h-4.515V98.276A22.552,22.552,0,0,0,365.584,75.7H144.476A22.552,22.552,0,0,0,121.9,98.276V562.645a22.552,22.552,0,0,0,22.576,22.576H365.443a22.552,22.552,0,0,0,22.576-22.576V279.452h4.515a1.716,1.716,0,0,0,1.693-1.693V256.735a1.716,1.716,0,0,0-1.693-1.693H388.02V238.956h4.656ZM380.4,545.149c0,8.889-7.478,16.086-16.65,16.086H146.17c-9.172,0-16.65-7.2-16.65-16.086V103.215c0-8.889,7.478-16.086,16.65-16.086h85.79l3.528,6.632a22.3,22.3,0,0,0,38.944,0l3.528-6.632h85.79c9.172,0,16.65,7.2,16.65,16.086Z" transform="translate(24.934 -10.806)" fill="#263238" stroke="#263238" stroke-linecap="round" stroke-linejoin="round" stroke-miterlimit="10" stroke-width="1.109"/>
      <path id="Path_4676" data-name="Path 4676" d="M223.853,87.226a5.926,5.926,0,1,0-5.926,5.926A5.872,5.872,0,0,0,223.853,87.226Z" transform="translate(61.968 -8.505)" fill="#fff" stroke="#263238" stroke-linecap="round" stroke-linejoin="round" stroke-miterlimit="10" stroke-width="1.109"/>
      <ellipse id="Ellipse_89" data-name="Ellipse 89" cx="280.089" cy="15.239" rx="280.089" ry="15.239" transform="translate(103.939 572.722)" fill="#f2818a"/>
      <path id="Path_4677" data-name="Path 4677" d="M170.01,134.1l-3.81-14.957h1.975l1.834,7.62c.423,1.834.847,3.669,1.129,5.221h0c.282-1.552.706-3.245,1.27-5.221l1.975-7.62h1.975l1.834,7.62a39.947,39.947,0,0,1,.988,5.08h0a46.316,46.316,0,0,1,1.27-5.221l1.975-7.62H184.4l-4.233,14.957h-1.975l-1.834-7.761a43.459,43.459,0,0,1-.988-4.939h0a47.113,47.113,0,0,1-1.129,4.939l-2.117,7.761H170.01Z" transform="translate(43.143 6.991)" fill="#fff"/>
      <path id="Path_4678" data-name="Path 4678" d="M181.234,127.926A3.334,3.334,0,0,0,184.9,131.6a7.3,7.3,0,0,0,2.963-.564l.282,1.411a8.933,8.933,0,0,1-3.528.706c-3.245,0-5.221-2.117-5.221-5.362S181.375,122,184.48,122c3.528,0,4.374,3.1,4.374,5.08v.847Zm5.785-1.411c0-1.27-.564-3.245-2.681-3.245-1.975,0-2.822,1.834-2.963,3.245Z" transform="translate(48.568 8.224)" fill="#fff"/>
      <path id="Path_4679" data-name="Path 4679" d="M187.8,118.5h1.975v15.8H187.8Z" transform="translate(52.021 6.786)" fill="#fff"/>
      <path id="Path_4680" data-name="Path 4680" d="M199.466,132.483a7.551,7.551,0,0,1-3.1.564,5.148,5.148,0,0,1-5.362-5.5,5.445,5.445,0,0,1,5.785-5.644,6.335,6.335,0,0,1,2.681.564l-.423,1.552a4.372,4.372,0,0,0-2.258-.564,3.781,3.781,0,0,0-3.81,4.092c0,2.54,1.552,4.092,3.669,4.092a4.981,4.981,0,0,0,2.4-.564Z" transform="translate(53.336 8.183)" fill="#fff"/>
      <path id="Path_4681" data-name="Path 4681" d="M208.483,127.5a5.249,5.249,0,0,1-5.362,5.644c-2.963,0-5.221-2.117-5.221-5.5,0-3.669,2.4-5.644,5.362-5.644C206.366,121.861,208.483,124.118,208.483,127.5Zm-8.466,0c0,2.4,1.411,4.092,3.245,4.092s3.245-1.693,3.245-4.233c0-1.834-.847-4.092-3.245-4.092S200.017,125.529,200.017,127.5Z" transform="translate(56.172 8.222)" fill="#fff"/>
      <path id="Path_4682" data-name="Path 4682" d="M207.241,125.145a19.872,19.872,0,0,0-.141-2.963h1.693l.141,1.693h0a3.673,3.673,0,0,1,3.386-1.975,3.369,3.369,0,0,1,3.1,2.117h0a3.089,3.089,0,0,1,1.27-1.411,4.373,4.373,0,0,1,2.4-.706c1.411,0,3.528.988,3.528,4.656v6.35h-1.975v-6.067c0-2.117-.705-3.245-2.4-3.245a2.413,2.413,0,0,0-2.258,1.834,2.092,2.092,0,0,0-.141.988v6.632h-1.975v-6.491c0-1.693-.706-2.963-2.258-2.963a2.574,2.574,0,0,0-2.4,1.975,2.092,2.092,0,0,0-.141.988v6.491H207.1v-7.9Z" transform="translate(59.954 8.183)" fill="#fff"/>
      <path id="Path_4683" data-name="Path 4683" d="M221.634,127.926A3.334,3.334,0,0,0,225.3,131.6a7.3,7.3,0,0,0,2.963-.564l.282,1.411a8.933,8.933,0,0,1-3.528.706c-3.245,0-5.221-2.117-5.221-5.362S221.775,122,224.88,122c3.528,0,4.374,3.1,4.374,5.08v.847Zm5.785-1.411c0-1.27-.564-3.245-2.681-3.245-1.975,0-2.822,1.834-2.963,3.245Z" transform="translate(65.174 8.224)" fill="#fff"/>
      <path id="Path_4684" data-name="Path 4684" d="M231.6,119.382a22.213,22.213,0,0,1,3.528-.282c1.975,0,3.245.282,4.092,1.129a2.937,2.937,0,0,1,1.27,2.681,3.565,3.565,0,0,1-2.54,3.245h0a3.978,3.978,0,0,1,3.1,3.81,4.13,4.13,0,0,1-1.27,2.963c-.988.988-2.681,1.411-5.221,1.411-1.27,0-2.4-.141-2.963-.141V119.382Zm1.975,6.067h1.693c1.975,0,3.245-1.129,3.245-2.54,0-1.693-1.27-2.4-3.245-2.4a4.869,4.869,0,0,0-1.693.141Zm0,7.2c.423,0,.988.141,1.552.141,1.975,0,3.81-.706,3.81-2.963,0-1.975-1.693-2.822-3.81-2.822h-1.552Z" transform="translate(70.024 7.032)" fill="#fff"/>
      <path id="Path_4685" data-name="Path 4685" d="M246.232,132.947l-.141-1.411h0a3.81,3.81,0,0,1-3.245,1.552,3.075,3.075,0,0,1-3.245-3.1c0-2.54,2.258-4.092,6.491-3.951v-.282a2.276,2.276,0,0,0-2.4-2.54,5.088,5.088,0,0,0-2.822.847l-.423-1.27a6.52,6.52,0,0,1,3.528-.988c3.245,0,4.092,2.258,4.092,4.374v4.092a13.715,13.715,0,0,0,.141,2.54h-1.975Zm-.282-5.5c-2.117,0-4.515.282-4.515,2.4a1.7,1.7,0,0,0,1.834,1.834,2.5,2.5,0,0,0,2.54-1.834c0-.141.141-.423.141-.564v-1.834Z" transform="translate(73.312 8.142)" fill="#fff"/>
      <path id="Path_4686" data-name="Path 4686" d="M255.566,132.483a7.551,7.551,0,0,1-3.1.564,5.148,5.148,0,0,1-5.362-5.5,5.445,5.445,0,0,1,5.785-5.644,6.335,6.335,0,0,1,2.681.564l-.423,1.552a4.372,4.372,0,0,0-2.258-.564,3.781,3.781,0,0,0-3.81,4.092c0,2.54,1.552,4.092,3.669,4.092a4.981,4.981,0,0,0,2.4-.564Z" transform="translate(76.395 8.183)" fill="#fff"/>
      <path id="Path_4687" data-name="Path 4687" d="M256.634,128.518h0c.282-.423.706-.847.988-1.27l3.1-3.669h2.4l-4.092,4.374,4.8,6.35h-2.4l-3.669-5.221-.988,1.129V134.3H254.8V118.5h1.975v10.018Z" transform="translate(79.56 6.786)" fill="#fff"/>
      <path id="Path_4688" data-name="Path 4688" d="M149.661,165.143h-5.785V170.5h6.491v1.552H141.9V157.1h8.043v1.552h-6.208v4.8h5.785v1.693Z" transform="translate(33.155 22.651)" fill="#fff"/>
      <path id="Path_4689" data-name="Path 4689" d="M149.641,163.145a19.866,19.866,0,0,0-.141-2.963h1.693l.141,1.693h0a3.673,3.673,0,0,1,3.386-1.975,3.369,3.369,0,0,1,3.1,2.117h0a3.088,3.088,0,0,1,1.27-1.411,4.373,4.373,0,0,1,2.4-.706c1.411,0,3.528.988,3.528,4.656v6.35h-1.975v-6.067c0-2.117-.706-3.245-2.4-3.245a2.413,2.413,0,0,0-2.258,1.834,2.092,2.092,0,0,0-.141.988v6.632h-1.975v-6.491c0-1.693-.705-2.963-2.258-2.963a2.574,2.574,0,0,0-2.4,1.975,2.092,2.092,0,0,0-.141.988v6.491H149.5v-7.9Z" transform="translate(36.279 23.802)" fill="#fff"/>
      <path id="Path_4690" data-name="Path 4690" d="M168.832,170.947l-.141-1.411h0a3.81,3.81,0,0,1-3.245,1.552,3.075,3.075,0,0,1-3.245-3.1c0-2.54,2.258-4.092,6.491-3.951v-.282a2.276,2.276,0,0,0-2.4-2.54,5.087,5.087,0,0,0-2.822.847l-.423-1.27a6.521,6.521,0,0,1,3.528-.988c3.245,0,4.092,2.258,4.092,4.374v4.092a13.717,13.717,0,0,0,.141,2.54h-1.975Zm-.282-5.5c-2.117,0-4.515.282-4.515,2.4a1.7,1.7,0,0,0,1.834,1.834,2.5,2.5,0,0,0,2.54-1.834c0-.141.141-.423.141-.564v-1.834Z" transform="translate(41.499 23.761)" fill="#fff"/>
      <path id="Path_4691" data-name="Path 4691" d="M172.5,158.37a1.184,1.184,0,0,1-1.27,1.27,1.152,1.152,0,0,1-1.129-1.27,1.265,1.265,0,0,1,1.27-1.27A1.152,1.152,0,0,1,172.5,158.37Zm-2.117,13.687V161.333h1.975v10.724Z" transform="translate(44.746 22.651)" fill="#fff"/>
      <path id="Path_4692" data-name="Path 4692" d="M174,156.5h1.975v15.8H174Z" transform="translate(46.349 22.405)" fill="#fff"/>
      <path id="Path_4693" data-name="Path 4693" d="M141.9,227.282a24.256,24.256,0,0,1,3.669-.282,6.074,6.074,0,0,1,4.233,1.27,3.94,3.94,0,0,1,1.27,3.1,4.761,4.761,0,0,1-1.129,3.245,5.958,5.958,0,0,1-4.515,1.693,5.291,5.291,0,0,1-1.552-.141v6.067H141.9Zm1.834,7.337a5.288,5.288,0,0,0,1.552.141c2.4,0,3.81-1.129,3.81-3.245,0-1.975-1.411-2.963-3.528-2.963a5.857,5.857,0,0,0-1.834.141Z" transform="translate(33.155 51.382)" fill="#fff"/>
      <path id="Path_4694" data-name="Path 4694" d="M155.932,240.947l-.141-1.411h0a3.81,3.81,0,0,1-3.245,1.552,3.075,3.075,0,0,1-3.245-3.1c0-2.54,2.258-4.092,6.491-3.951v-.282a2.276,2.276,0,0,0-2.4-2.54,5.088,5.088,0,0,0-2.822.847l-.423-1.27a6.52,6.52,0,0,1,3.528-.988c3.245,0,4.092,2.258,4.092,4.374v3.951a13.715,13.715,0,0,0,.141,2.54h-1.975Zm-.282-5.5c-2.117,0-4.515.282-4.515,2.4a1.7,1.7,0,0,0,1.834,1.834,2.5,2.5,0,0,0,2.54-1.834c0-.141.141-.423.141-.564v-1.834Z" transform="translate(36.196 52.533)" fill="#fff"/>
      <path id="Path_4695" data-name="Path 4695" d="M157.364,238.889a4.538,4.538,0,0,0,2.54.847c1.411,0,2.117-.706,2.117-1.552,0-.988-.564-1.411-1.975-1.975-1.975-.706-2.822-1.693-2.822-3.1,0-1.693,1.411-3.1,3.669-3.1a5.019,5.019,0,0,1,2.681.706l-.423,1.411a4.372,4.372,0,0,0-2.258-.564c-1.129,0-1.834.706-1.834,1.411,0,.847.706,1.27,1.975,1.834,1.834.706,2.822,1.693,2.822,3.245,0,1.834-1.411,3.245-4.092,3.245a6.126,6.126,0,0,1-2.963-.706Z" transform="translate(39.279 52.615)" fill="#fff"/>
      <path id="Path_4696" data-name="Path 4696" d="M163.564,238.889a4.538,4.538,0,0,0,2.54.847c1.411,0,2.117-.706,2.117-1.552,0-.988-.564-1.411-1.975-1.975-1.975-.706-2.822-1.693-2.822-3.1,0-1.693,1.411-3.1,3.669-3.1a5.019,5.019,0,0,1,2.681.706l-.423,1.411a4.371,4.371,0,0,0-2.258-.564c-1.129,0-1.834.706-1.834,1.411,0,.847.706,1.27,1.975,1.834,1.834.706,2.822,1.693,2.822,3.245,0,1.834-1.411,3.245-4.092,3.245a6.126,6.126,0,0,1-2.963-.706Z" transform="translate(41.828 52.615)" fill="#fff"/>
      <path id="Path_4697" data-name="Path 4697" d="M171.017,230.1l1.411,5.5c.282,1.27.564,2.258.847,3.386h0a30.64,30.64,0,0,1,.988-3.386l1.693-5.5h1.693l1.693,5.362c.423,1.27.706,2.4.988,3.528h0a18.181,18.181,0,0,1,.847-3.528l1.552-5.362H184.7l-3.528,10.724h-1.834l-1.693-5.08a32.944,32.944,0,0,1-.988-3.528h0a25.748,25.748,0,0,1-.988,3.528l-1.693,5.08h-1.834L168.9,230.1Z" transform="translate(44.253 52.656)" fill="#fff"/>
      <path id="Path_4698" data-name="Path 4698" d="M191.283,235.5a5.249,5.249,0,0,1-5.362,5.644c-2.963,0-5.221-2.117-5.221-5.5,0-3.669,2.4-5.644,5.362-5.644C189.166,229.861,191.283,232.118,191.283,235.5Zm-8.607,0c0,2.4,1.411,4.092,3.245,4.092s3.245-1.693,3.245-4.233c0-1.834-.847-4.092-3.245-4.092S182.675,233.529,182.675,235.5Z" transform="translate(49.103 52.613)" fill="#fff"/>
      <path id="Path_4699" data-name="Path 4699" d="M189.982,233.569a25.012,25.012,0,0,0-.141-3.386h1.693V232.3h.141a3.274,3.274,0,0,1,2.963-2.4h.564v1.834H194.5a2.741,2.741,0,0,0-2.681,2.54c0,.282-.141.564-.141.847v5.785H189.7v-7.337Z" transform="translate(52.802 52.574)" fill="#fff"/>
      <path id="Path_4700" data-name="Path 4700" d="M204.418,226.5v12.981a17.991,17.991,0,0,0,.141,2.822h-1.693l-.141-1.834h0a3.894,3.894,0,0,1-3.669,2.117c-2.54,0-4.656-2.258-4.656-5.5,0-3.528,2.258-5.785,4.8-5.785a3.524,3.524,0,0,1,3.245,1.693h0V226.5h1.975Zm-1.975,9.454a1.79,1.79,0,0,0-.141-.847,2.883,2.883,0,0,0-2.822-2.258c-1.975,0-3.245,1.834-3.245,4.092,0,2.117,1.129,3.951,3.245,3.951a2.846,2.846,0,0,0,2.822-2.4c0-.282.141-.564.141-.847Z" transform="translate(54.734 51.176)" fill="#fff"/>
      <path id="Path_4701" data-name="Path 4701" d="M339.044,212.954H153.494A11.984,11.984,0,0,1,141.5,200.96v-8.466A11.984,11.984,0,0,1,153.494,180.5h185.55a11.984,11.984,0,0,1,11.994,11.994v8.466A11.984,11.984,0,0,1,339.044,212.954Z" transform="translate(32.99 32.269)" fill="#fff"/>
      <path id="Path_4702" data-name="Path 4702" d="M339.044,282.954H153.494A11.984,11.984,0,0,1,141.5,270.96v-8.466A11.984,11.984,0,0,1,153.494,250.5h185.55a11.984,11.984,0,0,1,11.994,11.994v8.466A11.984,11.984,0,0,1,339.044,282.954Z" transform="translate(32.99 61.041)" fill="#fff"/>
      <rect id="Rectangle_1597" data-name="Rectangle 1597" width="70.551" height="28.221" transform="translate(237.987 375.037)" fill="#ff5a5f" stroke="#263238" stroke-miterlimit="10" stroke-width="1.109"/>
      <path id="Path_4703" data-name="Path 4703" d="M199.4,301.4h1.411v10.159h4.939v1.27H199.4Z" transform="translate(56.789 81.962)" fill="#fff"/>
      <path id="Path_4704" data-name="Path 4704" d="M212.443,307.733a4.075,4.075,0,0,1-4.092,4.374,3.934,3.934,0,0,1-3.951-4.233,4.083,4.083,0,0,1,4.092-4.374A4.01,4.01,0,0,1,212.443,307.733Zm-6.491.141c0,1.834.988,3.1,2.54,3.1,1.411,0,2.54-1.27,2.54-3.245,0-1.411-.705-3.1-2.4-3.1A2.987,2.987,0,0,0,205.952,307.874Z" transform="translate(58.844 82.826)" fill="#fff"/>
      <path id="Path_4705" data-name="Path 4705" d="M218.637,303.7v7.055a5.576,5.576,0,0,1-1.129,3.81,4.687,4.687,0,0,1-2.963.988,5.019,5.019,0,0,1-2.681-.706l.423-1.129a5.364,5.364,0,0,0,2.4.706,2.492,2.492,0,0,0,2.681-2.822v-.847h0a2.905,2.905,0,0,1-2.54,1.411,3.693,3.693,0,0,1-3.528-3.951c0-2.822,1.834-4.374,3.669-4.374a2.579,2.579,0,0,1,2.54,1.411h0v-1.27h1.129Zm-1.552,3.245a1.272,1.272,0,0,0-.141-.705,2.158,2.158,0,0,0-2.117-1.552c-1.411,0-2.4,1.27-2.4,3.1,0,1.552.847,2.963,2.4,2.963a2.381,2.381,0,0,0,2.117-1.552,1.79,1.79,0,0,0,.141-.847Z" transform="translate(61.68 82.908)" fill="#fff"/>
      <path id="Path_4706" data-name="Path 4706" d="M219.834,302.388c0,.564-.423.847-.988.847a.813.813,0,0,1-.847-.847.965.965,0,0,1,.988-.988A.944.944,0,0,1,219.834,302.388Zm-1.693,10.442v-8.184h1.552v8.184Z" transform="translate(64.434 81.962)" fill="#fff"/>
      <path id="Path_4707" data-name="Path 4707" d="M220.9,306v-2.258h1.27l.141,1.411h0a2.969,2.969,0,0,1,2.681-1.552c1.129,0,2.963.706,2.963,3.528v4.939H226.4V307.41c0-1.27-.423-2.4-1.834-2.4a2.116,2.116,0,0,0-1.975,1.552,6.109,6.109,0,0,0-.141.706v4.939H220.9V306Z" transform="translate(65.626 82.867)" fill="#fff"/>
      <path id="Path_4708" data-name="Path 4708" d="M155.017,414.179h-2.963l-6.914-8.184a2.437,2.437,0,0,1-.423-.564h0v8.748H142.6V396.4h2.117v8.325h0c.141-.141.282-.423.423-.564l6.632-7.761h2.54l-7.62,8.466Z" transform="translate(33.443 121.01)" fill="#fff"/>
      <path id="Path_4709" data-name="Path 4709" d="M167.492,414.22h-2.54l-9.172-14.11a4.226,4.226,0,0,1-.564-1.129h-.141c0,.423.141,1.129.141,2.4v12.84H153.1V396.441h2.681l8.89,13.969c.423.564.564.988.706,1.129h0a13.019,13.019,0,0,1-.141-2.681V396.3h2.117v17.92Z" transform="translate(37.758 120.969)" fill="#fff"/>
      <path id="Path_4710" data-name="Path 4710" d="M174.025,414.584a7.78,7.78,0,0,1-6.067-2.54,9.111,9.111,0,0,1-2.258-6.491,10.209,10.209,0,0,1,2.258-6.914c1.552-1.834,3.669-2.54,6.35-2.54a7.686,7.686,0,0,1,5.926,2.54,9.111,9.111,0,0,1,2.258,6.491c0,2.963-.706,5.221-2.258,6.914A7.88,7.88,0,0,1,174.025,414.584Zm.141-16.509a5.867,5.867,0,0,0-4.515,1.975,7.882,7.882,0,0,0-1.693,5.362,7.5,7.5,0,0,0,1.693,5.221,5.867,5.867,0,0,0,4.515,1.975,5.959,5.959,0,0,0,4.656-1.975,7.883,7.883,0,0,0,1.693-5.362,8.027,8.027,0,0,0-1.693-5.5A5.782,5.782,0,0,0,174.166,398.075Z" transform="translate(42.937 120.887)" fill="#fff"/>
      <path id="Path_4711" data-name="Path 4711" d="M179.5,413.515v-2.4a5.974,5.974,0,0,0,.988.706,5.011,5.011,0,0,0,1.27.564,4.12,4.12,0,0,0,1.27.282c.423,0,.847.141,1.27.141a4.853,4.853,0,0,0,2.822-.706,2.548,2.548,0,0,0,.988-2.117,4.12,4.12,0,0,0-.282-1.27c-.141-.423-.564-.706-.847-.988l-1.27-.847a18.89,18.89,0,0,0-1.693-.847,10.525,10.525,0,0,1-1.693-.988,12.347,12.347,0,0,1-1.411-1.129,7.755,7.755,0,0,1-.988-1.27,3.308,3.308,0,0,1-.282-1.693,3.4,3.4,0,0,1,.564-2.116,4.485,4.485,0,0,1,1.411-1.411,8.342,8.342,0,0,1,1.975-.847,12.352,12.352,0,0,1,2.258-.282,9.008,9.008,0,0,1,3.81.564v2.4a7.035,7.035,0,0,0-4.092-1.129,5.292,5.292,0,0,0-1.411.141,13.329,13.329,0,0,0-1.27.423,1.272,1.272,0,0,0-.847.847,3.37,3.37,0,0,0-.282,1.27,2.658,2.658,0,0,0,.282,1.129,3.741,3.741,0,0,0,.706.847,4.923,4.923,0,0,0,1.27.847,18.892,18.892,0,0,0,1.693.847c.706.282,1.27.706,1.834.988a6.265,6.265,0,0,1,1.552,1.129,5.068,5.068,0,0,1,.988,1.411,3.757,3.757,0,0,1,.423,1.693,4.14,4.14,0,0,1-.564,2.258,3.4,3.4,0,0,1-1.411,1.411,8.341,8.341,0,0,1-1.975.847,12.426,12.426,0,0,1-2.4.282h-.988c-.423,0-.847-.141-1.27-.141-.423-.141-.847-.141-1.27-.282Z" transform="translate(48.609 120.969)" fill="#fff"/>
      <path id="Path_4712" data-name="Path 4712" d="M203.1,414.179h-2.117v-8.043h-9.172v8.043H189.7V396.4h2.117v7.761h9.172V396.4H203.1Z" transform="translate(52.802 121.01)" fill="#fff"/>
      <g id="Group_10850" data-name="Group 10850" transform="translate(322.93 533.354)">
        <path id="Path_4713" data-name="Path 4713" d="M248.493,407.7,246.8,439.166s.988,2.258,2.963,2.54,43.46,0,43.46,0a10.648,10.648,0,0,0-.282-5.08,6.592,6.592,0,0,0-4.515-4.515c-2.117-.564-16.509-7.055-17.779-7.62s-1.975-8.889-1.975-8.889Z" transform="translate(-246.659 -407.7)" fill="#fff" stroke="#263238" stroke-miterlimit="10" stroke-width="1.109"/>
        <path id="Path_4714" data-name="Path 4714" d="M293.123,433.156a11.385,11.385,0,0,0,0-3.386c-8.607-.282-36.969-.988-46.282-1.27l-.141,1.975s.988,2.258,2.963,2.54C251.639,433.58,293.123,433.156,293.123,433.156Z" transform="translate(-246.7 -399.151)" fill="#fff" stroke="#263238" stroke-miterlimit="10" stroke-width="1.109"/>
      </g>
      <path id="Path_4715" data-name="Path 4715" d="M257.1,296.714s3.528,77.183,3.1,79.582-13.4,81.134-13.4,81.134,11.429,6.35,17.073,7.478A110.369,110.369,0,0,0,277,466.461s18.2-74.079,19.049-78.453-9.172-98.207-9.172-98.207Z" transform="translate(76.272 77.194)" fill="#263238" stroke="#263238" stroke-miterlimit="10" stroke-width="1.109"/>
      <g id="Group_10851" data-name="Group 10851" transform="translate(319.518 525.029)">
        <path id="Path_4716" data-name="Path 4716" d="M258.7,401.8s-16.227,22.294-14.251,24.552,15.945,15.662,19.472,17.215,35.276,0,35.276,0a8.747,8.747,0,0,0,.564-2.822c0-1.411-.141-6.773-2.117-8.325s-16.368-8.325-16.791-9.313c-.564-.988-1.27-9.595-1.27-9.595Z" transform="translate(-244.282 -401.8)" fill="#fff" stroke="#263238" stroke-miterlimit="10" stroke-width="1.109"/>
        <path id="Path_4717" data-name="Path 4717" d="M299.157,438.082a8.748,8.748,0,0,0,.564-2.822v-.705l-22.012.847s-6.773.988-10.441-1.975c-3.1-2.54-16.509-14.675-20.742-18.626-1.693,2.963-2.54,5.221-1.975,5.926,1.975,2.258,15.945,15.662,19.472,17.214C267.409,439.775,299.157,438.082,299.157,438.082Z" transform="translate(-244.243 -396.457)" fill="#fff" stroke="#263238" stroke-miterlimit="10" stroke-width="1.109"/>
      </g>
      <path id="Path_4718" data-name="Path 4718" d="M246,270.762s2.4,23,4.374,26.527,5.08,9.172,5.08,9.172l30.055,84.379-30.9,68.153s22.576,14.675,27.374,16.227,6.35,1.552,6.35,1.552,36.4-85.085,36.4-91.011-25.4-91.011-25.4-91.011l1.552-29.349Z" transform="translate(75.943 67.165)" fill="#263238" stroke="#263238" stroke-miterlimit="10" stroke-width="1.109"/>
      <path id="Path_4719" data-name="Path 4719" d="M267.3,275.433l16.65,6.773L270.122,271.2l9.454,4.233" transform="translate(84.698 69.549)" fill="none" stroke="#696969" stroke-linecap="round" stroke-linejoin="round" stroke-miterlimit="10" stroke-width="1.109"/>
      <path id="Path_4720" data-name="Path 4720" d="M263.007,315.2l19.049,55.03L254.4,434.008" transform="translate(79.395 87.634)" fill="none" stroke="#696969" stroke-miterlimit="10" stroke-width="1.109"/>
      <line id="Line_4" data-name="Line 4" x2="1.975" y2="5.785" transform="translate(338.593 391.687)" fill="none" stroke="#696969" stroke-miterlimit="10" stroke-width="1.109"/>
      <g id="Group_10852" data-name="Group 10852" transform="translate(395.316 264.536)">
        <path id="Path_4721" data-name="Path 4721" d="M301.245,247.966s9.313-8.748,11.288-9.877c1.834-1.129,9.6-3.386,10.159-5.926.564-2.681-.141-15.521-.988-14.957-.706.564-10.724,14.675-10.724,14.675L298,242.039Z" transform="translate(-298 -217.187)" fill="#fff" stroke="#263238" stroke-miterlimit="10" stroke-width="1.109"/>
        <line id="Line_5" data-name="Line 5" x1="1.129" y2="8.607" transform="translate(15.38 10.319)" fill="#fff" stroke="#263238" stroke-miterlimit="10" stroke-width="1.109"/>
        <line id="Line_6" data-name="Line 6" x2="0.282" y2="10.442" transform="translate(19.613 5.944)" fill="#fff" stroke="#263238" stroke-miterlimit="10" stroke-width="1.109"/>
        <path id="Path_4722" data-name="Path 4722" d="M314.018,218.8s-.141,11.006,0,12.135" transform="translate(-291.442 -216.524)" fill="#fff" stroke="#263238" stroke-miterlimit="10" stroke-width="1.109"/>
        <path id="Path_4723" data-name="Path 4723" d="M315.964,228.477s3.245-3.951,2.4-6.491A4.853,4.853,0,0,0,315.4,218.6Z" transform="translate(-290.848 -216.607)" fill="#fff" stroke="#263238" stroke-miterlimit="10" stroke-width="1.109"/>
      </g>
      <path id="Path_4724" data-name="Path 4724" d="M305.254,231.8c.564.423,5.08,7.337,5.08,7.337l-5.644,7.478s2.822,5.221,1.129,6.491-15.662,8.607-15.662,8.607L285.5,242.806s10.442-6.491,11.006-6.35a5.431,5.431,0,0,1,1.552,1.129Z" transform="translate(92.178 53.355)" fill="#ff5a5f" stroke="#263238" stroke-miterlimit="10" stroke-width="1.109"/>
      <path id="Path_4725" data-name="Path 4725" d="M303.7,238.59,305.675,240l20.6-29.49-1.834-1.411Z" transform="translate(99.659 44.025)" fill="#263238" stroke="#263238" stroke-miterlimit="10" stroke-width="1.109"/>
      <path id="Path_4726" data-name="Path 4726" d="M271.307,191.5c-1.129.564-17.5,20.319-23.564,28.079s-5.5,20.319-5.221,27.233-2.822,57.993-2.822,57.993,24.975-1.975,39.932-3.386,36.122-2.822,36.122-2.822-6.067-26.386-8.889-38.239c-2.822-11.712-7.478-28.644-10.583-36.687a105.731,105.731,0,0,0-7.761-15.521Z" transform="translate(73.353 36.791)" fill="#ff5a5f"/>
      <path id="Path_4727" data-name="Path 4727" d="M271.074,183.621s18.908,18.626,18.343,21.307c-.564,2.54-3.669,4.374-3.669,4.374s.847,5.221-.564,6.35a7.549,7.549,0,0,1-3.1,1.411s-18.061-18.767-20.46-21.73c-2.258-2.822-.564-4.374.847-4.939a17.5,17.5,0,0,1,3.1-.847S267.688,182.775,271.074,183.621Z" transform="translate(81.911 33.522)" fill="#ff5a5f" stroke="#263238" stroke-miterlimit="10" stroke-width="1.109"/>
      <g id="Group_10853" data-name="Group 10853" transform="translate(380.359 267.905)">
        <path id="Path_4728" data-name="Path 4728" d="M287.4,248.96s8.466-20.319,9.031-21.73c.564-1.552,2.681-3.81,4.515-4.092s15.38-3.245,16.65-3.528c1.129-.282,2.116,1.129-1.129,3.245s-11.288,2.963-11.288,2.963l-1.129,8.889s8.043-6.208,8.043-2.963-5.926,5.362-6.773,5.644-3.245,4.092-4.092,4.8a27.3,27.3,0,0,1-4.092,1.552s-.564,3.528-1.834,4.8c-1.129,1.129-6.491,5.08-6.491,5.08Z" transform="translate(-287.4 -219.575)" fill="#fff" stroke="#263238" stroke-miterlimit="10" stroke-width="1.109"/>
        <path id="Path_4729" data-name="Path 4729" d="M293.8,226.133s3.386-4.233,3.951-4.233,6.491,5.221,6.914,5.5-2.258,4.8-2.681,5.362c-.423.706-.564,1.27-1.693.847a8.168,8.168,0,0,1-2.117-1.27" transform="translate(-284.769 -218.619)" fill="#fff" stroke="#263238" stroke-miterlimit="10" stroke-width="1.109"/>
        <path id="Path_4730" data-name="Path 4730" d="M293.2,228.633s3.81-4.233,4.374-4.233,5.221,3.81,5.221,4.515-.847,4.939-1.552,5.08a13.854,13.854,0,0,1-2.963-.282" transform="translate(-285.016 -217.591)" fill="#fff" stroke="#263238" stroke-miterlimit="10" stroke-width="1.109"/>
        <path id="Path_4731" data-name="Path 4731" d="M293.1,231.088a20.376,20.376,0,0,1,3.386-2.963c1.129-.564,3.669,1.834,5.08,2.822,1.552.988,3.386,1.552,2.54,2.54s-4.092-.423-4.8-.423a8.5,8.5,0,0,1-2.258-.706l-1.834,5.362" transform="translate(-285.057 -216.095)" fill="#fff" stroke="#263238" stroke-miterlimit="10" stroke-width="1.109"/>
      </g>
      <path id="Path_4732" data-name="Path 4732" d="M280.3,247.125l10.442-8.325,4.8,8.889-8.889,9.172C286.65,257,280.3,255.732,280.3,247.125Z" transform="translate(90.041 56.232)" fill="#ff5a5f" stroke="#263238" stroke-miterlimit="10" stroke-width="1.109"/>
      <g id="Group_10856" data-name="Group 10856" transform="translate(343.237 152.808)">
        <path id="Path_4733" data-name="Path 4733" d="M290.482,198.483l-9.172,10.3L267.2,191l8.325-9.736s4.939-5.221,7.761-4.656C286.249,177.318,290.482,198.483,290.482,198.483Z" transform="translate(-258.581 -122.154)" fill="#fff" stroke="#263238" stroke-miterlimit="10" stroke-width="1.109"/>
        <path id="Path_4734" data-name="Path 4734" d="M276.8,184.6l5.644,15.662,4.092-5.08Z" transform="translate(-254.635 -118.853)" fill="#263238" stroke="#263238" stroke-miterlimit="10" stroke-width="1.109"/>
        <path id="Path_4735" data-name="Path 4735" d="M282.128,196.838s-3.386,5.5-6.35,4.374-10.583-9.454-14.11-19.754c-3.386-10.3,9.172-11.994,11.147-16.086,1.975-3.951,3.669-4.656,6.632-18.626,2.822-14.11,34.993-8.607,39.932-1.129s3.951,22.435,17.5,17.5S364.955,153.1,368.2,165.09c3.1,11.994-7.2,26.668-3.386,31.889s15.8,1.411,14.957,6.35-7.2,8.043-5.221,9.172,13.264-4.656,10.018.564c-3.1,5.221-9.736,10.583-10.583,8.325s0-5.221-3.1-3.386c-3.1,1.693-12.7,8.607-16.65,4.939s1.129-17.215-5.5-18.626-22.718,3.1-28.079,3.386c-5.5.282-6.067-1.411-16.086-6.35C294.4,196.273,282.128,196.838,282.128,196.838Z" transform="translate(-261.092 -138.005)" fill="#263238" stroke="#263238" stroke-miterlimit="10" stroke-width="1.109"/>
        <g id="Group_10855" data-name="Group 10855" transform="translate(17.234 44.158)">
          <g id="Group_10854" data-name="Group 10854" transform="translate(4.664)">
            <path id="Path_4736" data-name="Path 4736" d="M278.007,175.932s16.932.847,27.8-1.975,14.675-4.656,14.675-4.656.282,11.147-2.54,14.392c-2.822,3.1-6.632,6.067-6.632,8.325s2.822,6.067,1.129,8.043-5.785,1.975-6.914,1.975-10.3,8.607-12.981,8.607c-2.54,0-15.521-17.215-15.8-19.754s0-9.172,0-9.172" transform="translate(-276.611 -169.3)" fill="#fff" stroke="#263238" stroke-miterlimit="10" stroke-width="1.109"/>
            <path id="Path_4737" data-name="Path 4737" d="M301.178,181.1l-3.1,3.669A5.524,5.524,0,0,1,293.7,181.1" transform="translate(-269.587 -164.45)" fill="none" stroke="#263238" stroke-miterlimit="10" stroke-width="1.109"/>
            <path id="Path_4738" data-name="Path 4738" d="M291.4,187.3s-.282,4.656,3.386,5.221" transform="translate(-270.534 -161.902)" fill="none" stroke="#263238" stroke-miterlimit="10" stroke-width="1.109"/>
            <path id="Path_4739" data-name="Path 4739" d="M296.5,177.8s5.221-1.693,7.478,2.54" transform="translate(-268.436 -165.945)" fill="none" stroke="#263238" stroke-miterlimit="10" stroke-width="1.109"/>
          </g>
          <path id="Path_4740" data-name="Path 4740" d="M283.739,179.742s-4.374-12.7-8.325-8.043-1.693,12.7,1.411,14.392a6.6,6.6,0,0,0,6.067,0" transform="translate(-273.306 -168.736)" fill="#fff" stroke="#263238" stroke-miterlimit="10" stroke-width="1.109"/>
        </g>
      </g>
      <path id="Path_4741" data-name="Path 4741" d="M249.134,214.826A130.51,130.51,0,0,0,247.3,235c0,10.159,4.092,59.686,6.208,62.367s10.442,5.08,13.969,2.681,34.429-22.294,34.711-25.54-4.8-15.1-6.773-16.086c-2.117-.847-3.81-.564-6.773,2.117s-10.724,7.2-10.724,7.2S275.8,229.783,273.4,220.47c-2.4-9.172-3.528-11.006-5.08-11.57" transform="translate(76.477 43.942)" fill="#ff5a5f" stroke="#263238" stroke-miterlimit="10" stroke-width="1.109"/>
    </g>
  </g>
</svg>
