<?xml version="1.0" encoding="utf-8"?>
<!-- Generator: Adobe Illustrator 22.0.0, SVG Export Plug-In . SVG Version: 6.00 Build 0)  -->
<svg version="1.1" id="Layer_1" xmlns="http://www.w3.org/2000/svg" xmlns:xlink="http://www.w3.org/1999/xlink" x="0px" y="0px"
	 viewBox="0 0 50 50" style="enable-background:new 0 0 50 50;" xml:space="preserve">
<g id="Group_68366" transform="translate(-66 -818.369)">
	<g id="logout_1_" transform="translate(66 818.369)">
		<path id="Path_4610" d="M47.9,26.6H17c-0.9,0-1.6-0.7-1.6-1.6c0-0.9,0.7-1.6,1.6-1.6c0,0,0.1,0,0.1,0h30.9c0.9,0,1.6,0.7,1.6,1.6
			C49.5,25.8,48.8,26.6,47.9,26.6C47.9,26.6,47.9,26.6,47.9,26.6L47.9,26.6z"/>
		<path id="Path_4611" d="M25.5,35.1c-0.4,0-0.8-0.2-1.1-0.5l-8.5-8.5c-0.6-0.6-0.6-1.6,0-2.3c0,0,0,0,0,0l8.5-8.5
			c0.6-0.6,1.6-0.6,2.3,0s0.6,1.6,0,2.3l0,0L19.3,25l7.4,7.4c0.6,0.6,0.6,1.6,0,2.3C26.3,34.9,25.9,35.1,25.5,35.1L25.5,35.1z"/>
		<path id="Path_4612" d="M23.9,48.4C11,48.4,0.5,37.9,0.5,25S11,1.6,23.9,1.6c9.6,0,18.3,5.9,21.8,14.8c0.3,0.8,0,1.7-0.8,2.1
			s-1.7,0-2.1-0.8c0,0,0-0.1,0-0.1C38.7,7.2,26.9,2.1,16.5,6.2S1,22,5.1,32.4s15.8,15.5,26.2,11.4c5.2-2.1,9.4-6.2,11.4-11.4
			c0.3-0.8,1.2-1.3,2-0.9c0.8,0.3,1.3,1.2,0.9,2c0,0,0,0,0,0.1C42.2,42.5,33.6,48.5,23.9,48.4z"/>
	</g>
</g>
</svg>
