<?xml version="1.0" encoding="utf-8"?>
<!-- Generator: Adobe Illustrator 22.0.0, SVG Export Plug-In . SVG Version: 6.00 Build 0)  -->
<svg version="1.1" id="Layer_1" xmlns="http://www.w3.org/2000/svg" xmlns:xlink="http://www.w3.org/1999/xlink" x="0px" y="0px"
	 viewBox="0 0 1023.1 830.1" style="enable-background:new 0 0 1023.1 830.1;" xml:space="preserve">
<style type="text/css">
	.st0{fill:url(#SVGID_1_);}
	.st1{fill:url(#SVGID_2_);}
	.st2{fill:#9BC1F9;}
	.st3{fill:url(#SVGID_3_);}
	.st4{fill:url(#SVGID_4_);}
	.st5{fill:url(#SVGID_5_);}
	.st6{fill:#FF3B3B;}
	.st7{fill:#50BFA5;}
	.st8{fill:url(#SVGID_6_);}
	.st9{fill:url(#SVGID_7_);}
	.st10{fill:url(#SVGID_8_);}
	.st11{fill:#F48C7F;}
	.st12{fill:url(#SVGID_9_);}
	.st13{fill:#FFF3D9;}
	.st14{fill:#FED333;}
	.st15{fill:#F7A491;}
	.st16{fill:#F47257;}
	.st17{fill:#F47458;}
	.st18{fill:#F8A492;}
	.st19{fill:#FF5A5F;}
	.st20{fill:#FF3E68;}
	.st21{fill:#13375B;}
	.st22{fill:#82C7E6;}
	.st23{fill:#B32323;}
	.st24{fill:#DEF0F8;}
</style>
<g>
	<linearGradient id="SVGID_1_" gradientUnits="userSpaceOnUse" x1="632.2083" y1="94.7638" x2="757.208" y2="94.7638">
		<stop  offset="0" style="stop-color:#FF928E"/>
		<stop  offset="1" style="stop-color:#FE7062"/>
	</linearGradient>
	<path class="st0" d="M642.6,137.3c0.2-0.5,4.3-7.6,9.7-15.3c24.9-35.8,61.7-70.3,104.9-69l0-0.3c-19.5-2.1-38.7,3.1-55.5,12.3
		C674,80,647,108.5,632.2,130.4L642.6,137.3z"/>
	<linearGradient id="SVGID_2_" gradientUnits="userSpaceOnUse" x1="734.6841" y1="43.2687" x2="802.749" y2="43.2687">
		<stop  offset="0" style="stop-color:#FF928E"/>
		<stop  offset="1" style="stop-color:#FE7062"/>
	</linearGradient>
	<path class="st1" d="M747.6,72.8l2.9-20.1l-14.9-13.8c-1.7-1.6-0.9-4.4,1.4-4.8l20.1-3.4l8.5-18.5c1-2.1,3.9-2.2,5-0.1l9.5,18
		l20.2,2.4c2.3,0.3,3.3,3.1,1.7,4.7l-14.2,14.6l4,20c0.5,2.3-1.9,4.1-4,3.1l-18.2-9l-17.8,9.9C749.7,76.8,747.3,75.1,747.6,72.8z"/>
	<polygon class="st2" points="354.4,36 351.7,45.8 359.7,52.5 355.9,63.4 366.6,67.9 362.9,80.4 372.2,85.7 370.6,98.3 365.9,97.7 
		367.1,88.3 357.2,82.6 360.8,70.6 349.9,66 354.1,54.1 346.3,47.5 348.7,38.4 342.7,35.2 345,30.9 	"/>
	<g>
		<g>
			<linearGradient id="SVGID_3_" gradientUnits="userSpaceOnUse" x1="74.6704" y1="669.7896" x2="137.2113" y2="669.7896">
				<stop  offset="0" style="stop-color:#FF928E"/>
				<stop  offset="1" style="stop-color:#FE7062"/>
			</linearGradient>
			<path class="st3" d="M129.2,648.9c11.5,12.9,10.4,32.6-2.4,44.2c-12.9,11.5-32.6,10.4-44.2-2.4c-11.5-12.9-10.4-32.6,2.4-44.2
				C97.9,635,117.7,636.1,129.2,648.9z"/>
			<linearGradient id="SVGID_4_" gradientUnits="userSpaceOnUse" x1="96.7988" y1="676.2581" x2="125.9662" y2="676.2581">
				<stop  offset="0" style="stop-color:#FF928E"/>
				<stop  offset="1" style="stop-color:#FE7062"/>
			</linearGradient>
			<path class="st4" d="M96.8,684.6c6.2,6.9,16.7,7.5,23.6,1.3c6.9-6.2,7.5-16.7,1.3-23.6L96.8,684.6z"/>
		</g>
	</g>
	<g>
		<linearGradient id="SVGID_5_" gradientUnits="userSpaceOnUse" x1="25.2653" y1="547.0414" x2="99.974" y2="547.0414">
			<stop  offset="0" style="stop-color:#FF928E"/>
			<stop  offset="1" style="stop-color:#FE7062"/>
		</linearGradient>
		<path class="st5" d="M95.2,570.6L87,566c-2.3,3.6-5,6.8-7.7,9.3c-2.2,2-5.6,2-7.8-0.1l-0.3-0.3c-2.4-2.3-2.3-6.2,0.1-8.4
			c2.5-2.2,5-5.1,6.9-8.4c2.8-4.9,2.8-9.3-0.6-11.3c-3.3-1.9-6.9-0.3-12.7,4.9c-8.3,7.4-16.2,11.3-24.5,6.6
			c-7.6-4.3-10.5-13-7.1-23.2l-8.2-4.6L30,522l7.6,4.3c1.9-3,3.8-5.4,5.6-7.2c2.2-2.2,5.8-2.3,8-0.1l0,0c2.3,2.2,2.3,6,0,8.2
			c-1.7,1.7-3.6,3.9-5.4,6.9c-3.2,5.6-1.8,8.8,0.6,10.1c2.8,1.6,6.4-0.4,13.2-6.1c9.4-8.2,16.5-9.6,24.2-5.2
			c7.7,4.3,11.1,13.5,7.2,24.3l8.8,5L95.2,570.6z"/>
	</g>
	<polygon class="st6" points="898.7,225.6 893.3,239.1 870.6,232.8 860.3,251.5 842.6,249.6 841.6,258.6 865.3,261.2 875.1,243.4 
		898.6,250 906.8,229.7 	"/>
	<g>
		<path class="st6" d="M859.5,703.1l4.7-11.8c-5.2-2.4-10-5.5-13.8-8.6c-3.1-2.6-3.7-7.2-1.3-10.5l0.3-0.4c2.7-3.6,7.8-4.2,11.2-1.3
			c3.5,3,7.7,5.8,12.5,7.7c7.1,2.8,13,2.1,15-2.9c1.9-4.7-0.9-9.3-8.8-16.1c-11.5-9.8-18-19.7-13.2-31.7
			c4.4-10.9,15.5-16.4,29.8-13.6l4.7-11.8l12.1,4.9l-4.4,10.9c4.4,2,7.9,4.1,10.7,6.2c3.4,2.5,4.1,7.3,1.6,10.7l0,0
			c-2.6,3.5-7.6,4.2-11,1.5c-2.6-2-5.9-4.2-10.3-5.9c-8.1-3.2-12.1-0.8-13.5,2.6c-1.6,4.1,1.6,8.4,10.6,16.7
			c12.7,11.1,15.9,20.4,11.4,31.5c-4.4,11-16.1,17.3-31.3,14l-5.1,12.6L859.5,703.1z"/>
	</g>
	<path class="st6" d="M198.4,295.8c1.2,1.6,1.1,3.8-0.2,5.3c-2.6,2.9-6.9,6.4-12.2,9c-7.8,3.8-16.8,5-25.2,2
		c-5.3-1.8-10.3-5.5-14.1-10.6l-4.6,2.2c-1.6,0.8-3.5,0.1-4.2-1.5l-0.1-0.1c-0.8-1.6-0.1-3.5,1.5-4.2l3.8-1.8
		c-0.8-1.2-1.3-2-1.6-2.7c-0.6-1.2-1.2-2.7-1.7-4.3l-3.9,1.9c-1.6,0.8-3.5,0.1-4.2-1.5l0,0c-0.8-1.6-0.1-3.5,1.5-4.2l4.7-2.3
		c-1.4-6.1-1.1-12.2,0.7-17.5c3.1-9,9.9-15.8,18.1-19.8c4.8-2.3,8.8-3.3,12.1-3.6c2.3-0.2,4.3,1.4,4.7,3.6l0,0.1
		c0.3,2.4-1.3,4.5-3.7,4.8c-2.7,0.4-5.8,1.2-9.4,2.9c-5.2,2.5-9.6,6.7-11.8,12.8c-1.2,3.5-1.6,7.6-0.4,11.6l26.6-13
		c1.6-0.8,3.5-0.1,4.2,1.5l0,0c0.8,1.6,0.1,3.5-1.5,4.2l-27.8,13.6c0.5,1.4,1,2.7,1.4,3.6c0.5,1.1,1,2.1,1.8,3.5l27.9-13.6
		c1.6-0.8,3.5-0.1,4.3,1.5l0,0c0.8,1.6,0.1,3.5-1.5,4.3l-26.7,13c2.5,3,5.6,5.2,8.8,6.3c6.3,2.1,11.8,1.4,17.7-1.5
		c3.6-1.8,6.5-4,8.7-6.1C194,293.6,196.9,293.8,198.4,295.8L198.4,295.8z"/>
	<polygon class="st7" points="112.2,380 98.5,381.4 93.8,359.4 73.3,359 67.1,343.2 59.1,346.3 67.4,367.5 86.8,367.9 91.7,390.7 
		112.4,388.6 	"/>
	<g>
		<path class="st6" d="M769.6,219.6l8.7,2.9c0,0,13.7-4.4,15.1-7.2c1.4-2.8,1.7-9.6,3.7-9.8c2-0.2,5.7,0.5,6.6,5.1
			c0.7,3.4-4.3,13.1-3.5,14.2c0.5,0.6,5.4,2.4,9,3.7c2.4,0.8,4.1,2.9,4.5,5.4l0,0c0.2,1.7-0.7,3.4-2.3,4l-2.5,1l0.8,2.6
			c0.6,1.9-0.5,4-2.3,4.6l-1.9,0.6l0.6,1.6c0.8,2-0.3,4.3-2.4,4.9l-1.7,0.5l0.1,0.5c0.3,1.9-0.9,3.7-2.7,4.1l-1.7,0.4l-23.1-7.6
			c-2.2-0.7-4.1-1.9-5.8-3.4l-7.7-4c-0.8-0.4-1.2-1.4-0.9-2.3l7.1-20.4C767.5,219.8,768.6,219.2,769.6,219.6z"/>
	</g>
	<linearGradient id="SVGID_6_" gradientUnits="userSpaceOnUse" x1="113.9142" y1="199.5736" x2="253.4641" y2="199.5736">
		<stop  offset="0" style="stop-color:#FF928E"/>
		<stop  offset="1" style="stop-color:#FE7062"/>
	</linearGradient>
	<path class="st8" d="M241.8,247c-0.2-0.5-4.8-8.4-10.8-17c-27.7-40-68.9-78.5-117.1-77l0-0.3c21.8-2.4,43.2,3.4,61.9,13.8
		c31,16.7,61.1,48.5,77.6,72.9L241.8,247z"/>
	<linearGradient id="SVGID_7_" gradientUnits="userSpaceOnUse" x1="63.072" y1="142.0843" x2="139.0597" y2="142.0843">
		<stop  offset="0" style="stop-color:#FF928E"/>
		<stop  offset="1" style="stop-color:#FE7062"/>
	</linearGradient>
	<path class="st9" d="M124.7,175.1l-3.3-22.5l16.7-15.4c1.9-1.8,1-4.9-1.6-5.4l-22.4-3.8l-9.5-20.6c-1.1-2.3-4.4-2.4-5.6-0.1
		l-10.6,20.1L65.8,130c-2.6,0.3-3.7,3.4-1.9,5.3l15.9,16.3l-4.4,22.3c-0.5,2.5,2.1,4.6,4.4,3.4l20.4-10.1l19.8,11.1
		C122.3,179.5,125,177.6,124.7,175.1z"/>
	<g>
		<linearGradient id="SVGID_8_" gradientUnits="userSpaceOnUse" x1="879.2336" y1="539.6076" x2="939.7444" y2="539.6076">
			<stop  offset="0" style="stop-color:#FF928E"/>
			<stop  offset="1" style="stop-color:#FE7062"/>
		</linearGradient>
		<path class="st10" d="M879.2,565l1.6-5.3c8.3-1.5,15.4-7.1,17.7-15.1c0.8-2.6,1.3-4.7,1.7-7.6l-11.1-3.2l2-6.7l10,2.9
			c0.4-3.4,1-7.7,2.2-11.8c3.7-12.6,14.8-18.3,26.8-14.8c3.4,1,6,2.3,8,3.6c1.8,1.2,2.2,3.6,1.1,5.3l0,0c-1.2,1.8-3.6,2.3-5.4,1.2
			c-1.5-0.9-3.5-1.8-5.9-2.5c-8.4-2.4-13.5,2.3-15.7,9.9c-1.3,4.6-1.7,8.2-2.1,11.8l15.5,4.5l-2,6.7l-14.6-4.2
			c-0.9,4.1-1.8,8.3-3.9,11.8c-2.5,4.2-6.2,7.3-10.8,9.4l-0.1,0.2l28.3,8.1c2.1,0.6,3.3,2.8,2.7,4.8l-0.1,0.3
			c-0.6,2.1-2.8,3.3-4.9,2.7L879.2,565z"/>
	</g>
	<path class="st6" d="M29.3,251.5l5.3-8.9l-4.3-9.4c-0.5-1.1,0.5-2.2,1.6-2l10.1,2.3l7.6-7c0.9-0.8,2.3-0.3,2.4,0.9l1,10.3l9,5
		c1,0.6,1,2.1-0.1,2.5l-9.5,4.1l-2,10.1c-0.2,1.2-1.7,1.5-2.5,0.7l-6.8-7.8l-10.3,1.2C29.5,253.8,28.7,252.5,29.3,251.5z"/>
	<polygon class="st11" points="1001.3,394.3 988.7,393.3 987,405 974.5,404.5 971.5,415.5 962.1,416.7 962.7,421.4 975.2,419.9 
		978.1,409.5 991.1,409.9 992.8,398.5 1004.2,399.4 	"/>
	<polygon class="st11" points="325.5,110.8 324.7,98.2 312.9,98.1 311.6,85.7 300.3,84.3 297.8,75.1 293.2,76.4 296.5,88.6 
		307.2,90 308.6,102.9 320.2,103 320.9,114.4 	"/>
	<linearGradient id="SVGID_9_" gradientUnits="userSpaceOnUse" x1="45.8219" y1="483.4019" x2="115.427" y2="483.4019">
		<stop  offset="0" style="stop-color:#FF928E"/>
		<stop  offset="1" style="stop-color:#FE7062"/>
	</linearGradient>
	<polygon class="st12" points="51.8,484 61.3,487.7 68.8,480.4 79.2,485.3 84.8,475.1 96.8,480 103.1,471.3 115.4,474.2 
		114.3,478.8 105.1,476.7 98.5,485.9 86.9,481.1 81.2,491.5 69.8,486.2 62.5,493.2 53.6,489.9 49.8,495.5 45.8,492.8 	"/>
	<polygon class="st7" points="627.5,81.9 626.9,89.6 614.4,90 612.1,101.1 602.8,102.9 603.7,107.6 616.2,105.2 618.3,94.7 
		631.3,94.3 632.3,82.7 	"/>
	<g>
		<path class="st13" d="M880.8,83.2c14.4,13.8,14.9,36.7,1.1,51.1c-13.8,14.4-36.7,14.9-51.1,1.1c-14.4-13.8-14.9-36.7-1.1-51.1
			C843.5,69.8,866.4,69.3,880.8,83.2z"/>
		<path class="st14" d="M880.2,113.4l-15.4,4.7l-4.8,15.3c-0.4,1.2-2,1.5-2.8,0.4l-9.2-13.2l-16.1,0.2c-1.3,0-2-1.5-1.3-2.5
			l9.7-12.9l-5.1-15.3c-0.4-1.2,0.8-2.4,2-2l15.2,5.2l12.9-9.6c1-0.8,2.5,0,2.5,1.3l-0.3,16.1l13.1,9.3
			C881.7,111.4,881.5,113,880.2,113.4z"/>
	</g>
	<path class="st6" d="M983.2,269.4l8.5-0.5c0.9-0.1,1.4-1.2,0.8-2l-5.4-7.1l2.3-9c0.3-1-0.6-1.8-1.5-1.4l-7.9,3.6l-7-5
		c-0.8-0.5-1.8,0.1-1.7,1.1l0.5,9.3l-6.7,5.9c-0.7,0.6-0.5,1.9,0.4,2.1l8.2,2.2l2.9,8.7c0.3,0.9,1.5,1.1,2,0.2L983.2,269.4z"/>
	<path class="st15" d="M337.8,426.1c0,0,15.2-29.2,17.5-40c2.4-10.7,10.3-64.7,9.8-68.2c-0.8-6.6-9.6-10.9-8-13.9
		c1.6-3,9.9-3.9,12.7-3.6c2.8,0.3,8.5,1.9,10.9,3.9c2.4,2-2.7,66.8-4.3,80.7c-1.5,13.9-20.4,56.9-20.4,56.9L337.8,426.1z"/>
	<path class="st16" d="M383.5,303c-0.3,0.2-1.6,0.6-1.9,0.9l-2.3,0.7c0,0,6-0.2,9.5,3.7C388.8,308.3,387.1,305.2,383.5,303z"/>
	<path class="st15" d="M670.6,314.8c2.4-1.8,3.6-6.3,4.1-9.2l1.2-3.8c-0.9-0.4-18.8-3.8-24.2-4.2c-0.6,1.7-0.9,3.1-0.8,4.1
		c0.6,4.5,4.9,33.5,4.9,33.5l15.5,1C671.3,336.1,668.7,318.9,670.6,314.8z"/>
	<path class="st17" d="M671,302.6c0,0-3.2,1.4-6.7,5.7c0,0-8.5-6-8.1-7.8c0.5-2.3,9.3,2.4,9.3,2.4L671,302.6z"/>
	<path class="st15" d="M746.5,727.2c0,0,20.8,15,24.1,19.5c4.7,6.4-35.3,18.5-30.9,11c1-1.7,3.9-7.6,4-8.2
		c0.7-3.1-7.8-11.4-7.8-11.4L746.5,727.2z"/>
	<path d="M728.8,770.3l14.1-20c0,0,8.8-2.1,17.9-12.2c0,0,8.1,3.1,13.1,9.8c0,0-9.5,10.2-24,21.7c0,0-8.6,7.7-20.6,11.7
		C717.4,785.3,728.8,770.3,728.8,770.3z"/>
	<path class="st18" d="M916.4,356.9c0,0-5.4,8.9-6,8.3c-0.5-0.4,2.8-5.1,5-10.8c0.6-1.5,1.2-2.9,1.7-4.2c1.4-3.5-0.3-5.3-2.3-1.9
		c-0.7,1.2-1.8,3.2-2.4,4.8c-0.6,1.7-1.8,3-2.5,4.4c-1.5,2.7-2.6,4.6-2.6,4.5c-0.1-0.2-0.7,0.2-0.2-1.4c0.7-1.9,3-5.6,3.8-8.4
		c0.5-1.6,1.6-4.9,1.6-4.9s0.9-5.3,0.6-5.5c-1.5-0.8-3.1,2.7-3.5,5c-0.9,1.3-2.1,4.9-2.1,4.9s-3.8,6.6-4.7,6.1
		c-0.4-0.2,1.5-4.6,2.7-9.1c1.1-4.2,1.6-8.6,0.8-9c-1.3-0.6-3,4-3,4s-1,3.3-1.5,4.3c-0.5,1.2-2.3,4.8-2.3,4.8s-6.9,12.2-7.7,11.6
		c-0.8-0.6-2.1-2.8-2-3.7c0.2-0.9,1.3-2.4,1.5-3.3c0.2-0.9-0.4-2.2-1.4-2.5c-1.1-0.3-3.5,3.8-3.5,3.8s-1.9,3.3-2,6
		c-0.2,9.2,1.3,8.8,1.3,10c-0.1,1.4-10.7,16.8-10.7,16.8s-0.1,0.1-0.2,0.2l12.7,9.2c4.2-6.9,7.5-12.2,8.5-13.9c0,0,6.4-5.4,10.2-9
		c3.9-3.5,6.1-8.6,7-9.8c0.1-0.2,3.1-4.2,5.4-10.2C920.6,352.9,916.4,356.9,916.4,356.9z"/>
	<path d="M778.3,573l-3.3,16.3l-82.8,75.3l59.3,60l-16,16.4c0,0-87.5-64.3-90.7-72.7c-4.9-13,62.7-98.8,62.7-98.8L778.3,573z"/>
	<path class="st15" d="M839.3,772.2c0,0,20.8,15,24.1,19.5c4.7,6.4-35.3,18.5-30.9,11c1-1.7,3.9-7.6,4-8.2
		c0.7-3.1-7.8-11.4-7.8-11.4L839.3,772.2z"/>
	<path d="M821.6,815.4l14.1-20c0,0,9.4-1.7,18.4-11.9c0,0,7.6,2.7,12.6,9.5c0,0-9.5,10.2-24,21.7c0,0-8.6,7.7-20.6,11.7
		C810.2,830.4,821.6,815.4,821.6,815.4z"/>
	<path d="M775.5,580.5l1.3,107l65.7,82.5L827,787.2c0,0-81.4-67.7-90.3-87.1c-5.5-12-25.7-126-25.7-126L775.5,580.5z"/>
	<path class="st19" d="M708.7,572.1c6.7-15.2,6-124.1,32.2-149.6c9.2,1.6,15.8,2.4,17.3,2.8c1.4,11.2,2.9,52.4,3.8,90.1
		c0.6,25.1,0,51.5,3.1,65.4C767,589.4,702.6,585.9,708.7,572.1z"/>
	<path class="st15" d="M597.8,484.9c-15.3,0.9-21.8,3.3-26.5,2.4s-17.3-5.4-17-10.1c16.8-3.4,46.2,1.8,46.2,1.8
		C598.4,488.9,597.8,484.9,597.8,484.9z"/>
	<path class="st20" d="M729.7,425.9c0,0-6.8,33.4-14.7,39.1c-7.9,5.7-48.1,25.9-50.5,25.8c-12.1-0.7-70.2-3.1-70.2-3.1l1.8-18.6
		l65.4-5.3c0,0,47.4-31.1,53.8-36C719.7,425,729.7,425.9,729.7,425.9z"/>
	<path class="st20" d="M706.1,579.4c-5.9,0-8.1-0.8-12-2c0,0-2.6-43.7,10-108.5c4.7-24.4,4.9-39.3,14.5-43
		c8.7-3.4,19.4-3.8,22.3-3.4c-25.7,72.6-25.8,128.5-29.4,144.7C709.7,575.3,708.1,579.4,706.1,579.4z"/>
	<path class="st15" d="M743.6,411.5l-2.7,11c0,0-0.6,9.6,3.8,10.4c5.3,1,13.3-7,13.3-7l4.6-30.9L743.6,411.5z"/>
	<path class="st15" d="M743.6,411.5l-2.7,11c0,0-0.6,9.6,3.8,10.4c5.3,1,13.3-7,13.3-7l4.6-30.9L743.6,411.5z"/>
	<path class="st17" d="M762.6,395.1l-19,16.4l-2,8.2C748.8,417.9,759.2,409.9,762.6,395.1z"/>
	<path class="st15" d="M743.5,366.6c-4.6,0-8.7,3.2-10.3,7.8c-1.3,3.8-3.1,9.4-4.1,15.9c-2,11.9,4.8,22.8,10.7,23.7
		c5.9,0.9,19.9-3,23-19.9c1.3-7.2,3.1-16.7-2.9-21.7C755.3,368.5,748.8,366.6,743.5,366.6z"/>
	<path class="st21" d="M760.8,406.9c0,0,20.8-18.5,21.7-33c0.9-14.5-12.5-22.2-23.9-22.6c-5.2-0.2-8.7,0-14,0.7
		c-11.4,1.4-18.9,6.5-16.3,15.9c3.5,12.6,27.3,2,32.1,5.9c4,3.2-2.5,11,1.4,13.9c3.7,2.8,1.8,1.8,0.6,7.1
		C761.3,400.1,760.8,406.9,760.8,406.9z"/>
	<path class="st15" d="M768.8,390.1c-0.5,3.5-2.6,6-4.7,5.7c-2.1-0.3-3.4-3.4-2.9-6.8c0.5-3.5,2.6-6,4.7-5.7
		C768.1,383.6,769.4,386.6,768.8,390.1z"/>
	<path class="st15" d="M674.2,296.7c-1.9-3.3-4.6,0.1-2.8,4.3c0.1,0.2,0,0.5,0,0.5c-0.5,1.1-4.8,4.6-4.8,4.6s3.5,9.7,5.4,7.1
		c1.9-2.5,3.4-10.8,3.4-10.8L674.2,296.7z"/>
	<path class="st20" d="M893.3,395.8l-14.2-14c0,0-26.9,38.6-40.5,45.3c-13.3,6.5-57.4,4.1-59,3.8c-5.3-1.2-21.6-5.7-21.6-5.7
		s-13.6,117.1,4.1,157.8c5.8,13.3,41.9,4.5,41.9,4.5s-11.1-48.8-11.7-55.1c-0.6-6.1-3.7-54.5-3.2-55c1.3-1.3,50.5-12,64-22.3
		C867.4,444.3,893.3,395.8,893.3,395.8z"/>
	<path d="M206.1,502.1c24.3,25.3,45.6,2.9,44.5,3.3c0.8-0.4,6.2-0.3,9.6-0.5c14.5-0.6,27.6-10.9,33.4-24.7
		c21.6-2.8,35.8-22.8,29.5-40.1c9.6-11.9,6.6-30.9-2.4-43.1c-2.1-19.9-28.2-23.3-46.1-16.3c-9.1,3.5-16.8,11.2-20.8,20.5
		c-17.3-0.4-32.1,12.3-35.9,30C190.9,438.7,181.3,476.3,206.1,502.1z"/>
	<path class="st15" d="M362,747.2c-2.5,13.7-6.8,25.7-7.4,27.1c-0.3,0.7-3,3.2-3.3,3.9c1.5,16.7,12.1,26.6,22,33.6
		c-2.2-8.4-7-18-6.4-19.9c1-3,4.8-16.5,13-33.6C371.7,757.3,368.8,752.3,362,747.2z"/>
	<path d="M331.7,549l-57.6,39.3c0,0,28,18.2,37.7,27.4c9.6,9.2,61.1,50.7,61.9,52.8c0.6,1.6-4.8,21.3-17.1,84.4
		c5.5,5.6,17.5,11.1,24.7,12.9c15-33.7,31.9-103.7,30-111.4C408.2,642.4,331.7,549,331.7,549z"/>
	<path class="st15" d="M185.8,628.2c1.7,1.7,12.9,23.5,17.2,35.3c6.3-3.9,10-8.6,17-11.3c-5.5-8-16.3-27.2-17.2-31.8
		c-2.1-10.8-4.6-12.4-4.6-12.4s-36.4,12.3-38.8,15.8C157.2,627.1,179,621.5,185.8,628.2z"/>
	<path d="M203.4,622.8c2.8,0-0.2-12.7-0.9-15.7c-0.7-3.3-2.6-4.3-3.1-4.4c-1.3-0.3-41.7,13.4-48.5,18.3c-0.5,0.3-1.3,1.4-1.4,1.6
		c-3.7,7,29.6,8.3,34.4,5.3C188,625.1,190.7,622.7,203.4,622.8z"/>
	<path d="M342.1,561.3c0,0-48.8-19.2-49.4-17.2c-5.1,16.3-20.8,11-30.1,39.7c-3.9,12-7,43.7-9.6,67.2c-1.8,16.1-4.3,29.1-4.3,29.1
		s-11.3-16.7-32.6-40.7c-1.6-1.9-18.8,14.5-18.8,14.5c33.9,67.1,58.6,76.6,64,74.8c24.5-8.3,56.9-120.8,56.8-120.8
		C322.1,600.2,342.1,561.3,342.1,561.3z"/>
	<path class="st15" d="M266.8,447.6c0,0-58.2-0.1-70.7-0.8c-11.3-0.7-56.1,0.5-57.8,0.3c-1.8-0.2-13.3-19.8-15.2-17.7
		c-1.9,2.1,6.4,9.7,3.9,11.7c-2.6,2-30.4-2.4-30-0.4c0.7,3.8,16.9,3.4,16.9,5.2c0,1.9-17-1-18.1,2c-1.1,3.1,16.3,1.3,17,2.6
		c0.7,1.4-16.2,3.9-14.5,6.8c0.9,1.6,15-2.6,14.9-0.5c-0.1,2.1-10.3,6.9-9,8.6c1.3,1.7,8-5.2,14-5.3c5.9-0.1,10.2-3.2,19.7-0.6
		c4.7,1.3,40.4,5.6,70.6,8.2c30.9,2.6,56.3,3.5,56.3,3.5L266.8,447.6z"/>
	<path class="st20" d="M353.2,499.3c0.8-9.4-1.1-27.2-1.5-30.3c2.8-9.7,8.8-30.4,11-34.5c0,0-10.1-19.5-20.5-19.4
		c0,0-10.6,23.9-18.8,28.2c-0.1,0-2.9,1.2-4.1,1.2c-7.9-0.1-35.6-0.9-40.7-1l2.9,39.2c10.9,28.9,8.9,54.5,7,63.4
		c-1.1,5,47,19.8,54.3,15.1C343.1,561.1,351.6,518.2,353.2,499.3z"/>
	<path class="st20" d="M292.6,445.1c-5.1-2.4-42-1.2-42-1.2s-5.2,25.7-1,31.9c0,0,33,4.9,32.1,7.6L292.6,445.1z"/>
	<path class="st15" d="M299,427.1c0,0,3.8,13.5,4.5,19.3c0.7,5.8,9.6,24,21.7,21.4c12.1-2.6-0.5-19.6-2.9-24.9
		c-2.4-5.3-8.8-26.9-8.8-26.9L299,427.1z"/>
	<path class="st16" d="M316.3,424.9c-1.5-4.9-2.7-8.9-2.7-8.9L299,427.1c0,0,0.7,2.5,1.6,5.8C308.3,434,313.6,430.3,316.3,424.9z"/>
	<path class="st15" d="M288.5,386.7c0,0-6.3,3.6-8.6,11.4c-2.2,7.7,0.7,27.5,17.3,32.1c16.6,4.5,23.5-11.3,19.9-23.5
		C313.6,394.4,306,378.9,288.5,386.7z"/>
	<path class="st15" d="M319.2,401.8c-0.3,3.3-2.1,5.9-4,5.7c-1.9-0.2-3.3-3-3-6.3c0.3-3.3,2.1-5.9,4-5.7
		C318.1,395.7,319.4,398.5,319.2,401.8z"/>
	<path d="M354.5,774.7c-1-2.6-11.6,5.7-14.1,7.4c-2.8,1.9-3,4.1-2.9,4.5c0.2,1.3,27,34.3,34.8,38.9c0.7,0.4,2.3,0.4,2.8,0.3
		c4.4-1.7-2.7-28.7-8.5-34C362.9,788.3,359.2,786.5,354.5,774.7z"/>
	<path d="M290.4,385.7c0,0-2.7,22.2-9.8,26.3c-7.1,4.1-4,13.9-4,13.9s-6.8-22.7-1.3-30.1C281,388.3,290.4,385.7,290.4,385.7z"/>
	<path class="st15" d="M284.9,415.1c2,2.9,2,6.3,0.1,7.6c-1.9,1.3-5.1,0.1-7.1-2.7c-2-2.9-2-6.3-0.1-7.6
		C279.8,411,282.9,412.2,284.9,415.1z"/>
	<g>
		<g>
			<g>
				<path class="st22" d="M585.6,205.7c-9.1,1.8-45.2,50.2-45.2,50.2l-1.3,3.4c0,0,65.4-7.3,67.8-10.1
					C613.3,241.7,593,204.2,585.6,205.7z M540.8,257c11.9-15.3,39.1-37.6,45-42.3c5.3,5.4,13.2,21.2,14.2,28.3
					C592.5,244.6,559.9,254.7,540.8,257z"/>
			</g>
			<g>
				<path class="st22" d="M497.9,214c-17.8-11.6-22.7-11.5-27.9-8.6c-5.2,2.9-24.3,30.4-15.8,38.9c8.5,8.6,76.4,14.7,76.4,14.7
					l1.5-4.1C532.1,254.9,515.7,225.6,497.9,214z M466,241.3c-4-3.9,5.9-20.4,10.4-23.9c1.1-0.6,46.8,28.4,53.1,38.3
					C504.1,253,469.7,244.6,466,241.3z"/>
			</g>
			<path class="st22" d="M531.2,271.9h3.8c3.8,0,6.8-3.1,6.8-6.8v-11.2c0-3.8-3.1-6.8-6.8-6.8h-3.8c-3.8,0-6.8,3.1-6.8,6.8V265
				C524.3,268.8,527.4,271.9,531.2,271.9z"/>
			<path class="st23" d="M675.8,259.5l-310.2-0.9c-8.3,0-14.6,7.3-13.3,15.5l4.8,31.7l15.5,0L382,465c0.5,8.5,7.6,15.2,16.1,15.2
				h247.6L656,305.1l14.6,0L675.8,259.5z"/>
			<path class="st15" d="M367.5,309.5l0.1-3.8c-3-1.2-6.5-0.8-8.2-1.3l-4.2-3.1c-0.9-0.4-2.1,0.6-2.1,1.5c0,0.9,1.2,2.8,1.8,3.2
				c0,0,7.4,6.1,10.1,8c1.3,0.9,5.4,3.4,5.4,3.4l2.4-4.4L367.5,309.5z"/>
			<path class="st6" d="M651,480.2H460.9l-10.2-217.4h225.8l-9.5,202.3C666.7,473.5,659.6,480.2,651,480.2z"/>
			<path class="st6" d="M685.9,305.2l-245.1,0.7l-5.6-47.2l240.1,0.9c7.9,0,14.1,6.8,13.4,14.7L685.9,305.2z"/>
			<polygon class="st23" points="440.7,305.8 674.5,305.2 448.1,317.6 			"/>
			<rect x="532.7" y="259" class="st22" width="6.5" height="46.6"/>
			<rect x="551.6" y="305.4" class="st22" width="8.1" height="175.1"/>
		</g>
		<g>
			<path class="st24" d="M363.4,167.7c21.7,8.4,39.5,14.1,57.3,18.8c5.9,1.6,15.6,6,21,2c2.8-2.1,4-5.1,2.3-8.4
				c-3-6-12.4-6.5-18.3-8c-18-4.8-38.2-11.1-58.2-18.6c-3.8-1.4-8.1,1.4-9.2,5.1C357.2,162.6,359.7,166.2,363.4,167.7L363.4,167.7z"
				/>
		</g>
		<g>
			<path class="st24" d="M502,134.4c-6.4-48.9-6-49.1-8.7-53.7c-2.8-4.7-10.4-4.1-11.9,1.4c-1.5,5.4-1.1,4.5,5.8,56
				c0.6,4.1,5.6,6.5,9.3,5.5C500.9,142.6,502.6,138.5,502,134.4L502,134.4z"/>
		</g>
		<g>
			<path class="st24" d="M580.7,140.7c4.8-6.5,8.9-13.5,12.3-20.9c3.1-6.9,8.8-17,3.5-23.9c-1.1-1.5-3.8-2.2-5.6-1.6
				c-7.2,2.5-8.6,12.6-11.5,19c-3.2,6.9-7.1,13.5-11.3,19.8c-2.2,3.3-0.7,8.2,2.5,10.1C574.3,145.5,578.3,143.9,580.7,140.7
				L580.7,140.7z"/>
		</g>
		<g>
			<path class="st24" d="M689.6,177.9c2.2-3,0.4-6.9-2.2-8.8c-5.3-4-14.6-0.3-20.4,1.3c-6.7,1.9-13.2,4.4-19.6,7.3
				c-3.7,1.7-4.7,6.9-2.8,10.2c2.2,3.8,6.4,4.4,10.2,2.8C679.1,180.4,684.2,185.3,689.6,177.9z"/>
		</g>
	</g>
	<g>
		<g>
			<path class="st6" d="M158.4,295.4c3.2,0,3.2-5,0-5C155.2,290.4,155.2,295.4,158.4,295.4L158.4,295.4z"/>
		</g>
	</g>
</g>
</svg>
