<?xml version="1.0" encoding="utf-8"?>
<!-- Generator: Adobe Illustrator 22.0.0, SVG Export Plug-In . SVG Version: 6.00 Build 0)  -->
<svg version="1.1" id="Layer_1" xmlns="http://www.w3.org/2000/svg" xmlns:xlink="http://www.w3.org/1999/xlink" x="0px" y="0px"
	 viewBox="0 0 50 50" style="enable-background:new 0 0 50 50;" xml:space="preserve">
<g id="shopping-bag_1_" transform="translate(-53.02)">
	<g id="Group_11253" transform="translate(53.02)">
		<g id="Group_11252">
			<path id="Path_20092" d="M44.4,41l-2.2-27.6c-0.2-1.7-1.7-3.1-3.4-3.2h-4.3V10c0-5.2-4.2-9.5-9.5-9.5s-9.6,4.2-9.6,9.5v0.2h-4.3
				c-1.7,0-3.3,1.4-3.4,3.1L5.5,41c-0.4,4.4,2.9,8.3,7.4,8.5c0.2,0,0.4,0,0.6,0h23c4.4,0,8-3.6,8-8C44.4,41.4,44.4,41.2,44.4,41z
				 M18.4,10c0.1-3.7,3.2-6.5,6.8-6.4c3.5,0.1,6.3,2.9,6.4,6.4v0.2H18.4V10z M40.2,45.1c-0.9,1-2.3,1.7-3.8,1.7h-23
				c-2.8,0-5.1-2.3-5.1-5.1c0-0.1,0-0.3,0-0.4l2.2-27.7c0-0.3,0.3-0.6,0.6-0.6h4.3v3.6c0,0.8,0.6,1.5,1.5,1.5s1.5-0.6,1.5-1.5V13
				h13.2v3.6c0,0.8,0.6,1.5,1.5,1.5s1.5-0.6,1.5-1.5V13h4.3c0.3,0,0.6,0.2,0.6,0.6l2.2,27.7C41.7,42.6,41.2,44.1,40.2,45.1z"/>
		</g>
	</g>
	<g id="Group_11255" transform="translate(66.689 26.069)">
		<g id="Group_11254">
			<path id="Path_20093" d="M17.8-1.1c-0.6-0.6-1.5-0.6-2,0l0,0L9.4,5.3L6.9,2.8c-0.6-0.6-1.5-0.6-2,0s-0.6,1.5,0,2l3.5,3.5
				c0.6,0.6,1.5,0.6,2,0l0,0l7.4-7.4C18.4,0.3,18.4-0.6,17.8-1.1L17.8-1.1z"/>
		</g>
	</g>
</g>
</svg>
