<?xml version="1.0" encoding="utf-8"?>
<!-- Generator: Adobe Illustrator 23.0.1, SVG Export Plug-In . SVG Version: 6.00 Build 0)  -->
<svg version="1.1" id="Layer_1" xmlns="http://www.w3.org/2000/svg" xmlns:xlink="http://www.w3.org/1999/xlink" x="0px" y="0px"
	 viewBox="0 0 850 950" style="enable-background:new 0 0 850 950;" xml:space="preserve">
<style type="text/css">
	.st0{fill:#FFDBDB;}
	.st1{fill:#EBEBF0;}
	.st2{fill:#B9B9BE;}
	.st3{fill:#D2D2D7;}
	.st4{fill:#C42D2D;}
	.st5{fill:#F44545;}
	.st6{fill:#AF2727;}
	.st7{fill:#7D8287;}
</style>
<circle class="st0" cx="427.9" cy="482.2" r="412.5"/>
<path class="st1" d="M548.3,767.5H146.7c-4.6,0-8.3-3.7-8.3-8.3V202.6c0-4.6,3.7-8.3,8.3-8.3h401.6c4.6,0,8.3,3.7,8.3,8.3v556.6
	C556.6,763.8,552.9,767.5,548.3,767.5z"/>
<path class="st2" d="M498.5,486.6v-34.3c0-85.1-69-154.1-154.1-154.1h0c-85.1,0-154.1,69-154.1,154.1v34.3H498.5z"/>
<path class="st3" d="M498.5,486.6v-33.2c0-82.3-60.1-149-134.3-149h0c-74.2,0-134.3,66.7-134.3,149v33.2H498.5z"/>
<rect x="334.7" y="259.9" class="st2" width="18" height="37"/>
<path class="st2" d="M386.6,259.9h-84.4c-2.2,0-4-1.8-4-4v-8.6c0-2.2,1.8-4,4-4h84.4c2.2,0,4,1.8,4,4v8.6
	C390.6,258.1,388.8,259.9,386.6,259.9z"/>
<path class="st2" d="M437,593.2H177.4c-2.3,0-4.2-1.9-4.2-4.2v-9.1c0-2.3,1.9-4.2,4.2-4.2H437c2.3,0,4.2,1.9,4.2,4.2v9.1
	C441.2,591.2,439.3,593.2,437,593.2z"/>
<path class="st2" d="M422,647H177.4c-2.3,0-4.2-1.9-4.2-4.2v-9.1c0-2.3,1.9-4.2,4.2-4.2H422c2.3,0,4.2,1.9,4.2,4.2v9.1
	C426.3,645.1,424.4,647,422,647z"/>
<path class="st2" d="M360.8,700.9H177.4c-2.3,0-4.2-1.9-4.2-4.2v-9.1c0-2.3,1.9-4.2,4.2-4.2h183.4c2.3,0,4.2,1.9,4.2,4.2v9.1
	C365.1,699,363.2,700.9,360.8,700.9z"/>
<path class="st2" d="M445.8,700.9h-57.1c-2.3,0-4.2-1.9-4.2-4.2v-9.1c0-2.3,1.9-4.2,4.2-4.2h57.1c2.3,0,4.2,1.9,4.2,4.2v9.1
	C450,699,448.1,700.9,445.8,700.9z"/>
<circle class="st4" cx="591.6" cy="648.2" r="125.3"/>
<ellipse class="st5" cx="610.5" cy="649.1" rx="105.9" ry="119.7"/>
<path class="st6" d="M655,697.5l-12.1,12.1c-3.1,3.1-8.2,3.1-11.3,0L530.3,608.2c-3.1-3.1-3.1-8.2,0-11.3l12.1-12.1
	c3.1-3.1,8.2-3.1,11.3,0L655,686.2C658.1,689.3,658.1,694.3,655,697.5z"/>
<path class="st6" d="M530.3,697.5l12.1,12.1c3.1,3.1,8.2,3.1,11.3,0L655,608.2c3.1-3.1,3.1-8.2,0-11.3l-12.1-12.1
	c-3.1-3.1-8.2-3.1-11.3,0L530.3,686.2C527.2,689.3,527.2,694.3,530.3,697.5z"/>
<path class="st7" d="M506.5,521.8H184.9c-4.8,0-8.7-3.9-8.7-8.7v-18.7c0-4.8,3.9-8.7,8.7-8.7h321.5c4.8,0,8.7,3.9,8.7,8.7v18.7
	C515.2,517.9,511.3,521.8,506.5,521.8z"/>
</svg>
