<?xml version="1.0" encoding="utf-8"?>
<!-- Generator: Adobe Illustrator 22.0.0, SVG Export Plug-In . SVG Version: 6.00 Build 0)  -->
<svg version="1.1" id="Layer_1" xmlns="http://www.w3.org/2000/svg" xmlns:xlink="http://www.w3.org/1999/xlink" x="0px" y="0px"
	 viewBox="0 0 500 500" style="enable-background:new 0 0 500 500;" xml:space="preserve">
<style type="text/css">
	.st0{fill:#FAD5D6;}
	.st1{fill:#9BD1F1;}
	.st2{fill:#F7B4B6;}
	.st3{fill:#E9545B;}
	.st4{fill:#3070B7;}
	.st5{fill:#F18588;}
	.st6{fill:#FEB73F;}
	.st7{fill:#F39B9C;}
	.st8{fill:#B68350;}
	.st9{fill:#F89357;}
	.st10{fill:#57B385;}
	.st11{fill:#EB676C;}
	.st12{fill:#2B2E37;}
	.st13{fill:#9B6C40;}
	.st14{fill:#895A33;}
	.st15{fill:none;stroke:#000000;stroke-miterlimit:10;}
</style>
<g>
	<path class="st0" d="M66.5,415c13.6-2.6,27.2-5.2,40.8-7.8c7.7,2.1,15.6,0.3,23.4,1c1.6,6.3,3.2,7.2,9.2,6.1c4-0.7,8-1.2,12-1.6
		c3.7-0.4,7.3-1.1,9.7-4.4c11-0.1,21.9-0.3,32.9-0.4c0.7-0.1,1.4-0.1,2.1-0.2c7.4,0.2,14.8,0.4,22.1,0.6c0.5,3.9,3.8,6.1,6.7,6.2
		c5.9,0,10.9,3.1,16.5,3.5c0,26.5,0,53,0.1,79.5c-9.7-1.7-19.6-1.4-29.3-3c-21.5-3.6-42.2-9.7-62.3-18.3
		c-22.2-9.5-42.3-22.4-60.6-37.9C81.3,431.2,72.3,424.6,66.5,415z"/>
	<path class="st1" d="M390.6,453.7c-11,9.4-23.8,15.6-36.7,21.7c-22.3,10.5-45.8,17.3-70.2,20.7c-12.1,1.7-24.3,2.7-36.6,2.6
		c-1.3,0-2.6,0-3.6-1.1c0.2-3.1,0.1-6.2,0.5-9.3c3-22.9,5.9-45.8,11.3-68.3c4,2.6,7.9,5.2,12.4,6.9c18.1,6.6,36.8,7,55.7,5.2
		c19.7-1.8,39-6,58.2-10.4C385.8,432.1,389.1,442.6,390.6,453.7z"/>
	<path class="st2" d="M255.3,420c-5.3,22.5-8.3,45.4-11.3,68.3c-0.4,3.1-0.4,6.2-0.5,9.3c-0.6,0-1.2-0.1-1.8-0.1
		c0-26.5,0-53-0.1-79.5c3.8-1.6,7.8-0.6,11.7-1C254.1,418,254.7,419,255.3,420z"/>
	<path class="st3" d="M130.7,408.3c10.3,0,20.6,0.1,30.8,0.1c-2.4,3.3-6,3.9-9.7,4.4c-4,0.5-8,0.9-12,1.6
		C133.9,415.5,132.3,414.5,130.7,408.3z"/>
	<path class="st4" d="M253.4,417c5.3-0.7,9.3-3.9,13.1-7.3c3.2-2.8,6.8-3.8,11.1-3.7c23.9,0.2,47.7,0,71.6,0.2
		c10.8,0.1,21.6-0.1,32.4-1.1c1.1,3.2,1.9,6.6,3.4,9.6c2.1,4.1,1.2,6.3-3.4,7c-19.2,4.4-38.5,8.6-58.2,10.4
		c-18.9,1.8-37.6,1.4-55.7-5.2c-4.5-1.7-8.5-4.3-12.4-6.9C254.7,419,254.1,418,253.4,417z"/>
	<path class="st0" d="M1.6,276.2c1.7-4.6,1.4-9.6,0.8-14.2c-2.3-15.8,0.3-31.3,2.2-46.8c2.5-20.7,8.5-40.3,16.1-59.5
		c8.8-22.1,21.1-42.2,35.8-60.8c16.3-20.7,35.8-38,57.8-52.5c29.3-19.3,61.4-31.4,95.9-37.3c10.7-1.9,21.7-2.4,32.6-3.6
		c0,85.2,0,170.4,0,255.6c-3.4,0.1-6.3,1.6-9.2,3.4c-0.8,0.5-2.2,1.8-2.5,0.1c-1.2-7.2-4.5-0.8-6.8-0.9c-0.3-6.1,0.6-12.1-1.3-17.8
		c-0.8-2.3-1.8-5.7-5.2-3.9c-4.8,2.4-10.1,2.8-14.9,5c-1.4,0.7-3.6,1.6-4.6,0.1c-2.6-3.7-4.6-1.2-6.6,0.3c-4.4,3.2-7.8,7.2-9.7,12.4
		c-0.7,1.8-2.3,3.4-3,4.9c-2.3,4.7-7.1,7.7-8.4,12.9c-0.7,0-1.5,0-2.2-0.1c2.3-10.5,4.2-21.1,9.2-30.8c7-0.9,15.5-7.1,15.5-12.6
		c0-5.5,3.1-7.8,6.9-10.1c2-1.2,5.7-2.5,5.4-4.2c-1-5.8,3.5-8.8,5.2-13.1c0.5-1.2,1-2.6-0.3-3.5c-1.1-0.8-2.5-0.3-3.7,0.2
		c-4.2,2-7.7,6.4-13.4,4c-0.6-0.2-1.9,0.9-2.7,1.6c-6.5,5.3-8.6,14-15.8,19.3c-4.1,3.1-4.3,11,0,16.6c-2.9,9.6-6.2,19.1-8.7,29
		c0.7-10.5-0.6-20.8-2.3-31c2.1-6.4,4.4-13.8,0-18.9c-5.7-6.5-8.3-15.6-17-20c-4.3-2.2-6.4-2.7-8.6,1.7c-3.3-5-5-11-9.1-15.6
		c-1.7-1.9-3.6-4.1-6.4-3.4c-3,0.7-4.4,3.3-5,6.1c-0.7,3.4-1.3,6.9-1.1,10.3c1.4,25.8,7,50.9,12.9,76c-2.9,1.4-6.1,1-9.2,0.8
		c-3.8-0.2-5,1.2-5.2,5c-0.6,13.4-1.6,26.7-2.4,40c-4,1.1-6.9,3.7-10,6.2c-1.9-3.8-4.3-5-8.1-2.2c-3.4,2.5-7.3,3-11.5,2.9
		c-4.9-0.2-9.9-0.4-14.9,0c-5,0.4-8.7-1.3-12.3-4.5c-14.3-12.9-28.6-25.7-43.2-38.3C9.2,281.8,6.4,277.7,1.6,276.2z"/>
	<path class="st5" d="M280.3,2.9c17,1.5,33.5,5.6,49.6,11.1c37.2,12.8,69.8,33.1,97.3,61.3c36.2,37.1,58.9,81.4,67.6,132.5
		c9,52.4,1.4,102.8-21.7,150.7c-0.2,0.5-0.6,0.9-1,1.3c-2.1-0.9-2.6-3-3.5-4.7c-4.1-7.5-8.2-15.1-12.2-22.7
		c-8.8-16.6-17.5-33.2-26.3-49.8c1.9-0.8,1.8-2.5,1.9-4.2c0.1-9.9-0.6-19.7-4-29.1c-5-13.9-13.3-24.6-28.8-27.9
		c-1.1-1.5-2.5-2.7-4.4-3.1c-0.2-2.7-2.7-4.8-2.1-7.8c3.4,0.7,6-0.9,8.6-2.8c2.4-1.8,5.3-3.3,8.1-1.7c4.1,2.4,4.7-0.4,5.2-3.1
		c0.7-3.6,0.1-6.6-3.7-8.8c-5.9-3.4-8.3-10-5.4-15.5c9.5-18.6,6.9-36.9-0.4-55.3c-6.2-15.8-15.7-28.7-32.1-35
		c-13.7-5.3-27.4-6.9-40.2,2.9c-1.4,1.1-3.4,1.3-5.1,1.9c-1.5-6.3-5.7-11.4-8.6-17c-6.8-13.1-14.1-26-21-39
		C292.2,25.9,286.3,14.4,280.3,2.9z"/>
	<path class="st6" d="M1.6,276.2c4.8,1.5,7.6,5.6,11.1,8.6c14.6,12.6,28.9,25.4,43.2,38.3c3.6,3.3,7.3,5,12.3,4.5
		c4.9-0.4,9.9-0.3,14.9,0c4.2,0.2,8.1-0.3,11.5-2.9c3.8-2.8,6.2-1.5,8.1,2.2c1.7,10.9,1.7,10.9,9.1,10.6c1.1,0,2.2,0.1,3.3,0.1
		c17,0.6,34.1-1.9,50.9,1.8c1.2,0.3,2.3-0.1,3.1-0.8c4.4-4.1,8.7-3.6,12.9,0.3c3.1,9.6,6.7,19.2,3.7,29.6c-2.4,5-4.4,10.2-11.7,9.4
		c-1.3-0.1-2.8,1.5-4.1,2.6c-7.2,6.1-15.1,10.9-23.8,14.6c-12.5,5.4-25.8,8.2-38.7,12c-13.6,2.6-27.2,5.2-40.8,7.8
		c-3.4,0.1-5.2-2.3-7.1-4.5c-23.7-28-40.4-59.8-50.2-95.2C5.6,302.4,3.2,289.4,1.6,276.2z"/>
	<path class="st2" d="M242.7,257.2c0-85.2,0-170.4,0-255.6c11.4-0.7,22.8,0.6,34.2,1.2c0,76.2,0,152.3,0,228.5
		c0,1.5,0.1,2.9,0.2,4.4c-7.3,10.7-13.8,21.9-22.8,31.4c-1.6,1.7-1.4,2.6,0.3,3.8c1.2,0.9,2.2,1.9,3.3,2.9
		c-4.3,8.1-8.6,16.2-12.9,24.3c-0.4-8.9-0.9-17.9-1.3-26.8c-1.8-2.2-0.7-4.9-1.1-7.4C244.5,261.6,247,259.4,242.7,257.2z"/>
	<path class="st7" d="M390.6,453.7c-1.5-11.1-4.8-21.6-8.9-31.9c4.6-0.7,5.4-2.9,3.4-7c-1.5-3-2.3-6.4-3.4-9.6c1-1.4,2.7-0.9,4-1.3
		c6.4-2,12-4.1,14.1-12c6.1-23.5,12-47.1,17.3-70.8c2.8-12.5,6.5-24.7,7.8-37.5c1.7-1.1,3.5-0.8,5.4-0.7
		c8.8,16.6,17.5,33.2,26.3,49.8c4,7.6,8.1,15.1,12.2,22.7c0.9,1.7,1.4,3.8,3.5,4.7c-8.8,18.8-20.5,35.7-33.8,51.6
		c-13.1,15.6-28.2,29.1-44.9,40.7C392.6,452.8,391.6,453.2,390.6,453.7z"/>
	<path class="st7" d="M277.2,235.6c-0.1-1.5-0.2-2.9-0.2-4.4c0-76.2,0-152.3,0-228.5c1.1,0.1,2.2,0.1,3.3,0.2
		c5.9,11.5,11.8,23,17.9,34.4c6.9,13,14.2,25.9,21,39c2.9,5.6,7.1,10.7,8.6,17c-3.3,2.3-6.9,4-9.9,6.8c-14,13.1-19.3,37.4-11.9,55.4
		c2.6,6.3,3.5,12.6,2,19.3c-1.4,6.1-4.7,11.1-8.8,15.7c-2.7,3-3.6,6.4-1.1,10c2.2,3.3,5,4.3,8.9,2.6c3.8-1.6,7.9-1.5,11.9-0.9
		c5.4,0.9,9.5,4.7,14.5,6.5c0.3,4.2-3.1,4.8-5.8,5.2c-6.7,1-13.2,2.8-19.6,4.8c-0.6,0.1-1.2,0.3-1.2,1.1l0-0.1
		c-1.9-0.3-3.6,0.3-5.3,0.8C291.9,223.3,284.2,229,277.2,235.6z"/>
	<path class="st8" d="M181.9,339.1c-4.2-3.9-8.5-4.4-12.9-0.3c-0.8,0.7-1.8,1-3.1,0.8c-16.9-3.6-34-1.2-50.9-1.8
		c-1.1,0-2.2-0.1-3.3-0.1c-0.6-5.7,1.8-11.1,0.9-16.8c0.8-13.3,1.8-26.7,2.4-40c0.2-3.8,1.4-5.2,5.2-5c3,0.2,6.2,0.6,9.2-0.8
		c8.5-0.1,17-0.3,25.5-0.4c2.6-0.1,5.2,0.6,7.6-1c1.9,0,3.9,0,5.8,0c0.7,0,1.5,0,2.2,0.1c9.1,0.4,18.1-0.2,27.1-0.7
		c0.2,16.1-2,32.1-1.1,48.2c0.1,1.9-0.7,4.1,1.1,5.7C192.4,330.9,187.6,335.6,181.9,339.1z"/>
	<path class="st9" d="M154.9,274.6c-8.5,0.1-17,0.3-25.5,0.4c-5.9-25.1-11.5-50.2-12.9-76c-0.2-3.4,0.4-6.9,1.1-10.3
		c0.6-2.7,2-5.4,5-6.1c2.8-0.6,4.7,1.5,6.4,3.4c4.1,4.6,5.8,10.5,9.1,15.6c0,0.5,0,1,0,1.5c-5.2,1.1-10.9,1.3-15.5,6.2
		c6.5,1.1,11.7-2.1,17.2-1.9c1.4,4.4,2.7,8.8,4.1,13.2c-4.6-0.1-9.1,0.4-13.4,2.3c-1,0.4-2.2,1-1.6,2.4c0.4,1,1.5,0.7,2.4,0.8
		c4.7,0.5,8.9-1.9,13.4-2.3c1,3.3,2.1,6.6,3.1,10c0,1.1,0.1,2.3,0.1,3.4c-5.4-0.3-10.3,1.2-15,4.8c5.9,2,10.9-1.2,16.1-0.5
		c0.7,4,1.4,8.1,2.2,12.1c-3.8,0.6-7.5,1.3-11,3.1c-0.9,0.5-2,1.3-1.6,2.5c0.5,1.3,1.8,0.9,2.8,0.7c3.6-0.6,7.1-1.2,10.7-1.8
		C153.1,263.9,153,269.4,154.9,274.6z"/>
	<path class="st10" d="M197.6,273c-9,0.5-18.1,1.1-27.1,0.7c1.3-5.2,6-8.2,8.4-12.9c0.7-1.5,2.4-3.1,3-4.9c1.9-5.2,5.3-9.2,9.7-12.4
		c2-1.5,4-4,6.6-0.3c1.1,1.5,3.2,0.5,4.6-0.1c4.8-2.2,10.1-2.6,14.9-5c3.4-1.7,4.4,1.6,5.2,3.9c1.9,5.7,1.1,11.6,1.3,17.8
		c2.3,0.1,5.6-6.3,6.8,0.9c0.3,1.7,1.7,0.5,2.5-0.1c2.8-1.8,5.7-3.3,9.2-3.4c4.3,2.2,1.7,4.4,0,6.6c-2.8,1.1-5.6,2.4-7.2,5.1
		c1.9,0.8,3.6,1.5,5.2,2.2c-5.6,0.2-11.1,0.5-16.7,0.7C215.2,271.1,206.4,272.4,197.6,273z"/>
	<path class="st10" d="M174.6,241c-4.3-5.6-4.1-13.6,0-16.6c7.2-5.4,9.3-14,15.8-19.3c0.8-0.7,2.1-1.9,2.7-1.6c5.6,2.4,9.1-2,13.4-4
		c1.2-0.5,2.5-1,3.7-0.2c1.3,0.9,0.8,2.3,0.3,3.5c-1.7,4.3-6.2,7.4-5.2,13.1c0.3,1.7-3.4,3-5.4,4.2c-3.8,2.3-6.9,4.6-6.9,10.1
		c0,5.5-8.5,11.7-15.5,12.6c1.9-8.5,7.7-14.9,12.7-23.1c-3.3,1.2-4.3,3-5.6,4.4C180.2,229,178.4,235.6,174.6,241z"/>
	<path class="st10" d="M147.8,234.1c-1-3.3-2.1-6.6-3.1-10c0-1.2,0.2-2.4-0.8-3.3c-1.4-4.4-2.7-8.8-4.1-13.2
		c-0.6-1.5-1.1-2.9-1.7-4.4c0-0.5,0-1,0-1.5c2.1-4.4,4.3-3.9,8.6-1.7c8.7,4.4,11.2,13.5,17,20c4.4,5.1,2.1,12.5,0,18.9
		c-3.8-5.8-5.3-13.2-11.8-17.3c3.8,7.2,8.7,13.9,9.6,22.3c-4.7,0.9-8.8,1.3-9.3-5.4C152,236.4,150,234.9,147.8,234.1z"/>
	<path class="st4" d="M161.5,243.9c-0.9-8.4-5.8-15.1-9.6-22.3c6.5,4,8,11.4,11.8,17.3c1.7,10.2,3,20.5,2.3,31
		c2.5-9.8,5.8-19.4,8.7-29c3.7-5.4,5.6-11.9,10-17c1.3-1.5,2.3-3.2,5.6-4.4c-5,8.3-10.9,14.7-12.7,23.1c-5,9.7-6.9,20.3-9.2,30.8
		c-1.9,0-3.9,0-5.8,0C163.7,263.7,164.6,253.7,161.5,243.9z"/>
	<path class="st11" d="M112.6,320.8c0.8,5.7-1.6,11.2-0.9,16.8c-7.4,0.3-7.4,0.3-9.1-10.6C105.7,324.6,108.6,321.9,112.6,320.8z"/>
	<path class="st4" d="M277.2,235.6c7.1-6.6,14.7-12.4,24.3-15c1.8-0.5,3.4-1.2,5.3-0.8c-2,4.8-4.1,9.5-5.7,14.4
		c-3.3,10.5-0.3,15.8,10.8,16.8c1.4,0.1,2.9,0.2,4.3,0c30-3.4,56.7-16,83.1-29.4c15.5,3.2,23.7,14,28.8,27.9
		c3.4,9.4,4.1,19.2,4,29.1c0,1.7,0,3.3-1.9,4.2c-1.8-0.1-3.7-0.3-5.4,0.7c-14.7,1.8-26.2,9.6-36.7,19.5c-2.8,2.6-4.4,5.6-5.3,9.3
		c-1.8,7.7-3.8,15.3-5.7,22.9c-3,3.9-5.9,7.8-8.9,11.7c-1.2,1.5-1.1,3.1-0.7,4.7c0.9,4.2,2,8.4,3,12.7c0,3.8-2.7,4.6-5.8,5.2
		c-31.1,6.2-62.1,12.6-93.1,18.9c-4.6,0.9-9.1,0.7-13.3-1.7c4.4-15.2,7.4-30.8,13.9-45.4c0.6-1.4,0.8-2.9,0-4.2
		c-2.9-4.9-3.9-10.6-6.2-15.7c-2.8-12.8-3.2-25.6-0.1-38.4c0.4-1.8,0-3.2-1.5-4.3c-2.2-1.6-4.4-3.2-6.6-4.8c-1.1-1-2.1-2-3.3-2.9
		c-1.6-1.2-1.9-2.1-0.3-3.8C263.4,257.6,269.9,246.3,277.2,235.6z"/>
	<path class="st12" d="M333.4,208.9c-5-1.9-9.1-5.6-14.5-6.5c-4-0.7-8.2-0.8-11.9,0.9c-3.9,1.7-6.7,0.7-8.9-2.6
		c-2.5-3.6-1.6-7,1.1-10c4.1-4.6,7.3-9.6,8.8-15.7c1.6-6.7,0.6-13-2-19.3c-7.4-18.1-2-42.4,11.9-55.4c3-2.8,6.6-4.6,9.9-6.8
		c1.7-0.6,3.7-0.8,5.1-1.9c12.8-9.9,26.5-8.2,40.2-2.9c16.3,6.3,25.8,19.3,32.1,35c7.3,18.4,9.9,36.7,0.4,55.3
		c-2.8,5.6-0.5,12.2,5.4,15.5c3.8,2.2,4.4,5.1,3.7,8.8c-0.5,2.7-1.1,5.5-5.2,3.1c-2.9-1.7-5.7-0.1-8.1,1.7c-2.6,1.9-5.2,3.5-8.6,2.8
		c-7.5-5.5-15.7-8.7-25.3-7.1c-1-10.5,0.9-20.5,5.8-29.9c3.7-2.9,6.6-6.5,8.2-10.8c1.2-3.3,0.8-6.5-2.1-9c-2.4-2-5-1.2-6.5,0.5
		c-4.1,4.6-6.4,1.7-8.9-1.5c-8.2-10.4-11.6-22.4-11-35.4c0.3-5.1-1.2-6.4-6-5.7c-4,0.6-8,0-12-1.2c-7.2-2.2-8.8-1.6-13.1,4.9
		c-2,3.1-3.6,6.3-4.6,9.9c-3.8,13.8-5.4,27.7-2.7,41.9c2.3,11.8,6.2,22.8,19.2,27.3C334,199.4,335.7,204.2,333.4,208.9z"/>
	<path class="st3" d="M373.3,173.7c-4.9,9.4-6.9,19.3-5.8,29.9c-0.8,5.5,0.8,8.3,7.1,9c7,0.7,14,2.3,20.3,5.9
		c1.9,0.4,3.3,1.6,4.4,3.1c-26.4,13.4-53.1,26-83.1,29.4c-1.4,0.2-2.9,0.1-4.3,0c-11-1-14.1-6.3-10.8-16.8c1.6-5,3.7-9.7,5.7-14.4
		c0,0,0,0.1,0,0.1c0.9,0.2,1.1-0.4,1.2-1.1c6.5-1.9,12.9-3.7,19.6-4.8c2.7-0.4,6.1-0.9,5.8-5.2c2.3-4.7,0.7-9.5,0.5-14.2
		c6.9,0.2,13.6-0.2,19-5.2c3.9-3.6,8.2-6.9,10.7-11.6C365.8,173.6,368.2,170.8,373.3,173.7z"/>
	<path class="st7" d="M394.8,218.5c-6.3-3.5-13.3-5.1-20.3-5.9c-6.2-0.7-7.9-3.5-7.1-9c9.5-1.6,17.7,1.6,25.3,7.1
		C392.1,213.6,394.6,215.8,394.8,218.5z"/>
	<path class="st11" d="M181.9,339.1c5.7-3.5,10.6-8.1,15.8-12.2c6-4,12.6-5.2,19.7-4.3c2.5,1.8,5.7,0.2,8.3,1.6
		c0.9,0.5,2.4,0.3,2.4,1.7c0,1.2-1.1,1.8-2.1,2.2c-2.8,1.1-5.7,2.1-8.5,3.2c-2.1,0.2-4.1,1.2-4,3.3c0,2.4,2.3,2.1,4.1,2.1
		c4.8,0.6,9.5-0.1,14-1.5c4.8-1.5,9.6-2.2,14.6-1.6c2.8,1.5-2.5,5.6,2.1,6.5c0,4.2-1.4,8.2-2.3,12.2c-4-0.2-3.3,3.8-4.9,5.7
		c-6,6.9-13.7,9.8-22.4,10.9c-7.7,0-15.4-0.1-23.2-0.1c-3.3,0-6.6,0-9.9,0C188.6,358.2,185,348.7,181.9,339.1z"/>
	<path class="st8" d="M185.5,368.6c3.3,0,6.6,0,9.9,0c0.7,13.1-1.9,26.2-1,39.3c-11,0.1-21.9,0.3-32.9,0.4
		c-10.3,0-20.6-0.1-30.8-0.1c-7.8-0.7-15.7,1.1-23.4-1c13-3.8,26.3-6.6,38.7-12c8.6-3.8,16.6-8.5,23.8-14.6c1.2-1.1,2.8-2.7,4.1-2.6
		C181.1,378.8,183.2,373.6,185.5,368.6z"/>
	<path class="st11" d="M258.4,386.5c4.2,2.4,8.7,2.7,13.3,1.7c31-6.3,62.1-12.6,93.1-18.9c3.1-0.6,5.7-1.3,5.8-5.2
		c2.5-9.6,5-19.2,6.6-29c1.9-7.6,3.9-15.2,5.7-22.9c0.9-3.7,2.5-6.7,5.3-9.3c10.5-9.9,21.9-17.7,36.7-19.5c-1.4,12.8-5,25-7.8,37.5
		c-5.3,23.7-11.2,47.3-17.3,70.8c-2.1,7.9-7.7,10.1-14.1,12c-1.3,0.4-3-0.2-4,1.3c-10.8,1.1-21.6,1.2-32.4,1.1
		c-23.9-0.1-47.7,0-71.6-0.2c-4.3,0-8,1-11.1,3.7c-3.9,3.4-7.8,6.5-13.1,7.3c-3.9,0.4-7.9-0.6-11.7,1c-5.6-0.4-10.6-3.5-16.5-3.5
		c-2.9,0-6.2-2.2-6.7-6.2c7.3-0.6,13.7-3.6,19.7-7.7c3.1-2.1,1.8-3.5-0.7-4.6c-1.6-0.8-3.4-1.4-5.3-0.7c-1.9,0.7-4.2,1.5-5.4-0.7
		c-1.2-2.3,2.1-2.5,2.7-4.1c6-2.6,11.6-6.7,18.7-5.6C251.7,385.5,255,386,258.4,386.5z"/>
	<path class="st8" d="M229.6,390.5c-0.6,1.6-3.9,1.8-2.7,4.1c1.2,2.2,3.5,1.5,5.4,0.7c1.9-0.7,3.6-0.1,5.3,0.7
		c2.4,1.1,3.7,2.5,0.7,4.6c-6,4-12.4,7.1-19.7,7.7c-7.4-0.2-14.8-0.4-22.1-0.6c6.1-10.1,13.8-18.9,22.2-27.2
		C223.1,383,226.4,386.8,229.6,390.5z"/>
	<path class="st13" d="M218.7,380.6c-8.4,8.2-16.1,17.1-22.2,27.2c-0.7,0.1-1.4,0.1-2.1,0.2c-0.8-13.1,1.8-26.2,1-39.3
		c7.7,0,15.4,0.1,23.2,0.1C218.6,372.7,218.6,376.7,218.7,380.6z"/>
	<path class="st14" d="M246.1,333.4c-5-0.5-9.8,0.2-14.6,1.6c-4.6,1.4-9.2,2.1-14,1.5c0-1.8,0-3.6,0-5.4c2.8-1,5.7-2.1,8.5-3.2
		c1-0.4,2.1-1,2.1-2.2c0-1.4-1.5-1.2-2.4-1.7c-2.6-1.4-5.8,0.1-8.3-1.6c0-13.8,0.3-27.5,0-41.3c-0.1-5.3,0.2-9.3,6.7-9.4
		c5.6-0.2,11.1-0.5,16.7-0.7c1,0,2.1,0,3.1,0.1c0.4,8.9,0.9,17.9,1.3,26.8C245.5,309.8,245.8,321.6,246.1,333.4z"/>
	<path class="st3" d="M246.1,333.4c-0.3-11.8-0.7-23.6-1-35.4c4.3-8.1,8.6-16.2,12.9-24.3c2.2,1.6,4.4,3.2,6.6,4.8
		c1.5,1.1,1.9,2.5,1.5,4.3c-3.1,12.8-2.7,25.6,0.1,38.4c-6,6.3-11.9,12.5-17.9,18.8C243.6,339,248.9,334.9,246.1,333.4z"/>
	<path class="st0" d="M243.8,271.2c-1,0-2.1,0-3.1-0.1c-1.7-0.7-3.3-1.4-5.2-2.2c1.7-2.7,4.4-4,7.2-5.1
		C243.1,266.2,242,268.9,243.8,271.2z"/>
	<path class="st4" d="M307.9,218.8c-0.2,0.6-0.3,1.3-1.2,1.1C306.8,219.1,307.3,218.9,307.9,218.8z"/>
	<path class="st13" d="M224,271.8c-6.4,0.2-6.8,4.2-6.7,9.4c0.3,13.8,0,27.5,0,41.3c-7.1-0.9-13.7,0.3-19.7,4.3
		c-1.8-1.6-1-3.8-1.1-5.7c-0.9-16.1,1.3-32.1,1.1-48.2C206.4,272.4,215.2,271.1,224,271.8z"/>
	<path class="st0" d="M161.5,243.9c3.1,9.8,2.2,19.7,1,29.7c-2.4,1.6-5,0.9-7.6,1c-1.8-5.2-1.7-10.7-2.6-16.1c0.5-1.7-0.1-3.1-1-4.5
		c-0.7-4-1.4-8.1-2.2-12.1c0-1.6,0.6-3.3-1.1-4.4c0-1.1-0.1-2.3-0.1-3.4c2.2,0.8,4.2,2.3,4.4,4.5
		C152.7,245.2,156.8,244.9,161.5,243.9z"/>
	<path class="st7" d="M143.9,220.9c1,0.9,0.9,2.1,0.8,3.3c-4.5,0.4-8.7,2.7-13.4,2.3c-0.9-0.1-2,0.2-2.4-0.8c-0.5-1.4,0.7-2,1.6-2.4
		C134.8,221.2,139.3,220.7,143.9,220.9z"/>
	<path class="st7" d="M138.1,203.2c0.6,1.5,1.1,2.9,1.7,4.4c-5.5-0.2-10.7,2.9-17.2,1.9C127.2,204.5,132.9,204.4,138.1,203.2z"/>
	<path class="st7" d="M147.9,237.5c1.7,1.1,1.1,2.8,1.1,4.4c-5.2-0.7-10.3,2.4-16.1,0.5C137.6,238.6,142.5,237.2,147.9,237.5z"/>
	<path class="st7" d="M151.2,254c0.8,1.4,1.5,2.8,1,4.5c-3.6,0.6-7.1,1.3-10.7,1.8c-1,0.2-2.3,0.6-2.8-0.7c-0.5-1.3,0.7-2.1,1.6-2.5
		C143.7,255.3,147.5,254.6,151.2,254z"/>
	<path class="st2" d="M248.2,339.9c6-6.3,11.9-12.5,17.9-18.8c2.3,5.1,3.3,10.8,6.2,15.7c0.8,1.3,0.6,2.9,0,4.2
		c-6.5,14.6-9.5,30.2-13.9,45.4c-3.3-0.5-6.7-1-10-1.5c-0.1-4.9,0.4-9.9-0.3-14.7c-0.9-6,0.6-12.3-2-18.1
		C246.8,348.1,248.3,344.2,248.2,339.9z"/>
	<path class="st7" d="M377.1,335.2c-1.6,9.8-4.1,19.4-6.6,29c-1-4.2-2.1-8.4-3-12.7c-0.4-1.6-0.4-3.2,0.7-4.7
		C371.3,343,374.2,339.1,377.1,335.2z"/>
	<path class="st11" d="M373.3,173.7c-5-2.9-7.4,0-9.6,4.1c-2.5,4.8-6.9,8-10.7,11.6c-5.4,5-12.1,5.4-19,5.2
		c-13-4.5-16.9-15.5-19.2-27.3c-2.7-14.1-1.2-28.1,2.7-41.9c1-3.6,2.6-6.8,4.6-9.9c4.3-6.5,5.9-7.1,13.1-4.9c3.9,1.2,8,1.7,12,1.2
		c4.8-0.7,6.3,0.5,6,5.7c-0.7,13,2.8,25,11,35.4c2.5,3.2,4.8,6.1,8.9,1.5c1.5-1.7,4.1-2.5,6.5-0.5c3,2.5,3.4,5.7,2.1,9
		C379.8,167.2,376.9,170.8,373.3,173.7z M341.8,166.5c-6.2,1.8-11.9,2.2-17.6,0.1c-1.7-0.6-1.7,0.5-1.7,1.7c0,4.6,3.8,10.2,7.7,11
		c5.2,1.1,7.5-2.6,9.7-6.3C340.8,171.4,341.9,169.6,341.8,166.5z M326.9,142.1c2.4-3.2,2.6-6.4,0.6-9.5c-0.7-1-1.9-1.4-2.9-0.6
		c-2.8,2.3-4.1,5.2-3.4,9.2c2.6-1.8,1.5-6,5.1-7.1C326.5,137.1,326.7,139.6,326.9,142.1z M345.7,144.9c1.8-2.4,2.6-4.8,0.5-7
		c-0.8-0.9-2-1-3-0.2c-2.7,2.3-3.7,5.3-3.3,9.2c2.9-1.7,1.5-5.9,5.1-7C345.4,141.8,345.6,143.4,345.7,144.9z"/>
	<path class="st14" d="M246,352.2c2.6,5.8,1.1,12.1,2,18.1c0.7,4.8,0.3,9.8,0.3,14.7c-7.1-1.2-12.7,2.9-18.7,5.6
		c-3.2-3.8-6.5-7.5-11-9.9c0-3.9,0-7.9,0-11.8c8.7-1.1,16.4-4,22.4-10.9C242.7,356,242,352,246,352.2z"/>
	<path class="st13" d="M217.5,331.2c0,1.8,0,3.6,0,5.4c-1.7,0-4,0.3-4.1-2.1C213.4,332.4,215.4,331.4,217.5,331.2z"/>
	<path class="st12" d="M341.8,166.5c0.1,3.2-1,4.9-2,6.6c-2.1,3.7-4.5,7.4-9.7,6.3c-3.9-0.8-7.6-6.5-7.7-11c0-1.2,0-2.4,1.7-1.7
		C329.8,168.7,335.6,168.3,341.8,166.5z"/>
	<path d="M326.9,142.1c-0.2-2.5-0.3-5-0.5-8c-3.6,1.2-2.4,5.3-5.1,7.1c-0.7-4,0.6-6.9,3.4-9.2c1-0.8,2.2-0.5,2.9,0.6
		C329.5,135.7,329.3,139,326.9,142.1z"/>
	<path d="M345.7,144.9c-0.2-1.6-0.4-3.2-0.6-5c-3.5,1.1-2.2,5.3-5.1,7c-0.4-3.8,0.6-6.8,3.3-9.2c0.9-0.8,2.1-0.7,3,0.2
		C348.3,140.2,347.5,142.5,345.7,144.9z"/>
	<polyline class="st15" points="333.4,147.6 332.1,159.5 336.9,156.2 	"/>
</g>
</svg>
