<?xml version="1.0" encoding="utf-8"?>
<!-- Generator: Adobe Illustrator 22.0.0, SVG Export Plug-In . SVG Version: 6.00 Build 0)  -->
<svg version="1.1" id="Layer_1" xmlns="http://www.w3.org/2000/svg" xmlns:xlink="http://www.w3.org/1999/xlink" x="0px" y="0px"
	 viewBox="0 0 500 500" style="enable-background:new 0 0 500 500;" xml:space="preserve">
<style type="text/css">
	.st0{fill:#D3E8F7;}
	.st1{fill:#7BBF8C;}
	.st2{fill:#C9B8A0;}
	.st3{fill:#4F996C;}
	.st4{fill:#E6D5B9;}
	.st5{fill:#FDB63E;}
	.st6{fill:#FAEC02;}
	.st7{fill:#E7E8E8;}
	.st8{fill:#3671A4;}
	.st9{fill:#F18F0D;}
	.st10{fill:#1C1916;}
	.st11{fill:#D3D4D4;}
	.st12{fill:#343325;}
	.st13{fill:#804E2B;}
	.st14{fill:#633E24;}
</style>
<g>
	<path class="st0" d="M75,76.7c2.9-7,9.6-10.4,14.9-14.9c15.6-13.6,32.8-25,51.4-34C167,15.4,193.8,7.1,222.3,4.1
		c10.5-1.1,21-2.5,31.6-2.1c33.2,1.4,65.3,8.1,95.9,21.6c18.8,8.3,36.3,18.9,52.4,31.4c15.6,12.1,29.5,26,41.7,41.7
		c11.1,14.2,20.8,29.1,28.5,45.3c12,25.2,20.1,51.5,23,79.4c1.1,10.9,2.6,21.8,2.1,32.7c-1.5,32.9-7.9,64.6-21.6,94.7
		c-4.1,9-7.9,18-13.9,25.9c-10.4-3.1-20.5,2.7-30.9,1.3c-0.2,0-0.4,0.1-0.5,0.2c-4.2,4.4-9.3,5.3-15,3.9c-1.6-0.4-3.2,0.7-4.6,1.6
		c-3.3,2.2-10.6,1.4-13.2-1.4c-7.5-8.1-16.1-7.9-22.6,0.8c-1.8,2.3-2.6,2.2-4.5,0.4c-4.1-3.9-9.2-5-14.1-2.2
		c-4.2,2.3-7.6,6.1-12.9,2.2c-0.7-0.5-2.6,0-3.6,0.6c-2.4,1.5-4,1-6-1c-6.9-6.7-14.5-6.5-21.6,0.4c-6-7-11.2-14.5-16.3-22.2
		c4.3-4.1,0.6-10.2,4-14.9c-2.6-0.4-5.1-0.7-7.5-1.1c-2.7-0.1-5.3-0.3-8-0.4c-0.3-0.7-0.5-1.5-0.8-2.2c-0.3-0.4-0.5-0.8-0.8-1.2
		c0,0,0,0,0,0c-0.2-5-1.9-9.6-3.3-14.2c0-0.8,0-1.5,0-2.3c1.7-3.5,1.4-6.8-1.1-9.9l0,0c0-0.7-0.4-1.1-1.2-1.1c-1.5,0-2.9,0-4.4,0
		c-1.6-1-3.4-1.8-4.8,0.2c-2.5,3.8-2.4,7.9-1.1,12c0.6,1.8,1.5,3.4,3.8,3.1c1-0.1,1.7-0.6,2.1-1.5c3.8,3.3,4.8,8.1,6.7,12.4
		c-4.4,0.5-8.7-0.2-13-1.1c-0.4-0.6-0.7-1.6-1.2-1.6c-6.2-0.7-11.7-3.9-17.9-4.7c-2.3-0.3-3.6-1.4-4.4-3.4
		c0.6-6.8-0.8-13.4-3.9-19.4c-1.4-2.7-2-5.4-1.6-8.3c9.3-0.2,10.1-1.2,8.6-10.5c-0.1-0.5-0.4-1-0.6-1.5c1.3-1.1,2.8-2.2,0.8-3.9
		c0-1.7,0.1-3.4,0.1-5.1c3.1-1.6,1.2-3.4,0.3-5.3l-0.1,0c0-0.9-0.2-1.8-1.2-2.2l0,0c-0.3-0.4-0.7-0.8-1-1.2
		c-0.4-0.4-0.7-0.7-1.1-1.1l0,0c-2.4-3-5.6-3.9-9.2-3.5c-1,0-2,0-3,0.1c-2.8-0.5-5.1,0.4-6.9,2.5l0,0c-0.9,0.1-1.7,0.3-2,1.4
		c-0.4,0.4-0.8,0.7-1.1,1.1c-1,0.2-1.4,0.9-1.5,1.9c0,0,0,0,0,0c-0.3,0.4-0.6,0.9-0.9,1.3c0,0,0,0,0,0c-3.7,5.7-3.5,11.6,0.8,16.8
		l0.3-0.2l-0.3,0.2c0.1,0.9,0.5,1.6,1.5,1.8c0.4,0.4,0.7,0.7,1.1,1.1c0.3,1.5,3.6,2.7,0,4.5c-6,3-8.5,8.6-10.2,14.8
		c-2.4,8.7-2,17.7-2.6,26.6c-0.5,6.9-0.3,13.8-0.4,20.7c-3.4,6.8-3,13.1,2,19c-5.4,0-10.8-0.1-16.2-0.1c1.3-1.8,0.9-3.9,0.9-5.8
		c0-15.5,0-31,0-46.5c3.2-1.7,2.5-4.6,1.9-7.1c-0.7-2.5-3.3-1.6-5.1-1.7c-3.9-0.1-7.9-0.2-11.8-0.2c3.3-4.5,4.5-9.2,1.2-14.1
		c-3-4.5-7.5-6.7-12.8-8.2c7-5.3,8.6-9.3,7.1-15c-1.7-6.7-7.7-8.5-13-11.1c8.2-7.2,8.3-13.9,0.6-19.5c6-9.1,6.1-10.7,0.5-18.3
		c5.6-4.1,6.7-7.6,4.2-13.6c-1.4-3.4-3.7-5.8-6.8-7.7c-1.1-8.2-4.9-11.9-14.5-13.7c3.6-3.8,7.1-7.5,5-13.4c-1.7-4.8-5.3-6.7-10-7.1
		c0.3-1.4,0.7-2.8,1-4.1c4.2-2.4,3.8-6.5,3-10.1c-1.2-5.6-6-7.9-11.3-9.4c1.4-1.8,2.6-3.4,3.8-4.9c13.1,0,26.3,0,39.4,0
		c5.8,10.5,19.5,14.5,31,9.1c12-5.7,17.4-19.8,12.3-32c-4.1-9.8-14.3-16.1-24.5-15.3c-10.2,0.8-18.7,7.4-21.1,16.3
		c-5.5-1.5-10.5,0-14.7,3.6c-2.6,2.2-3.3,1.2-4.8-1.1c-4.9-7.6-12.1-11.3-21.2-11.2c-2.6-2.9-6.1-4.2-9.6-5.5
		c4.8-7.6,4.3-10.6-2.6-15.3c-1.8-1.3-1.8-1.8-0.4-3.1c3.6-3.3,4.4-7.4,2-11.4c-2.6-4.2-7.1-5.7-11.9-4.8c-2.7,0.5-3.4,0.1-3.5-2.8
		c-0.2-6.9-4.2-10.4-10.4-9.8c-7.3,0.8-9.7,4.2-8.3,12C85.2,73.6,80.1,75.3,75,76.7z M361.1,101c0.2-4.3-2.9-8.5-7.3-8.6
		c-4,0-6.2-1.9-8.6-4.5c-7.6-8-18.5-7.6-25.1,1.1c-2,2.7-3.5,2.9-6.3,2c-5.8-2-12-2-16.8,1.6c-4.9,3.7-11.5,0-15.8,4.6
		c-7.8-2.9-14.3,2-21.3,3.7c-1.3,3.7,1.9,2.2,3,2.2c31.3,0.1,62.7,0.1,94,0.1C358.6,103.2,360.7,103.7,361.1,101z M307.2,159.3
		c-0.3,2.8,1.3,3.3,3.7,3.3c25.8,0,51.5,0,77.3,0c2.4,0,3.9-0.6,3.7-3.4c-0.4-5.7-4.2-6.8-8.8-6.3c-1.7,0.2-2.8,0.6-4.3-1
		c-8-9.1-12.5-9.4-22.6-2.3c-4.1-6.8-9.4-11.7-17.9-11.2c-8.1,0.5-13.5,4.9-16.3,12.4c-0.8,2.1-1.4,2.7-3.9,2.1
		C312.7,151.7,308.8,153.8,307.2,159.3z M339.1,211c-1.1-2.2-3-2.6-5.1-1.8c-1.7,0.7-3.1,0.7-4.5-0.7c-5.2-5.2-11.7-4.7-18-3.8
		c-3.3,0.5-5.7,0.7-8.6-1.5c-2.9-2.3-6.7-3.2-10.3-1.3c-2.6,1.4-4.1,0.6-6.2-1c-9.7-7.5-20.3-8.7-31.3-3.3c-3.1,1.5-3.9,0.3-5.3-2.1
		c-9.4-16.1-34.5-16.4-43,0.9c-1.1,2.2-2.3,2.5-4.8,2c-8.3-1.7-15.7,4.4-15.8,12.8c-2.3,5.9,2.5,4.3,4.9,4.3
		c48.4,0.1,96.8,0.1,145.1,0.1c0.5,0,1.1,0,1.6,0c1.2-0.1,2.8,0.3,3.1-1.5C341.3,212.4,340.3,211.6,339.1,211z"/>
	<path class="st1" d="M75,76.7c5.1-1.4,10.1-3.1,15.5-1c-1.4-7.8,1-11.2,8.3-12c6.1-0.6,10.1,2.9,10.4,9.8c0.1,2.9,0.8,3.3,3.5,2.8
		c4.9-0.9,9.3,0.6,11.9,4.8c2.4,4,1.6,8.1-2,11.4c-1.4,1.3-1.4,1.9,0.4,3.1c6.9,4.7,7.4,7.7,2.6,15.3c3.5,1.3,7.1,2.7,9.6,5.5
		c3.6,7.5-0.6,12.3-6.5,16.6c5.1,2.1,9.3,4.2,10.3,9.6c-0.1,1.5-0.2,3-0.3,4.5c-1.2,1.6-2.4,3.1-3.8,4.9c5.2,1.5,10,3.7,11.3,9.4
		c0.8,3.6,1.2,7.7-3,10.1c0.1-3.8-0.2-7.5-5.2-8.1c-1.4-0.2-1.4-1.4-1.6-2.5c-0.8-3.1-2-5.9-5.9-6.2c-4.3-0.3-7.6,1-9.2,5.2
		c-0.8,2.1-1.8,2.9-4.4,2.6c-4.4-0.4-7.1,3.7-4.8,7.7c1.8,3.2,2.3,4.9-1.5,6.8c-2.2,1.1-1.6,3.4,0.1,5.1c1.5,1.4,1.6,2.4,0,4
		c-2,2-2.2,4.6-0.4,7c1.8,2.3,4.2,3,6.8,1.5c2.6-1.5,3.1-0.1,3.3,2.1c-0.6,2-2.4,2.4-3.9,3.4c-3.2,2.1-7.1,3.3-9.8,6.3
		c-0.6,0-1.2,0-1.9,0c-0.2-4.4-0.3-8.7-0.6-13.1c-1.2-20.2-3-40.3-3.1-60.5c8,1.9,8,2,11.2-6.1c0.5-1.3,1.4-1.5,2.4-1.9
		c2.8-1,5.2-2.6,4.8-5.9c-0.3-2.7-1.3-5.5-4.7-6c-2.1-0.3-1.9-1.3-1.7-3c0.6-5.6-2.1-7.8-7.5-6.2c-1.7,0.5-2.7,1-4.1-0.8
		c-4.8-6.4-9.5,4.2-14.6,0.3c-1-0.8-2.7,0.7-3.6,2c-1.1,1.7-1.3,3.6-0.2,5.2c1,1.6,1.1,2.5-0.8,3.3c-2.5,1.1-4.9,2.6-3.9,5.7
		c0.9,3,3.2,4.7,6.7,4.6c1.1,0,2.4-0.3,2.6,1.8c0.9,7.8,2.6,8.9,10.1,7c0.4,6.6-1.5,13.2-0.4,19.8c0,0.7,0,1.5,0,2.2
		c-0.1,2.5-0.2,5.1-0.2,7.6c-0.2,5.1-0.3,10.3-0.5,15.4c-1.3,1.9,0.3,4.3-1.4,6.5c-3.4-1.4-6.9-2.8-10.3-4.2
		c0.1-1.8,0.1-3.3,1.7-4.9c7.4-7,6.5-11.2-3.1-15.6c4.4-6.8,2.5-7.3-4.4-11c-6.1-3.3-10.3-2.4-15.7-0.6c-1.7,0.6-3.8,0-4.5,2.2
		c-0.7,1.9-0.1,3.9,1.4,5c3.5,2.4,2.4,3.9,0,6.7c-4.8,5.6-1.4,13,5.9,13.8c1.5,0.2,2.9-0.1,3.3,1.9c1,5.1,5,5.7,9.2,5.8
		c3.6,2.3,7.1,5,10.9,6.8c4.9,2.2,7.4,5.3,6.5,10.8c-0.4,8.5-1,17-1.1,25.5C94.8,241,95,241,80.6,240.4c1.8-4.8,4.3-9.6-0.9-13.9
		c-1.1-0.9-0.4-1.5,0.4-2.1c4.9-3.4,3.8-7.7,1.6-12c-2.3-4.4-6-5.6-10.6-4.3c-1.1,0.3-2,0.3-3.1-0.1c-9.8-3-13.1-0.9-13.8,9.3
		c-0.2,2.5-0.8,3.4-3.4,3.6c-6.3,0.5-8.3,4.8-4.7,10c1.2,1.7,1.5,2.8,0.5,4.8c-2.3,4.5-0.9,7.1,4.2,8.1c2.1,0.4,3.4,0.8,3.4,3.2
		c0,2.7,2,4.1,4.2,4.2c2.5,0.1,4.5-1.5,5.4-3.9c0.6-1.6-0.2-3.8,1.9-4.8c3.3,5.9,9.5,6.1,15.1,7.5c13.4,3.5,13.4,3.5,12.9,17.1
		c-2.8-1-5.5,1.6-8.4,0.3c-3.2-1.4-12.5,2.9-13.4,6.3c-0.2,0.7-0.1,1.5,0,2.2c0.2,1.2,1.2,2.3,0.7,3.7c-3.3,8.7,6.3,4,8.1,7.7
		c0.7,1.4,3,1.1,4.4-0.1c2.6-2.5,6.8-3,8.5-6.7c-0.3,6.6-0.8,13.1-0.7,19.7c0,3.8-1.3,4.8-4.8,4.4c-8.3-1.1-16.8-1.1-25.2-1
		c-1,0-2,0-3-0.1c-0.3-3.3-2.4-5.9-3.5-8.9c2.3-2.6-1.1-7.6,4-9.2c3.4-1,5.7-3.5,5.7-7.2c0-3.6-2.3-6.2-5.7-7.2
		c-2.1-0.7-2-1.7-1.9-3.6c0.3-6.2-3.7-9.1-9.9-7.2c-1.8,0.6-2.8,0.9-4-0.9c-2.9-4.4-6.5-3.8-10.3-0.9c-8.8-7.9-6.4-16.1,6.7-21
		c-5.7-4-7.8-9.4-6.5-15.8c1.4-6.6,6.9-9.4,12.7-12.2c-5.9-1.9-9.2-5.6-9.5-11.3c-0.4-9.3,6.5-12.7,14.1-16
		c-5.7-2.7-9.4-6.4-8.1-12.5c1.4-6.5,6.4-9.2,13.5-9.7c-4.8-3.5-10.9-5.6-9.2-12.2c2.3-8.5,10-8.8,18-9.7
		c-5.3-3.2-11.2-5.7-10.5-12.2c0.9-8.3,9.5-6.2,14.9-9c-4.6-2.9-8.6-5.8-7.5-11.8c1.1-6,6.3-6.8,11.3-8.3c-4.4-4.8-5.8-9.8-3.7-15.5
		c0,0,0-0.1,0-0.1c0.9-0.3,1.2-1.1,1.4-2c0.3-0.3,0.6-0.6,1-1C73.9,77.9,74.7,77.7,75,76.7L75,76.7z"/>
	<path class="st0" d="M70.6,81.1c-2.1,5.7-0.7,10.7,3.7,15.5c-5,1.5-10.2,2.4-11.3,8.3c-1.1,6,2.8,8.9,7.5,11.8
		c-5.5,2.9-14,0.7-14.9,9c-0.7,6.4,5.2,9,10.5,12.2c-7.9,0.9-15.7,1.2-18,9.7c-1.8,6.6,4.4,8.7,9.2,12.2c-7.1,0.4-12.1,3.1-13.5,9.7
		c-1.3,6.1,2.5,9.8,8.1,12.5c-7.7,3.3-14.6,6.7-14.1,16c0.3,5.7,3.5,9.4,9.5,11.3c-5.7,2.8-11.3,5.6-12.7,12.2
		c-1.3,6.4,0.8,11.9,6.5,15.8c-13.1,4.9-15.5,13-6.7,21c-0.5,2.4-1.5,3-3.8,1.6c-2.4-1.5-5-1.1-7,1c-1.9,2-2.8,4.5-1.1,7
		c1.9,2.9,0.2,3.4-2,4.6c-4.8,2.4-5.2,7.6-1,10.4c1.7,1.1,3.7,1.8,5.7,1.6c2.9-0.3,3,1.2,2.5,3.3c-8.1,8.1-7.6,14.6,1.8,20.7
		c-5.7,2.4-8.5,6.9-7.4,12.6c1.5,8,8.2,9.7,15.8,10.2c-3.7,5.1-4.7,10.2-0.5,14.5c5.6,5.8,12.2,4.1,18.6,0.7
		c0.9,9.4,3.1,13.1,9.2,14.5c6.7,1.5,11.5-2.7,16.3-6.6c2.3,7.6,3.7,9.3,9.2,11.7c0.2,1.5,0.3,3,0.5,4.5c-0.2,2.9-0.4,5.7-0.7,8.6
		c-5.3-2-10.5-1.6-14,2.8c-3.4,4.2-5.9,0.9-8.3-0.3c-3.4-1.7-6.2,4.1-9.5,0.4c-5.6-6.1-12.3-6.3-19.6-3.7
		c-4.9-10.2-10.8-19.8-15.3-30.2c-8.3-19.5-14.5-39.7-17.8-60.6c-2.2-13.8-3.8-27.8-3.3-41.8c1.3-33.2,8-65.2,21.6-95.8
		c9.7-21.9,22.5-41.6,37.6-60.1C64.3,86.6,67.6,84,70.6,81.1z"/>
	<path class="st1" d="M312.4,381.6c7.1-6.9,14.7-7.1,21.6-0.4c2.1,2,3.6,2.5,6,1c1-0.6,2.9-1.1,3.6-0.6c5.2,3.9,8.7,0.2,12.9-2.2
		c4.9-2.7,10-1.7,14.1,2.2c1.9,1.8,2.7,1.9,4.5-0.4c6.6-8.7,15.2-8.9,22.6-0.8c2.6,2.8,9.9,3.6,13.2,1.4c1.4-0.9,2.9-2,4.6-1.6
		c5.8,1.4,10.8,0.5,15-3.9c0.1-0.1,0.3-0.2,0.5-0.2c10.4,1.4,20.4-4.4,30.9-1.3c1.5,1.5,0.7,2.9-0.2,4.4
		c-13.2,20.9-28.2,40.3-47.6,56.1c-21,0-42,0-62.9,0c-2.4-3.7-5.2-7.1-8.6-9.9c1.9-1.9,6.4,0.4,6.8-3.2c0.4-3.4-3.1-5-5.4-7
		c-6.5-5.5-14.4-7.6-22.3-9.5c0.6-6.2-0.9-11.8-4.4-16.9C315.5,386.5,314,384,312.4,381.6z"/>
	<path class="st2" d="M358.7,472.6c-20.4,10.1-41.8,17-64.2,21.1c-16,2.9-32.1,4.8-48.4,4.3c-36.7-1.2-71.8-8.9-104.9-25.4
		c2.3-1.8,4.9-0.7,7.4-0.9c8.1-0.6,16.3,1.1,24.3-0.9c5.9,1.8,11.7,1.1,17.5-0.4c1.5,2.1,3.7,1.3,5.6,1.3c38.9,0,77.8,0,116.8,0
		c1.9,0,4.1,0.7,5.5-1.4c6.5,2,13,2.2,19.5,0c1.6,2.3,3.9,1.2,6,1.4C348.7,472.2,353.8,470.5,358.7,472.6z"/>
	<path class="st1" d="M39,378.4c7.3-2.7,14-2.5,19.6,3.7c3.3,3.6,6.1-2.1,9.5-0.4c2.4,1.2,4.9,4.5,8.3,0.3c3.6-4.4,8.8-4.8,14-2.8
		c0.8,10.4-1.2,20.7-0.7,31c-0.1,8-0.3,16.1-0.4,24.1c-1.1,0.4-2.3,0.7-3.4,1.1C67,420.1,52.4,401.2,39.4,381
		C38.9,380.3,39.1,379.3,39,378.4z"/>
	<path class="st3" d="M85.9,435.4c1.1-0.4,2.3-0.7,3.4-1.1c9.5,0,19.1-0.1,28.6-0.1c1.6,1.8,3.7,1.1,5.6,1.1
		c11.4,0.1,22.9,0.1,34.3,0.2c-1.9,5.3-2.8,10.7-2.1,16.3c-3.1,0.1-6.2,0.2-9.3,0.2c-12.4,0.3-24.9-0.6-37.3,0.5
		C99.7,448.9,93,441.9,85.9,435.4z"/>
	<path class="st3" d="M351.2,435.3c21,0,42,0,62.9,0c-7.1,6.5-13.9,13.5-23.2,17.2c-12.5-1.2-25.1-0.1-37.6-0.6
		C353.7,446.3,353.4,440.7,351.2,435.3z"/>
	<path class="st4" d="M109,452.5c12.4-1.1,24.9-0.2,37.3-0.5c3.1-0.1,6.2-0.2,9.3-0.2c3,8.8,8.1,15.7,17.3,18.9
		c-8,2-16.2,0.3-24.3,0.9c-2.5,0.2-5.1-0.9-7.4,0.9c-9.8-5.5-20.1-10.3-29.2-17.1C110.9,454.6,109.5,454.1,109,452.5z"/>
	<path class="st4" d="M353.3,451.9c12.5,0.5,25.1-0.6,37.6,0.6c-4.8,5.4-11.4,8.3-17.3,12.1c-4.7,3-9.9,5.4-14.9,8
		c-4.9-2.1-9.9-0.4-14.9-0.9c-2-0.2-4.4,0.9-6-1.4C345.8,466.5,350.6,460.1,353.3,451.9z"/>
	<path class="st0" d="M72,79.1c-0.2,0.9-0.5,1.6-1.4,2C70.7,80.1,71,79.3,72,79.1z"/>
	<path class="st0" d="M75,76.7c-0.3,1-1.1,1.2-2,1.4C73.3,77.1,74.1,76.8,75,76.7z"/>
	<path class="st5" d="M312.4,381.6c1.6,2.4,3.1,4.8,4.7,7.2c3.6,5.1,5,10.7,4.4,16.9c0,1.4,0,2.8,0,4.2c-1,0.7-1.3,1.7-0.7,2.8
		c-3.8,5.5-7.8,10.9-11.3,16.5c-2.8,4.4-6.7,8.1-8,13.4c-6.1,6.5-13.9,7.7-22.4,7.5c-19.7-0.3-39.4-0.2-59.1-0.1
		c-4.7,0-9.5-0.6-14.2,0.5c-2.4-0.3-4.8-0.7-7.2-1c-0.6-1-1.6-1-2.6-1l0.1,0.1c-2.9-2.3-6.2-3.6-9.8-4.6l0,0
		c-0.4-0.3-0.9-0.5-1.3-0.8c-1.3-0.9-2.6-1.5-4.2-1.3c-0.8-1.7-2.4-2-4-2.1c-2.2-1.8-4.8-2.9-7.6-3.5c-1.4-1-2.7-2.1-2.1-4.1
		c1.8,0.1,3.7,0.1,5.4,0.4c11.6,2.4,23.2,5,34.7,7.5c9.1,1.9,16.2-3.2,17.4-12.5c0.4-3.3,0.7-6.5,1.2-9.8c2.1-14.3-8.9-19.3-18.9-17
		c-12.4,2.8-25,4.7-37.4,7c-0.4-0.4-0.8-0.9-1.1-1.3c3.9-3.5,7.9-7,11.7-10.5c1.2-1.1,2.6-1.2,4.1-1.1c16.5,1.4,33,3,49.5,4.2
		c3.9,0.3,3.9,1.2,2.7,4.5c-3.1,8.2-5,16.7-2.9,25.7c2,8.9,7.8,14,16.9,14c9.9,0,19.8-0.2,29.7,0.1c5.8,0.2,9.8-2.7,12.1-7.1
		c9.2-17.1,13.6-34.8,5.6-54c-3-7.1-6.4-14.4-6.1-22.6c1.2-0.1,2.3-0.2,3.5-0.3c0.3,0.2,0.6,0.3,0.9,0.3
		C301.2,367.1,306.4,374.7,312.4,381.6z"/>
	<path class="st6" d="M196,326.5c0,15.5,0,31,0,46.5c0,2,0.4,4-0.9,5.8c-21.1,0.6-42.1,0.4-63.2,0.1c-1.6-6.1-0.1-12.4-0.9-18.6
		c0-2.5,0-5.1,0-7.6c0.1-8.8,0.1-17.5,0.2-26.3C152.8,326.5,174.4,326.5,196,326.5z M145,365.4c1.5,3.4,3.6,4.2,5.7,4.5
		c6.2,0.8,12.5,0.9,18.5-0.7c9-2.5,14.4-10.7,13.6-19.5c-0.9-9.1-7.5-15.9-16.9-16.5c-5.5-0.4-11-0.1-16.5-0.1c-3.3,0-5.2,1.6-5.2,5
		c0,6.6,0,13.2,0,19.8c0,1.9,0.3,3.3,2.6,3.3c6.6-0.1,13.2,0.6,19.7-0.5c4.1-0.7,6.3-3.6,7.3-7.3c0.7-2.6,0.1-4.2-3.2-4
		c-3.1,0.2-6.2,0.1-9.3,0c-1.2,0-3,0.2-2.9-1.5c0.1-1.6,1.9-1.3,3.1-1.4c3.3,0,6.6,0,11.1,0c-5.2-5.8-10.7-4.3-15.8-4.6
		c-5.3-0.3-3.4,3.7-3.5,6.1c-0.1,2.6-1.5,6.3,3.7,6c3.6-0.2,7.1,0,11.3,0c-0.9,1-1.2,1.6-1.6,1.7c-5.6,1.1-11.8,2.1-16.7,0
		c-3.4-1.4-0.7-7.7-1.2-11.8c-0.2-1.3,0-2.6,0-3.8c0-1.9,0.8-2.6,2.7-2.6c4.6,0.1,9.2-0.3,13.7,0.1c5.4,0.5,9.7,3.2,12,8.4
		c4.1,9.2-2.6,18.7-13.6,19.3C157.7,365.6,151.7,365.4,145,365.4z"/>
	<path class="st1" d="M164.1,249.5c7.7,5.7,7.6,12.3-0.6,19.5c5.3,2.7,11.3,4.5,13,11.1c1.5,5.7-0.2,9.7-7.1,15
		c5.3,1.4,9.9,3.7,12.8,8.2c3.3,5,2.1,9.7-1.2,14.1c-11.5,0-22.9,0-34.4,0c-0.1-0.8-0.3-1.6-0.4-2.4c1-2.8,2-5.6,2.9-8.4
		c2.5-0.2,5.1,2.2,7.3,0c3.7-3.8,5.3-9.3,9.9-12.6c0.4-0.3,0.5-2,0.1-2.6c-3.1-4.2-6-8.5-7.9-13.4c-0.3-0.7-2.2-1.3-2.9-1
		c-5.6,2.8-11.6-7.9-16.9,0.6c-0.1,0.1-0.9-0.4-1.5-0.5c-5.3-1.4-7.5,0.5-6.9,5.9c0.2,1.5,1.6,3.1-0.8,4.1c-2.4,1-4.1,2.4-3.7,5.4
		c0.5,3.3,3,4.4,5.7,5.1c1.4,0.4,3,0.3,3.1,2.4c0.1,6.2,4.2,6.9,9,6.7c-0.9,1.8-1.8,3.6-2.8,5.4c-1.8,0-3.7,0.1-5.3,1.2
		c-2.5,1.6-4,1.9-5.8-1.5c-2.3-4.3-7.5-4.5-10.3-0.4c-2.4,3.6-4.2,3.5-6.9,0.9c-0.3-0.3-1-0.2-1.6-0.3c-0.6-9.1-1.1-18.2-1.8-27.3
		c-0.2-2.7,0.7-4.4,3-5.8c6.9-4.4,13.7-9.2,20.6-13.6c2.3-1.5,3.9-3.2,4.4-5.9c5.4,0.6,8.8-1.4,9.5-7.1c0.2-1.9,1.4-3.3,3.4-2.5
		C154.8,251.5,159.4,250.2,164.1,249.5z"/>
	<path class="st7" d="M186.2,211c0.2-8.3,7.6-14.5,15.8-12.8c2.5,0.5,3.7,0.3,4.8-2c8.5-17.3,33.6-17,43-0.9
		c1.4,2.4,2.2,3.6,5.3,2.1c11-5.3,21.6-4.1,31.3,3.3c2.1,1.7,3.7,2.4,6.2,1c3.6-1.9,7.4-0.9,10.3,1.3c2.9,2.2,5.3,2,8.6,1.5
		c6.3-1,12.9-1.4,18,3.8c1.4,1.4,2.8,1.3,4.5,0.7c2.1-0.8,4-0.5,5.1,1.8C288.1,211,237.2,211,186.2,211z"/>
	<path class="st8" d="M211.3,379c-5.1-5.9-5.5-12.2-2-19c4,2.8,8.8,2.7,13.4,3.5c4.1,1.6,8.5,1.5,12.7,2.2c6.9,1.1,14,1,20.2-3.1
		c1.5,0.1,2.9,0,4.4,0.2c10,1.8,13.3,5.1,12.1,13.5c-0.3,1.9,0.1,4,0.2,6c-1.9,15.4-3.3,30.9-3.4,46.5c-5.2,3-11.3,3.5-16.9,5.5
		c-1.2-1.4-0.6-3.1-0.9-4.7c-2-12-0.5-23.9,0-35.9c0.2-1.6,0.1-3.3,0.6-4.8c1.6-4.8-0.5-6.3-4.9-6.2c-4.4,0-8.7,0-13.1-0.2
		C226.1,381.9,218.4,382.4,211.3,379z"/>
	<path class="st1" d="M142.4,175.7c4.7,0.4,8.3,2.3,10,7.1c2.1,5.9-1.4,9.6-5,13.4c9.6,1.8,13.4,5.5,14.5,13.7
		c-3.3-1.6-5.9,2.8-9.2,1.1c-9.6-5.1-16.1-1.4-16,9.4c0,3.3-0.5,4.3-4.1,3.9c-5.4-0.6-9.8,4-7.7,8.2c2.1,4.2,2.1,7.4,0.9,11.7
		c-1.7,6,4.2,5.9,7.7,7.6c-1.6,4.9-5.1,7.6-10,9c-3.3,0.9-6.5,2.5-9.6,3.9c-4.1,2-6,1.6-6-3.8c-0.1-10.7-0.9-21.4-1.4-32.1
		c1.5,0.1,2.8-1.1,4.6,0c1.9,1.2,10-4.6,10-6.9c0-0.4,0.1-0.9-0.1-1c-4.4-2.8-2.3-8.5-5.4-11.9c1.2-1.1,2.3-2.2,3.5-3.3
		c0,0,0,0.1,0,0.1c2.8-1.6,6.5-2.3,6.5-6.7c5.7-2.9,11.8-5.2,16.9-8.9C147,186.7,146.5,182.3,142.4,175.7z"/>
	<path class="st3" d="M133.5,251.7c-3.4-1.7-9.4-1.5-7.7-7.6c1.2-4.3,1.2-7.5-0.9-11.7c-2.1-4.3,2.3-8.8,7.7-8.2
		c3.6,0.4,4.1-0.6,4.1-3.9c-0.1-10.8,6.4-14.5,16-9.4c3.3,1.7,5.9-2.7,9.2-1.1c3,1.9,5.4,4.3,6.8,7.7c2.4,5.9,1.4,9.5-4.2,13.6
		c5.6,7.6,5.5,9.2-0.5,18.3c-4.6,0.8-9.2,2-14,0.3c-1.9-0.7-3.2,0.7-3.4,2.5c-0.7,5.7-4.1,7.8-9.5,7.1c-0.9-1.2-1.7-2.4-2.6-3.5
		C134.4,254.5,135,252.8,133.5,251.7z"/>
	<path class="st9" d="M176,125.2c2.4-8.9,11-15.5,21.1-16.3c10.2-0.8,20.3,5.5,24.5,15.3c5.2,12.2-0.2,26.3-12.3,32
		c-11.5,5.4-25.1,1.4-31-9.1c6.8,0,13.5-0.2,20.3,0.1c3.5,0.1,4.7-1.2,3.9-4.5c-1.9-6.5-5.8-9.3-11.9-7.5c-2.8,0.8-3.6,0.2-4.8-2.2
		C183.9,128.9,180.5,126.4,176,125.2z"/>
	<path class="st5" d="M222.7,363.5c-4.6-0.8-9.3-0.7-13.4-3.5c0.1-6.9-0.1-13.8,0.4-20.7c0.7-8.9,0.3-17.9,2.6-26.6
		c1.7-6.2,4.2-11.8,10.2-14.8c3.6-1.8,0.3-3,0-4.5c8.7,0.2,10.6-1.2,10.9-8.2c0.3-7.7,0.5-8,8.7-8.1c2.7,0,4.7-0.4,4.9-3.6
		c0.9,1.8,2.8,3.7-0.3,5.3c-2.2-1-4.4-0.5-6,0.9c-0.9,0.8,0.4,2.2,1,3.2c1.3,2.3,2.9,2.3,4.9,1c2,1.8,0.5,2.8-0.8,3.9
		c-3.3-0.7-3.2,3.2-5.1,4.3c-1.1-2-2.1-3.8-3.1-5.5c-0.5-0.8-2-1.3-2.2-0.5c-0.6,3.2-2.6,6.1-3,9.1c-0.4,2.7,3.2,3.4,5.4,4.6
		c-0.3,3,0.3,5.6,1.6,8.3c3.1,6.1,4.5,12.6,3.9,19.4c-0.6-0.7-1.1-1.4-1.7-2.1c-4.1-5.6-8-11.4-12.4-16.7c-2.6-3.1-6.2-4.9-10-1.5
		c-3.7,3.2-3.8,6.4-0.7,10.4c7.9,10.3,12.1,22.4,15.8,34.7c0.9,3.1,0.1,5.1-3,6.7C228.4,360.4,225,361,222.7,363.5z"/>
	<path class="st3" d="M142.4,175.7c4.1,6.6,4.6,11,0.1,14.3c-5.1,3.7-11.2,6-16.9,8.9c-1.1-0.3-2.2-0.7-3.3-1c-0.4-0.8-1-1.1-1.8-1
		c-0.2-2.1-0.7-3.6-3.3-2.1c-2.6,1.5-5,0.8-6.8-1.5c-1.8-2.3-1.6-4.9,0.4-7c1.6-1.6,1.5-2.6,0-4c-1.8-1.6-2.3-4-0.1-5.1
		c3.8-1.9,3.3-3.6,1.5-6.8c-2.2-4,0.4-8.1,4.8-7.7c2.6,0.2,3.6-0.5,4.4-2.6c1.6-4.3,5-5.5,9.2-5.2c3.9,0.3,5.1,3,5.9,6.2
		c0.3,1.1,0.3,2.3,1.6,2.5c5.1,0.6,5.3,4.2,5.2,8.1C143.1,173,142.8,174.3,142.4,175.7z"/>
	<path class="st9" d="M222.7,363.5c2.3-2.5,5.7-3,8.6-4.5c3.1-1.5,3.9-3.6,3-6.7c-3.7-12.3-7.9-24.4-15.8-34.7
		c-3.1-4.1-2.9-7.3,0.7-10.4c3.9-3.3,7.5-1.6,10,1.5c4.4,5.3,8.3,11.1,12.4,16.7c0.5,0.7,1.1,1.4,1.7,2.1c0.8,2,2.1,3.1,4.4,3.4
		c6.1,0.8,11.7,4,17.9,4.7c0.5,0.1,0.8,1.1,1.2,1.6c-0.5,2.1-0.9,4.1-1.4,6.2c-4.7,1.1-9.4,0.2-14,0.1c-5.4-0.1-10.2,0-9.6,7.6
		c0.1,1.7-0.5,3.6-1.2,5.3c-1.7,4,0.5,4.6,3.7,5c3.8,0.4,7.7-0.3,11.3,1.1c-6.3,4.1-13.4,4.3-20.2,3.1
		C231.2,364.9,226.7,365.1,222.7,363.5z"/>
	<path class="st10" d="M211.3,379c7.1,3.5,14.8,3,22.3,3.4c4.3,0.2,8.7,0.3,13.1,0.2c4.4,0,6.6,1.5,4.9,6.2
		c-0.5,1.5-0.4,3.2-0.6,4.8c-0.7,0-1.5,0-2.2,0.1c-22.6-1-45.3,1.6-67.7-2.4c-3-1.3-6.2-2.4-6-6.6c0.1-2.7-1.9-2.2-3.4-2.2
		c-11.6,0-23.2,0.1-34.8,0.2c-1.7,0-3.3,0-5,0c-2.7-1.3-2.5-2.5,0-3.8c21.1,0.3,42.2,0.5,63.2-0.1
		C200.5,378.9,205.9,378.9,211.3,379z"/>
	<path class="st7" d="M176,125.2c4.5,1.1,7.9,3.7,9.9,7.8c1.1,2.4,1.9,3,4.8,2.2c6.1-1.8,10,1,11.9,7.5c-21.1,0-42.2,0-63.3-0.1
		c-1-5.4-5.3-7.5-10.3-9.6c5.9-4.3,10.1-9.1,6.5-16.6c9.1-0.1,16.2,3.7,21.2,11.2c1.5,2.3,2.2,3.3,4.8,1.1
		C165.5,125.2,170.5,123.7,176,125.2z"/>
	<path class="st7" d="M307.2,159.3c1.7-5.5,5.5-7.6,10.9-6.4c2.4,0.6,3.1,0,3.9-2.1c2.8-7.5,8.3-11.9,16.3-12.4
		c8.5-0.5,13.8,4.4,17.9,11.2c10-7.1,14.6-6.7,22.6,2.3c1.4,1.6,2.5,1.2,4.3,1c4.6-0.5,8.4,0.7,8.8,6.3
		C363.6,159.3,335.4,159.3,307.2,159.3z"/>
	<path class="st7" d="M259.9,101c7-1.7,13.5-6.6,21.3-3.7c4.3-4.7,10.9-0.9,15.8-4.6c4.8-3.6,11-3.6,16.8-1.6c2.8,1,4.3,0.7,6.3-2
		c6.5-8.8,17.5-9.2,25.1-1.1c2.5,2.6,4.6,4.5,8.6,4.5c4.5,0,7.6,4.3,7.3,8.6C327.4,101,293.6,101,259.9,101z"/>
	<path class="st11" d="M186.2,211c51,0,101.9,0,152.9,0c1.2,0.6,2.3,1.4,2,2.9c-0.4,1.8-1.9,1.4-3.1,1.5c-0.5,0-1.1,0-1.6,0
		c-48.4,0-96.8,0-145.1-0.1C188.7,215.3,183.9,216.9,186.2,211z"/>
	<path class="st9" d="M146.6,317.5c11.5,0,22.9,0,34.4,0c3.9,0.1,7.9,0.1,11.8,0.2c1.9,0.1,4.4-0.8,5.1,1.7c0.7,2.5,1.3,5.4-1.9,7.1
		c-21.6,0-43.2,0-64.8,0c-3.2-1.7-2.5-4.7-1.8-7.2c0.7-2.5,3.3-1.6,5.2-1.6C138.6,317.5,142.6,317.5,146.6,317.5z"/>
	<path class="st9" d="M247,273.5c-0.2,3.2-2.2,3.5-4.9,3.6c-8.2,0.1-8.4,0.4-8.7,8.1c-0.3,7-2.2,8.4-10.9,8.2
		c-0.4-0.4-0.7-0.8-1.1-1.1c-0.1-1-0.3-1.8-1.5-1.8l0.3-0.2c0,0-0.3,0.2-0.3,0.2c-1.8-5.5-2.6-11.1-0.8-16.8c0,0,0,0,0,0
		c0.3-0.4,0.6-0.9,0.9-1.3c0,0,0,0,0,0c1.2-0.1,1.4-0.9,1.5-1.9c0.4-0.4,0.8-0.7,1.1-1.1c1,0,1.7-0.3,2-1.4c0,0,0,0,0,0
		c2.7,0.1,5.1-0.3,6.9-2.5c1,0,2,0,3-0.1c2.7,2.2,5.9,3,9.2,3.5c0,0,0,0,0,0c0,0.8,0.4,1.1,1.1,1.1c-0.1,0.7,0.3,1.1,1,1.2
		c0,0,0,0,0,0C245.6,272.3,245.7,273.2,247,273.5L247,273.5z"/>
	<path class="st11" d="M139.2,142.7c21.1,0,42.2,0,63.3,0.1c0.8,3.3-0.4,4.6-3.9,4.5c-6.7-0.2-13.5-0.1-20.3-0.1
		c-13.1,0-26.3,0-39.4,0C139.1,145.7,139.1,144.2,139.2,142.7z"/>
	<path class="st11" d="M307.2,159.3c28.2,0,56.4,0,84.7,0c0.3,2.8-1.2,3.4-3.7,3.4c-25.8,0-51.5,0-77.3,0
		C308.5,162.6,306.9,162.1,307.2,159.3z"/>
	<path class="st11" d="M259.9,101c33.7,0,67.5,0,101.2,0c-0.4,2.7-2.5,2.2-4.2,2.2c-31.3,0-62.7,0-94-0.1
		C261.8,103.1,258.6,104.7,259.9,101z"/>
	<path class="st10" d="M295.2,359.2c-1.2,0.1-2.3,0.2-3.5,0.3c-2.9-0.1-5.7-0.1-8.6-0.2c-1.6-3.1-2.8-6.2-3-9.7
		c4.7,0,5.9-2.4,4.5-6.6c2.7,0.1,5.3,0.3,8,0.4C293.9,348.6,295.3,353.8,295.2,359.2z"/>
	<path class="st10" d="M237.8,299.8c-2.2-1.2-5.8-1.9-5.4-4.6c0.4-3,2.4-5.8,3-9.1c0.2-0.8,1.7-0.3,2.2,0.5c1.1,1.7,2,3.4,3.1,5.5
		c2-1.2,1.8-5.1,5.1-4.3c0.2,0.5,0.5,1,0.5,1.5C247.9,298.6,247.1,299.7,237.8,299.8z"/>
	<path class="st5" d="M284.6,343.1c1.4,4.2,0.2,6.6-4.5,6.6c-0.3-0.2-0.4-0.5-0.4-0.9c2.3-1.3,3.4-3.3,1.3-5.2c-2-1.8-4-1-5.1,1.6
		c-3.5-0.5-7-1-10.5-1.6c0.5-2.1,0.9-4.1,1.4-6.2c4.3,0.9,8.6,1.7,13,1.1c1.1,0.4,2.2,0.8,3.2,1.2c0,0,0,0,0,0
		c0.3,0.4,0.5,0.8,0.8,1.2C284.1,341.6,284.3,342.3,284.6,343.1z"/>
	<path class="st1" d="M273.1,326c-0.4,0.9-1.1,1.4-2.1,1.5c-2.3,0.2-3.3-1.3-3.8-3.1c-1.3-4.1-1.4-8.3,1.1-12c1.4-2,3.1-1.2,4.8-0.2
		c1,1.7,1.5,3.5,0.9,5.4c-1.6,0.2-3.5,0-2.4,2.7C272.2,322.1,272.6,324.1,273.1,326z"/>
	<path class="st3" d="M273.1,326c-0.5-1.9-0.9-3.9-1.6-5.7c-1-2.7,0.8-2.5,2.4-2.7c0.4,2.1,0.6,4.3,1.2,6.4c0.7,2.7,2.5,2.7,4.5,1.4
		c1.4,4.7,3.1,9.3,3.3,14.2c-1.1-0.4-2.2-0.8-3.2-1.2C277.9,334.1,276.9,329.3,273.1,326z"/>
	<path class="st1" d="M295.2,359.2c0.1-5.4-1.3-10.5-2.6-15.7c2.5,0.4,4.9,0.7,7.5,1.1c-3.4,4.7,0.3,10.8-4,14.9
		C295.8,359.4,295.5,359.3,295.2,359.2z"/>
	<path class="st11" d="M279.7,325.4c-2.1,1.3-3.8,1.3-4.5-1.4c-0.5-2.1-0.8-4.3-1.2-6.4c0.6-2,0.1-3.7-0.9-5.4c1.5,0,2.9,0,4.4,0
		c0.1,0.7,0.4,1.2,1.2,1.1c0,0,0,0,0,0c0.1,3.3-0.8,6.8,1.1,9.9C279.7,323.9,279.7,324.6,279.7,325.4z"/>
	<path class="st12" d="M246.6,283.9c-2,1.3-3.6,1.3-4.9-1c-0.6-1.1-1.9-2.4-1-3.2c1.6-1.4,3.8-1.9,6-0.9
		C246.7,280.4,246.6,282.1,246.6,283.9z"/>
	<path class="st5" d="M219.2,273.6c-1.8,5.7-1,11.3,0.8,16.8C215.7,285.2,215.4,279.3,219.2,273.6z"/>
	<path class="st1" d="M279.7,323.1c-1.9-3.1-1-6.6-1.1-9.9C281.1,316.3,281.4,319.6,279.7,323.1z"/>
	<path class="st5" d="M243.7,269c-3.3-0.6-6.6-1.3-9.2-3.5C238.1,265,241.3,265.9,243.7,269z"/>
	<path class="st5" d="M231.5,265.5c-1.8,2.2-4.3,2.6-6.9,2.5C226.4,265.9,228.7,265,231.5,265.5z"/>
	<path class="st5" d="M221.5,270.5c-0.1,1-0.3,1.8-1.5,1.9C220.1,271.4,220.5,270.7,221.5,270.5z"/>
	<path class="st5" d="M224.6,268c-0.2,1.1-1,1.3-2,1.4C222.8,268.3,223.6,268,224.6,268z"/>
	<path class="st5" d="M220,290.4c1.2,0,1.4,0.9,1.5,1.8C220.5,292.1,220.1,291.3,220,290.4z"/>
	<path class="st5" d="M247,273.5c-1.3-0.2-1.4-1.2-1.2-2.2C246.7,271.7,247,272.5,247,273.5z"/>
	<path class="st3" d="M283.8,340.8c-0.3-0.4-0.5-0.8-0.8-1.2C283.3,340,283.5,340.4,283.8,340.8z"/>
	<path class="st5" d="M244.8,270.1c-0.8,0-1.1-0.3-1.1-1.1C244,269.3,244.4,269.7,244.8,270.1z"/>
	<path class="st5" d="M245.8,271.3c-0.7-0.1-1.1-0.5-1-1.2C245.1,270.5,245.4,270.9,245.8,271.3z"/>
	<path class="st5" d="M220,272.3c-0.3,0.4-0.6,0.9-0.9,1.3C219.4,273.2,219.7,272.8,220,272.3z"/>
	<path class="st1" d="M278.6,313.2c-0.8,0.1-1.1-0.4-1.2-1.1C278.2,312.1,278.6,312.5,278.6,313.2z"/>
	<path class="st13" d="M133.5,251.7c1.5,1.1,0.9,2.7,1.1,4.1c-0.9,1.8-1.6,3.8-3.4,4.9c-6.3,3.8-11.3,9.3-17.6,12.9
		c-4.8,2.8-5.5,2.6-6.5-3c-1-5.1-1.9-10.1-2.8-15.2c-0.4,0-0.9,0-1.3,0c0,8.2,0,16.4,0,24.6c-1.6-8.8-2.4-17.5-4.5-26
		c0.7,18.5,2,36.9,4.9,56.3c2.1-3.3,1.1-6.3,3.4-8.3c0.5,3.4,0.9,6.7,1.4,9.9c-5.3,4.6-5.5,6.1-2,14c-3.3,0.5-6.2,1.8-8.1,4.7
		c-2.2-7.3,0.2-15-1.7-23.9c-2.5,5.7-6.3,4.3-9.7,3.6c-7.1-1.4-14.3-2.5-21.5-2.9c-0.7-1.5-1.5-2.9-2.2-4.4c8.4-0.1,16.8-0.1,25.2,1
		c3.5,0.5,4.8-0.6,4.8-4.4c-0.1-6.6,0.4-13.1,0.7-19.7c2-1.3,2.9-3.1,2.3-5.5c1.2-0.8,1.2-2.1,1.2-3.4c-0.2-7.2,0.2-14.4-0.9-21.7
		c-0.6-4.2-4.7-4.6-5.6-4.4c-6,1.5-11.2-0.7-16.6-2.2c2.2-0.9,4.4-1.8,6.6-2.7C95,241,94.8,241,95.1,226.6c0.1-8.5,0.7-17,1.1-25.5
		c2.7,2.6,1.8,6.1,2.2,9.2c-3,6.9,0.1,13.9,8.2,18.5c0.5,10.7,1.3,21.4,1.4,32.1c0,5.4,1.9,5.7,6,3.8c3.1-1.5,6.3-3,9.6-3.9
		C128.5,259.4,131.9,256.6,133.5,251.7z M102.9,250.4c-0.1,0.6-0.3,1.1-0.2,1.6c0,0.3,0,1.4,0.8,0.5c0.3-0.3,0.2-1,0.1-1.5
		C103.6,250.8,103.2,250.7,102.9,250.4z"/>
	<path class="st3" d="M27.6,287.7c0.5-2.1,0.3-3.6-2.5-3.3c-2,0.2-4-0.5-5.7-1.6c-4.2-2.8-3.8-8,1-10.4c2.2-1.1,3.9-1.7,2-4.6
		c-1.7-2.5-0.8-5,1.1-7c2-2.1,4.6-2.5,7-1c2.3,1.4,3.3,0.8,3.8-1.6c3.7-2.9,7.3-3.5,10.3,0.9c1.2,1.8,2.3,1.5,4,0.9
		c6.2-2,10.3,0.9,9.9,7.2c-0.1,1.8-0.2,2.9,1.9,3.6c3.4,1.1,5.7,3.6,5.7,7.2c0,3.7-2.3,6.2-5.7,7.2c-5.1,1.5-1.7,6.5-4,9.2
		c-1.1,0.5-2.2,1-3.3,1.5c-0.7,0-1.4-0.1-2.1-0.1c-1.2-0.1-2.8,0.2-3.7-0.4c-3.1-2.2-5.7-1.8-9.1-0.2C33,297.6,28.4,294,27.6,287.7z
		"/>
	<path class="st3" d="M80.6,240.4c-2.2,0.9-4.4,1.8-6.6,2.7c-2.8,0.5-5.4-1.6-8.3-0.6c-2.1,1.1-1.3,3.2-1.9,4.8
		c-0.9,2.4-2.9,4-5.4,3.9c-2.2-0.1-4.2-1.4-4.2-4.2c0-2.4-1.3-2.8-3.4-3.2c-5.1-1-6.5-3.6-4.2-8.1c1-2,0.7-3.2-0.5-4.8
		c-3.6-5.2-1.6-9.4,4.7-10c2.6-0.2,3.3-1.1,3.4-3.6c0.6-10.1,4-12.3,13.8-9.3c1.1,0.3,2,0.4,3.1,0.1c4.6-1.2,8.4,0,10.6,4.3
		c2.2,4.3,3.3,8.6-1.6,12c-0.8,0.5-1.5,1.1-0.4,2.1C85,230.8,82.4,235.6,80.6,240.4z"/>
	<path class="st3" d="M98,133c-7.5,1.9-9.2,0.8-10.1-7c-0.2-2.1-1.4-1.8-2.6-1.8c-3.4,0.1-5.8-1.6-6.7-4.6c-0.9-3.1,1.5-4.7,3.9-5.7
		c1.9-0.8,1.8-1.7,0.8-3.3c-1-1.6-0.9-3.5,0.2-5.2c0.9-1.3,2.5-2.8,3.6-2c5.1,3.9,9.8-6.7,14.6-0.3c1.3,1.8,2.4,1.4,4.1,0.8
		c5.4-1.6,8.1,0.7,7.5,6.2c-0.2,1.7-0.4,2.7,1.7,3c3.4,0.4,4.4,3.3,4.7,6c0.4,3.2-2,4.9-4.8,5.9c-1,0.4-1.9,0.7-2.4,1.9
		c-3.2,8-3.2,8-11.2,6.1c0,0,0.1,0,0.1,0c-0.3-0.4-0.6-0.7-0.9-1.1C99,130.3,98.8,132.4,98,133z"/>
	<path class="st3" d="M78.8,183.5c-4.2-0.1-8.2-0.7-9.2-5.8c-0.4-2-1.9-1.8-3.3-1.9c-7.3-0.8-10.7-8.1-5.9-13.8
		c2.4-2.8,3.5-4.3,0-6.7c-1.5-1-2.1-3.1-1.4-5c0.8-2.2,2.9-1.6,4.5-2.2c5.4-1.8,9.6-2.6,15.7,0.6c6.9,3.7,8.9,4.1,4.4,11
		c9.6,4.3,10.5,8.6,3.1,15.6c-1.6,1.5-1.5,3.1-1.7,4.9c-1.2,1-2.4,2-3.5,3.1C80.6,183.4,79.7,183.5,78.8,183.5z"/>
	<path class="st3" d="M62.9,303.3c0.7,1.5,1.5,2.9,2.2,4.4c0.1,1.5-0.4,3.6,2.5,2.7c5.2-1.6,9.1,0.5,11.9,4.8
		c1.4,3.7-2.7,6.7-1.3,10.4c2.2,6,1.2,10.4-3,12.8c-3.8,2.2-16.1,1.5-17.9-1.2c-1.2-1.8-2.4-4-1.7-6.1c1.1-3.3-0.4-3.4-3.1-3.7
		c-4.5-0.5-5.8-3.2-3.9-7.3c0.7-1.5,2.3-2.6,1.3-4.9c-1.7-4,0-6.2,4.3-6.4c3.1-0.5,2.2-3.6,3.4-5.3c0.8-0.1,1.5-0.2,2.3-0.2
		C60.9,303.3,61.9,303.3,62.9,303.3z"/>
	<path class="st13" d="M81.5,183.3c1.2-1,2.4-2,3.5-3.1c3.5,1.4,6.9,2.8,10.3,4.2c1.7-2.1,0.2-4.6,1.4-6.5c1,0.3,1.5-2.2,2.5-0.6
		c1.2,1.9,2.3,1.6,1.9-0.2c-1.5-7.1-0.4-14.2-0.8-21.3c-0.1-2-0.7-3.2-2.9-3c-1.1-6.6,0.8-13.2,0.4-19.8c0.8-0.6,1-2.7,2.7-1.1
		c0.3,0.4,0.6,0.7,0.9,1.1c0,0-0.1,0-0.1,0c0.1,20.2,1.9,40.3,3,60.5c0.3,4.4,0.4,8.7,0.6,13.1c-1.1,1.2-1.3,3.3-3.5,3.5
		c-0.4-5-0.7-10.1-1.3-15.1c-0.1-1.3-0.8-3.6-1.5-3.7C92.2,190.2,87.4,185.6,81.5,183.3z"/>
	<path class="st3" d="M101.5,210c2.1-0.2,2.4-2.3,3.5-3.5c0.6,0,1.2,0,1.9,0c2-0.1,3,1.5,4.3,2.5c1.6,1.6,3.1,0.3,4.6-0.2
		c3.1,3.4,1,9.1,5.4,11.9c0.2,0.1,0.1,0.7,0.1,1c0,2.3-8.1,8.1-10,6.9c-1.8-1.1-3.1,0.1-4.6,0c-8.1-4.5-11.2-11.6-8.2-18.5
		C99.4,210.2,100.5,210.1,101.5,210z"/>
	<path class="st3" d="M95.9,274.8c0.5,2.4-0.3,4.2-2.3,5.5c-1.7,3.7-5.9,4.2-8.5,6.7c-1.3,1.3-3.7,1.6-4.4,0.1
		c-1.8-3.7-11.4,1-8.1-7.7c0.5-1.4-0.4-2.4-0.7-3.7c-0.1-0.7-0.2-1.5,0-2.2c0.9-3.3,10.1-7.7,13.4-6.3c2.9,1.3,5.6-1.3,8.4-0.3
		C94.4,269.7,92.6,273,95.9,274.8z"/>
	<path class="st14" d="M95.9,274.8c-3.3-1.8-1.5-5.1-2.1-7.7c0.4-13.6,0.4-13.6-12.9-17.1c-5.6-1.4-11.8-1.6-15.1-7.5
		c2.8-1,5.5,1.1,8.3,0.6c5.4,1.6,10.6,3.7,16.6,2.3c0.9-0.2,5,0.2,5.6,4.4c1,7.3,0.7,14.5,0.9,21.7C97.1,272.7,97.2,274,95.9,274.8z
		"/>
	<path class="st14" d="M101.5,210c-1.1,0.1-2.1,0.2-3.2,0.3c-0.4-3.1,0.5-6.6-2.2-9.2c0.9-5.4-1.7-8.5-6.5-10.8
		c-3.9-1.8-7.3-4.5-10.9-6.8c0.9-0.1,1.8-0.2,2.7-0.3c5.9,2.3,10.7,6.9,17.3,7.9c0.7,0.1,1.4,2.4,1.5,3.7
		C100.8,199.9,101.1,205,101.5,210z"/>
	<path class="st14" d="M97.5,152.8c2.2-0.2,2.8,1,2.9,3c0.4,7.1-0.7,14.2,0.8,21.3c0.4,1.8-0.8,2.1-1.9,0.2c-1-1.6-1.5,0.9-2.5,0.6
		c0.2-5.1,0.3-10.3,0.5-15.4c1.5-2.5,1.3-5,0.2-7.6C97.5,154.2,97.5,153.5,97.5,152.8z"/>
	<path class="st13" d="M111.2,209.1c-1.4-1-2.4-2.6-4.3-2.5c2.7-3,6.5-4.2,9.8-6.3c1.5-1,3.4-1.4,3.9-3.4c0.8,0,1.5,0.3,1.8,1
		c0.1,3-3.2,4.7-3.2,7.7c0,0,0-0.1,0-0.1C116,205.4,113.4,206.8,111.2,209.1z"/>
	<path class="st13" d="M59.9,303.3c-0.8,0.1-1.5,0.2-2.3,0.2c-0.4-3.2-3.7-4.7-4.5-7.6c1.1-0.5,2.2-1,3.3-1.5
		C57.5,297.4,59.6,300,59.9,303.3z"/>
	<path class="st13" d="M97.5,155c1,2.6,1.3,5.1-0.2,7.6C97.4,160,97.4,157.5,97.5,155z"/>
	<path class="st1" d="M54.2,308.8c-4.3,0.2-6.1,2.5-4.3,6.4c1,2.3-0.6,3.3-1.3,4.9c-1.9,4.1-0.6,6.9,3.9,7.3
		c2.6,0.3,4.1,0.4,3.1,3.7c-0.7,2.1,0.5,4.4,1.7,6.1c1.9,2.7,14.1,3.4,17.9,1.2c4.3-2.4,5.3-6.8,3-12.8c-1.4-3.7,2.7-6.7,1.3-10.4
		c12.5,1.3,12.5,1.3,12.3,13.2c0,0.7,0,1.5,0,2.2c-0.6,11.8,0.6,23.6-1.3,35.3c-5.5-2.4-6.9-4.1-9.2-11.7c-4.8,3.9-9.5,8.2-16.3,6.6
		c-6.1-1.4-8.3-5.1-9.2-14.5c-6.4,3.4-13,5.1-18.6-0.7c-4.2-4.3-3.2-9.4,0.5-14.5c-7.6-0.5-14.3-2.2-15.8-10.2
		c-1.1-5.7,1.7-10.2,7.4-12.6c-9.4-6.1-9.8-12.6-1.8-20.7c0.8,6.3,5.4,9.8,10.6,7.4c3.4-1.6,6-2,9.1,0.2c0.9,0.6,2.4,0.3,3.7,0.4
		C51.1,300.3,52.9,304.5,54.2,308.8z"/>
	<path class="st13" d="M89.7,410.2c-0.5-10.4,1.5-20.6,0.7-31c0.2-2.9,0.4-5.7,0.7-8.6c0.8,0.7,0.3,2.5,1.6,2.6
		c1.2,0.1,1-1.2,1.1-2.1c0.4-4.7,1-9.4,1-14.2c0.1-7.4-0.3-14.7,3-21.7c0.5,2.2,2.4,3.5,3.7,5.2c0,6.4-0.1,12.8,0,19.2
		c0,2-0.7,5,0.3,5.9c4.9,3.9,2.7,9.1,2.9,13.6c0.3,8.4,0.1,16.9,0.1,25.3c0,5.1,0,10.2,0,15.2c-3.8-10.9-2.9-22.4-7.2-33.2
		c-1,10.2-2.1,20.5-3.2,31.2C91.2,415.5,91.8,412,89.7,410.2z"/>
	<path class="st14" d="M97.8,335.2c-3.3,6.9-2.9,14.3-3,21.7c0,4.7-0.7,9.4-1,14.2c-0.1,0.9,0.1,2.1-1.1,2.1
		c-1.4-0.1-0.8-1.9-1.6-2.6c-0.2-1.5-0.3-3-0.5-4.5c1.9-11.7,0.6-23.6,1.3-35.3c0-0.7,0-1.5,0-2.2c0.2-11.9,0.2-11.9-12.3-13.2
		c-2.8-4.4-6.7-6.4-11.9-4.8c-2.8,0.9-2.3-1.2-2.5-2.7c7.2,0.4,14.4,1.4,21.5,2.9c3.3,0.7,7.2,2.1,9.7-3.6
		c1.9,8.8-0.5,16.5,1.7,23.9C97.9,332.3,97.9,333.8,97.8,335.2z"/>
	<path class="st10" d="M353.3,451.9c-2.7,8.1-7.6,14.5-15.5,18.3c-6.5,2.2-13,2-19.5,0c-7.9-3.8-12.8-10.1-15.5-18.3
		c0-2.9,0-5.7,0-8.6c1.9-0.3,3-1.8,4.4-3c10.2-8.7,21.6-14.5,35.3-14.9c3.5,2.8,6.2,6.2,8.6,9.9
		C353.4,440.7,353.7,446.3,353.3,451.9z M328.9,437.3c-1.9,2.3,0.1,3.4,1.6,4.5c2.5,1.8,3.7,3.9,2.3,6.9c-1.1,2.5-3.1,3.6-5.6,3
		c-3-0.7-4.5-2.8-4-6c0.3-1.9-0.1-3.6-1.5-4.9c-0.5-1.9-1-3.8-2.6-5.2c-7,6-8.3,13.2-3.9,20c4.1,6.2,12.5,8.6,19.4,5.6
		c7.3-3.2,11-11.6,8.6-19.2c-2.4-7.7-9.3-11.7-17.5-10.5C323,435.5,330.4,433.6,328.9,437.3z"/>
	<path class="st9" d="M342.5,425.4c-13.7,0.4-25.1,6.2-35.3,14.9c-1.4,1.2-2.5,2.7-4.4,3c-0.4-0.3-0.8-0.5-1.3-0.8
		c1.3-5.3,5.2-9,8-13.4c3.6-5.6,7.5-11,11.3-16.5c6.4,1.1,12.3,3.1,17.6,7c1,0.7,2.2,2.1,3.3,0.7c1.4-1.7-0.5-2.5-1.6-3.3
		c-5.5-4.2-11.9-6.3-18.6-7.2c0-1.4,0-2.8,0-4.2c8,1.9,15.9,3.9,22.4,9.5c2.3,2,5.8,3.6,5.4,7C348.9,425.8,344.5,423.5,342.5,425.4z
		"/>
	<path class="st4" d="M302.8,451.9c2.7,8.2,7.6,14.5,15.5,18.3c-1.4,2.1-3.6,1.4-5.5,1.4c-38.9,0-77.8,0-116.8,0
		c-1.9,0-4.1,0.8-5.6-1.3c7.9-3.8,13-10,15.6-18.3C238.3,452,270.6,451.9,302.8,451.9z"/>
	<path class="st10" d="M206.1,452c-2.6,8.3-7.7,14.5-15.6,18.3c-5.8,1.5-11.7,2.2-17.5,0.4c-9.2-3.2-14.3-10.1-17.3-18.9
		c-0.7-5.6,0.3-11,2.1-16.3c1.2-1.8,2.4-3.5,3.6-5.3c2.1,0.3,4.2,0.3,5.8,1.9c-0.6,2.1,0.7,3.1,2.1,4.1c-3.5,4.4-5.4,9.1-3,14.7
		c1.9,6.8,6.7,10.8,13.6,11.4c6.5,0.6,11.9-2.8,15.1-9.3c1.2-0.8,0.9-2.2,1.4-3.2c0.8-0.1,1.5-0.2,2.3-0.3c2.4,0.3,4.8,0.7,7.2,1
		C205.9,451,206,451.5,206.1,452z"/>
	<path class="st14" d="M89.7,410.2c2.1,1.9,1.5,5.3,4.7,7.6c1.1-10.7,2.1-21,3.2-31.2c4.3,10.7,3.4,22.3,7.2,33.2
		c0-5.1,0-10.2,0-15.2c0-8.4,0.2-16.9-0.1-25.3c-0.2-4.6,2-9.7-2.9-13.6c-1-0.8-0.3-3.8-0.3-5.9c0-6.4,0-12.8,0-19.2
		c1.1,0.2,2.1,0.5,3.2,0.7c0,5.4,0,10.8,0,16.4c4.3-0.8,5.1-3.4,4.2-6.5c-1-3.2-0.9-6.4-0.9-9.7c1.6-0.1,4.5-2.1,2.7,2.1
		c-1.6,3.7,0.2,6.7,2.6,9.4c0.2,4,0.3,8.1,0.5,12.1c0.3,3.6,0.6,7.3,0.9,10.9c1,19.4,2,38.8,3.1,58.3c-9.5,0-19.1,0.1-28.6,0.1
		C89.4,426.2,89.6,418.2,89.7,410.2z"/>
	<path class="st1" d="M117.9,434.1c-1-19.4-2-38.8-3.1-58.3c5.4,3.9,10.5,8.4,17.8,8.4c8.2,6.4,15.4,14,23.3,20.8
		c3.7,3.2,5.7,4.9,1.7,10.1c-5.7,7.5-4,14.3,3.7,15c-1.2,1.8-2.4,3.5-3.6,5.3c-11.4,0-22.9-0.1-34.3-0.2
		C121.6,435.3,119.4,435.9,117.9,434.1z"/>
	<path class="st9" d="M161.4,430.2c-7.8-0.7-9.5-7.5-3.7-15c3.9-5.2,2-6.9-1.7-10.1c-7.9-6.8-15.1-14.3-23.3-20.8
		c-0.2-0.5-0.4-1.1-0.7-1.6c1.7,0,3.3,0,5,0c8.4,7.6,16.7,15.3,25.1,22.9c0.8,1.1,1.3,2.5,3.3,2.3c0-5.2,0-10.4,0-15.6
		c5.2-1.8,10.6-0.2,15.8-1c22.5,4,45.2,1.5,67.7,2.4c-5.1,7.7-8.4,16.1-9.5,25.3c-1.3,10.5,3.2,17.2,11.8,17.6
		c0.4,1.5,1.4,2.8,3,2.7c9.3-0.6,18.9,1.9,27.7-2.9c3.1-0.1,4.1-2.6,5.4-4.8c9.9-17.5,10.9-35.3,2.2-53.5
		c-2.1-6.3-4.1-12.6-6.2-18.8c2.9,0.1,5.7,0.1,8.6,0.2c-0.3,8.1,3.2,15.4,6.1,22.6c8,19.2,3.6,36.8-5.6,54
		c-2.4,4.4-6.3,7.3-12.1,7.1c-9.9-0.3-19.8-0.1-29.7-0.1c-9.1,0-14.9-5-16.9-14c-2-9-0.1-17.4,2.9-25.7c1.2-3.3,1.2-4.2-2.7-4.5
		c-16.5-1.2-33-2.8-49.5-4.2c-1.5-0.1-2.9,0-4.1,1.1c-3.9,3.5-7.8,7-11.7,10.5c0.4,0.4,0.8,0.9,1.1,1.3c12.5-2.3,25.1-4.2,37.4-7
		c10-2.3,21,2.7,18.9,17c-0.5,3.2-0.8,6.5-1.2,9.8c-1.1,9.3-8.2,14.5-17.4,12.5c-11.6-2.5-23.1-5-34.7-7.5c-1.8-0.4-3.6-0.3-5.4-0.4
		C165.5,430.5,163.4,430.4,161.4,430.2z M162.4,415.4c18.7-3.2,36.9-6.3,55.5-9.4C212.4,402.5,168.7,410,162.4,415.4z"/>
	<path class="st3" d="M206.1,452c-0.1-0.5-0.1-1-0.2-1.6c4.7-1.1,9.5-0.4,14.2-0.5c19.7-0.1,39.4-0.3,59.1,0.1
		c8.6,0.1,16.3-1,22.4-7.5c0.4,0.3,0.8,0.5,1.3,0.8c0,2.9,0,5.7,0,8.6C270.6,451.9,238.3,452,206.1,452z"/>
	<path class="st2" d="M196.4,449.7c-0.5,1.1-0.2,2.4-1.4,3.2c-1.9,0.1-4.5-1.3-4.7,2.3c-3.2-1.6-4.3,8.9-8.5,1.4
		c-0.7-1.2-1-0.1-1.3,0.4c-1.6,2.1-1.9,4.2-5.2,0.4c-2-2.3-4.8-6-9-6.6c-2.4-5.6-0.5-10.3,3-14.7c2.8,0.6,5.3,1.7,7.6,3.5
		c-1,1.3-2.1,2.5-2.9,3.9c-2.3,4.1-0.2,7.1,2.9,9.3c3.1,2.2,7.9,2.7,9.5-0.3c2.5-4.8,6-4.2,9.9-4.1c0,0-0.1-0.1-0.1-0.1
		C196.2,448.9,196.3,449.3,196.4,449.7z"/>
	<path class="st12" d="M196.2,448.5c-3.9-0.2-7.3-0.7-9.9,4.1c-1.6,3-6.4,2.4-9.5,0.3c-3.1-2.2-5.2-5.3-2.9-9.3
		c0.8-1.4,1.9-2.6,2.9-3.9c1.6,0.1,3.2,0.5,4,2.1c-3.4-0.2-5.4,1.7-5.2,4.9c0.2,2.3,1.7,4.6,4.4,5c3.2,0.4,5.2-1.4,5.9-4.5
		c0.3-1.1,0.2-2.2,0.3-3.3C189.9,444.9,193.3,446.2,196.2,448.5z"/>
	<path class="st10" d="M186.4,444c-0.1,1.1-0.1,2.2-0.3,3.3c-0.8,3-2.7,4.8-5.9,4.5c-2.7-0.3-4.3-2.7-4.4-5
		c-0.2-3.1,1.8-5.1,5.2-4.9c1.6-0.2,3,0.4,4.2,1.3C185.5,443.4,186,443.7,186.4,444L186.4,444z"/>
	<path class="st4" d="M321.6,409.9c6.8,0.9,13.1,3,18.6,7.2c1.1,0.8,3,1.6,1.6,3.3c-1.1,1.4-2.3,0-3.3-0.7c-5.2-3.9-11.2-5.9-17.6-7
		C320.2,411.5,320.5,410.6,321.6,409.9z"/>
	<path class="st12" d="M196.4,449.7c-0.1-0.4-0.2-0.8-0.3-1.2c1,0,2,0,2.6,1C197.9,449.5,197.1,449.6,196.4,449.7z"/>
	<path class="st12" d="M186.4,444c-0.4-0.3-0.9-0.5-1.3-0.8C185.5,443.4,186,443.7,186.4,444z"/>
	<path class="st3" d="M104.8,341.1c-1.1-0.2-2.1-0.5-3.2-0.7c-1.3-1.7-3.2-3-3.7-5.2c0.1-1.4,0.1-2.9,0.2-4.3
		c1.9-2.9,4.8-4.2,8.1-4.7c-3.5-7.9-3.3-9.4,2-14c1,0,1.9,0,2.9-0.1c0.5,0.1,1.3,0,1.6,0.3c2.7,2.6,4.5,2.7,6.9-0.9
		c2.8-4.1,8-3.9,10.3,0.4c1.7,3.3,3.3,3.1,5.8,1.5c1.6-1,3.4-1.2,5.3-1.2c1.7,1.2,3.1,2.9,5.4,3c0.1,0.8,0.3,1.6,0.4,2.4
		c-4,0.1-8,0.1-11.9,0.2c-1.9,0.1-4.5-0.8-5.2,1.6c-0.7,2.5-1.4,5.4,1.8,7.2c-0.1,8.8-0.1,17.5-0.2,26.3c-1.6-0.9-2.8-2.7-5.2-0.8
		c-3.8,3.1-8.1,2.6-12.4,0.9c-2.4-2.7-4.1-5.7-2.6-9.4c1.8-4.3-1.1-2.3-2.7-2.1C107,341.2,105.9,341.2,104.8,341.1z"/>
	<path class="st12" d="M145,365.4c6.7,0,12.7,0.2,18.6-0.1c11-0.5,17.6-10.1,13.6-19.3c-2.3-5.2-6.6-7.9-12-8.4
		c-4.5-0.4-9.1-0.1-13.7-0.1c-1.8,0-2.7,0.7-2.7,2.6c0,1.3-0.1,2.6,0,3.8c0.5,4.1-2.2,10.3,1.2,11.8c4.8,2.1,11.1,1.1,16.7,0
		c0.4-0.1,0.7-0.7,1.6-1.7c-4.2,0-7.7-0.2-11.3,0c-5.1,0.3-3.8-3.5-3.7-6c0.1-2.5-1.8-6.5,3.5-6.1c5.1,0.3,10.6-1.2,15.8,4.6
		c-4.5,0-7.8,0-11.1,0c-1.2,0-3-0.3-3.1,1.4c-0.1,1.7,1.7,1.5,2.9,1.5c3.1,0,6.2,0.2,9.3,0c3.3-0.2,3.8,1.5,3.2,4
		c-1,3.8-3.1,6.7-7.3,7.3c-6.5,1.1-13.2,0.3-19.7,0.5c-2.2,0-2.6-1.4-2.6-3.3c0.1-6.6,0-13.2,0-19.8c0-3.4,1.9-5,5.2-5
		c5.5,0,11-0.3,16.5,0.1c9.4,0.7,16,7.4,16.9,16.5c0.8,8.8-4.6,17-13.6,19.5c-6,1.7-12.3,1.5-18.5,0.7
		C148.6,369.6,146.5,368.8,145,365.4z"/>
	<path class="st0" d="M131.9,382.7c0.2,0.5,0.4,1.1,0.7,1.6c-7.2,0-12.4-4.5-17.8-8.4c-0.3-3.6-0.6-7.3-0.9-10.9
		c6.7,2,12.5,0.8,17.1-4.6c0.7,6.2-0.7,12.5,0.9,18.6C129.4,380.2,129.3,381.5,131.9,382.7z"/>
	<path class="st1" d="M131,360.3c-4.6,5.5-10.5,6.6-17.1,4.6c-0.2-4-0.3-8.1-0.5-12.1c4.3,1.7,8.7,2.2,12.4-0.9
		c2.4-1.9,3.6-0.2,5.2,0.8C131,355.3,131,357.8,131,360.3z"/>
	<path class="st3" d="M143.5,306.7c-4.9,0.3-9-0.5-9-6.7c0-2.1-1.7-1.9-3.1-2.4c-2.7-0.8-5.2-1.8-5.7-5.1c-0.4-2.9,1.3-4.4,3.7-5.4
		c2.4-1,1-2.7,0.8-4.1c-0.6-5.5,1.6-7.3,6.9-5.9c0.5,0.1,1.4,0.6,1.5,0.5c5.3-8.5,11.4,2.2,16.9-0.6c0.7-0.3,2.7,0.3,2.9,1
		c2,4.9,4.9,9.1,7.9,13.4c0.4,0.6,0.4,2.3-0.1,2.6c-4.6,3.2-6.1,8.8-9.9,12.6c-2.2,2.3-4.9-0.1-7.3,0
		C147.2,302,145.4,306.2,143.5,306.7z"/>
	<path class="st14" d="M111,312c-1,0-1.9,0-2.9,0.1c-0.4-3.2-0.9-6.5-1.4-9.9c-2.3,1.9-1.3,5-3.4,8.3c-2.9-19.4-4.2-37.9-4.9-56.3
		c2.1,8.6,2.9,17.3,4.5,26c0-8.2,0-16.4,0-24.6c0.4,0,0.9,0,1.3,0c0.9,5.1,1.8,10.1,2.8,15.2c1.1,5.6,1.7,5.7,6.5,3
		c6.4-3.7,11.4-9.1,17.6-12.9c1.8-1.1,2.5-3.1,3.4-4.9c0.9,1.2,1.7,2.4,2.6,3.5c-0.5,2.7-2.1,4.4-4.4,5.9
		c-6.9,4.4-13.7,9.1-20.6,13.6c-2.3,1.5-3.2,3.1-3,5.8C109.9,293.8,110.4,302.9,111,312z"/>
	<path class="st13" d="M143.5,306.7c1.9-0.5,3.7-4.7,5.6-0.1c-1,2.8-2,5.6-2.9,8.4c-2.3-0.1-3.7-1.8-5.4-3
		C141.7,310.3,142.6,308.5,143.5,306.7z"/>
	<path class="st1" d="M289.3,378.2c8.7,18.2,7.7,36-2.2,53.5c-1.3,2.2-2.3,4.7-5.4,4.8c-0.2-3.6-2.2-5.4-5.6-6.1
		c-2.5-0.4-4.9-1.1-7.3-1.6c0.1-15.6,1.5-31.1,3.4-46.5c2.6-2.1,6.1-3.2,8.7-1.7C285,382.8,287,380.8,289.3,378.2z"/>
	<path class="st0" d="M289.3,378.2c-2.3,2.6-4.3,4.6-8.5,2.4c-2.6-1.4-6.1-0.4-8.7,1.7c-0.1-2-0.4-4-0.2-6
		c1.3-8.4-2.1-11.7-12.1-13.5c-1.4-0.3-2.9-0.2-4.4-0.2c-3.7-1.4-7.6-0.7-11.3-1.1c-3.2-0.4-5.4-1-3.7-5c0.7-1.6,1.3-3.6,1.2-5.3
		c-0.6-7.6,4.1-7.6,9.6-7.6c4.7,0.1,9.4,0.9,14-0.1c3.5,0.5,7,1,10.5,1.6c0.4,2.2,1.7,3.4,3.9,3.7c0,0.4,0.1,0.6,0.4,0.9
		c0.2,3.5,1.4,6.7,3,9.7C285.2,365.6,287.3,371.9,289.3,378.2z"/>
	<path class="st1" d="M251.1,436.6c-8.6-0.4-13-7.1-11.8-17.6c1.1-9.2,4.4-17.6,9.5-25.3c0.7,0,1.5,0,2.2-0.1
		c-0.4,12-1.9,23.9,0,35.9c0.3,1.6-0.3,3.3,0.9,4.7C251.6,435.1,251.4,435.8,251.1,436.6z"/>
	<path class="st10" d="M251.1,436.6c0.3-0.8,0.6-1.6,0.8-2.4c5.6-2,11.6-2.5,16.9-5.5c2.4,0.6,4.9,1.2,7.3,1.6
		c3.4,0.6,5.4,2.5,5.6,6.1c-8.8,4.8-18.4,2.3-27.7,2.9C252.4,439.5,251.5,438.1,251.1,436.6z"/>
	<path class="st14" d="M119.2,205.6c0-3,3.3-4.6,3.2-7.7c1.1,0.3,2.2,0.7,3.3,1C125.7,203.3,122,204,119.2,205.6z"/>
	<path class="st14" d="M111.2,209.1c2.2-2.3,4.8-3.6,8-3.5c-1.2,1.1-2.3,2.2-3.5,3.3C114.3,209.4,112.8,210.7,111.2,209.1z"/>
	<path class="st1" d="M181.1,391.3c-5.3,0.8-10.7-0.8-15.8,1c-2.6-0.1-3.4,1.2-3.3,3.7c0.1,3.2,0,6.4,0,9.6
		c-8.4-7.6-16.7-15.3-25.1-22.9c11.6-0.1,23.2-0.2,34.8-0.2c1.5,0,3.5-0.5,3.4,2.2C174.9,388.9,178.1,390,181.1,391.3z"/>
	<path class="st12" d="M279.8,348.7c-2.2-0.3-3.5-1.5-3.9-3.7c1.1-2.6,3.1-3.4,5.1-1.6C283.2,345.5,282,347.4,279.8,348.7z"/>
	<path class="st14" d="M102.9,250.4c0.3,0.3,0.6,0.4,0.7,0.6c0.1,0.5,0.2,1.2-0.1,1.5c-0.8,0.8-0.7-0.2-0.8-0.5
		C102.7,251.5,102.8,251,102.9,250.4z"/>
	<path class="st14" d="M54.2,308.8c-1.3-4.3-3.1-8.5-3.2-13.1c0.7,0,1.4,0.1,2.1,0.1c0.8,2.9,4.1,4.4,4.5,7.6
		C56.3,305.2,57.3,308.3,54.2,308.8z"/>
	<path class="st1" d="M101.5,132.9c-0.3-0.4-0.6-0.7-0.9-1.1C100.9,132.2,101.2,132.6,101.5,132.9z"/>
	<path class="st2" d="M328.9,437.3c1.5-3.8-5.8-1.8-3.3-5.9c8.2-1.2,15.1,2.8,17.5,10.5c2.4,7.6-1.4,16-8.6,19.2
		c-6.9,3-15.3,0.6-19.4-5.6c-4.5-6.8-3.1-14,3.9-20c1.6,1.4,2.2,3.3,2.6,5.2c-3.7,5-3.4,9.8,0.8,13.1c3.6,2.8,10.1,1.7,13.1-2.2
		C339.7,446.2,336.8,440,328.9,437.3z"/>
	<path class="st11" d="M328.9,437.3c7.9,2.7,10.8,8.9,6.6,14.3c-3,3.9-9.5,5-13.1,2.2c-4.2-3.3-4.5-8.1-0.8-13.1
		c1.4,1.4,1.7,3.1,1.5,4.9c-0.4,3.2,1.1,5.3,4,6c2.5,0.6,4.5-0.5,5.6-3c1.4-3,0.2-5.1-2.3-6.9C328.9,440.8,327,439.6,328.9,437.3z"
		/>
	<path class="st11" d="M166.3,450.8c4.1,0.6,7,4.3,9,6.6c3.3,3.8,3.6,1.6,5.2-0.4c0.3-0.4,0.7-1.6,1.3-0.4c4.2,7.4,5.4-3,8.5-1.4
		c0.2-3.6,2.8-2.2,4.7-2.3c-3.2,6.6-8.6,9.9-15.1,9.3C172.9,461.6,168.2,457.7,166.3,450.8z"/>
	<path class="st13" d="M104.8,341.1c1.1,0.1,2.2,0.1,3.4,0.2c0,3.3-0.1,6.5,0.9,9.7c0.9,3.1,0,5.7-4.2,6.5
		C104.8,351.9,104.8,346.5,104.8,341.1z"/>
	<path class="st4" d="M162.4,415.4c6.2-5.4,50-12.9,55.5-9.4C199.3,409.1,181.1,412.2,162.4,415.4z"/>
	<path class="st2" d="M161.9,405.6c0-3.2,0.1-6.4,0-9.6c-0.1-2.4,0.7-3.8,3.3-3.7c0,5.2,0,10.3,0,15.6
		C163.3,408.1,162.7,406.7,161.9,405.6z"/>
</g>
</svg>
