<?xml version="1.0" encoding="utf-8"?>
<!-- Generator: Adobe Illustrator 22.0.0, SVG Export Plug-In . SVG Version: 6.00 Build 0)  -->
<svg version="1.1" id="Layer_1" xmlns="http://www.w3.org/2000/svg" xmlns:xlink="http://www.w3.org/1999/xlink" x="0px" y="0px"
	 viewBox="0 0 500 400" style="enable-background:new 0 0 500 400;" xml:space="preserve">
<style type="text/css">
	.st0{display:none;}
	.st1{display:none;fill:#FFD47F;}
	.st2{fill:#FFD47F;}
	.st3{clip-path:url(#SVGID_2_);}
	.st4{fill:#FFC45E;}
	.st5{fill:#FFB83F;}
	.st6{fill:#292D36;}
	.st7{fill:#EB484E;}
	.st8{fill:#ED676D;}
	.st9{fill:#9BD2F2;}
	.st10{fill:#2F70B8;}
	.st11{fill:#55B485;}
	.st12{fill:#163C42;}
	.st13{fill:#929498;}
	.st14{fill:#DCDDDE;}
	.st15{fill:#AAACAE;}
	.st16{fill:#3D9435;}
	.st17{fill:none;stroke:#FFFFFF;stroke-width:5;stroke-linecap:round;stroke-miterlimit:10;}
	.st18{fill:none;stroke:#292D36;stroke-miterlimit:10;}
</style>
<g id="Layer_1_1_" class="st0">
</g>
<rect y="157.9" class="st1" width="500" height="242.1"/>
<rect class="st0" width="500" height="400"/>
<path class="st0" d="M530,416.7l-30,4.7H258.7l-146-7.3H-14.4c-3-37.4,3.1-64.7,14.4-84.5V400h500V38l13.3,17.3L530,416.7z"/>
<path class="st1" d="M246,409.3c-3.7,4.3-62,3.7-62,3.7l-71.7-6c0,0-0.2-2.7-0.5-7h134.5C246.8,404.9,246.8,408.4,246,409.3z"/>
<g>
	<circle class="st2" cx="246.3" cy="200.1" r="198"/>
	<g>
		<defs>
			<circle id="SVGID_1_" cx="246.3" cy="200.1" r="198"/>
		</defs>
		<clipPath id="SVGID_2_">
			<use xlink:href="#SVGID_1_"  style="overflow:visible;"/>
		</clipPath>
		<g class="st3">
			<rect x="48.3" y="2.1" class="st4" width="154.2" height="269.9"/>
			<path class="st5" d="M79.3,93.7h56.6l1.4-58.9C137.3,34.8,92.3,69,79.3,93.7z"/>
			<path class="st5" d="M140.1,33v60.7H195l2.9-85.6C197.9,8.1,140.1,29,140.1,33z"/>
			<rect x="74.3" y="99" class="st5" width="63" height="78.7"/>
			<polygon class="st5" points="140.1,99 194.3,99 196.3,177.7 139.7,177.6 			"/>
			<polygon class="st5" points="74.3,181.4 135.1,182.1 137.3,264.9 74.3,268 			"/>
			<polygon class="st5" points="139.7,181.4 196.3,181.7 197.9,268 140.1,264.7 			"/>
		</g>
	</g>
	<path class="st6" d="M156.7,173c0,0-5-1.3-9.2,0.2c0,0-7,3.1-7.9,4.4c0,0-4.5,0.5-8-3.5c0,0-3-1.1-4.7,1.5c0,0-1.7-0.8-2-2.9
		c-0.3-2.1,0.4-4.4,0.4-4.4s5.8-3,6.1-6.7v-4c0,0-4.7-8.2-4.7-15.7c0,0-1.5-31.6,22.9-44.4c0,0,15.6-9.4,30.3,1.1
		c0,0,10.6,3.6,14.2,10.3c0,0,8.1,9.3,5.2,25.9c0,0-1.2,6.6-2.8,9.1c0,0-4.7,9.7,6.8,21.4c0,0,2.8,5.8-3.2,8.3c0,0-7.7-3.9-15.7,0.1
		l-6.6,3.5l-13.8-3.6L156.7,173z"/>
	<path class="st7" d="M156.6,175.8V167c0,0-0.9-10.3-3.9-13.2c0,0-6-6-6.1-10.1c0,0,0.7-6.8,5.9-3.6l3.1,2.5c0,0,9.6-9,10.8-21.1
		v-9.7c0,0,12.7,1.5,15.9-2.3c0,0,11.2,5.2,10.6,32.5c0,0-0.3,18.1-10.6,23.7c0,0-2.4,1.2-3.6,1.2v9.7c0,0,14.3,2.6,17.7,4.2
		l1.5,2.5c0,0-5.3,4-9.5,4l-0.7,4.6l-6.6-3.9c0,0-35.4-0.9-45.3-6.5C135.8,181.5,148,175.2,156.6,175.8z"/>
	<path class="st8" d="M134.6,182.9c0,0,0.3-1,1.2-1.5c0.5-0.2,1.2,0.1,2,0.1l28.6,2.6l14.1-1.3l9.7-1.3h5.2l4.1,0.6l3.1,10.8
		l-0.4,8.2l-8.1,2.6l-14-1.7l-19.7-5.9L142,190L134.6,182.9z"/>
	<path class="st9" d="M238.3,351.9h-97.9c-0.5-10-1-31.8,4-39.3l86.7-2.2C231,310.4,237.1,338.5,238.3,351.9z"/>
	<path class="st7" d="M279.3,174H278l-2.3,2c0,0-1.4,1.5-1.4,1.7s-0.3,3.4-0.4,3.6s-0.7,3.6-0.7,4.2c0,0.7,0,3.7,0,3.7l-0.2,3.1
		l4.4,1c0,0,2.6-1.2,3.2-1.2s3.6-0.7,3.6-0.9c0-0.3,0.8-4.3,0.8-4.3s0.7-2.5,0.9-3.2s1.3-5,1.3-5l0.4-3.1l-0.6-2.8l-0.6-1.8
		l-0.7-1.5l-0.9-0.7l-3.1-0.3l-3.6,1.2L279.3,174z"/>
	<path class="st8" d="M228.6,217c0,0,19.5,27.9,22.2,30.6l15.7-52.7c0,0-0.9-13,9.5-23.2c0,0,4.1-4,4-5.8c0,0,1.3,0.8,1.2,2.5
		c0,0-2.6,7.2-5.3,8.8c0,0,2.4,5.2-1.5,13c0,0,2.1,2.8,6,0.7c3.9-2.1,3.1-5,3.1-5s-0.7-1.2-1.2-1.1l-0.4-1.6l0.9-4l2.1-0.8l1.1-0.7
		l-0.6-1.4l-1.7-0.9l0.2-2.5l1.1-1.5l-0.2-2.8l1.1-3.2l1.8,1.8v3.2l2.8,3.7c0,0,0.7,2.2-0.6,2.8l-0.8,0.7v2.3l0.4,1.9
		c0,0-1.5,3.4-2.2,4.4l-0.7,3.3c0,0-3.6,7-9.4,8.6l-1.8,19.2l-2.6,20.3l-1.9,18.8l-0.7,7.7c0,0-1.3,26.9-9.8,29.9l-2.8-0.4
		l-38.8-45.9l2.3-25.9l1.9-4.2L228.6,217z"/>
	<path class="st10" d="M135.1,182.1c0,0-21.4,6-32.1,35.7c0,0,8.2,1.9,17.7,5.8c3.8,1.5,7.7,2.5,11.5,5.2h0.7
		c0,0,17.9,34.5,24.3,37.7l-13.1,47.3c0,0,68.7,23,89.3-3.5c0,0-6.2-44.1-10.8-50.1c0,0,24.8-18.1,1.3-38.9l10.1-7.6
		c0,0-4.2-2.6-14.1-17.5c0,0-7.4-12.8-23.9-15.6c0,0,9,13.6,3.6,19.5s-46.3-9-46.3-9S135.2,182.5,135.1,182.1z"/>
	<path class="st7" d="M131.7,326.6c0,0-0.9-3.1-0.3-3.8h2l1.6,1.2l0.9,0.7c0,0,2-0.1,1.9-2.4c0,0-3.1-0.6-3.3-2.6
		c0,0,1.9-2.3,3.3-1.7l3.4,1.7l2.2,0.5l-0.4,2.6c0,0-0.8,3-0.8,3.2s-1.5,4.4-1.5,4.6s-1.2,3.3-1.2,3.3s-1.9,1-2.2,1
		c-0.3,0-2.6-0.9-2.6-0.9l-1.3-3.5L131.7,326.6z"/>
	<path class="st8" d="M107.2,219.2l-35.9,62.1c-0.6,0.9-0.3,2.2,0.7,2.8c6,4.1,27,18.2,34.1,19.7c0.1,0,0.3,0.1,0.4,0.1l21.2,9.4
		l13.8,6.7c1.2,0.6,1.5,2.1,0.7,3.2c-1.5,2-3.6,5.2-3.2,6.9v1.2c0,1.2-0.9,2.1-2.1,2.1l0,0c-1.1,0-2-0.8-2.1-1.8
		c-0.1-0.9-0.4-2.1-1.2-3c-1.2-1.3-3.4-0.5-3.6,1.2l-0.1,0.4c0,0.3,0,0.6,0.1,0.9l1.3,4l0.9,3c0.3,0.9,1.1,1.5,2,1.5h2.4
		c0.2,0,0.4-0.1,0.7-0.1c2.1-0.7,13.3-5.2,17.9-19.2c0-0.1,0-0.1,0.1-0.1c0.1-0.7,1.5-5.5-0.5-6.9L133,298c-0.1,0-0.1-0.1-0.1-0.1
		l-11.9-9.5c-0.1-0.1-0.1-0.1-0.2-0.1c-1-1-10.6-10.9-16-14.5c-0.9-0.7-1.2-2-0.6-2.9l26.7-41c0.7-1.1,0.3-2.6-0.9-3.1l-20.1-8.5
		C108.9,217.9,107.7,218.3,107.2,219.2z"/>
	<polygon class="st11" points="276.4,188.7 283.7,150.9 286.6,151.5 279.2,189.6 	"/>
	<polygon class="st12" points="286.3,151.8 288.3,152.1 280.3,190.1 278.9,189.5 	"/>
	<rect x="302.2" y="107.4" class="st13" width="93.1" height="10.4"/>
	<polygon class="st14" points="302.2,117.9 395.3,117.9 395.3,280.5 302.2,279.8 	"/>
	<rect x="307.7" y="125.9" class="st15" width="32.4" height="28.8"/>
	<rect x="345.2" y="125.9" class="st15" width="39.9" height="5.1"/>
	<rect x="345.2" y="133.9" class="st15" width="22.2" height="4.2"/>
	<rect x="362.2" y="150.7" class="st15" width="23" height="3.9"/>
	<rect x="307.7" y="163.3" class="st15" width="32.4" height="28.8"/>
	<rect x="345.2" y="163.3" class="st15" width="39.9" height="5.1"/>
	<rect x="345.2" y="171.3" class="st15" width="22.2" height="4.2"/>
	<rect x="362.2" y="188.1" class="st15" width="23" height="3.9"/>
	<rect x="307.7" y="199.7" class="st15" width="32.4" height="28.8"/>
	<rect x="345.2" y="199.7" class="st15" width="39.9" height="5.1"/>
	<rect x="345.2" y="207.7" class="st15" width="22.2" height="4.2"/>
	<rect x="362.2" y="224.5" class="st15" width="23" height="3.9"/>
	<rect x="307.3" y="236.1" class="st15" width="32.4" height="28.8"/>
	<rect x="344.9" y="236.1" class="st15" width="39.9" height="5.1"/>
	<rect x="344.9" y="244.1" class="st15" width="22.2" height="4.2"/>
	<rect x="361.8" y="261" class="st15" width="23" height="3.9"/>
	<circle class="st16" cx="385.7" cy="280.9" r="35.3"/>
	<polyline class="st17" points="365,284.6 376,295.5 406.3,266.4 	"/>
	<path class="st18" d="M170.3,135.9c0,0,0-14.9,5.8-2.1"/>
	<path class="st18" d="M184.2,132.3c0,0,0.5-15.7,4.9-1.4"/>
	<polyline class="st18" points="181,131 184.2,143.3 181,143.3 	"/>
	<path class="st6" d="M173.9,147.9c0,0,9,3.4,14.3-0.4c0,0-0.1,8.1-5.6,9.8C182.6,157.2,175.8,158.4,173.9,147.9z"/>
	<path class="st9" d="M140.4,351.9l-0.3,15.3l33.2,18l11.4-17.8c1.2-1.8,3.4-2.7,5.5-2.2l8.6,2c2.2,0.5,3.9,2.5,4,4.8l1.2,21.6
		l29.3,4.1l5.1-45.8H140.4z"/>
</g>
</svg>
