<?xml version="1.0" encoding="utf-8"?>
<!-- Generator: Adobe Illustrator 23.0.1, SVG Export Plug-In . SVG Version: 6.00 Build 0)  -->
<svg version="1.1" id="Layer_1" xmlns="http://www.w3.org/2000/svg" xmlns:xlink="http://www.w3.org/1999/xlink" x="0px" y="0px"
	 viewBox="0 0 850 950" style="enable-background:new 0 0 850 950;" xml:space="preserve">
<style type="text/css">
	.st0{fill:#C7DCD1;}
	.st1{fill:#C9C49C;}
	.st2{fill:#72A285;}
	.st3{fill:#88B296;}
	.st4{fill:#F3E9D1;}
	.st5{fill:#2A2E37;}
	.st6{fill:#EB676D;}
	.st7{fill:#E8484E;}
	.st8{fill:#75A78E;}
	.st9{fill:#2B2F37;}
	.st10{fill:#E73737;}
	.st11{fill:#3E695C;}
	.st12{fill:#EB8A13;}
	.st13{fill:#F4DB72;}
	.st14{fill:#C6B6A3;}
	.st15{display:none;fill:#2B2F37;}
</style>
<path class="st0" d="M41.3,602.8C31.7,576,26.5,548.3,23.1,520c-2.6-21.5-2.2-43-1.5-64.5c1.4-46.6,12.2-91.4,30.1-134.4
	c14.1-33.8,32.1-65.3,55-93.9c33.8-42.4,73.8-77.6,121.2-104.1c44-24.6,91.1-40.7,141-47.8c39-5.5,78.1-5.1,117.3,1
	c46.6,7.2,90.4,21.9,131.9,44c14.3,7.6,28.2,15.9,41.2,25.6c-17.2,0.2-34.5,0.9-51.7,0.3c-9.9-0.4-12.8,2.2-12.8,12.5
	c0.4,76.2,0.2,152.5,0.1,228.7c-4.6,0.1-9.3-0.1-13.9,0.3c-17,1.5-26.9,8-29.3,19.2c-2.3,10.6-4.2,21.3-6.4,32
	c-4.6,21.8-9.3,43.6-14.2,66.7c-2.6-3.2-4.3-5.1-5.9-7.1c0.1-3.6-2.3-6.1-4.1-8.8c-11.9-17.9-24.5-35.3-35.7-53.7
	c-8.9-14.7-21.7-22.4-37.7-26.2c-3.2-1.4-6.4-2.6-9.9-2.3c-8.5-2.6-17.1-5.1-25.6-7.7c-2.3-3.3-3.7-6.9-4.3-11
	c-2-13.1-4.3-26.1-6.4-39.1c-1.9-9.6,4.3-16.3,8.6-23.7c13.7-7.5,21.4-18.5,20.4-34.6c1.3-7.2,5.6-15.5-6.6-17.6
	c3.8-6.2,7.7-12.3,11.3-18.6c8.1-14,2.2-32.3-11.9-34.6c-8.9-1.5-13.3-6.2-16.7-13.5c-2.7-5.7-5.3-11.4-8.6-16.8
	c-5.1-8.2-12.4-12.4-22.4-11.8c-21.1,1.4-35,12.7-43.4,31.3c-1.9,4.2-4.1,7.6-8,10.7c-28.6,23.3-26.8,37.7-9.9,59.5
	c0.4,0.5,0.6,1.2,0.9,1.8c-10.7,7.4-2.4,13.7,1.1,20.3c-4.8,18,3.5,28.7,25.8,33.5c12.1,5.4,13.6,16,14.1,27.5
	c0.2,4.9,1.3,9.7,2,14.6c-0.7,9.9,1.6,20.2-2.9,29.8c-9.9,2.9-19.8,5.8-29.8,8.8c-3.9,0.7-8,0.9-10.3,4.9c-2.2,0.6-4.8,0.6-6.6,1.8
	c-27.4,18.9-54.1,38.9-80,59.9c-11.7,8.5-23.5,17.1-35.2,25.6c-2.5-2.6-2.5-5.6-2.7-8.6c-1-22.1-3.4-44.1-5.9-66.2
	c-2.3-20.4-4.3-40.8,1-61.1c1.3-5,1.4-10.5-0.2-15.7c0.4-0.4,0.8-0.7,1.3-0.9c15.7,17.8,36.7,29,55,45.7
	c-4.3-45-19.2-65.3-39.5-82.3c-25-21.1-63.2-30.7-85-16.6c3.9,3.2,7.8,6.3,11.5,9.5c13.6,11.9,29.1,21.5,41.9,34.5
	c-0.7,1-1.4,2-2.1,3c-7.1-0.7-11.8,2.7-15.7,8.3c-9.8,14.1-8.7,29.3,4.3,43.3c3.5,3.8,4.7,6.8,3.8,12.1c-4.9,27-9.4,54.1-13.6,81.2
	c-3.2,20.9-5.8,41.9-8.2,63c-1.4,12.1,2.4,15.7,14.6,15.2c8.3-0.4,16.4-2.3,24-5.7c20.9-9.2,41.7-18.7,62.6-28
	c3.9,0.6,7-1.7,10.2-3.2c14-6.6,27.9-13.2,42.2-20c1.7,5.3,0.7,9.8,0.4,14.3c-1.3,21.4-3.1,42.8-2.8,64.2c-2,0.1-3.9,0.4-5.9,0.4
	c-30.6,0.5-61.1-1.1-91.7,1.9c-4.3,0.4-9.1-0.7-8.6,6.1C136.9,602.9,89.1,602.9,41.3,602.8z"/>
<path class="st1" d="M41.3,602.8c47.8,0,95.6,0,143.4,0c0.1,5.6-0.3,11.3,0.4,16.9c2.2,18.4,2.4,18.4-16,18.9
	c-4.7,0.1-8.4,0.2-8.3,6.6c0.3,18.2,0.2,36.5,0,54.7c0,4.7,1.8,6.7,6.4,6.4c3-0.2,6,0.4,8.9-0.1c10.2-1.7,14.2,2.4,12.4,12.5
	c-0.2,1.3-0.2,2.6-0.3,4c-13.6-1.1-13.7-1.1-16.1,12.3c-2.2,12.4-4.1,24.8-6.6,37.2c-1.2,5.9-0.4,8.1,6.4,8.1
	c60.4-0.3,120.7-0.2,181.1,0c5.9,0,7.3-1.9,6.7-7.4c-1.5-13.2-3.3-26.4-3.4-39.6c0-9.4-3.5-12.4-12.1-11.2c-2,0.3-3.9,0.5-5.9,0.8
	c-0.6-16.3-0.6-16.3,15-16.4c1,0,2-0.1,3,0c5.4,0.6,7.7-1.6,7.6-7.3c-0.3-17.9-0.2-35.7,0-53.6c0.1-5.2-1.9-7.3-7-6.9
	c-3,0.2-6-0.2-8.9,0.1c-5.9,0.6-8.4-1.6-8.1-7.8c0.5-9.6,0.4-19.2,0.6-28.7c37.6,1.7,75.2,1.1,112.7,0.5c5.6,0.1,11.1,0.1,16.7,0.2
	c41.6,0,83.2,0,124.8,0c4.7,0,9.5,0,14.2,0c63,0.1,126.1,0.1,189.1,0.2c4.2,0,8.7-0.9,11.6,3.6c-17.1,50.1-42.9,95.1-77.6,135.1
	c-58.6,67.5-131.7,110.6-218.6,130.6c-41.5,9.6-83.6,11.5-126.1,7.7c-76.8-7-145.9-34-207.1-80.4C116.1,750.8,70.2,687.9,43.2,611.5
	C42.2,608.7,41.9,605.7,41.3,602.8z M475.7,666.5c1.5,0.5,3.7,0.6,4.5,1.6c5.9,7.8,10.1,0.6,14.5-1.7c5.6-2.9,2.4-6.9,0.9-10.9
	c-0.8-2-0.3-4.5-0.5-6.7c1.7-3.4-1.2-6.2-1.2-9.5c-0.1-7.6-6.9-11.3-13.8-7.8c-2.4,1.2-4.7-0.2-6.4,0.2c-5.3,1.3-13.8,1.4-14.5,6.5
	c-0.6,4.7-1.8,10.9,0.9,16.1c-1.4,2.6-2.6,5.2-2.5,8.2c-5,2.2-8.9-7.6-12.9-2.2c-3,4.1-9.2,5.6-9.7,11.7c-3.7,1.2-7.5,2.3-11.1,3.6
	c-2.6,1-4.5,2.8-3.9,6c0.6,3,3.2,2.9,5.5,2.9c4.2,0.1,7.2,2.8,10.9,4.3c0.7,3.8,1.2,7.6,2,11.3c1.5,6.5,7.9,2.6,11.5,5.3
	c2.5,1.8,5.7-0.3,6-3c0.5-4.5,5.7-5.2,6.2-9.3c12.8-12.4,13.2-19.1,1.3-24.4C467.4,667.9,471.3,665.7,475.7,666.5z M441.5,636.6
	c-3.3-4.9,5.1-11.2-4.3-16.8c-11.5-6.9-13.4,4-19.8,6.3c-1.2,0.5-2.5,0.8-3.5,1.6c-10.9,8-11.1,10.5-3.2,21.1
	c0.9,1.2,0.3,3.8,1.3,4.6c4.4,3.3,7.4,11.4,12.8,9.3c4.2-1.6,10.1-3.1,13-7.9c4.2-0.6,8.5-1.3,12.7-1.9c2.4-0.3,4.7-0.8,5-3.8
	c0.3-3-1.6-4.1-4.1-4.6C446.9,643.3,444.4,639.7,441.5,636.6z M529.1,638.3c-4.8,1.6-8.1,5-9.2,9.7c-2.1,8.9-1.1,17.3,6.5,23.5
	c7.1,5.8,22,6.7,30.3,1.6c8.2-5.1,9.6-13.1,8.2-21.8c-1.8-10.7-7.5-15.3-20.1-16.9C538.8,632.5,534,635.6,529.1,638.3z M595.2,610.4
	c-5.3-2.4-10.5-2.3-15.6,0.4c-9.3,0.8-13,7.1-14.1,15.2c-1.9,14.3,8.6,24.4,25.3,24.7c12.6,0.2,19.3-5.6,20.5-17.7
	C612.5,619.5,607.8,612.9,595.2,610.4z M591.2,656.3c-6-1.9-10.9,0.9-15.7,3.9c-5.6,1.2-8.1,5.5-9.5,10.4
	c-3.5,11.7,4.6,23.7,17.3,26.2c15.4,3,26.7-3.2,28-15.6C613.1,665.2,606.6,657.2,591.2,656.3z M431.6,758c-2.1,0-6.7-0.1-11.3,0
	c-3.4,0-7,0.4-8.2,4.2c-1.5,4.6,2.2,6.8,5.4,8.2c6,2.6,12.3,4.9,18.6,6.4c17.8,4.3,35.7,6.3,53.7,0.9c4-1.2,9.1-3,9.2-7.9
	c0-5.7-5.9-5.5-9.8-6.2C471.1,760.1,452.6,759.2,431.6,758z M393.6,754.2c14.4-0.8,29.4-3,43.8-8.4c6.2-2.3,12.2-5.4,17.1-10
	c2.8-2.6,6.5-5.8,4.2-10.1c-2.1-3.9-6.2-2.5-9.9-1.9c-20,2.9-39.5,8.1-58.8,13.9c-6.3,1.9-16.7,1.6-15.3,10.4
	C376,756,386,753.6,393.6,754.2z M562,723.2c1.5,13.1,8.2,20.2,16.2,26.4c3.8,3,8,3,11.9,0c3.6-2.9,5.9-6.8,4.5-11.3
	c-2.9-9.6-8.8-17.2-18.2-21.1C569.1,714.2,561.8,718.8,562,723.2z M627,747.6c-0.3-5.1-2.1-9.2-6.1-12c-4.6-3.1-8.2,0-11.5,2.6
	c-7.1,5.5-10.4,13.3-12.1,21.9c-1,4.9,2.1,8.1,5.7,10.7c3.5,2.5,7,1.3,10.2-0.6C621.7,765,625.6,757,627,747.6z M537.3,724.8
	c-0.4-5.3-3.2-8.3-8.8-8.5c-11.2-0.4-19.7,4.6-26.4,13.2c-3.4,4.4-2.5,8.4,1.6,12.2c5.5,5.2,11.2,4.2,17.4,1.8
	C529.8,740.1,535.3,734.2,537.3,724.8z M559.2,754.1c-10.7,0-17.4,3-22.4,9.7c-5.5,7.6-2.3,15.1,7.1,16.3c6.9,0.9,13-1.8,19-4.3
	c5.6-2.4,10.6-6.6,9.1-13.4C570.6,755.5,565.1,753.3,559.2,754.1z"/>
<path class="st2" d="M823.9,403.7c4,13,5,26.6,5.9,40c1.3,19.8,2.2,39.6,0.1,59.4c-3.8,0.9-7.5,2.1-11.6,2.1
	c-66.7-0.1-133.3-0.2-200,0.1c-7.7,0-9.5-2.6-9.4-9.8c0.3-24.2,0-48.4-0.1-72.6c3.3-3.1,5.4-6.5,3.4-11.2c3.5-2.2,9.7-1.3,8.9-8.1
	c14.9-0.1,29.7-0.1,44.6-0.2c7.4,7.5,15,14.7,25.3,18.4c32.1,11.3,60.1,3.5,85-18.3C792,403.6,808,403.6,823.9,403.7z"/>
<path class="st2" d="M809.9,606.6c-2.9-4.4-7.4-3.5-11.6-3.6c-63-0.1-126.1-0.1-189.1-0.2c0-21.9,0.3-43.8-0.1-65.7
	c-0.2-7.6,1.8-10.3,9.9-10.3c69.6,0.4,139.3,0.2,208.9,0.3C825,554.4,818.2,580.7,809.9,606.6z"/>
<path class="st2" d="M780.7,282c18.7,31,30.6,64.6,39.1,99.6c-9.8,0-19.6,0-29.4,0.1c0.7-2.5,1.3-5.1,2-7.6
	c3.3-13,3.3-12.9-9.5-10.6c-38,6.7-75.9,13.3-113.9,19.9c-2.9-2.5-6.3-1.5-9.5-1.5c-13.6-0.1-27.2-0.4-40.8,0.1
	c-7.6,0.3-9.6-2.3-9.5-9.7c0.4-26.5,0.4-53.1,0-79.6c-0.1-8.2,2.1-10.7,10.5-10.7C673.2,282.2,726.9,282,780.7,282z M737.9,338.2
	c1-0.1,2-0.3,2.9-0.3c5.8-0.3,10.6-2.3,11.5-8.6c1.1-8.8-2.4-16.1-9.7-21.2c-5.6-3.9-9.9-0.8-13.9,3c-6,5.7-13.4,9.5-20.5,13.5
	c-18.3-10.8-35.7-11-51.5,4.6c-4.8,4.7-14.3,9.4-12.1,15.3c3,8,13.9,6.7,21.4,6.3C690.4,349.5,714.4,345,737.9,338.2z"/>
<path class="st2" d="M678.9,160.5c35.4,27,64.4,59.7,87.7,97.5c-1.6,2.2-3.9,2.1-6.3,2.1c-48,0-96-0.1-144,0.1
	c-6.8,0-7.3-3.4-7.3-8.7c0.1-27.5,0.3-55-0.1-82.4c-0.1-7.4,2.9-8.8,9.4-8.7C638.5,160.7,658.7,160.5,678.9,160.5z"/>
<path class="st3" d="M678.9,160.5c-20.2,0-40.4,0.2-60.6-0.1c-6.5-0.1-9.5,1.3-9.4,8.7c0.4,27.5,0.2,55,0.1,82.4
	c0,5.3,0.5,8.7,7.3,8.7c48-0.2,96-0.1,144-0.1c2.3,0,4.7,0.1,6.3-2.1c5.7,7.4,10.6,15.2,14,23.9c-53.7,0-107.5,0.3-161.2-0.1
	c-8.4-0.1-10.6,2.5-10.5,10.7c0.5,26.5,0.4,53.1,0,79.6c-0.1,7.4,1.9,10,9.5,9.7c13.6-0.6,27.2-0.2,40.8-0.1c3.2,0,6.7-1,9.5,1.5
	c-13.8,2.4-13.9,2.6-6.5,14.4c1.2,1.9,2.3,3.9,3.5,5.8c-14.9,0.1-29.7,0.1-44.6,0.2c0.3-11.1-6.7-11-14.6-9.4
	c-2.5-4.7-7.5-5-11.7-6.8c0-76.2,0.3-152.5-0.1-228.7c-0.1-10.4,2.9-12.9,12.8-12.5c17.2,0.7,34.4-0.1,51.7-0.3
	C666.5,149.7,673,154.8,678.9,160.5z"/>
<path class="st3" d="M827.8,527.2c-69.6,0-139.3,0.1-208.9-0.3c-8.1,0-10.1,2.6-9.9,10.3c0.4,21.9,0.1,43.8,0.1,65.7
	c-4.7,0-9.5,0-14.2,0c0-58.4,0-116.8,0-175.3c4.7-1.6,9.3-3.1,14-4.7c0.1,24.2,0.4,48.4,0.1,72.6c-0.1,7.2,1.6,9.8,9.4,9.8
	c66.7-0.3,133.3-0.2,200-0.1c4.1,0,7.8-1.2,11.6-2.1C831,511.3,827.9,519.1,827.8,527.2z"/>
<path class="st3" d="M790.3,381.6c9.8,0,19.6,0,29.4-0.1c1.4,7.4,4.5,14.4,4.2,22.1c-15.9,0-31.9-0.1-47.8-0.1
	C781.7,396.8,786.1,389.3,790.3,381.6z"/>
<path class="st4" d="M340.7,602.2c-0.2,9.6-0.1,19.2-0.6,28.7c-0.4,6.2,2.1,8.4,8.1,7.8c2.9-0.3,6,0.1,8.9-0.1
	c5.1-0.4,7.1,1.7,7,6.9c-0.2,17.9-0.2,35.7,0,53.6c0.1,5.7-2.2,7.9-7.6,7.3c-1-0.1-2,0-3,0c-15.6,0.1-15.6,0.1-15,16.4
	c-0.2,5.2-0.3,10.3-0.4,15.5c-9,1.3-17.7-1.3-26.5-2.2c-26.1-2.6-52.1-6.4-78.2-9c-15-1.5-29.8-4.7-45-4.3l0,0
	c0.1-1.3,0.1-2.7,0.3-4c1.8-10-2.2-14.2-12.4-12.5c-2.9,0.5-6-0.1-8.9,0.1c-4.7,0.3-6.5-1.8-6.4-6.4c0.1-18.2,0.2-36.5,0-54.7
	c-0.1-6.5,3.6-6.5,8.3-6.6c18.4-0.4,18.2-0.5,16-18.9c-0.7-5.6-0.3-11.3-0.4-16.9c-0.5-6.8,4.3-5.7,8.6-6.1
	c30.5-3.1,61.1-1.5,91.7-1.9c2,0,3.9-0.3,5.9-0.4c5.8-0.4,11.8,1.5,17.4-1.4c7.9,0.1,15.8,0.8,23.6,0.1
	C339.5,592.3,342.2,594.8,340.7,602.2z M195.9,603.8c38.2,48,96.1,47.6,132,0C284,603.8,240.2,603.8,195.9,603.8z M170.7,673
	c0,5,0.2,10,0,14.9c-0.2,5.2,0.3,9,7.2,8.7c6.2-0.3,9.2-2.1,9-8.7c-0.3-10.3-0.3-20.6-0.1-30.8c0.1-5.6-1.1-8.5-7.6-8.5
	c-6.4,0-9.1,1.9-8.5,8.5C171.1,662.4,170.7,667.7,170.7,673z M354.1,673.3c0-5.9-0.2-11.9,0.1-17.8c0.3-5.3-2.2-6.8-7.1-6.8
	c-5.1,0-7.1,1.7-7,6.9c0.2,11.2,0.2,22.5-0.1,33.7c-0.2,5.9,2.5,7.2,7.7,7.3c5.7,0.1,6.6-2.8,6.4-7.4
	C353.9,683.9,354.1,678.6,354.1,673.3z"/>
<path class="st5" d="M340.7,602.2c1.5-7.4-1.2-9.8-8.8-9.2c-7.8,0.7-15.7,0-23.6-0.1c1.7-22.4,3.6-44.7,5.1-67.1
	c2.3-34.9,3.9-69.9,1.9-104.9c2.3-4,6.4-4.2,10.3-4.9c0.1,20.9,0.5,41.7,0.1,62.6c-0.1,7.5,1.6,10.3,9.8,10.3
	c31.5-0.3,62.9,0,94.4,0.6c7.1,0.1,8.2-2.6,8.1-8.6c-0.3-24.5-0.2-49-0.3-73.5c3.6-0.4,6.8,0.8,9.9,2.3c-0.8,64.4,2.7,128.7,5.8,193
	C415.8,603.3,378.3,603.9,340.7,602.2z"/>
<path class="st6" d="M185.9,356.7c1.6,5.2,1.5,10.8,0.2,15.7c-5.3,20.4-3.4,40.7-1,61.1c2.5,22,4.9,44,5.9,66.2
	c0.1,2.9,0.2,5.9,2.7,8.6c11.7-8.5,23.5-17.1,35.2-25.6c5.4,18.5,8.8,37.4,12,56.4c-20.9,9.3-41.7,18.7-62.6,28
	c-7.6,3.4-15.7,5.2-24,5.7c-12.2,0.6-16-3-14.6-15.2c2.4-21,5-42.1,8.2-63c4.1-27.1,8.7-54.2,13.6-81.2c1-5.3-0.3-8.4-3.8-12.1
	c-13-14-14.1-29.2-4.3-43.3c3.9-5.6,8.7-9,15.7-8.3c-0.6,3.2-1.3,6.3-1.9,9.5c0,0.4-0.2,0.7-0.7,0.6c-7.2,1.1-8.6,7.3-9,12.5
	c-0.6,7.2,3.2,13.3,9.4,17.3c2.9,1.9,6.2,3.1,8.9-0.1c4.5-5.2,7.5-10.9,3.1-17.7c-0.1-2.4-0.2-4.9-0.2-7.3
	C180.9,361.8,182,357.9,185.9,356.7z"/>
<path class="st6" d="M608.9,422.9c-4.7,1.6-9.3,3.1-14,4.7c-5.1,1.4-10.1,2.9-15.3,4.1c-5.1,1.2-6.6,4.2-6.6,9.3
	c-0.4,31.8,1.7,63.5,5.2,95.2c0.8,7.5,1.3,15.3,0.4,22.8c-1.3,11.6-5.5,21.8-17.8,26.5c-13.8,5.2-26.5,3.2-36.8-6.9
	c-14-13.8-25-30-34.8-46.9c12.9-10,22.5-23.7,35.9-33.2c1.6,2,3.3,4,5.9,7.1c4.9-23.1,9.6-44.9,14.2-66.7c2.2-10.6,4.2-21.3,6.4-32
	c2.4-11.2,12.2-17.6,29.3-19.2c4.6-0.4,9.2-0.2,13.9-0.3c4.2,1.8,9.2,2.1,11.7,6.8c-11.6,2.5-23.1,5.5-34.8,7.3
	c-10,1.5-6.2,8.5-6.2,13.6c0.1,7,5.3,4,8.8,3.5c12.7-2.1,25.3-4.5,37.9-6.8C614.3,416.4,612.2,419.9,608.9,422.9z"/>
<path class="st7" d="M316.3,302.1c-3.4-6.6-11.8-13-1.1-20.3c5.5-0.8,10.3,1.2,14.8,5.4c0.9-15.6-1.1-30.2,1.6-44.7
	c2.7-14.9,5.8-18.6,18.6-20.2c21-2.7,27-0.3,32.8,13.7c2.7,6.3,5.7,12.9,13.4,13c13.1,0.1,17.4,7.5,17.7,18.9
	c0.2,7.4,3.4,8.9,9.7,5.8c12.2,2.1,7.8,10.5,6.6,17.6c-1.9,3.8-4.1,8.7-7.8,9.7c-8.8,2.5-9.5,9.3-10.7,16.2
	c-0.5,2.9-1.3,5.8-1.9,8.7c-4.3,7.4-10.5,14.1-8.6,23.7c-3.5-0.1-6.3,1.6-9.3,3c-13.1,5.9-23.4,15.5-33.8,24.9
	c-0.7-4.9-1.8-9.7-2-14.6c-0.5-11.4-2-22.1-14.1-27.5c-1.4-2.6-3.7-5-4-7.7C336.7,314.1,329,306,316.3,302.1z M358,270.1
	c-5.3-1.1-5.3-1.1-6.6,7.3C355.3,276.3,353.4,270.2,358,270.1c1.2,4.8,2.4,9.7,3.7,14.5C363.5,278.9,364.1,273.5,358,270.1z
	 M367,314.5c0.1,4.3,2.1,7.4,4,10.4c2.9,4.7,6.7,8.7,12.9,6.5c6.3-2.2,8.6-7.8,9.7-13.8c0.4-2.4-0.6-4.1-3.2-3.1
	C382.6,317.3,374.8,315.4,367,314.5z M389.6,284.4c5.3-6.1,1.7-12.8,6.8-16c5.2,3.4,2.2,10,7.2,16.2c-1-9,0-18.7-7.1-18.7
	C388.3,265.8,390.9,275.6,389.6,284.4z M376.2,273.2c-0.6,0.2-1.3,0.4-1.9,0.6c0.7,3.8,1.3,7.7,2.1,11.5c0.7,3.8,2.6,7.6,1.7,11.6
	c-1,4.4-1.1,4.4,4.3,6.2C380.3,292.8,378.2,283,376.2,273.2z"/>
<path class="st8" d="M437.7,407.4c0.1,24.5,0,49,0.3,73.5c0.1,6-1,8.8-8.1,8.6c-31.5-0.6-62.9-0.9-94.4-0.6
	c-8.2,0.1-9.9-2.8-9.8-10.3c0.3-20.9,0-41.7-0.1-62.6c9.9-2.9,19.8-5.8,29.8-8.8c2.5,6.9,6,13.3,10.8,18.9
	c10.5,12.1,25.6,12.1,36.1,0c6.6-7.6,8.4-17,9.9-26.6C420.7,402.3,429.2,404.8,437.7,407.4z"/>
<path class="st8" d="M240.8,539c-3.2-19-6.6-37.9-12-56.4c25.9-21,52.6-40.9,80-59.9c1.8-1.2,4.4-1.2,6.6-1.8
	c2,35,0.4,69.9-1.9,104.9c-1.5,22.4-3.4,44.7-5.1,67.1c-5.6,3-11.6,1-17.4,1.4c-0.3-21.5,1.5-42.8,2.8-64.2c0.3-4.5,1.2-9-0.4-14.3
	c-14.3,6.8-28.3,13.4-42.2,20C247.7,537.4,244.7,539.7,240.8,539z"/>
<path class="st8" d="M525.2,498.3c-13.4,9.5-23,23.2-35.9,33.2c-8.1-10.2-16.2-20.5-25.8-32.5c2.3,36.1,4.5,69.9,6.7,103.8
	c-5.6-0.1-11.1-0.1-16.7-0.2c-3-64.3-6.6-128.6-5.8-193c16,3.8,28.8,11.5,37.7,26.2c11.1,18.4,23.7,35.8,35.7,53.7
	C522.8,492.3,525.3,494.7,525.2,498.3z"/>
<path class="st9" d="M423.9,273.7c-6.3,3.1-9.5,1.5-9.7-5.8c-0.3-11.4-4.6-18.8-17.7-18.9c-7.7,0-10.7-6.6-13.4-13
	c-5.9-14-11.8-16.4-32.8-13.7c-12.9,1.6-15.9,5.3-18.6,20.2c-2.6,14.5-0.6,29.1-1.6,44.7c-4.5-4.2-9.3-6.2-14.8-5.4
	c-0.3-0.6-0.5-1.2-0.9-1.8c-16.9-21.8-18.7-36.2,9.9-59.5c3.8-3.1,6-6.5,8-10.7c8.5-18.7,22.4-29.9,43.4-31.3
	c10-0.7,17.4,3.5,22.4,11.8c3.3,5.3,5.9,11.1,8.6,16.8c3.4,7.3,7.8,12,16.7,13.5c14.1,2.3,20,20.7,11.9,34.6
	C431.5,261.3,427.6,267.5,423.9,273.7z"/>
<path class="st4" d="M171,346.6c-12.8-12.9-28.3-22.5-41.9-34.5c-3.7-3.3-7.6-6.3-11.5-9.5c21.8-14.1,60-4.4,85,16.6
	c20.3,17.1,35.1,37.3,39.5,82.3c-18.4-16.7-39.4-27.9-55-45.7c6.7-7.4-2.1-8.8-4.9-12.3C176.4,336.1,174.8,345.6,171,346.6z"/>
<path class="st6" d="M412.1,399.7c-1.5,9.5-3.3,19-9.9,26.6c-10.4,12.1-25.6,12.1-36.1,0c-4.8-5.6-8.3-12-10.8-18.9
	c4.5-9.6,2.1-19.8,2.9-29.8c10.5-9.4,20.8-19,33.8-24.9c3-1.3,5.8-3.1,9.3-3c2.2,13,4.4,26,6.4,39.1
	C408.4,392.8,409.8,396.4,412.1,399.7z"/>
<path class="st9" d="M316.3,302.1c12.7,4,20.4,12.1,21.8,25.8c0.3,2.7,2.6,5.2,4,7.7C319.8,330.7,311.5,320.1,316.3,302.1z"/>
<path class="st9" d="M171,346.6c3.8-0.9,5.3-10.4,11.2-3.1c2.8,3.5,11.6,4.9,4.9,12.3c-0.5,0.2-0.9,0.5-1.3,0.9
	c-3.8,1.2-4.9,5.1-7.3,7.7c-3.8-1.8-7.7-3.6-11.5-5.3c0.6-3.2,1.3-6.3,1.9-9.5C169.7,348.6,170.4,347.6,171,346.6z"/>
<path class="st9" d="M410,325.9c0.6-2.9,1.4-5.7,1.9-8.7c1.2-7,1.9-13.7,10.7-16.2c3.7-1.1,5.9-5.9,7.8-9.7
	C431.4,307.4,423.7,318.5,410,325.9z"/>
<path class="st0" d="M470.1,602.9c-2.2-33.8-4.4-67.7-6.7-103.8c9.5,12,17.6,22.2,25.8,32.5c9.8,17,20.9,33.1,34.8,46.9
	c10.3,10.1,23,12.2,36.8,6.9c12.3-4.7,16.5-14.9,17.8-26.5c0.8-7.5,0.4-15.3-0.4-22.8c-3.5-31.6-5.6-63.3-5.2-95.2
	c0.1-5,1.5-8.1,6.6-9.3c5.1-1.2,10.2-2.7,15.3-4.1c0,58.4,0,116.8,0,175.3C553.3,602.8,511.7,602.8,470.1,602.9z"/>
<path class="st9" d="M338,738.3c0.1-5.2,0.3-10.3,0.4-15.5c2-0.3,3.9-0.5,5.9-0.8c8.6-1.2,12.1,1.8,12.1,11.2
	c0.1,13.2,1.9,26.4,3.4,39.6c0.6,5.5-0.8,7.5-6.7,7.4c-60.4-0.2-120.7-0.2-181.1,0c-6.8,0-7.6-2.2-6.4-8.1
	c2.5-12.3,4.4-24.8,6.6-37.2c2.4-13.4,2.4-13.4,16.1-12.3c0,0,0,0,0,0c0.1,8.3,0.8,16.6,0.3,24.9c-0.5,7.1,2,8.8,8.9,8.8
	c41.5-0.3,83-0.2,124.5-0.2C339.1,756.2,339.1,756.2,338,738.3z"/>
<path class="st10" d="M591.2,656.3c15.4,0.9,21.9,8.9,20.1,25c-1.4,12.4-12.6,18.6-28,15.6c-12.7-2.5-20.8-14.6-17.3-26.2
	c1.5-4.9,3.9-9.2,9.5-10.4C581.4,661.7,588.3,667,591.2,656.3z"/>
<path class="st10" d="M595.2,610.4c12.6,2.6,17.3,9.2,16.1,22.6c-1.1,12.1-7.9,18-20.5,17.7c-16.7-0.3-27.2-10.4-25.3-24.7
	c1.1-8.1,4.7-14.4,14.1-15.2C584.9,615.8,590.2,619.7,595.2,610.4z"/>
<path class="st10" d="M544.8,634.4c12.5,1.6,18.3,6.2,20.1,16.9c1.4,8.7,0,16.8-8.2,21.8c-8.2,5.1-23.2,4.2-30.3-1.6
	c-7.6-6.2-8.6-14.6-6.5-23.5c1.1-4.7,4.4-8.1,9.2-9.7C538.6,644.5,542.3,643.6,544.8,634.4z"/>
<path class="st11" d="M431.6,758c21,1.2,39.5,2.1,57.7,5.5c3.9,0.7,9.8,0.5,9.8,6.2c0,4.9-5.2,6.7-9.2,7.9
	c-17.9,5.5-35.9,3.5-53.7-0.9c-6.4-1.6-12.6-3.9-18.6-6.4c-3.2-1.4-6.9-3.6-5.4-8.2c1.2-3.8,4.8-4.1,8.2-4.2
	C424.9,757.9,429.5,758,431.6,758z M461.5,770.1c-0.2,0.5-4.2,0.5-0.5,1.9c2.3,0.9,4.6-0.4,4.3-3.5c-0.3-2.7-2.6-4.6-4.7-3.6
	C454.1,767.6,464.1,767.5,461.5,770.1z"/>
<path class="st11" d="M393.6,754.2c-7.6-0.6-17.6,1.7-18.9-6.2c-1.5-8.8,9-8.5,15.3-10.4c19.3-5.8,38.8-11.1,58.8-13.9
	c3.7-0.5,7.8-2,9.9,1.9c2.3,4.3-1.4,7.5-4.2,10.1c-4.9,4.6-10.8,7.6-17.1,10C423,751.2,408,753.4,393.6,754.2z M403.9,738.7
	c9.6,1.3,19.8,5.9,27.1-3.5C421.1,729.1,413.2,738.8,403.9,738.7z"/>
<path class="st4" d="M562,723.2c-0.2-4.4,7-9,14.4-6c9.4,3.9,15.3,11.5,18.2,21.1c1.4,4.5-0.9,8.4-4.5,11.3c-3.9,3-8.1,3-11.9,0
	C570.2,743.4,563.5,736.3,562,723.2z"/>
<path class="st4" d="M627,747.6c-1.4,9.4-5.3,17.4-13.9,22.6c-3.2,1.9-6.7,3.1-10.2,0.6c-3.6-2.6-6.7-5.8-5.7-10.7
	c1.7-8.5,5-16.4,12.1-21.9c3.3-2.6,6.9-5.7,11.5-2.6C624.9,738.4,626.7,742.5,627,747.6z"/>
<path class="st4" d="M537.3,724.8c-2,9.4-7.5,15.3-16.3,18.7c-6.2,2.4-11.9,3.4-17.4-1.8c-4.1-3.9-5-7.9-1.6-12.2
	c6.7-8.5,15.2-13.5,26.4-13.2C534.1,716.5,536.9,719.5,537.3,724.8z"/>
<path class="st4" d="M559.2,754.1c5.9-0.8,11.4,1.4,12.9,8.3c1.5,6.9-3.5,11.1-9.1,13.4c-6,2.5-12.2,5.2-19,4.3
	c-9.4-1.2-12.6-8.7-7.1-16.3C541.7,757.1,548.4,754.1,559.2,754.1z"/>
<path class="st11" d="M435,672c0.5-6,6.6-7.6,9.7-11.7c4-5.4,7.9,4.4,12.9,2.2c1.9,2,3.8,4,5.7,6.1c11.9,5.3,11.5,12.1-1.3,24.4
	c0.1-5.8-1.5-9.5-8.5-8.6c-4.5,0.6-9.1,0.1-13.6,0.1C438.3,680.4,436.6,676.2,435,672z"/>
<path class="st11" d="M437.8,654.7c-3,4.8-8.9,6.3-13,7.9c-5.4,2.1-8.4-6-12.8-9.3c-1-0.8-0.4-3.4-1.3-4.6c-8-10.6-7.7-13,3.2-21.1
	c1-0.8,2.4-1.1,3.5-1.6c-1.8,6.8-1.5,11.8,7.8,10.8c2.7-0.3,5.6,1.1,8.4,1.7C439.7,642.8,436.9,649.2,437.8,654.7z"/>
<path class="st11" d="M460.1,654.3c-2.7-5.2-1.6-11.4-0.9-16.1c0.7-5.1,9.1-5.2,14.5-6.5c1.8-0.4,4.1,1,6.4-0.2
	c7-3.5,13.7,0.2,13.8,7.8c0.1,3.3,3,6.1,1.2,9.5c-8.3-5.2-14.1-2.4-19.3,9.1C469.7,660.8,465.9,653.1,460.1,654.3z"/>
<path class="st9" d="M439.9,684.6c4.5,0,9.1,0.5,13.6-0.1c7-0.9,8.6,2.8,8.5,8.6c-0.5,4.1-5.7,4.8-6.2,9.3c-0.3,2.7-3.5,4.8-6,3
	c-3.6-2.6-10,1.3-11.5-5.3c-0.8-3.7-1.4-7.5-2-11.3C438.9,688.6,439.4,686.6,439.9,684.6z"/>
<path class="st9" d="M433.6,638.6c-2.8-0.6-5.7-2-8.4-1.7c-9.4,1-9.7-4-7.8-10.8c6.4-2.3,8.3-13.3,19.8-6.3c9.4,5.7,1,12,4.3,16.8
	C438.9,637.3,436.3,638,433.6,638.6z"/>
<path class="st9" d="M475.8,657.9c5.1-11.5,11-14.3,19.3-9.1c0.1,2.2-0.3,4.7,0.5,6.7c1.6,3.9,4.7,8-0.9,10.9
	c-4.4,2.3-8.6,9.5-14.5,1.7c-0.8-1.1-3-1.1-4.5-1.6C475.7,663.7,475.8,660.8,475.8,657.9z"/>
<path class="st8" d="M433.6,638.6c2.6-0.7,5.3-1.4,7.9-2c2.9,3.1,5.4,6.7,9.9,7.8c2.5,0.6,4.4,1.6,4.1,4.6c-0.3,3-2.6,3.5-5,3.8
	c-4.2,0.6-8.5,1.2-12.7,1.9C436.9,649.2,439.7,642.8,433.6,638.6z"/>
<path class="st8" d="M439.9,684.6c-0.5,2-1,4-3.6,4.2c-3.6-1.4-6.7-4.2-10.9-4.3c-2.3-0.1-4.8,0.1-5.5-2.9c-0.6-3.2,1.3-5,3.9-6
	c3.7-1.4,7.4-2.4,11.1-3.6C436.6,676.2,438.3,680.4,439.9,684.6z"/>
<path class="st8" d="M475.8,657.9c-0.1,2.9-0.1,5.7-0.2,8.6c-4.4-0.8-8.2,1.3-12.4,2.1c-1.9-2-3.8-4-5.7-6.1c-0.1-3,1.1-5.7,2.5-8.2
	C465.9,653.1,469.7,660.8,475.8,657.9z"/>
<path class="st9" d="M544.8,634.4c-2.4,9.2-6.2,10.1-15.6,3.9C534,635.6,538.8,632.5,544.8,634.4z"/>
<path class="st9" d="M595.2,610.4c-5,9.4-10.3,5.4-15.6,0.4C584.7,608.1,589.9,607.9,595.2,610.4z"/>
<path class="st9" d="M591.2,656.3c-2.9,10.7-9.8,5.4-15.7,3.9C580.3,657.2,585.2,654.4,591.2,656.3z"/>
<path class="st9" d="M790.3,381.6c-4.1,7.7-8.6,15.1-14.2,21.9c-25,21.7-52.9,29.6-85,18.3c-10.3-3.6-17.9-10.9-25.3-18.4
	c-1.2-1.9-2.3-3.9-3.5-5.8c-7.4-11.8-7.3-12,6.5-14.4c38-6.6,75.9-13.2,113.9-19.9c12.8-2.3,12.8-2.3,9.5,10.6
	C791.6,376.5,790.9,379.1,790.3,381.6z"/>
<path class="st9" d="M612.3,411.8c-12.6,2.3-25.2,4.7-37.9,6.8c-3.4,0.6-8.7,3.5-8.8-3.5c0-5.1-3.8-12.1,6.2-13.6
	c11.7-1.8,23.2-4.8,34.8-7.3c7.9-1.6,14.8-1.7,14.6,9.4C622,410.4,615.7,409.6,612.3,411.8z"/>
<path class="st12" d="M737.9,338.2c-23.5,6.8-47.5,11.3-71.8,12.6c-7.4,0.4-18.4,1.7-21.4-6.3c-2.2-6,7.3-10.6,12.1-15.3
	c15.8-15.6,33.2-15.4,51.5-4.6C716.9,331.9,727,335.9,737.9,338.2z"/>
<path class="st13" d="M737.9,338.2c-10.9-2.4-21-6.3-29.7-13.6c7.1-4,14.5-7.7,20.5-13.5c4-3.8,8.3-6.9,13.9-3
	c7.3,5.1,10.8,12.4,9.7,21.2c-0.8,6.3-5.7,8.3-11.5,8.6C739.9,337.9,738.9,338.1,737.9,338.2z"/>
<path class="st14" d="M338,738.3c1.1,18,1.1,18-16.1,18c-41.5,0-83-0.2-124.5,0.2c-6.9,0.1-9.3-1.6-8.9-8.8
	c0.5-8.2-0.1-16.6-0.3-24.9c15.2-0.4,30,2.8,45,4.3c26.1,2.6,52.1,6.4,78.2,9C320.3,737,329,739.6,338,738.3z"/>
<path class="st10" d="M195.9,603.8c44.2,0,88.1,0,132,0C292.1,651.3,234.1,651.7,195.9,603.8z M295.7,618.3c0.1-3.5-2.7-3.3-4.8-3.6
	c-4.3-0.6-8-4.8-12.8-2c-0.6,0.3-1,2.2-0.7,2.5c3.9,4,9.6,3.5,14.4,5.1C293.4,620.9,295.1,620.3,295.7,618.3z M260.9,624.7
	c-3.1,1.4-9.1-2.4-9.4,3.4c-0.2,4.2,5.4,2.5,8.2,2.2c3.4-0.3,9.3,2.7,9.6-3C269.5,623,263.9,625.6,260.9,624.7z M231.8,626
	c3.6-2.2,8.7-3.8,11.2-8.1c1-1.7-2.1-3.3-4-2.6c-4.5,1.7-9.4,3.4-11.4,8.4C227.1,624.7,229.1,626.3,231.8,626z"/>
<path class="st1" d="M170.7,673c0-5.3,0.4-10.6-0.1-15.9c-0.6-6.6,2.1-8.5,8.5-8.5c6.5,0,7.8,2.8,7.6,8.5
	c-0.3,10.3-0.2,20.6,0.1,30.8c0.2,6.6-2.8,8.5-9,8.7c-7,0.3-7.5-3.4-7.2-8.7C170.9,682.9,170.7,678,170.7,673z"/>
<path class="st1" d="M354.1,673.3c0,5.3-0.1,10.6,0,15.9c0.2,4.6-0.8,7.5-6.4,7.4c-5.3-0.1-7.9-1.4-7.7-7.3
	c0.4-11.2,0.3-22.5,0.1-33.7c-0.1-5.2,1.9-7,7-6.9c4.9,0,7.4,1.5,7.1,6.8C353.8,661.4,354.1,667.3,354.1,673.3z"/>
<path class="st0" d="M167.1,359.1c3.8,1.8,7.7,3.6,11.5,5.3c0.1,2.4,0.2,4.9,0.2,7.3c-0.6,1.9-1.6,3.7-1.8,5.6
	c-0.4,3.5-1.5,7-5.2,7.5c-4,0.6-5.3-3.3-6.6-6.2c-3-6.5-1.7-12.8,1.2-18.9C166.9,359.8,167.1,359.6,167.1,359.1z"/>
<path class="st7" d="M166.4,359.7c-2.9,6.2-4.2,12.5-1.2,18.9c1.4,2.9,2.6,6.8,6.6,6.2c3.6-0.6,4.7-4,5.2-7.5
	c0.2-1.9,1.2-3.7,1.8-5.6c4.4,6.8,1.4,12.5-3.1,17.7c-2.8,3.2-6,1.9-8.9,0.1c-6.3-4-10-10.1-9.4-17.3
	C157.8,367,159.2,360.9,166.4,359.7z"/>
<path class="st9" d="M367,314.5c7.8,0.9,15.6,2.8,23.3-0.1c2.7-1,3.7,0.8,3.2,3.1c-1.1,6-3.4,11.6-9.7,13.8
	c-6.2,2.2-10-1.8-12.9-6.5C369.1,321.9,367.1,318.8,367,314.5z"/>
<path class="st9" d="M389.6,284.4c1.4-8.8-1.2-18.6,7-18.5c7,0.1,6.1,9.8,7.1,18.7c-5-6.2-2-12.8-7.2-16.2
	C391.3,271.6,394.9,278.3,389.6,284.4z"/>
<path class="st9" d="M376.2,273.2c2,9.8,4.1,19.6,6.2,29.9c-5.4-1.8-5.3-1.8-4.3-6.2c0.9-4-0.9-7.8-1.7-11.6
	c-0.7-3.8-1.4-7.7-2.1-11.5C374.9,273.6,375.6,273.4,376.2,273.2z"/>
<path class="st2" d="M461.5,770.1c2.6-2.6-7.3-2.5-0.9-5.3c2.1-0.9,4.4,1,4.7,3.6c0.4,3.1-2,4.4-4.3,3.5
	C457.3,770.5,461.3,770.6,461.5,770.1z"/>
<path class="st2" d="M403.9,738.7c9.3,0.1,17.2-9.6,27.1-3.5C423.7,744.6,413.5,740,403.9,738.7z"/>
<path class="st12" d="M295.7,618.3c-0.6,2-2.3,2.6-3.8,2.1c-4.9-1.6-10.5-1.1-14.4-5.1c-0.3-0.3,0.1-2.2,0.7-2.5
	c4.7-2.8,8.5,1.4,12.8,2C293,615.1,295.8,614.9,295.7,618.3z"/>
<path class="st12" d="M260.9,624.7c3.1,0.9,8.6-1.6,8.4,2.6c-0.2,5.7-6.2,2.7-9.6,3c-2.8,0.2-8.4,2-8.2-2.2
	C251.7,622.3,257.8,626.1,260.9,624.7z"/>
<path class="st12" d="M231.8,626c-2.7,0.3-4.7-1.3-4.2-2.4c2-4.9,6.8-6.7,11.4-8.4c1.9-0.7,5,0.9,4,2.6
	C240.5,622.2,235.4,623.7,231.8,626z"/>
<path class="st15" d="M350.2,286.9c1.4-8.8-1.2-18.6,7-18.5c7,0.1,6.1,9.8,7.1,18.7c-5-6.2-2-12.8-7.2-16.2
	C351.9,274.1,355.5,280.8,350.2,286.9z"/>
<rect x="348" y="262.7" class="st7" width="16.7" height="28.6"/>
<path class="st9" d="M350.2,284.4c1.4-8.8-1.2-18.6,7-18.5c7,0.1,6.1,9.8,7.1,18.7c-5-6.2-2-12.8-7.2-16.2
	C351.9,271.6,355.5,278.3,350.2,284.4z"/>
</svg>
