<svg xmlns="http://www.w3.org/2000/svg" width="233" height="233" viewBox="0 0 233 233"><defs><style>.a{fill:#ffebba;}.b{fill:#ebae56;}.c{fill:#fbc56d;}.d{fill:#dca050;}.e{fill:#ce9047;}.f{fill:#d73131;}.g{fill:#e84444;}.h{fill:#fd7d43;}.i{fill:#fc6930;}</style></defs><path class="a" d="M49.843,64.473a8.7,8.7,0,0,1-7.2-13.6,116.521,116.521,0,0,1,204.3,109.27,16.591,16.591,0,0,1-15.368,10.4H176.335A106.072,106.072,0,0,0,70.263,64.473Zm0,0" transform="translate(-22.405 0.001)"/><path class="b" d="M168.379,114.551V280.771A116.526,116.526,0,0,1,.03,178.766a4.325,4.325,0,0,1-.03-.5V114.551A4.55,4.55,0,0,1,4.551,110H163.828c.156,0,.313.009.466.023a4.541,4.541,0,0,1,3.045,1.634,4.183,4.183,0,0,1,.263.35,4.515,4.515,0,0,1,.684,1.627A4.587,4.587,0,0,1,168.379,114.551Zm0,0" transform="translate(0 -59.941)"/><path class="c" d="M179.185,113.634a4.515,4.515,0,0,0-.684-1.627,4.183,4.183,0,0,0-.263-.35,4.541,4.541,0,0,0-3.045-1.634c-.153-.014-.309-.023-.466-.023H20v68.262a4.325,4.325,0,0,0,.03.5,116.492,116.492,0,0,0,111.9,114.077,115.889,115.889,0,0,0,47.351-12.072V114.551A4.587,4.587,0,0,0,179.185,113.634Zm-84.1,119.237a38.682,38.682,0,1,1,38.682-38.682A38.681,38.681,0,0,1,95.088,232.871Zm0,0" transform="translate(-10.898 -59.941)"/><path class="d" d="M173.262,41.377V91.435a2.275,2.275,0,0,1-2.275,2.275h-9.1a2.275,2.275,0,0,1-2.275-2.275V45.928a2.275,2.275,0,0,0-2.275-2.275H120.928a2.275,2.275,0,0,0-2.275,2.275V91.435a2.275,2.275,0,0,1-2.275,2.275h-9.1A2.275,2.275,0,0,1,105,91.435V41.377A11.376,11.376,0,0,1,116.377,30h45.508A11.376,11.376,0,0,1,173.262,41.377Zm0,0" transform="translate(-57.217 -16.347)"/><path class="e" d="M114.1,93.711h-6.826A2.275,2.275,0,0,1,105,91.435V41.377A11.376,11.376,0,0,1,116.377,30H123.2a11.376,11.376,0,0,0-11.377,11.377V91.435A2.275,2.275,0,0,0,114.1,93.711Zm0,0" transform="translate(-57.217 -16.347)"/><path class="f" d="M183.1,350H314.533A116.613,116.613,0,0,1,164.5,416.052V359.494h.139A22.7,22.7,0,0,1,183.1,350Zm0,0" transform="translate(-89.64 -190.722)"/><path class="g" d="M196.486,350h131.7a116.634,116.634,0,0,1-138.63,69.751V359.494h.139Zm0,0" transform="translate(-103.295 -190.722)"/><path class="h" d="M314.944,278.086l-8.908-12.458A105.066,105.066,0,0,1,287.869,221.8a2.151,2.151,0,0,0-2.122-1.8H201.393a2.151,2.151,0,0,0-2.123,1.8A105.043,105.043,0,0,1,181.1,265.629L164.5,288.85H310.178A115.858,115.858,0,0,0,314.944,278.086Zm-40.715-36.572a8.606,8.606,0,0,1-8.606,8.607H221.516a8.606,8.606,0,0,1,0-17.213h44.107A8.6,8.6,0,0,1,274.229,241.515Zm0,0" transform="translate(-89.64 -119.882)"/><path class="i" d="M306.036,265.629l-42.024,16.477a1.356,1.356,0,0,1-.489.092,1.341,1.341,0,0,1-.757-2.448l36.483-24.969A105.155,105.155,0,0,0,306.036,265.629Zm-82.463,14.129-27.632-19.248A105.038,105.038,0,0,0,210.674,221.8,2.15,2.15,0,0,1,212.8,220h-11.4a2.15,2.15,0,0,0-2.123,1.8A105.043,105.043,0,0,1,181.1,265.629L164.5,288.85h11.4l14.026-19.616L222.252,282.1a1.317,1.317,0,0,0,.5.1h.059A1.341,1.341,0,0,0,223.573,279.757Zm0,0" transform="translate(-89.64 -119.882)"/></svg>