<svg id="pan" xmlns="http://www.w3.org/2000/svg" width="113.82" height="106.469" viewBox="0 0 113.82 106.469">
  <g id="Group_547" data-name="Group 547" transform="translate(16.827 0)">
    <g id="Group_546" data-name="Group 546" transform="translate(0 0)">
      <path id="Path_4339" data-name="Path 4339" d="M84.446,35.981a11.35,11.35,0,0,0,0-18.887,3.335,3.335,0,1,0-3.7,5.549,4.681,4.681,0,0,1,0,7.79,11.35,11.35,0,0,0,0,18.887,3.335,3.335,0,0,0,3.7-5.549,4.681,4.681,0,0,1,0-7.79Z" transform="translate(-75.693 -16.534)" fill="#fff"/>
    </g>
  </g>
  <g id="Group_549" data-name="Group 549" transform="translate(33.5 0)">
    <g id="Group_548" data-name="Group 548" transform="translate(0 0)">
      <path id="Path_4340" data-name="Path 4340" d="M159.446,35.981a11.35,11.35,0,0,0,0-18.887,3.335,3.335,0,1,0-3.7,5.549,4.681,4.681,0,0,1,0,7.79,11.35,11.35,0,0,0,0,18.887,3.335,3.335,0,1,0,3.7-5.549,4.681,4.681,0,0,1,0-7.79Z" transform="translate(-150.693 -16.534)" fill="#fff"/>
    </g>
  </g>
  <g id="Group_551" data-name="Group 551" transform="translate(50.173 0)">
    <g id="Group_550" data-name="Group 550" transform="translate(0 0)">
      <path id="Path_4341" data-name="Path 4341" d="M234.446,35.981a11.35,11.35,0,0,0,0-18.887,3.335,3.335,0,0,0-3.7,5.549,4.681,4.681,0,0,1,0,7.79,11.35,11.35,0,0,0,0,18.887,3.335,3.335,0,1,0,3.7-5.549,4.681,4.681,0,0,1,0-7.79Z" transform="translate(-225.693 -16.534)" fill="#fff"/>
    </g>
  </g>
  <g id="Group_553" data-name="Group 553" transform="translate(0 39.777)">
    <g id="Group_552" data-name="Group 552">
      <path id="Path_4342" data-name="Path 4342" d="M70.248,195.466H3.335A3.333,3.333,0,0,0,0,198.8v6.669a16.692,16.692,0,0,0,16.673,16.673H56.91A16.692,16.692,0,0,0,73.583,205.47V198.8A3.333,3.333,0,0,0,70.248,195.466Z" transform="translate(0 -195.466)" fill="#fff"/>
    </g>
  </g>
  <g id="Group_555" data-name="Group 555" transform="translate(6.891 88.139)">
    <g id="Group_554" data-name="Group 554" transform="translate(0 0)">
      <path id="Path_4343" data-name="Path 4343" d="M43.739,421.9l-4.622-8.055a1.667,1.667,0,0,0-2.892,0L31.6,421.9a6.671,6.671,0,1,0,12.14.007Z" transform="translate(-31 -413.012)" fill="#fff"/>
    </g>
  </g>
  <g id="Group_557" data-name="Group 557" transform="translate(30.233 88.139)">
    <g id="Group_556" data-name="Group 556" transform="translate(0 0)">
      <path id="Path_4344" data-name="Path 4344" d="M148.739,421.9l-4.622-8.055a1.667,1.667,0,0,0-2.892,0L136.6,421.9a6.671,6.671,0,1,0,12.14.007Z" transform="translate(-136 -413.012)" fill="#fff"/>
    </g>
  </g>
  <g id="Group_559" data-name="Group 559" transform="translate(53.575 88.139)">
    <g id="Group_558" data-name="Group 558" transform="translate(0 0)">
      <path id="Path_4345" data-name="Path 4345" d="M253.739,421.9l-4.622-8.055a1.667,1.667,0,0,0-2.892,0L241.6,421.9a6.671,6.671,0,1,0,12.14.007Z" transform="translate(-241 -413.012)" fill="#fff"/>
    </g>
  </g>
  <g id="Group_561" data-name="Group 561" transform="translate(80.252 39.777)">
    <g id="Group_560" data-name="Group 560">
      <path id="Path_4346" data-name="Path 4346" d="M387.9,195.466H361V208.8h26.9a6.669,6.669,0,0,0,0-13.338Z" transform="translate(-361 -195.466)" fill="#fff"/>
    </g>
  </g>
</svg>
