<?xml version="1.0" encoding="utf-8"?>
<!-- Generator: Adobe Illustrator 22.0.0, SVG Export Plug-In . SVG Version: 6.00 Build 0)  -->
<svg version="1.1" id="Layer_1" xmlns="http://www.w3.org/2000/svg" xmlns:xlink="http://www.w3.org/1999/xlink" x="0px" y="0px"
	 viewBox="0 0 50 50" style="enable-background:new 0 0 50 50;" xml:space="preserve">
<g id="password" transform="translate(0 0)">
	<path id="Path_20991" d="M25,37.4c0.8,0,1.4-0.6,1.4-1.4l0,0v-6c0-0.8-0.6-1.4-1.4-1.4c-0.8,0-1.4,0.6-1.4,1.4v6
		C23.6,36.7,24.2,37.4,25,37.4z"/>
	<path id="Path_20992" d="M41.6,16.2h-6.8v-7c0-4.9-4.4-8.8-9.7-8.8s-9.7,4-9.7,8.8v7H8.4c-0.8,0-1.4,0.6-1.4,1.4c0,0,0,0,0,0v18.5
		c0,7.5,6.1,13.5,13.5,13.5h8.9c7.5,0,13.5-6.1,13.5-13.5V17.6C43,16.8,42.4,16.2,41.6,16.2z M18.2,9.2c0-3.3,3.1-5.9,6.8-5.9
		s6.8,2.7,6.8,5.9v7H18.2V9.2z M40.1,36.1c0,5.9-4.8,10.6-10.7,10.7h-8.9c-5.9,0-10.6-4.8-10.7-10.7v-17h30.2L40.1,36.1z"/>
</g>
</svg>
