<svg xmlns="http://www.w3.org/2000/svg" width="42" height="28.875" viewBox="0 0 42 28.875">
  <g id="Payment" transform="translate(0 -80)">
    <path id="Path_20873" data-name="Path 20873" d="M42,86.809V84.594A4.594,4.594,0,0,0,37.406,80H4.594A4.594,4.594,0,0,0,0,84.594v2.215a.41.41,0,0,0,.41.41H41.59A.41.41,0,0,0,42,86.809Z" fill="#fff"/>
    <path id="Path_20874" data-name="Path 20874" d="M0,200.41v14.027a4.594,4.594,0,0,0,4.594,4.594H37.406A4.594,4.594,0,0,0,42,214.438V200.41a.41.41,0,0,0-.41-.41H.41A.41.41,0,0,0,0,200.41Zm10.5,10.746a1.313,1.313,0,0,1-1.312,1.313H7.875a1.313,1.313,0,0,1-1.312-1.312v-1.312a1.313,1.313,0,0,1,1.313-1.312H9.188a1.313,1.313,0,0,1,1.313,1.313Z" transform="translate(0 -110.156)" fill="#fff"/>
  </g>
</svg>
