<svg id="_002-place" data-name="002-place" xmlns="http://www.w3.org/2000/svg" width="123.233" height="152.32" viewBox="0 0 123.233 152.32">
  <g id="Group_1981" data-name="Group 1981" transform="translate(0)">
    <g id="Group_1980" data-name="Group 1980">
      <path id="Path_4024" data-name="Path 4024" d="M161.063,26.484a61.5,61.5,0,0,0-101.117,0,61.511,61.511,0,0,0-7.161,56.673A48.441,48.441,0,0,0,61.712,97.9l44.737,52.549a5.322,5.322,0,0,0,8.109,0l44.725-52.534A48.489,48.489,0,0,0,168.21,83.19,61.522,61.522,0,0,0,161.063,26.484ZM158.237,79.46a37.991,37.991,0,0,1-7.025,11.507.189.189,0,0,0-.025.029L110.5,138.78,69.8,90.966a38.013,38.013,0,0,1-7.037-11.541,50.88,50.88,0,0,1,5.947-46.884,50.849,50.849,0,0,1,83.593,0A50.889,50.889,0,0,1,158.237,79.46Z" transform="translate(-48.886 0)" fill="#030303"/>
    </g>
  </g>
  <g id="Group_1983" data-name="Group 1983" transform="translate(31.793 31.6)">
    <g id="Group_1982" data-name="Group 1982">
      <path id="Path_4025" data-name="Path 4025" d="M185.579,106.219A29.825,29.825,0,1,0,215.4,136.044,29.859,29.859,0,0,0,185.579,106.219Zm0,49a19.173,19.173,0,1,1,19.173-19.173A19.2,19.2,0,0,1,185.579,155.217Z" transform="translate(-155.754 -106.219)" fill="#030303"/>
    </g>
  </g>
</svg>
