<svg xmlns="http://www.w3.org/2000/svg" width="289.902" height="72.016" viewBox="0 0 289.902 72.016"><defs><style>.a,.b{fill:#212121;}.a{fill-rule:evenodd;}</style></defs><g transform="translate(89.624 0)"><path class="a" d="M148.309,53.643a16.664,16.664,0,0,1-.541,4.384,10.307,10.307,0,0,1-1.582,3.411,7.435,7.435,0,0,1-2.546,2.221,7.219,7.219,0,0,1-3.43.8,8.852,8.852,0,0,1-3.941-.816,7.539,7.539,0,0,1-2.742-2.251V72.238h-2.339V42.792h2.182l.118,3.008a7.786,7.786,0,0,1,2.732-2.5,8.068,8.068,0,0,1,3.931-.9,7.613,7.613,0,0,1,3.47.767,7.135,7.135,0,0,1,2.565,2.182,10.185,10.185,0,0,1,1.582,3.411,17.106,17.106,0,0,1,.541,4.472Zm-2.359-.413a14.926,14.926,0,0,0-.383-3.46,8.688,8.688,0,0,0-1.16-2.791,5.7,5.7,0,0,0-1.976-1.858,5.615,5.615,0,0,0-2.811-.678,7.014,7.014,0,0,0-2.261.334,6.02,6.02,0,0,0-1.72.894,5.9,5.9,0,0,0-1.258,1.3,7.937,7.937,0,0,0-.855,1.543v10.2a7.054,7.054,0,0,0,.934,1.494,5.857,5.857,0,0,0,1.317,1.189,6.362,6.362,0,0,0,1.72.786,7.613,7.613,0,0,0,2.162.285,5.505,5.505,0,0,0,2.791-.678,5.724,5.724,0,0,0,1.956-1.867,8.808,8.808,0,0,0,1.16-2.8,15.017,15.017,0,0,0,.383-3.479Zm10.2,10.831h-2.359V33.867h2.359Zm19.815,0a6.758,6.758,0,0,1-.3-1.347q-.108-.8-.147-1.622a8.4,8.4,0,0,1-2.89,2.359,9.871,9.871,0,0,1-1.985.727,9.464,9.464,0,0,1-2.339.275A8.352,8.352,0,0,1,165.479,64a6.308,6.308,0,0,1-2.162-1.268,5.729,5.729,0,0,1-1.386-1.917,6.155,6.155,0,0,1,.177-5.2,6.058,6.058,0,0,1,1.926-2.123,9.408,9.408,0,0,1,3.057-1.337,16.26,16.26,0,0,1,4.04-.462h4.364V49.279a4.659,4.659,0,0,0-1.406-3.587,5.81,5.81,0,0,0-4.1-1.307,7.432,7.432,0,0,0-2.28.334,5.756,5.756,0,0,0-1.8.924,4.388,4.388,0,0,0-1.179,1.366,3.422,3.422,0,0,0-.423,1.661l-2.359-.02a4.92,4.92,0,0,1,.59-2.32,6.453,6.453,0,0,1,1.661-2,8.5,8.5,0,0,1,2.575-1.405,9.956,9.956,0,0,1,3.332-.531,10.69,10.69,0,0,1,3.116.432,6.787,6.787,0,0,1,2.447,1.3,5.887,5.887,0,0,1,1.592,2.162,7.471,7.471,0,0,1,.57,3.027v10.3q0,.55.039,1.14T178,61.9q.088.55.206,1.052a5.534,5.534,0,0,0,.275.875v.236Zm-7.391-1.691a8.28,8.28,0,0,0,2.369-.324,7.646,7.646,0,0,0,1.976-.894,6.991,6.991,0,0,0,1.533-1.327,6.684,6.684,0,0,0,1.042-1.641V53.5h-4.03a14.632,14.632,0,0,0-3.234.324,7.86,7.86,0,0,0-2.408.934,4.407,4.407,0,0,0-1.5,1.484,3.787,3.787,0,0,0-.521,1.976,3.97,3.97,0,0,0,.334,1.622,3.861,3.861,0,0,0,.953,1.317,4.542,4.542,0,0,0,1.5.885A5.736,5.736,0,0,0,168.575,62.37Zm22.272-1.691,6.212-17.888h2.536l-9,24.67q-.275.727-.7,1.632a7.34,7.34,0,0,1-1.1,1.691,5.825,5.825,0,0,1-1.691,1.327,5.18,5.18,0,0,1-2.467.541,4,4,0,0,1-.452-.029q-.256-.029-.511-.069t-.482-.088q-.226-.049-.364-.088l-.02-1.946q.236.039.639.079t.58.039A5.214,5.214,0,0,0,185.7,70.3a3.627,3.627,0,0,0,1.268-.727,4.72,4.72,0,0,0,.953-1.209,10.467,10.467,0,0,0,.747-1.671l1.022-2.811-8.02-21.092h2.575ZM.684,1.334H6.089c4.674,0,7.437,2.916,7.437,7.874s-2.752,7.885-7.437,7.885H.684ZM2.649,3.1v12.22H5.958c3.571,0,5.559-2.184,5.559-6.094C11.517,5.288,9.54,3.1,5.958,3.1ZM22.807,17.2c-3.309,0-5.428-2.348-5.428-6s2.119-6,5.428-6,5.428,2.337,5.428,6S26.116,17.2,22.807,17.2Zm0-1.693c2.2,0,3.495-1.605,3.495-4.3S25,6.9,22.807,6.9s-3.495,1.605-3.495,4.3S20.623,15.51,22.807,15.51ZM47.365,5.321H45.487L43.1,14.942h-.044l-2.7-9.621H38.52l-2.7,9.621h-.044L33.387,5.321H31.508l3.3,11.773h1.922l2.687-9.152h.044l2.686,9.152h1.922Zm3.853,11.773h1.9V10.257c0-2.02,1.169-3.353,3.1-3.353,1.857,0,2.752,1.048,2.752,2.97v7.219h1.9V9.547c0-2.676-1.5-4.336-4.084-4.336a3.871,3.871,0,0,0-3.735,2.02h-.044V5.321H51.218Zm14.522,0h1.9V.646h-1.9Zm11.672.109c-3.309,0-5.428-2.348-5.428-6s2.119-6,5.428-6,5.428,2.337,5.428,6S80.722,17.2,77.413,17.2Zm0-1.693c2.2,0,3.495-1.605,3.495-4.3s-1.3-4.3-3.495-4.3-3.495,1.605-3.495,4.3S75.228,15.51,77.413,15.51Zm13.507.044a3.059,3.059,0,0,0,3.331-2.938v-.95l-3.08.2c-1.769.109-2.686.754-2.686,1.889C88.484,14.843,89.434,15.553,90.919,15.553Zm-.4,1.649c-2.392,0-3.975-1.376-3.975-3.462,0-2.02,1.551-3.211,4.412-3.385l3.3-.2V9.176c0-1.463-.961-2.272-2.7-2.272a2.439,2.439,0,0,0-2.61,1.813H87.119c.055-1.988,1.988-3.506,4.456-3.506,2.785,0,4.576,1.485,4.576,3.8v8.081h-1.8V15.051H94.3A4.2,4.2,0,0,1,90.515,17.2Zm14.861,0c-2.96,0-5.045-2.4-5.045-6s2.075-6,5-6a4.107,4.107,0,0,1,3.757,2.02h.044V.646h1.9V17.093H109.22V15.106h-.033A4.153,4.153,0,0,1,105.376,17.2Zm.339-10.3c-2.064,0-3.44,1.7-3.44,4.3s1.376,4.3,3.44,4.3c2.042,0,3.429-1.736,3.429-4.3S107.757,6.9,105.715,6.9Zm22.678,10.3c-3.309,0-5.428-2.348-5.428-6s2.119-6,5.428-6,5.428,2.337,5.428,6S131.7,17.2,128.393,17.2Zm0-1.693c2.2,0,3.495-1.605,3.495-4.3s-1.3-4.3-3.495-4.3-3.495,1.605-3.495,4.3S126.209,15.51,128.393,15.51Zm9.663,1.584h1.9V10.257c0-2.02,1.169-3.353,3.1-3.353,1.857,0,2.752,1.048,2.752,2.97v7.219h1.9V9.547c0-2.676-1.5-4.336-4.084-4.336a3.871,3.871,0,0,0-3.735,2.02h-.044V5.321h-1.791ZM160.679,2.667V5.321h-1.638V6.893h1.638v7.142c0,2.261.83,3.145,2.96,3.145a6.873,6.873,0,0,0,1.223-.1V15.477a7.871,7.871,0,0,1-.819.055c-1,0-1.463-.491-1.463-1.573V6.893h2.293V5.321h-2.293V2.667Zm8.647,14.426h1.9V10.322A3.1,3.1,0,0,1,174.437,6.9c1.867,0,2.818,1.136,2.818,3.014v7.175h1.9V9.58c0-2.621-1.573-4.368-4.15-4.368a3.882,3.882,0,0,0-3.735,2.02h-.044V.646h-1.9ZM188.609,6.882a3.3,3.3,0,0,0-3.309,3.331h6.476A3.119,3.119,0,0,0,188.609,6.882Zm3.123,6.847h1.878c-.328,2.02-2.37,3.473-4.882,3.473-3.309,0-5.395-2.3-5.395-5.952s2.1-6.039,5.307-6.039c3.145,0,5.111,2.217,5.111,5.777v.743H185.3v.109a3.369,3.369,0,0,0,3.473,3.691A2.883,2.883,0,0,0,191.733,13.73Z" transform="translate(0.684 -0.646)"/><g transform="translate(0 32.313)"><path class="b" d="M34.155,14.921A9.8,9.8,0,0,1,24.2,24.843a9.8,9.8,0,0,1-9.953-9.921A9.774,9.774,0,0,1,24.2,5,9.774,9.774,0,0,1,34.155,14.921Zm-4.357,0a5.61,5.61,0,1,0-11.192,0,5.735,5.735,0,0,0,5.6,6.012A5.738,5.738,0,0,0,29.8,14.921Zm25.828,0a9.953,9.953,0,0,1-19.905,0,9.953,9.953,0,0,1,19.905,0Zm-4.357,0a5.61,5.61,0,1,0-11.192,0,5.61,5.61,0,1,0,11.192,0ZM76.2,5.6V23.411c0,7.327-4.321,10.319-9.429,10.319a9.448,9.448,0,0,1-8.794-5.846l3.793-1.579a5.48,5.48,0,0,0,5,3.52c3.27,0,5.3-2.017,5.3-5.815V22.584h-.152a6.755,6.755,0,0,1-5.225,2.254,9.821,9.821,0,0,1-9.505-9.881A9.863,9.863,0,0,1,66.688,5a6.875,6.875,0,0,1,5.225,2.219h.152V5.6H76.2Zm-3.829,9.358c0-3.494-2.331-6.048-5.3-6.048a5.737,5.737,0,0,0-5.524,6.048,5.694,5.694,0,0,0,5.524,5.976C70.043,20.933,72.374,18.415,72.374,14.957Z" transform="translate(17.46 5.973)"/><path class="b" d="M47.349.6V29.675H43.1V.6Z" transform="translate(53.135 0.532)"/><path class="b" d="M117.116,24.253l3.382,2.254a9.875,9.875,0,0,1-8.266,4.4,9.707,9.707,0,0,1-9.845-9.921c0-5.9,4.245-9.921,9.358-9.921,5.149,0,7.667,4.1,8.49,6.312l.452,1.127-13.263,5.493A5.049,5.049,0,0,0,112.231,27,5.662,5.662,0,0,0,117.116,24.253Zm-10.409-3.57L115.573,17a3.841,3.841,0,0,0-3.681-2.1,5.442,5.442,0,0,0-5.184,5.784ZM15.7,18.407V14.2H29.881a13.947,13.947,0,0,1,.21,2.541,13.9,13.9,0,0,1-3.646,9.845A14.087,14.087,0,0,1,15.7,30.9,15.622,15.622,0,0,1,.072,15.5,15.622,15.622,0,0,1,15.7.094,14.679,14.679,0,0,1,26.258,4.339l-2.97,2.97A10.729,10.729,0,0,0,15.7,4.3,11.051,11.051,0,0,0,4.648,15.5,11.051,11.051,0,0,0,15.7,26.7a10.306,10.306,0,0,0,7.779-3.082A8.725,8.725,0,0,0,25.757,18.4Z" transform="translate(-0.072 -0.094)"/></g></g><path class="b" d="M0,63.507V5.6A5.111,5.111,0,0,1,2.872,1l33.5,33.542L2.858,68.1A5.11,5.11,0,0,1,0,63.507ZM47,45.183,10.369,66.358,39.257,37.432ZM58.383,30.492a5.114,5.114,0,0,1,.055,8.077l-7.78,4.5-8.514-8.525,8.508-8.519ZM10.391,2.748l36.6,21.159-7.735,7.745Z" transform="translate(0 -0.209)"/></svg>