<svg xmlns="http://www.w3.org/2000/svg" width="233" height="233" viewBox="0 0 233 233"><defs><style>.a{fill:#ffebba;opacity:0.997;}.b{fill:#fcc77c;}.c{fill:#0cc33c;}.d{fill:#495959;}.e{fill:#3f4a4a;}.f{fill:#fcb30b;}.g{fill:#fc9302;}.h{fill:#d73131;}.i{fill:#b4d2d7;}.j{fill:#e1ebf0;}.k{fill:#fbc56d;}.l{fill:#ebae56;}.m{fill:#016a74;}.n{fill:#00808a;}.o{fill:#fc9368;}.p{fill:#fff2b4;}.q{fill:#e84444;}</style></defs><path class="a" d="M233,116.5A116.5,116.5,0,1,1,116.5,0,116.5,116.5,0,0,1,233,116.5Zm0,0"/><path class="b" d="M.594,145.987H21.389a6.826,6.826,0,0,0,0-13.652H.023c-.009.606-.023,1.212-.023,1.82A118.282,118.282,0,0,0,.594,145.987ZM128.968,55.152h73.143A117.259,117.259,0,0,0,187.119,41.5h-58.15a6.826,6.826,0,0,0,0,13.652Zm38.682,47.783a6.826,6.826,0,0,1-6.826,6.826H125.262a6.952,6.952,0,0,0-7.011,6.5,6.825,6.825,0,0,0,6.817,7.155h76.713a6.826,6.826,0,0,0,6.826-6.826,6.828,6.828,0,0,1,6.826-6.826h15a115.817,115.817,0,0,0-3.8-13.652H174.476A6.828,6.828,0,0,0,167.65,102.935ZM58.431,87.008a3.413,3.413,0,1,1,0,6.826H43.154a6.826,6.826,0,1,0,0,13.652H88.011a6.826,6.826,0,1,0,0-13.652H72.084a3.413,3.413,0,0,1,0-6.826H75.01a6.826,6.826,0,0,0,0-13.652h-57.9A116.533,116.533,0,0,0,9.957,86.974c.228.021.459.034.692.034ZM99.388,39.225A6.827,6.827,0,0,0,92.562,32.4H59.747A116.873,116.873,0,0,0,40.273,46.051H92.562A6.826,6.826,0,0,0,99.388,39.225Zm12.028,47.783h44.857a6.826,6.826,0,1,0,0-13.652H111.416a6.826,6.826,0,1,0,0,13.652Zm46.237,62.619H202.51a6.826,6.826,0,0,0,0-13.652H157.652a6.826,6.826,0,1,0,0,13.652Zm0,0" transform="translate(0 -17.655)"/><path class="c" d="M27.23,352.575A116,116,0,0,1,10.879,319.1H204.324l2.043-8.917,7.6,7.761L221.358,310l2.339,9.1h10.282a116.078,116.078,0,0,1-17.025,34.417,4.8,4.8,0,0,1-3.893,1.989H32.86A6.9,6.9,0,0,1,27.23,352.575Zm0,0" transform="translate(-5.928 -168.926)"/><path class="d" d="M248.814,410A116.5,116.5,0,0,1,74.38,423.288,7.742,7.742,0,0,1,79.777,410Zm0,0" transform="translate(-39.249 -223.418)"/><path class="e" d="M404.914,274.668q-3.218,4.722-6.878,9.1H352.5v-9.1h21.616V170h9.1V274.668Zm0,0" transform="translate(-192.085 -92.637)"/><path class="f" d="M401.914,40.957A40.957,40.957,0,1,1,360.957,0,40.956,40.956,0,0,1,401.914,40.957Zm0,0" transform="translate(-174.375)"/><path class="g" d="M349.4,82.241a40.969,40.969,0,0,1,0-78.6c-12.143,7.9-20.3,22.541-20.3,39.3S337.259,74.344,349.4,82.241Zm0,0" transform="translate(-174.375 -1.982)"/><path class="h" d="M404.16,54.58A29.58,29.58,0,1,1,374.58,25,29.58,29.58,0,0,1,404.16,54.58Zm0,0" transform="translate(-187.998 -13.623)"/><path class="i" d="M379.005,41.18v2.544a10.573,10.573,0,0,1-5.77,9.422V84.108a29.493,29.493,0,0,1-9.617-4.874V53.145a10.577,10.577,0,0,1-5.77-9.422V41.18a10.593,10.593,0,0,1,.316-2.567l1.1-4.405a9.443,9.443,0,0,1,18.322,0l1.1,4.405A10.584,10.584,0,0,1,379.005,41.18Zm0,0" transform="translate(-194.999 -14.743)"/><path class="j" d="M410.362,29.506V43.772a10.577,10.577,0,0,1-5.77,9.423V79.234a29.473,29.473,0,0,1-9.617,4.873V53.195a10.574,10.574,0,0,1-5.77-9.423V29.506a.8.8,0,0,1,.8-.8,4.327,4.327,0,0,1,4.327,4.327v8.655a1.443,1.443,0,1,0,2.885,0V32.832a4.553,4.553,0,0,1,2.14-3.861.8.8,0,0,1,.85,0,4.553,4.553,0,0,1,2.14,3.861v8.856a1.443,1.443,0,1,0,2.885,0V33.033a4.327,4.327,0,0,1,4.327-4.327A.8.8,0,0,1,410.362,29.506Zm-27.689,4.7a9.442,9.442,0,0,0-9.162-7.151c-.272,0-.542.011-.811.034a12.087,12.087,0,0,0-5.521,10.5c0,6.485,4.467,11.741,9.978,11.741a9.145,9.145,0,0,0,6.59-2.928,10.664,10.664,0,0,0,.343-2.682V41.178a10.583,10.583,0,0,0-.316-2.565ZM376.089,58.06a2.249,2.249,0,0,0-2.249,2.249V82.395a29.3,29.3,0,0,0,4.48,1.714V60.039A2.247,2.247,0,0,0,376.089,58.06Zm0,0" transform="translate(-200.084 -14.743)"/><path class="i" d="M426.466,55.317V83.992a29.523,29.523,0,0,1-5.12,2.039V55.118a10.575,10.575,0,0,1-5.772-9.422V31.431a.8.8,0,0,1,.8-.8,4.327,4.327,0,0,1,4.32,4.064v7.477s0,.923.009,1.061a6.9,6.9,0,0,0,.062.8,10.56,10.56,0,0,0,3.616,6.8A5.92,5.92,0,0,1,426.466,55.317Zm0,0" transform="translate(-226.456 -16.69)"/><path class="k" d="M46,220H191.625v91.016H52.115q-3.224-3.861-6.115-8Zm0,0" transform="translate(-25.066 -119.883)"/><path class="l" d="M198.906,308.74v9.1a2.275,2.275,0,0,1-2.275,2.275H60.577A117.345,117.345,0,0,1,48.5,306.465h0l-.005-.005q-1.28-1.7-2.5-3.443V220H59.652v81.914a4.55,4.55,0,0,0,4.551,4.551H196.631A2.275,2.275,0,0,1,198.906,308.74Zm0,0" transform="translate(-25.066 -119.883)"/><path class="m" d="M193.781,302.275v31.855a2.275,2.275,0,0,1-2.275,2.275H172.392a2.275,2.275,0,0,1-2.275-2.275V302.275A2.275,2.275,0,0,1,172.392,300h19.113A2.275,2.275,0,0,1,193.781,302.275ZM91.389,300H72.275A2.275,2.275,0,0,0,70,302.275v31.855a2.275,2.275,0,0,0,2.275,2.275H91.389a2.275,2.275,0,0,0,2.275-2.275V302.275A2.275,2.275,0,0,0,91.389,300Zm68.262,0H104.131a2.275,2.275,0,0,0-2.275,2.275v47.783h60.07V302.275A2.275,2.275,0,0,0,159.65,300Zm0,0" transform="translate(-38.145 -163.477)"/><path class="n" d="M204.68,302.275v31.855a2.275,2.275,0,0,1-2.275,2.275H192.392a2.275,2.275,0,0,1-2.275-2.275V302.275A2.275,2.275,0,0,1,192.392,300H202.4A2.275,2.275,0,0,1,204.68,302.275ZM170.549,300H145.064v27.3h4.551a2.275,2.275,0,1,1,0,4.551h-4.551v18.2h27.76V302.275A2.275,2.275,0,0,0,170.549,300Zm-68.262,0H92.275A2.275,2.275,0,0,0,90,302.275v31.855a2.275,2.275,0,0,0,2.275,2.275h10.012a2.275,2.275,0,0,0,2.275-2.275V302.275A2.275,2.275,0,0,0,102.287,300Zm19.568,2.275v47.783h18.658v-18.2h-4.551a2.275,2.275,0,0,1,0-4.551h4.551V300H124.131A2.275,2.275,0,0,0,121.855,302.275Zm0,0" transform="translate(-49.043 -163.477)"/><path class="o" d="M47.349,229.41v4.462a8.925,8.925,0,1,1-17.849,0V229.41a8.925,8.925,0,1,1,17.849,0Zm26.773-8.926A8.925,8.925,0,0,0,65.2,229.41v4.462a8.925,8.925,0,1,0,17.849,0V229.41A8.926,8.926,0,0,0,74.122,220.484Zm35.7,0a8.924,8.924,0,0,0-8.924,8.926v4.462a8.924,8.924,0,1,0,17.848,0V229.41A8.924,8.924,0,0,0,109.821,220.484Zm35.7,0a8.924,8.924,0,0,0-8.924,8.926v4.462a8.924,8.924,0,1,0,17.848,0V229.41A8.925,8.925,0,0,0,145.52,220.484Zm35.7,0a8.926,8.926,0,0,0-8.926,8.926v4.462a8.925,8.925,0,1,0,17.849,0V229.41A8.925,8.925,0,0,0,181.219,220.484Zm0,0" transform="translate(-16.075 -120.147)"/><path class="p" d="M86.572,229.41v4.462a8.925,8.925,0,1,1-17.849,0V229.41a8.925,8.925,0,1,1,17.849,0Zm26.773-8.926a8.924,8.924,0,0,0-8.924,8.926v4.462a8.925,8.925,0,1,0,17.849,0V229.41A8.926,8.926,0,0,0,113.345,220.484Zm35.7,0a8.926,8.926,0,0,0-8.926,8.926v4.462a8.925,8.925,0,1,0,17.849,0V229.41A8.924,8.924,0,0,0,149.044,220.484Zm35.7,0a8.926,8.926,0,0,0-8.926,8.926v4.462a8.925,8.925,0,1,0,17.849,0V229.41A8.925,8.925,0,0,0,184.743,220.484Zm0,0" transform="translate(-37.449 -120.147)"/><path class="q" d="M197.912,157.783v9.1a2.275,2.275,0,0,1-2.275,2.275H42.275A2.275,2.275,0,0,1,40,166.885v-9.1a2.275,2.275,0,0,1,2.275-2.275H54.907l19.671-44.159A2.271,2.271,0,0,1,76.657,110h77.772a2.275,2.275,0,0,1,2.078,1.349l19.671,44.159h19.458A2.275,2.275,0,0,1,197.912,157.783Zm0,0" transform="translate(-21.797 -59.941)"/><path class="h" d="M127.392,155.508H46.734L66.4,111.349A2.271,2.271,0,0,1,68.483,110h13.2a2.271,2.271,0,0,0-2.078,1.349L66.837,140a4.551,4.551,0,0,0,4.158,6.4h56.241a4.653,4.653,0,0,1,4.7,4.249A4.55,4.55,0,0,1,127.392,155.508ZM36.377,166.885v-9.1a2.275,2.275,0,0,1,2.275-2.275H27.275A2.275,2.275,0,0,0,25,157.783v9.1a2.275,2.275,0,0,0,2.275,2.275H38.652A2.275,2.275,0,0,1,36.377,166.885Zm0,0" transform="translate(-13.623 -59.941)"/></svg>