<svg xmlns="http://www.w3.org/2000/svg" width="107.163" height="107.598" viewBox="0 0 107.163 107.598">
  <g id="shipping-and-delivery" transform="translate(0)">
    <path id="Path_4347" data-name="Path 4347" d="M159.61,17.485a8.731,8.731,0,0,0,8.3-6.02l-6.292-2.2L173.43,9.7h.079a2.1,2.1,0,0,0,.076-4.2l-5.952-.22a8.739,8.739,0,1,0-8.022,12.2Zm0,0" transform="translate(-119.157 0)" fill="#fff"/>
    <path id="Path_4348" data-name="Path 4348" d="M75.779,369.605a14.962,14.962,0,1,0,14.963,14.962A14.962,14.962,0,0,0,75.779,369.605Zm0,19.9a4.942,4.942,0,1,1,4.943-4.943A4.943,4.943,0,0,1,75.779,389.509Zm0,0" transform="translate(-48.036 -291.932)" fill="#fff"/>
    <path id="Path_4349" data-name="Path 4349" d="M318.416,369.605a14.962,14.962,0,1,0,14.962,14.962A14.962,14.962,0,0,0,318.416,369.605Zm0,19.9a4.942,4.942,0,1,1,4.942-4.943A4.943,4.943,0,0,1,318.416,389.509Zm0,0" transform="translate(-239.682 -291.932)" fill="#fff"/>
    <path id="Path_4350" data-name="Path 4350" d="M90.334,145.408c1.048-13.776-11.6-19.41-11.6-19.41l-3.04-6.076-.991-3.95h3.939a3.572,3.572,0,0,0,3.588-3.564,3.5,3.5,0,0,0-3.5-3.431H70.223a3.479,3.479,0,0,0-1.136.192,4.221,4.221,0,0,0-4.408-6.619l-14.811,3.578V105.5a5.8,5.8,0,0,0-5.8-5.8H33.459a5.8,5.8,0,0,0-5.8,5.8v29.589H22.6a2.609,2.609,0,0,0,2.609-2.609V107.817a2.609,2.609,0,0,0-2.609-2.61H3.5a2.609,2.609,0,0,0-2.61,2.61v24.666a2.609,2.609,0,0,0,2.61,2.609h6.75a1.963,1.963,0,0,0-1.963,1.963v8.667a1.963,1.963,0,0,0,1.963,1.962h2.446a28.085,28.085,0,0,0-12.633,19A4.084,4.084,0,0,0,8.122,168a19.913,19.913,0,0,1,39.535,3.422H58.824a19.779,19.779,0,0,1,2.286-9.279H57.59a5.047,5.047,0,0,0,1.771-2.083l9.818-21.335a5.081,5.081,0,0,0-3.839-7.144l-15.472-2.388v-7.222c-.873-.191-2.354.057-3.511-1.209l-8.185-8.977,9.785,6.609a4.228,4.228,0,0,0,1.862.694c16.853,2,15.938,1.933,16.417,1.933a4.222,4.222,0,0,0,.5-8.414l-14.9-1.781L42.9,104.786l8.263,3.078L66.93,109.75a7.211,7.211,0,0,1,6.323,7.944,7.074,7.074,0,0,1-3.953,5.48l6.036,24.076a3.515,3.515,0,0,0,3.39,2.677,21.459,21.459,0,0,1,21.445,21.4v.066a3.5,3.5,0,0,0,6.994.08c0-.036,0-.075,0-.108a28.469,28.469,0,0,0-16.831-25.955Zm-38.746,2.276a1.962,1.962,0,0,0,1.962-1.962v-5.683l3.586.553L50.52,154.966a28.245,28.245,0,0,0-7.722-7.283Zm0,0" transform="translate(-0.002 -78.753)" fill="#fff"/>
  </g>
</svg>
