<?xml version="1.0" encoding="utf-8"?>
<!-- Generator: Adobe Illustrator 22.0.0, SVG Export Plug-In . SVG Version: 6.00 Build 0)  -->
<svg version="1.1" id="Layer_1" xmlns="http://www.w3.org/2000/svg" xmlns:xlink="http://www.w3.org/1999/xlink" x="0px" y="0px"
	 viewBox="0 0 50 50" style="enable-background:new 0 0 50 50;" xml:space="preserve">
<g id="heart_4_" transform="translate(0 -16.896)">
	<g id="Group_2518" transform="translate(0 16.896)">
		<path id="Path_4609" d="M45.5,6.5c-5-5.4-13.5-5.7-18.9-0.7c-0.2,0.2-0.5,0.5-0.7,0.7L25,7.4l-0.9-0.9c-5-5.4-13.5-5.7-18.9-0.7
			c0,0,0,0,0,0C5,6,4.7,6.3,4.5,6.5c-5.3,5.8-5.3,14.7,0,20.4l19.2,20.3c0.7,0.7,1.8,0.7,2.5,0.1c0,0,0,0,0,0c0,0,0,0,0.1-0.1
			l19.2-20.3C50.8,21.2,50.8,12.3,45.5,6.5z M43,24.5L43,24.5L25,43.5L7,24.5C3,20.1,3,13.3,7,8.9c3.7-4,10-4.3,14-0.6c0,0,0,0,0,0
			c0.2,0.2,0.4,0.4,0.6,0.6l2.1,2.3c0.7,0.7,1.8,0.7,2.5,0l2.1-2.3c3.7-4,10-4.3,14-0.6c0,0,0,0,0,0c0.2,0.2,0.4,0.4,0.6,0.6
			C47.1,13.3,47.1,20.1,43,24.5z"/>
	</g>
</g>
</svg>
