<svg xmlns="http://www.w3.org/2000/svg" width="666.17" height="633.101" viewBox="0 0 666.17 633.101">
  <g id="Group_69067" data-name="Group 69067" transform="translate(-156.658 -375)">
    <g id="otp_mobile" data-name="otp mobile" transform="translate(145.085 366.601)">
      <g id="Padlock" transform="translate(11.573 28.199)">
        <path id="Path_20117" data-name="Path 20117" d="M594.512,100.716S519.14,18.214,399.97,22.143,178.945,106.1,94.842,168.668-11.814,328.434,37.076,404.243s126.736,43.943,225.972,93.124c99.09,49.181,118.006,77.119,228.446,65.187S686.036,428.106,673.523,297.732,594.512,100.716,594.512,100.716Z" transform="translate(-11.573 -22.007)" fill="#ffdee0"/>
        <g id="Group_68391" data-name="Group 68391" transform="translate(39.01 18.88)">
          <path id="Path_20118" data-name="Path 20118" d="M71,38.937a52.534,52.534,0,0,0-28.665,68.534L74.93,187.063l14.7-5.966L57.033,101.359a36.708,36.708,0,0,1,67.952-27.792l14.7-5.966A52.7,52.7,0,0,0,71,38.937Z" transform="translate(-38.382 -34.982)" fill="#ff725e"/>
        </g>
        <g id="Group_68392" data-name="Group 68392" transform="translate(39.01 18.88)">
          <path id="Path_20119" data-name="Path 20119" d="M71,38.937a52.534,52.534,0,0,0-28.665,68.534L74.93,187.063l14.7-5.966L57.033,101.359a36.708,36.708,0,0,1,67.952-27.792l14.7-5.966A52.7,52.7,0,0,0,71,38.937Z" transform="translate(-38.382 -34.982)" fill="#ff5a5f"/>
        </g>
        <g id="Group_68395" data-name="Group 68395" transform="translate(46.851 91.182)">
          <g id="Group_68394" data-name="Group 68394">
            <g id="Group_68393" data-name="Group 68393">
              <path id="Path_20120" data-name="Path 20120" d="M198.778,169.543,83.391,216.688a8.465,8.465,0,0,1-11.059-4.656L44.4,143.643a8.465,8.465,0,0,1,4.656-11.059L164.438,85.3A8.465,8.465,0,0,1,175.5,89.951l27.937,68.388A8.887,8.887,0,0,1,198.778,169.543Z" transform="translate(-43.771 -84.671)" fill="#f46974"/>
            </g>
          </g>
        </g>
        <g id="Group_68397" data-name="Group 68397" transform="translate(110.595 134.846)" opacity="0.5">
          <g id="Group_68396" data-name="Group 68396">
            <path id="Path_20121" data-name="Path 20121" d="M110.308,121.985a11.809,11.809,0,1,0-9.6,16.3l6.693,16.442,5.966-2.474-6.693-16.442A11.909,11.909,0,0,0,110.308,121.985Z" transform="translate(-87.58 -114.68)"/>
          </g>
        </g>
        <g id="Group_68401" data-name="Group 68401" transform="translate(56.776 152.917)">
          <g id="Group_68400" data-name="Group 68400">
            <g id="Group_68399" data-name="Group 68399">
              <g id="Group_68398" data-name="Group 68398">
                <path id="Path_20122" data-name="Path 20122" d="M76.213,189.814c-.291.146-6.257-13.823-13.387-31.138S50.313,127.246,50.6,127.1s6.257,13.823,13.387,31.138C70.974,175.554,76.5,189.668,76.213,189.814Z" transform="translate(-50.592 -127.099)" fill="#fafafa"/>
              </g>
            </g>
          </g>
        </g>
        <g id="Group_68405" data-name="Group 68405" transform="translate(105.935 133.42)">
          <g id="Group_68404" data-name="Group 68404">
            <g id="Group_68403" data-name="Group 68403">
              <g id="Group_68402" data-name="Group 68402">
                <path id="Path_20123" data-name="Path 20123" d="M98.088,144.4a12.6,12.6,0,0,1-1.6-.146,12.546,12.546,0,0,1-3.929-1.746,17.459,17.459,0,0,1-8-11.641,17.223,17.223,0,0,1,3.929-13.532,11.592,11.592,0,0,1,3.347-2.91,5.256,5.256,0,0,1,1.455-.728c.145.146-1.892,1.31-4.074,4.074A16.288,16.288,0,0,0,93,141.783,21.324,21.324,0,0,0,98.088,144.4Z" transform="translate(-84.377 -113.7)" fill="#fafafa"/>
              </g>
            </g>
          </g>
        </g>
        <g id="Group_68406" data-name="Group 68406" transform="translate(22.011 176.49)">
          <path id="Path_20124" data-name="Path 20124" d="M31.356,145.337l.728-2.037,1.31,1.746a8.838,8.838,0,0,0,4.22,2.91l2.037.728-1.746,1.31a8.838,8.838,0,0,0-2.91,4.22l-.728,2.037-1.31-1.746a8.838,8.838,0,0,0-4.22-2.91l-2.037-.728,1.746-1.31A10.5,10.5,0,0,0,31.356,145.337Z" transform="translate(-26.7 -143.3)" fill="#f46974"/>
        </g>
        <g id="Group_68407" data-name="Group 68407" transform="translate(93.019 96.17)">
          <path id="Path_20125" data-name="Path 20125" d="M78.265,89.264,78.7,88.1l.728,1.019A5.134,5.134,0,0,0,81.9,90.865l1.164.437-1.019.728A5.134,5.134,0,0,0,80.3,94.5l-.437,1.164-.728-1.019A5.134,5.134,0,0,0,76.664,92.9L75.5,92.465l1.019-.728A4.338,4.338,0,0,0,78.265,89.264Z" transform="translate(-75.5 -88.1)" fill="#f46974"/>
        </g>
        <g id="Group_68408" data-name="Group 68408" transform="translate(4.842 104.028)">
          <path id="Path_20126" data-name="Path 20126" d="M22.757,96.992,23.921,93.5l2.328,2.91a14.747,14.747,0,0,0,6.984,4.947l3.492,1.164-2.91,2.328a14.747,14.747,0,0,0-4.947,6.984L27.7,115.326l-2.328-2.91a14.747,14.747,0,0,0-6.984-4.947L14.9,106.3l2.91-2.328A14.081,14.081,0,0,0,22.757,96.992Z" transform="translate(-14.9 -93.5)" fill="#f46974"/>
        </g>
      </g>
      <g id="Background_Complete" transform="translate(473.596 272.204)">
        <g id="Group_68410" data-name="Group 68410" transform="translate(6.384 187.657)">
          <g id="Group_68409" data-name="Group 68409">
            <path id="Path_20127" data-name="Path 20127" d="M372.356,327.59a59.1,59.1,0,0,0-25.464-8.73c-4.22-.436-8.73-.291-12.077,2.183-.728.582-1.455,1.31-1.31,2.183a2.905,2.905,0,0,0,1.164,1.455c10.622,8,26.191,8.876,37.686,2.91" transform="translate(-333.487 -318.668)" fill="#f2818a"/>
          </g>
        </g>
        <g id="Group_68412" data-name="Group 68412" transform="translate(17.597 155.983)">
          <g id="Group_68411" data-name="Group 68411">
            <path id="Path_20128" data-name="Path 20128" d="M368.267,336.769c-5.82-4.511-11.495-9.021-16.442-14.405-4.8-5.384-8.876-11.932-10.331-19.061-.436-2.183-.582-4.656.873-6.4,13.1,10.331,23.427,23.427,25.9,39.869" transform="translate(-341.194 -296.9)" fill="#f2818a"/>
          </g>
        </g>
        <g id="Group_68414" data-name="Group 68414" transform="translate(44.416 157.147)">
          <g id="Group_68413" data-name="Group 68413">
            <path id="Path_20129" data-name="Path 20129" d="M360.462,336.987c-1.019-7.13-1.31-14.551.291-21.535s5.529-13.823,11.495-17.752c2.328,5.238,1.31,11.349-.291,16.879a82.578,82.578,0,0,1-11.349,24.009" transform="translate(-359.625 -297.7)" fill="#f2818a"/>
          </g>
        </g>
        <g id="Group_68416" data-name="Group 68416" transform="translate(26.046 219.424)">
          <g id="Group_68415" data-name="Group 68415">
            <path id="Path_20130" data-name="Path 20130" d="M379.011,340.5c-7.712.873-14.551,5.093-20.371,10.331A38.735,38.735,0,0,0,347,370.765c7.566-.437,14.114-5.82,18.77-11.932,4.656-5.966,7.857-12.514,13.241-18.334" transform="translate(-347 -340.5)" fill="#f2818a"/>
          </g>
        </g>
        <g id="Group_68418" data-name="Group 68418" transform="translate(57.343 175.627)">
          <g id="Group_68417" data-name="Group 68417">
            <path id="Path_20131" data-name="Path 20131" d="M371.988,357.835a50.211,50.211,0,0,1,5.82-47.435c4.365,15.715,2.765,33.612-5.82,47.435" transform="translate(-368.509 -310.4)" fill="#f2818a"/>
          </g>
        </g>
        <g id="Group_68420" data-name="Group 68420" transform="translate(42.353 243.221)">
          <g id="Group_68419" data-name="Group 68419">
            <path id="Path_20132" data-name="Path 20132" d="M393.555,356.921A36.454,36.454,0,0,0,358.779,377c-.437.873-.873,1.892-.291,2.765.437.728,1.455.728,2.328.728,6.839-.436,12.95-4.511,17.9-9.312,4.947-4.656,9.312-10.04,14.842-14.114" transform="translate(-358.207 -356.855)" fill="#f2818a"/>
          </g>
        </g>
        <g id="Group_68422" data-name="Group 68422" transform="translate(74.198 194.046)">
          <g id="Group_68421" data-name="Group 68421">
            <path id="Path_20133" data-name="Path 20133" d="M383.013,371.136a63.461,63.461,0,0,1-.582-36.086c1.31-4.656,3.347-9.6,7.712-11.786a1.642,1.642,0,0,1,1.164-.146c.437.146.582.582.728.873a19.481,19.481,0,0,1,1.746,10.331,65.178,65.178,0,0,1-1.6,10.477c-1.31,6.4-2.037,13.241-5.529,18.77a27.79,27.79,0,0,0-2.183,4.074c-.728,1.455-.728,1.892-1.31,3.056" transform="translate(-380.093 -323.059)" fill="#f2818a"/>
          </g>
        </g>
        <g id="Group_68424" data-name="Group 68424" transform="translate(120.67 209.077)">
          <g id="Group_68423" data-name="Group 68423">
            <path id="Path_20134" data-name="Path 20134" d="M413.3,373.128c-3.347-12.659.146-27.937,8.148-38.268.582-.728,1.31-1.6,2.328-1.455,1.455.146,1.892,2.037,1.746,3.492A67.58,67.58,0,0,1,413.3,373.128" transform="translate(-412.031 -333.389)" fill="#f2818a"/>
          </g>
        </g>
        <g id="Group_68426" data-name="Group 68426" transform="translate(126.009 238.321)">
          <g id="Group_68425" data-name="Group 68425">
            <path id="Path_20135" data-name="Path 20135" d="M415.7,366.747c15.278,3.929,32.885.146,45.689-9.312a37.267,37.267,0,0,0-24.736-3.056c-8.294,1.892-15.715,5.675-20.953,12.368" transform="translate(-415.7 -353.487)" fill="#f2818a"/>
          </g>
        </g>
        <g id="Group_68428" data-name="Group 68428" transform="translate(129.501 219.133)">
          <g id="Group_68427" data-name="Group 68427">
            <path id="Path_20136" data-name="Path 20136" d="M418.1,364.309c8.585-13.969,25.027-23.136,41.469-24.009-1.892,6.693-7.421,11.932-13.532,14.987s-13.1,4.511-19.934,5.82c-2.765.582-6.4,1.164-8,3.2" transform="translate(-418.1 -340.3)" fill="#f2818a"/>
          </g>
        </g>
        <g id="Group_68430" data-name="Group 68430" transform="translate(116.809 154.092)">
          <g id="Group_68429" data-name="Group 68429">
            <path id="Path_20137" data-name="Path 20137" d="M415.376,343.908c2.328-8,4.656-16.006,5.238-24.3s-.582-16.879-4.8-24.009c-8,15.569-8.876,33.758-.728,49.181" transform="translate(-409.377 -295.6)" fill="#f2818a"/>
          </g>
        </g>
        <g id="Group_68432" data-name="Group 68432" transform="translate(149.872 156.129)">
          <g id="Group_68431" data-name="Group 68431">
            <path id="Path_20138" data-name="Path 20138" d="M432.1,329.594c9.458-17.024,28.519-30.7,47.872-32.594-7.421,18.625-27.792,33.03-47.872,32.594" transform="translate(-432.1 -297)" fill="#f2818a"/>
          </g>
        </g>
        <g id="Group_68434" data-name="Group 68434" transform="translate(143.906 189.2)">
          <g id="Group_68433" data-name="Group 68433">
            <path id="Path_20139" data-name="Path 20139" d="M428,322.6c13.969,2.183,25.9,11.059,39,16.442a18.661,18.661,0,0,0,8.876,1.746c3.056-.437,5.966-2.474,6.693-5.384a7.591,7.591,0,0,0-2.328-6.839,20.514,20.514,0,0,0-6.4-3.929c-14.26-5.966-29.538-6.111-44.525-2.474" transform="translate(-428 -319.728)" fill="#f2818a"/>
          </g>
        </g>
        <g id="Group_68436" data-name="Group 68436" transform="translate(135.758 201.276)">
          <g id="Group_68435" data-name="Group 68435">
            <path id="Path_20140" data-name="Path 20140" d="M422.545,328.715c3.2.873,4.22,2.619,6.693,4.656A72.4,72.4,0,0,0,458.777,348.5c1.164.291,2.619.437,3.2-.582.437-.873-.146-2.037-.728-2.765-4.511-5.675-11.058-9.6-17.9-12.077s-12.8-5.675-20.953-4.947" transform="translate(-422.4 -328.028)" fill="#f2818a"/>
          </g>
        </g>
        <g id="Group_68438" data-name="Group 68438" transform="translate(126.736 141.052)">
          <g id="Group_68437" data-name="Group 68437">
            <path id="Path_20141" data-name="Path 20141" d="M416.2,288.183a55.381,55.381,0,0,0,42.924,14.551,2.234,2.234,0,0,0,1.892-.728c1.019-1.164-.146-3.056-1.455-3.929-12.514-9.749-27.937-13.969-43.361-9.894" transform="translate(-416.2 -286.638)" fill="#f2818a"/>
          </g>
        </g>
        <g id="Group_68440" data-name="Group 68440" transform="translate(137.504 126.982)">
          <g id="Group_68439" data-name="Group 68439">
            <path id="Path_20142" data-name="Path 20142" d="M423.6,288.655a59.655,59.655,0,0,1,53.546-8.876c-6.693,6.693-16.151,10.185-25.464,11.2s-18.77-.146-28.083-2.328" transform="translate(-423.6 -276.969)" fill="#f2818a"/>
          </g>
        </g>
        <g id="Group_68442" data-name="Group 68442" transform="translate(126.03 73.408)">
          <g id="Group_68441" data-name="Group 68441">
            <path id="Path_20143" data-name="Path 20143" d="M422.969,278.055c-1.31-12.659-.437-22.554-1.31-35.213a2.837,2.837,0,0,0-1.164-2.619c-1.31-.437-2.474,1.164-2.91,2.474a40.108,40.108,0,0,0,5.384,35.067" transform="translate(-415.715 -240.15)" fill="#f2818a"/>
          </g>
        </g>
        <g id="Group_68444" data-name="Group 68444" transform="translate(132.411 73.185)">
          <g id="Group_68443" data-name="Group 68443">
            <path id="Path_20144" data-name="Path 20144" d="M420.1,279.579c8.585-5.238,14.987-12.223,20.807-20.225,4.074-5.675,7.566-12.368,6.693-19.352-5.82-.146-11.349,3.056-14.987,7.421-3.783,4.365-5.966,9.894-7.712,15.424s-2.91,11.2-4.8,16.733" transform="translate(-420.1 -239.997)" fill="#f2818a"/>
          </g>
        </g>
        <g id="Group_68446" data-name="Group 68446" transform="translate(152.491 75.548)">
          <g id="Group_68445" data-name="Group 68445">
            <path id="Path_20145" data-name="Path 20145" d="M434.191,273.166A167.919,167.919,0,0,0,485.555,242.9c-6.111-2.474-13.1-1.019-19.352,1.455-13.969,5.675-25.464,15.133-32.3,28.665" transform="translate(-433.9 -241.62)" fill="#f2818a"/>
          </g>
        </g>
        <g id="Group_68448" data-name="Group 68448" transform="translate(138.086 104.777)">
          <g id="Group_68447" data-name="Group 68447">
            <path id="Path_20146" data-name="Path 20146" d="M424,276.538c9.458,1.019,19.061,1.746,28.519.146,9.312-1.6,18.043-5.238,26.628-8.876a3.292,3.292,0,0,0,1.746-1.31,2.34,2.34,0,0,0-.582-2.328,4.261,4.261,0,0,0-2.328-1.019c-9.458-2.619-19.5-1.455-28.81,1.746A135.994,135.994,0,0,0,424,276.538" transform="translate(-424 -261.708)" fill="#f2818a"/>
          </g>
        </g>
        <g id="Group_68450" data-name="Group 68450" transform="translate(79.21 101.273)">
          <g id="Group_68449" data-name="Group 68449">
            <path id="Path_20147" data-name="Path 20147" d="M388.285,301.06c-6.4-13.1-6.111-28.228-.436-41.76,3.929,5.966,4.365,13.678,3.638,20.807s-2.91,14.405-3.056,21.68" transform="translate(-383.537 -259.3)" fill="#f2818a"/>
          </g>
        </g>
        <g id="Group_68452" data-name="Group 68452" transform="translate(14.987 129.929)">
          <g id="Group_68451" data-name="Group 68451">
            <path id="Path_20148" data-name="Path 20148" d="M382.616,279A57.868,57.868,0,0,0,339.4,297.482c8,1.31,16.3-.873,23.718-4.365,7.275-3.638,13.823-8.585,20.371-13.532" transform="translate(-339.4 -278.994)" fill="#f2818a"/>
          </g>
        </g>
        <g id="Group_68454" data-name="Group 68454" transform="translate(0 123.387)">
          <g id="Group_68453" data-name="Group 68453">
            <path id="Path_20149" data-name="Path 20149" d="M369.842,275.228c-7.857-.582-15.569-1.6-23.136.728s-14.551,7.566-17.606,14.987c7.421.873,14.842-1.019,21.68-4.074s12.95-7.421,19.061-11.641" transform="translate(-329.1 -274.498)" fill="#f2818a"/>
          </g>
        </g>
        <g id="Group_68456" data-name="Group 68456" transform="translate(20.225 112.284)">
          <g id="Group_68455" data-name="Group 68455">
            <path id="Path_20150" data-name="Path 20150" d="M389.271,278.992c-7.13-4.656-14.405-9.458-22.7-11.35s-17.9-.436-23.572,5.675c6.693,3.929,14.842,4.365,22.554,4.365s17.315-.146,24.591,2.474" transform="translate(-343 -266.868)" fill="#f2818a"/>
          </g>
        </g>
        <g id="Group_68458" data-name="Group 68458" transform="translate(52.702 75.227)">
          <g id="Group_68457" data-name="Group 68457">
            <path id="Path_20151" data-name="Path 20151" d="M379.114,291.018c-12.077-11.932-16.733-33.321-11.932-49.618a74.6,74.6,0,0,1,11.932,49.618" transform="translate(-365.32 -241.4)" fill="#f2818a"/>
          </g>
        </g>
        <g id="Group_68460" data-name="Group 68460" transform="translate(99.963 51.655)">
          <g id="Group_68459" data-name="Group 68459">
            <path id="Path_20152" data-name="Path 20152" d="M397.8,264.487c2.328-5.384,3.929-10.913,5.966-16.3s4.656-10.767,8.439-15.133c3.929-4.365,9.312-7.566,14.987-7.857a60.438,60.438,0,0,1-29.247,39.287" transform="translate(-397.8 -225.2)" fill="#f2818a"/>
          </g>
        </g>
        <g id="Group_68462" data-name="Group 68462" transform="translate(62.422 76.682)">
          <g id="Group_68461" data-name="Group 68461">
            <path id="Path_20153" data-name="Path 20153" d="M403.429,263.79c-3.783-5.238-8.148-12.368-13.387-16.151-5.093-3.929-11.786-6.257-18.043-4.8a42.311,42.311,0,0,0,31.429,20.953" transform="translate(-372 -242.4)" fill="#f2818a"/>
          </g>
        </g>
        <g id="Group_68464" data-name="Group 68464" transform="translate(88.745 52.237)">
          <g id="Group_68463" data-name="Group 68463">
            <path id="Path_20154" data-name="Path 20154" d="M396.507,264.741c-2.474-6.257-4.947-12.659-5.966-19.352S390.1,231.566,393.6,225.6c6.693,12.659,8.876,26.191,3.347,39.287" transform="translate(-390.09 -225.6)" fill="#f2818a"/>
          </g>
        </g>
        <g id="Group_68466" data-name="Group 68466" transform="translate(99.963 25.517)">
          <g id="Group_68465" data-name="Group 68465">
            <path id="Path_20155" data-name="Path 20155" d="M397.8,233.957c3.783-12.514,15.278-21.68,27.646-25.9a9.267,9.267,0,0,1,4.8-.728c1.6.291,3.2,1.31,3.492,2.91.437,2.183-1.31,4.074-2.91,5.384a89.123,89.123,0,0,1-33.03,18.334" transform="translate(-397.8 -207.236)" fill="#f2818a"/>
          </g>
        </g>
        <g id="Group_68468" data-name="Group 68468" transform="translate(99.818)">
          <g id="Group_68467" data-name="Group 68467">
            <path id="Path_20156" data-name="Path 20156" d="M397.991,231.751c.437-8,1.019-16.3,3.638-23.863s7.712-14.842,14.987-18.188c1.31,8.148-2.328,16.3-6.693,23.281s-9.6,13.678-12.223,21.389" transform="translate(-397.7 -189.7)" fill="#f2818a"/>
          </g>
        </g>
        <g id="Group_68470" data-name="Group 68470" transform="translate(76.528 3.783)">
          <g id="Group_68469" data-name="Group 68469">
            <path id="Path_20157" data-name="Path 20157" d="M405.129,236.1c-3.056-9.167-3.492-20.662-8.876-28.665-3.783-5.529-9.894-9.312-13.241-15.133-2.183,5.529-1.455,11.786.728,17.315,2.328,5.384,6.111,10.185,10.04,14.405,4.074,4.365,7.566,7.566,11.35,12.077" transform="translate(-381.694 -192.3)" fill="#f2818a"/>
          </g>
        </g>
        <g id="Group_68473" data-name="Group 68473" transform="translate(99.527 44.38)">
          <g id="Group_68472" data-name="Group 68472">
            <g id="Group_68471" data-name="Group 68471">
              <path id="Path_20158" data-name="Path 20158" d="M397.936,491.716c-.291,0-.436-60.822-.436-135.758s.146-135.758.436-135.758.437,60.676.437,135.758C398.373,430.894,398.227,491.716,397.936,491.716Z" transform="translate(-397.5 -220.2)" fill="#263238"/>
            </g>
          </g>
        </g>
        <g id="Group_68476" data-name="Group 68476" transform="translate(99.963 133.829)">
          <g id="Group_68475" data-name="Group 68475">
            <g id="Group_68474" data-name="Group 68474">
              <path id="Path_20159" data-name="Path 20159" d="M450.91,281.712s-.728.291-2.328.873-3.783,1.31-6.257,2.183c-5.238,1.746-12.514,4.365-20.516,7.712-7.857,3.347-15.278,6.111-19.352,9.749a15.425,15.425,0,0,0-3.929,5.093,12.589,12.589,0,0,0-.728,2.328v-.582a5.031,5.031,0,0,1,.437-1.746,15.587,15.587,0,0,1,3.783-5.529,38.2,38.2,0,0,1,8.439-5.238c3.347-1.6,7.13-3.2,11.059-4.8,7.857-3.2,15.278-5.82,20.662-7.421,2.619-.873,4.8-1.455,6.4-1.892C450.037,281.857,450.91,281.566,450.91,281.712Z" transform="translate(-397.8 -281.675)" fill="#263238"/>
            </g>
          </g>
        </g>
        <g id="Group_68479" data-name="Group 68479" transform="translate(104.328 91.087)">
          <g id="Group_68478" data-name="Group 68478">
            <g id="Group_68477" data-name="Group 68477">
              <path id="Path_20160" data-name="Path 20160" d="M467.006,252.3a3.232,3.232,0,0,1-.582.728,23.03,23.03,0,0,0-1.892,1.892c-1.746,1.6-4.22,3.929-7.275,6.548C451,267,442.415,274.708,433.1,283c-9.458,8.439-17.606,16.442-23.281,22.554-2.765,3.056-5.093,5.529-6.548,7.275-.728.873-1.31,1.455-1.746,2.037-.437.437-.582.728-.728.728a3.231,3.231,0,0,1,.582-.728,21.6,21.6,0,0,0,1.6-2.183c1.455-1.892,3.638-4.365,6.4-7.421a318.215,318.215,0,0,1,23.136-22.7c9.458-8.439,18.188-16.006,24.445-21.39,3.056-2.619,5.675-4.8,7.421-6.4.873-.728,1.455-1.31,2.037-1.746A1.609,1.609,0,0,1,467.006,252.3Z" transform="translate(-400.8 -252.3)" fill="#263238"/>
            </g>
          </g>
        </g>
        <g id="Group_68482" data-name="Group 68482" transform="translate(126.126 109.276)">
          <g id="Group_68481" data-name="Group 68481">
            <g id="Group_68480" data-name="Group 68480">
              <path id="Path_20161" data-name="Path 20161" d="M415.809,285.9c-.291-.146,1.746-4.656,3.638-10.477,2.037-5.82,2.91-10.622,3.2-10.622s-.291,5.093-2.328,10.913a68.119,68.119,0,0,1-2.91,7.275A10.733,10.733,0,0,1,415.809,285.9Z" transform="translate(-415.781 -264.8)" fill="#263238"/>
            </g>
          </g>
        </g>
        <g id="Group_68485" data-name="Group 68485" transform="translate(64.896 122.953)">
          <g id="Group_68484" data-name="Group 68484">
            <g id="Group_68483" data-name="Group 68483">
              <path id="Path_20162" data-name="Path 20162" d="M408.913,318.434a17.823,17.823,0,0,1-1.455-1.746c-1.019-1.31-2.183-2.91-3.783-4.8-3.2-4.074-7.421-9.6-12.368-15.715-4.8-6.111-9.312-11.641-12.514-15.569-1.455-1.892-2.765-3.492-3.783-4.656L373.7,274.2l1.6,1.6c1.019,1.019,2.328,2.619,4.074,4.511,3.347,3.929,7.857,9.312,12.8,15.424,4.8,6.111,9.167,11.786,12.077,16.006,1.455,2.037,2.765,3.783,3.492,4.947A10.173,10.173,0,0,1,408.913,318.434Z" transform="translate(-373.7 -274.2)" fill="#263238"/>
            </g>
          </g>
        </g>
        <g id="Group_68488" data-name="Group 68488" transform="translate(82.292 133.721)">
          <g id="Group_68487" data-name="Group 68487">
            <g id="Group_68486" data-name="Group 68486">
              <path id="Path_20163" data-name="Path 20163" d="M391.831,300.079c-.146.146-3.2-3.492-4.947-9.167a27.36,27.36,0,0,1-1.164-9.167h.437c-.146.728-.291,1.019-.437,1.019a2.465,2.465,0,0,1,0-1.164h.437a45.134,45.134,0,0,0,1.6,9.021C389.358,296.151,391.977,299.934,391.831,300.079Z" transform="translate(-385.656 -281.6)" fill="#263238"/>
            </g>
          </g>
        </g>
        <g id="Group_68491" data-name="Group 68491" transform="translate(47.144 129.539)">
          <g id="Group_68490" data-name="Group 68490">
            <g id="Group_68489" data-name="Group 68489">
              <path id="Path_20164" data-name="Path 20164" d="M387.691,282.471c-.146.146-1.164-1.164-3.347-2.037-2.328-.873-5.675-1.019-9.458-.728a57.329,57.329,0,0,0-9.458,1.6c-2.474.582-3.929,1.019-3.929.873s1.31-.728,3.783-1.6a37.892,37.892,0,0,1,9.6-1.746c3.783-.291,7.421,0,9.749,1.019C386.964,281.016,387.837,282.471,387.691,282.471Z" transform="translate(-361.5 -278.726)" fill="#263238"/>
            </g>
          </g>
        </g>
        <g id="Group_68494" data-name="Group 68494" transform="translate(33.03 123.094)">
          <g id="Group_68493" data-name="Group 68493">
            <g id="Group_68492" data-name="Group 68492">
              <path id="Path_20165" data-name="Path 20165" d="M388.613,279.831c0,.146-2.037-.728-5.238-1.892a47.086,47.086,0,0,0-12.95-2.619,46.05,46.05,0,0,0-13.241.728c-3.347.582-5.384,1.164-5.384,1.019a5.68,5.68,0,0,1,1.455-.582c.873-.291,2.183-.728,3.929-1.164a47.1,47.1,0,0,1,13.532-.873,51.743,51.743,0,0,1,13.1,2.91,18.771,18.771,0,0,1,3.783,1.746C388.177,279.54,388.613,279.831,388.613,279.831Z" transform="translate(-351.8 -274.297)" fill="#263238"/>
            </g>
          </g>
        </g>
        <g id="Group_68497" data-name="Group 68497" transform="translate(93.229 82.648)">
          <g id="Group_68496" data-name="Group 68496">
            <g id="Group_68495" data-name="Group 68495">
              <path id="Path_20166" data-name="Path 20166" d="M399.906,273.128c-.291,0-1.892-5.82-3.783-13.241s-3.2-13.387-2.91-13.387,1.892,5.82,3.783,13.241C398.742,267.162,400.2,273.128,399.906,273.128Z" transform="translate(-393.172 -246.5)" fill="#263238"/>
            </g>
          </g>
        </g>
        <g id="Group_68500" data-name="Group 68500" transform="translate(89.773 94.988)">
          <g id="Group_68499" data-name="Group 68499">
            <g id="Group_68498" data-name="Group 68498">
              <path id="Path_20167" data-name="Path 20167" d="M401.278,269.268c-.291.146-1.31-3.929-4.22-7.857-2.765-4.074-6.4-6.257-6.257-6.4,0-.146,1.019.291,2.328,1.164a23.087,23.087,0,0,1,4.511,4.656C400.7,265.049,401.423,269.268,401.278,269.268Z" transform="translate(-390.797 -254.981)" fill="#263238"/>
            </g>
          </g>
        </g>
        <g id="Group_68503" data-name="Group 68503" transform="translate(44.234 194.833)">
          <g id="Group_68502" data-name="Group 68502">
            <g id="Group_68501" data-name="Group 68501">
              <path id="Path_20168" data-name="Path 20168" d="M415.229,412.214c-.146,0-.291-1.455-1.019-4.074a53.441,53.441,0,0,0-4.074-10.477c-4.22-8.585-11.786-19.5-21.535-30.411-4.8-5.529-9.458-10.622-13.387-15.569a115.221,115.221,0,0,1-9.6-13.823,65.964,65.964,0,0,1-4.8-10.331,29.8,29.8,0,0,0-1.019-2.91,4.548,4.548,0,0,0-.291-1.019,26.119,26.119,0,0,1,1.455,3.929,72.343,72.343,0,0,0,5.093,10.04,117.562,117.562,0,0,0,9.749,13.678c3.929,4.947,8.585,10.04,13.532,15.569,9.749,10.913,17.315,21.972,21.39,30.7a53.764,53.764,0,0,1,3.783,10.767c.291,1.31.437,2.328.582,3.056C415.229,411.777,415.375,412.214,415.229,412.214Z" transform="translate(-359.5 -323.6)" fill="#263238"/>
            </g>
          </g>
        </g>
        <g id="Group_68506" data-name="Group 68506" transform="translate(99.963 229.258)">
          <g id="Group_68505" data-name="Group 68505">
            <g id="Group_68504" data-name="Group 68504">
              <path id="Path_20169" data-name="Path 20169" d="M445.817,347.319s-.873.582-2.474,1.455a50.2,50.2,0,0,0-6.548,4.365A79.757,79.757,0,0,0,428.211,361c-3.056,3.2-6.111,6.839-9.312,10.768-6.257,7.857-12.223,14.987-15.715,20.516-1.746,2.765-3.056,5.093-3.929,6.693s-1.31,2.619-1.455,2.474a1.469,1.469,0,0,1,.291-.728,16.639,16.639,0,0,1,.873-2.037,60.442,60.442,0,0,1,3.783-6.984c3.492-5.675,9.312-12.8,15.569-20.807,3.2-3.929,6.257-7.712,9.312-10.767a65.065,65.065,0,0,1,8.73-7.712,38.944,38.944,0,0,1,6.693-4.074,17.2,17.2,0,0,1,1.892-.873C445.526,347.319,445.817,347.173,445.817,347.319Z" transform="translate(-397.8 -347.259)" fill="#263238"/>
            </g>
          </g>
        </g>
        <g id="Group_68509" data-name="Group 68509" transform="translate(115.678 246.779)">
          <g id="Group_68508" data-name="Group 68508">
            <g id="Group_68507" data-name="Group 68507">
              <path id="Path_20170" data-name="Path 20170" d="M441.921,359.3c0,.146-2.037.437-5.384.728a79.349,79.349,0,0,0-12.659,2.474,38.959,38.959,0,0,0-11.349,5.966A41.143,41.143,0,0,0,408.6,372.1a4.364,4.364,0,0,1,.728-1.164,16.255,16.255,0,0,1,2.765-2.765,34.228,34.228,0,0,1,11.35-6.257,55.919,55.919,0,0,1,12.8-2.328C439.738,359.3,441.776,359.3,441.921,359.3Z" transform="translate(-408.6 -359.3)" fill="#263238"/>
            </g>
          </g>
        </g>
        <g id="Group_68512" data-name="Group 68512" transform="translate(117.255 239.65)">
          <g id="Group_68511" data-name="Group 68511">
            <g id="Group_68510" data-name="Group 68510">
              <path id="Path_20171" data-name="Path 20171" d="M409.707,372.443c-.291-.146,2.183-3.783,3.929-8.73s2.183-9.312,2.474-9.312c.146,0,.146,1.164-.146,2.91a23.119,23.119,0,0,1-1.6,6.693,29.6,29.6,0,0,1-3.056,6.111A6.539,6.539,0,0,1,409.707,372.443Z" transform="translate(-409.684 -354.4)" fill="#263238"/>
            </g>
          </g>
        </g>
        <g id="Group_68515" data-name="Group 68515" transform="translate(99.818 181.883)">
          <g id="Group_68514" data-name="Group 68514">
            <g id="Group_68513" data-name="Group 68513">
              <path id="Path_20172" data-name="Path 20172" d="M461.432,314.845l-.873.437c-.728.291-1.455.728-2.474,1.164a23.638,23.638,0,0,0-3.929,1.892c-1.455.728-3.2,1.6-5.093,2.619-.873.582-1.892,1.019-2.91,1.6s-2.037,1.31-3.056,1.892c-2.183,1.31-4.22,2.91-6.548,4.511a113.09,113.09,0,0,0-13.678,12.077,124.286,124.286,0,0,0-11.641,14.114c-1.6,2.328-3.056,4.511-4.365,6.693-.582,1.019-1.31,2.037-1.892,3.056s-1.019,2.037-1.6,2.91c-1.019,1.892-1.746,3.638-2.474,5.238-.728,1.455-1.31,2.91-1.746,3.929s-.728,1.892-1.019,2.474l-.437.873a2.252,2.252,0,0,1,.291-.873,27.492,27.492,0,0,0,.873-2.619c.436-1.164.873-2.474,1.6-4.074s1.455-3.347,2.328-5.238c.437-1.019,1.019-1.892,1.455-3.056.582-1.019,1.164-2.037,1.746-3.2,1.164-2.183,2.765-4.365,4.22-6.839a111.4,111.4,0,0,1,11.641-14.26,113.925,113.925,0,0,1,13.823-12.077c2.328-1.6,4.511-3.2,6.693-4.511,1.019-.582,2.037-1.31,3.056-1.892s2.037-1.164,2.91-1.6c1.892-1.019,3.638-1.892,5.093-2.619s2.91-1.31,3.929-1.746,1.892-.728,2.619-1.019C461.141,314.991,461.432,314.845,461.432,314.845Z" transform="translate(-397.7 -314.7)" fill="#263238"/>
            </g>
          </g>
        </g>
        <g id="Group_68518" data-name="Group 68518" transform="translate(125.546 201.222)">
          <g id="Group_68517" data-name="Group 68517">
            <g id="Group_68516" data-name="Group 68516">
              <path id="Path_20173" data-name="Path 20173" d="M415.408,334.261c-.146,0,.291-1.455,2.037-3.056a13.613,13.613,0,0,1,8.439-3.2,21.329,21.329,0,0,1,8.876,1.746c2.183.873,3.347,1.455,3.347,1.6a13.161,13.161,0,0,1-3.492-1.019,23.97,23.97,0,0,0-8.585-1.455,14.446,14.446,0,0,0-8,2.765C416.136,333.1,415.554,334.407,415.408,334.261Z" transform="translate(-415.382 -327.99)" fill="#263238"/>
            </g>
          </g>
        </g>
        <g id="Group_68521" data-name="Group 68521" transform="translate(119.871 197.453)">
          <g id="Group_68520" data-name="Group 68520">
            <g id="Group_68519" data-name="Group 68519">
              <path id="Path_20174" data-name="Path 20174" d="M411.508,341.26c-.291-.146,1.892-3.2,2.328-7.712.582-4.511-.873-8-.582-8.148.146,0,.582.728,1.019,2.328a15.1,15.1,0,0,1,.437,5.966,16.345,16.345,0,0,1-1.746,5.675C412.236,340.678,411.508,341.406,411.508,341.26Z" transform="translate(-411.482 -325.4)" fill="#263238"/>
            </g>
          </g>
        </g>
        <g id="Group_68523" data-name="Group 68523" transform="translate(58.057 292.177)">
          <g id="Group_68522" data-name="Group 68522">
            <path id="Path_20175" data-name="Path 20175" d="M369,390.5c1.31,23.281,8.294,46.853,19.061,70.716h46.853c10.331-23.572,16.733-47.144,17.9-70.716Z" transform="translate(-369 -390.5)" fill="#455a64"/>
          </g>
        </g>
        <g id="Group_68526" data-name="Group 68526" transform="translate(65.332 329.282)">
          <g id="Group_68525" data-name="Group 68525">
            <g id="Group_68524" data-name="Group 68524">
              <path id="Path_20176" data-name="Path 20176" d="M442.97,416.437c0,.291-15.424.437-34.485.437S374,416.727,374,416.437,389.424,416,408.485,416,442.97,416.146,442.97,416.437Z" transform="translate(-374 -416)" fill="#fafafa"/>
            </g>
          </g>
        </g>
        <g id="Group_68529" data-name="Group 68529" transform="translate(68.679 337.721)">
          <g id="Group_68528" data-name="Group 68528">
            <g id="Group_68527" data-name="Group 68527">
              <path id="Path_20177" data-name="Path 20177" d="M440.905,422.237c0,.291-14.405.437-32.3.437-17.752,0-32.3-.146-32.3-.437s14.405-.436,32.3-.436C426.354,421.8,440.905,421.945,440.905,422.237Z" transform="translate(-376.3 -421.8)" fill="#fafafa"/>
            </g>
          </g>
        </g>
        <g id="Group_68532" data-name="Group 68532" transform="translate(77.41 307.456)">
          <g id="Group_68531" data-name="Group 68531">
            <g id="Group_68530" data-name="Group 68530">
              <path id="Path_20178" data-name="Path 20178" d="M382.737,401c.291,0,.437,4.8.437,10.767s-.146,10.768-.437,10.768-.436-4.8-.436-10.768S382.445,401,382.737,401Z" transform="translate(-382.3 -401)" fill="#fafafa"/>
            </g>
          </g>
        </g>
        <g id="Group_68535" data-name="Group 68535" transform="translate(102.437 307.456)">
          <g id="Group_68534" data-name="Group 68534">
            <g id="Group_68533" data-name="Group 68533">
              <path id="Path_20179" data-name="Path 20179" d="M399.937,401c.291,0,.437,4.947.437,11.2,0,6.111-.146,11.2-.437,11.2s-.437-4.947-.437-11.2A89.03,89.03,0,0,1,399.937,401Z" transform="translate(-399.5 -401)" fill="#fafafa"/>
            </g>
          </g>
        </g>
        <g id="Group_68538" data-name="Group 68538" transform="translate(126.009 307.165)">
          <g id="Group_68537" data-name="Group 68537">
            <g id="Group_68536" data-name="Group 68536">
              <path id="Path_20180" data-name="Path 20180" d="M416.136,400.8c.291,0,.437,5.093.437,11.349s-.146,11.349-.437,11.349-.436-5.093-.436-11.349A92.587,92.587,0,0,1,416.136,400.8Z" transform="translate(-415.7 -400.8)" fill="#fafafa"/>
            </g>
          </g>
        </g>
        <g id="Group_68541" data-name="Group 68541" transform="translate(59.803 307.019)">
          <g id="Group_68540" data-name="Group 68540">
            <g id="Group_68539" data-name="Group 68539">
              <path id="Path_20181" data-name="Path 20181" d="M450.811,401.137c0,.291-18.043.437-40.305.437s-40.305-.146-40.305-.437,18.043-.437,40.305-.437C432.622,400.7,450.811,400.846,450.811,401.137Z" transform="translate(-370.2 -400.7)" fill="#fafafa"/>
            </g>
          </g>
        </g>
      </g>
      <g id="Device" transform="translate(164.103 8.399)">
        <g id="Group_68561" data-name="Group 68561">
          <g id="Group_68547" data-name="Group 68547">
            <g id="Group_68546" data-name="Group 68546">
              <g id="Group_68543" data-name="Group 68543">
                <g id="Group_68542" data-name="Group 68542">
                  <path id="Path_20182" data-name="Path 20182" d="M377.876,640.627l-214.768-.146A46.7,46.7,0,0,1,116.4,593.628l.146-538.52A46.606,46.606,0,0,1,163.4,8.4l214.768.146A46.7,46.7,0,0,1,424.874,55.4l-.146,538.52A46.979,46.979,0,0,1,377.876,640.627Z" transform="translate(-116.4 -8.399)" fill="#263238"/>
                </g>
              </g>
              <g id="Group_68545" data-name="Group 68545" transform="translate(14.114 19.208)">
                <g id="Group_68544" data-name="Group 68544" transform="translate(0 0)">
                  <path id="Path_20183" data-name="Path 20183" d="M373.316,21.6H331.7a10.409,10.409,0,0,0-10.185,10.622v7.566A10.408,10.408,0,0,1,311.33,50.41H230.137c-5.529,0-10.04-4.8-10.04-10.622V32.222c0-5.82-4.511-10.622-10.04-10.622H158.985a32.788,32.788,0,0,0-32.739,32.739l-.146,525.57a32.788,32.788,0,0,0,32.739,32.739l214.331.146a32.788,32.788,0,0,0,32.739-32.739l.146-525.57A32.727,32.727,0,0,0,373.316,21.6Z" transform="translate(-126.1 -21.6)" fill="#fff"/>
                </g>
              </g>
            </g>
          </g>
          <g id="Group_68551" data-name="Group 68551" transform="translate(125.863 565.731)">
            <g id="Group_68548" data-name="Group 68548" transform="translate(0 0.429)">
              <path id="Path_20184" data-name="Path 20184" d="M211.194,401.577a4.148,4.148,0,1,1-4.22-4.074A4.013,4.013,0,0,1,211.194,401.577Z" transform="translate(-202.9 -397.495)" fill="#263238"/>
            </g>
            <g id="Group_68549" data-name="Group 68549" transform="translate(23.136 0.146)">
              <path id="Path_20185" data-name="Path 20185" d="M227.094,401.374a4.148,4.148,0,1,1-4.22-4.074A4.192,4.192,0,0,1,227.094,401.374Z" transform="translate(-218.8 -397.3)" fill="#263238"/>
            </g>
            <g id="Group_68550" data-name="Group 68550" transform="translate(46.126)">
              <path id="Path_20186" data-name="Path 20186" d="M242.894,401.274a4.148,4.148,0,1,1-4.22-4.074A4.1,4.1,0,0,1,242.894,401.274Z" transform="translate(-234.6 -397.2)" fill="#263238"/>
            </g>
          </g>
          <g id="Group_68558" data-name="Group 68558" transform="translate(238.486 72.172)">
            <g id="Group_68553" data-name="Group 68553">
              <g id="Group_68552" data-name="Group 68552">
                <path id="Path_20187" data-name="Path 20187" d="M304.454,58.146c0,.146-5.384.291-12.077.291s-12.077,0-12.077-.146S285.684,58,292.377,58,304.454,58,304.454,58.146Z" transform="translate(-280.3 -58)" fill="#263238"/>
              </g>
            </g>
            <g id="Group_68555" data-name="Group 68555" transform="translate(0 6.111)">
              <g id="Group_68554" data-name="Group 68554">
                <path id="Path_20188" data-name="Path 20188" d="M304.454,62.346c0,.146-5.384.291-12.077.291s-12.077,0-12.077-.146,5.384-.291,12.077-.291S304.454,62.2,304.454,62.346Z" transform="translate(-280.3 -62.2)" fill="#263238"/>
              </g>
            </g>
            <g id="Group_68557" data-name="Group 68557" transform="translate(0 12.368)">
              <g id="Group_68556" data-name="Group 68556">
                <path id="Path_20189" data-name="Path 20189" d="M304.454,66.646c0,.146-5.384.291-12.077.291s-12.077,0-12.077-.145,5.384-.291,12.077-.291S304.454,66.5,304.454,66.646Z" transform="translate(-280.3 -66.5)" fill="#263238"/>
              </g>
            </g>
          </g>
          <g id="Group_68560" data-name="Group 68560" transform="translate(42.342 71.39)">
            <g id="Group_68559" data-name="Group 68559">
              <path id="Path_20190" data-name="Path 20190" d="M145.646,77.743h1.892c1.31,0,3.056,0,5.238-.146l-.146.146V71.777a2.2,2.2,0,0,1,1.746-1.6h2.474a2.179,2.179,0,0,1,1.746,2.037v5.529l-.146-.146H165l-.291.291V67.7a2.068,2.068,0,0,0-.291-.873c-.146-.291-.437-.437-.728-.728-1.019-1.019-1.892-1.892-2.91-2.765l-2.765-2.765-1.31-1.31a4.012,4.012,0,0,0-1.31-1.019,1.59,1.59,0,0,0-1.455.291,8.78,8.78,0,0,0-1.164,1.164l-2.328,2.328c-1.455,1.6-3.056,2.91-4.074,4.22a4.671,4.671,0,0,0-.291,2.474v8.294a7.558,7.558,0,0,0-.437.728V74.687A36.886,36.886,0,0,0,145.5,70.9V67.266a4.249,4.249,0,0,1,.291-1.31c1.164-1.455,2.619-2.765,4.074-4.365.728-.728,1.455-1.6,2.328-2.328a11.113,11.113,0,0,1,1.31-1.31,2.207,2.207,0,0,1,1.892-.437,3.286,3.286,0,0,1,1.6,1.164l1.31,1.31c.873.873,1.892,1.746,2.765,2.765.873.873,1.892,1.892,2.91,2.765l.728.728A2.7,2.7,0,0,1,165,67.266V77.743h-6.984V72.068a1.7,1.7,0,0,0-1.31-1.6h-2.328a1.547,1.547,0,0,0-1.455,1.31v5.966h-6.693C145.791,77.888,145.646,77.743,145.646,77.743Z" transform="translate(-145.5 -57.463)" fill="#263238"/>
            </g>
          </g>
        </g>
        <g id="Group_68563" data-name="Group 68563" transform="translate(35.213 249.254)">
          <g id="Group_68562" data-name="Group 68562">
            <path id="Path_20191" data-name="Path 20191" d="M381.268,180.137c0,.146-53.837.437-120.334.437s-120.334-.146-120.334-.437c0-.146,53.837-.437,120.334-.437S381.268,179.846,381.268,180.137Z" transform="translate(-140.6 -179.7)" fill="#e0e0e0"/>
          </g>
        </g>
        <g id="Group_68565" data-name="Group 68565" transform="translate(29.538 470.715)">
          <g id="Group_68564" data-name="Group 68564">
            <path id="Path_20192" data-name="Path 20192" d="M377.368,332.337c0,.146-53.837.437-120.334.437s-120.334-.146-120.334-.437,53.837-.436,120.334-.436C323.531,332.046,377.368,332.191,377.368,332.337Z" transform="translate(-136.7 -331.9)" fill="#e0e0e0"/>
          </g>
        </g>
        <g id="Group_68567" data-name="Group 68567" transform="translate(82.211 487.448)">
          <g id="Group_68566" data-name="Group 68566">
            <path id="Path_20193" data-name="Path 20193" d="M306.475,343.837c0,.146-29.974.436-66.788.436-36.959,0-66.788-.146-66.788-.436,0-.146,29.974-.436,66.788-.436C276.646,343.4,306.475,343.546,306.475,343.837Z" transform="translate(-172.9 -343.4)" fill="#e0e0e0"/>
          </g>
        </g>
        <g id="Group_68568" data-name="Group 68568" transform="translate(32.594 286.067)">
          <path id="Path_20194" data-name="Path 20194" d="M171.248,264.8H149.131A10.371,10.371,0,0,1,138.8,254.472V215.331A10.371,10.371,0,0,1,149.131,205h22.117a10.371,10.371,0,0,1,10.331,10.331v39.141A10.466,10.466,0,0,1,171.248,264.8Zm-22.117-59.076a9.594,9.594,0,0,0-9.6,9.6v39.141a9.594,9.594,0,0,0,9.6,9.6h22.117a9.594,9.594,0,0,0,9.6-9.6V215.331a9.594,9.594,0,0,0-9.6-9.6Z" transform="translate(-138.8 -205)" fill="#263238"/>
        </g>
        <g id="Group_68569" data-name="Group 68569" transform="translate(83.812 286.067)">
          <path id="Path_20195" data-name="Path 20195" d="M206.448,264.8H184.331A10.371,10.371,0,0,1,174,254.472V215.331A10.371,10.371,0,0,1,184.331,205h22.117a10.371,10.371,0,0,1,10.331,10.331v39.141A10.466,10.466,0,0,1,206.448,264.8Zm-22.117-59.076a9.594,9.594,0,0,0-9.6,9.6v39.141a9.594,9.594,0,0,0,9.6,9.6h22.117a9.594,9.594,0,0,0,9.6-9.6V215.331a9.594,9.594,0,0,0-9.6-9.6Z" transform="translate(-174 -205)" fill="#263238"/>
        </g>
        <g id="Group_68570" data-name="Group 68570" transform="translate(133.575 286.067)">
          <path id="Path_20196" data-name="Path 20196" d="M240.648,264.8H218.531A10.371,10.371,0,0,1,208.2,254.472V215.331A10.371,10.371,0,0,1,218.531,205h22.117a10.371,10.371,0,0,1,10.331,10.331v39.141A10.371,10.371,0,0,1,240.648,264.8Zm-22.117-59.076a9.594,9.594,0,0,0-9.6,9.6v39.141a9.594,9.594,0,0,0,9.6,9.6h22.117a9.594,9.594,0,0,0,9.6-9.6V215.331a9.594,9.594,0,0,0-9.6-9.6Z" transform="translate(-208.2 -205)" fill="#263238"/>
        </g>
        <g id="Group_68571" data-name="Group 68571" transform="translate(183.92 286.067)">
          <path id="Path_20197" data-name="Path 20197" d="M275.248,264.8H253.131A10.371,10.371,0,0,1,242.8,254.472V215.331A10.371,10.371,0,0,1,253.131,205h22.117a10.371,10.371,0,0,1,10.331,10.331v39.141A10.371,10.371,0,0,1,275.248,264.8Zm-22.117-59.076a9.594,9.594,0,0,0-9.6,9.6v39.141a9.594,9.594,0,0,0,9.6,9.6h22.117a9.594,9.594,0,0,0,9.6-9.6V215.331a9.594,9.594,0,0,0-9.6-9.6Z" transform="translate(-242.8 -205)" fill="#263238"/>
        </g>
        <g id="Group_68572" data-name="Group 68572" transform="translate(232.811 286.067)">
          <path id="Path_20198" data-name="Path 20198" d="M308.848,264.8H286.731A10.371,10.371,0,0,1,276.4,254.472V215.331A10.371,10.371,0,0,1,286.731,205h22.117a10.371,10.371,0,0,1,10.331,10.331v39.141A10.371,10.371,0,0,1,308.848,264.8Zm-22.117-59.076a9.594,9.594,0,0,0-9.6,9.6v39.141a9.594,9.594,0,0,0,9.6,9.6h22.117a9.594,9.594,0,0,0,9.6-9.6V215.331a9.594,9.594,0,0,0-9.6-9.6Z" transform="translate(-276.4 -205)" fill="#263238"/>
        </g>
        <g id="Group_68573" data-name="Group 68573" transform="translate(33.03 393.014)">
          <path id="Path_20199" data-name="Path 20199" d="M369.728,321.861H155.542A16.519,16.519,0,0,1,139.1,305.419V294.942A16.519,16.519,0,0,1,155.542,278.5H369.728a16.519,16.519,0,0,1,16.442,16.442v10.477A16.519,16.519,0,0,1,369.728,321.861Z" transform="translate(-139.1 -278.5)" fill="#ff5a5f"/>
        </g>
        <g id="Group_68574" data-name="Group 68574" transform="translate(125.281 406.11)">
          <path id="Path_20200" data-name="Path 20200" d="M202.5,287.5h6.693c4.8,0,8,2.91,8,7.275s-3.347,7.275-8,7.275H202.5Zm6.548,11.786c2.91,0,4.8-1.746,4.8-4.511s-1.892-4.511-4.8-4.511h-3.056v9.021Z" transform="translate(-202.5 -287.5)" fill="#fff"/>
          <path id="Path_20201" data-name="Path 20201" d="M213.7,295.42c0-3.347,2.619-5.82,6.257-5.82a5.736,5.736,0,0,1,6.111,5.82,5.818,5.818,0,0,1-6.111,5.82C216.319,301.241,213.7,298.912,213.7,295.42Zm9.021,0a2.791,2.791,0,0,0-2.91-3.056,3.059,3.059,0,0,0,0,6.111C221.557,298.621,222.721,297.457,222.721,295.42Z" transform="translate(-197.403 -286.544)" fill="#fff"/>
          <path id="Path_20202" data-name="Path 20202" d="M235.2,294.647v6.4h-3.2v-5.966c0-1.892-.873-2.619-2.328-2.619-1.6,0-2.765,1.019-2.765,3.056v5.529h-3.2v-11.2h3.056v1.31a4.733,4.733,0,0,1,3.783-1.455C233.158,289.7,235.2,291.155,235.2,294.647Z" transform="translate(-192.853 -286.499)" fill="#fff"/>
          <path id="Path_20203" data-name="Path 20203" d="M244.886,296.348h-8.439a2.943,2.943,0,0,0,3.2,2.328,3.622,3.622,0,0,0,2.765-1.019l1.746,1.892a6,6,0,0,1-4.656,1.892c-3.929,0-6.4-2.474-6.4-5.82a5.78,5.78,0,0,1,5.966-5.82,5.5,5.5,0,0,1,5.82,5.82C245.032,295.62,245.032,296.057,244.886,296.348Zm-8.439-1.892h5.529a2.687,2.687,0,0,0-2.765-2.328A2.592,2.592,0,0,0,236.447,294.456Z" transform="translate(-188.575 -286.453)" fill="#fff"/>
        </g>
        <g id="Group_68575" data-name="Group 68575" transform="translate(110.44 99.091)">
          <circle id="Ellipse_105" data-name="Ellipse 105" cx="43.652" cy="43.652" r="43.652" fill="#ff5a5f"/>
        </g>
        <g id="Group_68582" data-name="Group 68582" transform="translate(139.686 122.226)">
          <g id="Group_68576" data-name="Group 68576" transform="translate(5.966)">
            <path id="Path_20204" data-name="Path 20204" d="M217.228,105.059H216.5v-4.074a8.6,8.6,0,0,1,8.585-8.585,8.509,8.509,0,0,1,8.585,8.585v3.347h-.728v-3.347a7.857,7.857,0,0,0-15.715,0Z" transform="translate(-216.5 -92.4)" fill="#fff"/>
          </g>
          <g id="Group_68581" data-name="Group 68581" transform="translate(0 12.077)">
            <g id="Group_68577" data-name="Group 68577">
              <path id="Path_20205" data-name="Path 20205" d="M237.718,129.656H216.038a3.6,3.6,0,0,1-3.638-3.638v-21.68a3.6,3.6,0,0,1,3.638-3.638h21.681a3.6,3.6,0,0,1,3.638,3.638v21.68A3.8,3.8,0,0,1,237.718,129.656Zm-21.681-28.083a2.919,2.919,0,0,0-2.91,2.91v21.68a2.919,2.919,0,0,0,2.91,2.91h21.681a2.919,2.919,0,0,0,2.91-2.91v-21.68a2.919,2.919,0,0,0-2.91-2.91Z" transform="translate(-212.4 -100.7)" fill="#fff"/>
            </g>
            <g id="Group_68580" data-name="Group 68580" transform="translate(11.204 8.585)">
              <g id="Group_68578" data-name="Group 68578">
                <path id="Path_20206" data-name="Path 20206" d="M223.447,113.293a3.347,3.347,0,1,1,3.347-3.347A3.293,3.293,0,0,1,223.447,113.293Zm0-6.111a2.619,2.619,0,1,0,2.619,2.619A2.705,2.705,0,0,0,223.447,107.182Z" transform="translate(-220.1 -106.6)" fill="#fff"/>
              </g>
              <g id="Group_68579" data-name="Group 68579" transform="translate(2.91 6.257)">
                <rect id="Rectangle_1615" data-name="Rectangle 1615" width="0.728" height="6.111" fill="#fff"/>
              </g>
            </g>
          </g>
        </g>
        <text id="_1" data-name="1" transform="translate(46.504 326.392)" font-size="30" font-family="SegoeUI, Segoe UI"><tspan x="0" y="0">1</tspan></text>
        <text id="_2" data-name="2" transform="translate(98.401 325.907)" font-size="30" font-family="SegoeUI, Segoe UI"><tspan x="0" y="0">2</tspan></text>
        <text id="_3" data-name="3" transform="translate(146.418 327.363)" font-size="30" font-family="SegoeUI, Segoe UI"><tspan x="0" y="0">3</tspan></text>
        <text id="_4" data-name="4" transform="translate(196.861 325.423)" font-size="30" font-family="SegoeUI, Segoe UI"><tspan x="0" y="0">4</tspan></text>
        <text id="_5" data-name="5" transform="translate(248.273 325.422)" font-size="30" font-family="SegoeUI, Segoe UI"><tspan x="0" y="0">5</tspan></text>
        <text id="OTP" transform="translate(117.317 235.358)" font-size="40" font-family="MicrosoftNewTaiLue-Bold, Microsoft New Tai Lue" font-weight="700"><tspan x="0" y="0">OTP</tspan></text>
      </g>
      <g id="Character" transform="translate(438.675 156.254)">
        <g id="Group_68590" data-name="Group 68590">
          <g id="Group_68583" data-name="Group 68583" transform="translate(11.204 438.684)">
            <path id="Path_20207" data-name="Path 20207" d="M314.937,411.5,312.9,447.731s1.164,2.619,3.347,3.056,50.054,0,50.054,0a12.375,12.375,0,0,0-.436-5.82c-1.019-2.765-2.765-4.656-5.238-5.238s-19.061-8.148-20.371-8.876c-1.455-.582-2.183-10.185-2.183-10.185Z" transform="translate(-312.754 -411.5)" fill="#fff" stroke="#263238" stroke-miterlimit="10" stroke-width="1.109"/>
            <path id="Path_20208" data-name="Path 20208" d="M366.346,440.084a14.687,14.687,0,0,0,0-3.929c-10.04-.291-42.488-1.164-53.4-1.455l-.146,2.328s1.164,2.619,3.347,3.056C318.475,440.52,366.346,440.084,366.346,440.084Z" transform="translate(-312.8 -400.942)" fill="#fff" stroke="#263238" stroke-miterlimit="10" stroke-width="1.109"/>
          </g>
          <path id="Path_20209" data-name="Path 20209" d="M324.832,287.566s4.074,88.9,3.638,91.669S312.9,472.8,312.9,472.8s13.241,7.275,19.643,8.73a137,137,0,0,0,14.987,1.892s20.953-85.267,21.826-90.36C370.23,388.111,358.88,280,358.88,280Z" transform="translate(-301.55 -32.657)" fill="#263238" stroke="#263238" stroke-miterlimit="10" stroke-width="1.109"/>
          <g id="Group_68584" data-name="Group 68584" transform="translate(7.257 429.081)">
            <path id="Path_20210" data-name="Path 20210" d="M326.8,404.9s-18.625,25.609-16.442,28.228,18.479,18.043,22.408,19.789c4.074,1.746,40.6,0,40.6,0a10.771,10.771,0,0,0,.582-3.2c0-1.6-.146-7.857-2.474-9.6-2.183-1.746-18.77-9.6-19.352-10.767s-1.455-11.059-1.455-11.059Z" transform="translate(-310.047 -404.9)" fill="#fff" stroke="#263238" stroke-miterlimit="10" stroke-width="1.109"/>
            <path id="Path_20211" data-name="Path 20211" d="M373.4,446.182a10.771,10.771,0,0,0,.582-3.2v-.728l-25.464,1.019s-7.857,1.164-12.077-2.183c-3.492-2.91-18.916-16.879-23.863-21.39-1.892,3.347-2.91,6.111-2.328,6.839,2.183,2.619,18.479,18.043,22.408,19.789C336.733,447.928,373.4,446.182,373.4,446.182Z" transform="translate(-310.088 -398.165)" fill="#fff" stroke="#263238" stroke-miterlimit="10" stroke-width="1.109"/>
          </g>
          <path id="Path_20212" data-name="Path 20212" d="M312,258.657s2.765,26.482,4.947,30.556c2.328,4.074,5.966,10.477,5.966,10.477l34.631,97.2-35.649,78.428s26.046,16.879,31.429,18.77c5.529,1.892,7.275,1.892,7.275,1.892s41.906-98.071,41.906-104.91-29.247-104.91-29.247-104.91L375.15,252.4Z" transform="translate(-301.96 -45.217)" fill="#263238" stroke="#263238" stroke-miterlimit="10" stroke-width="1.109"/>
          <path id="Path_20213" data-name="Path 20213" d="M335.8,263.8l19.207,7.712L339.147,259l10.913,4.8" transform="translate(-291.129 -42.214)" fill="none" stroke="#696969" stroke-linecap="round" stroke-linejoin="round" stroke-miterlimit="10" stroke-width="1.109"/>
          <path id="Path_20214" data-name="Path 20214" d="M331.44,308.2l21.971,63.3L321.4,444.976" transform="translate(-297.682 -19.824)" fill="none" stroke="#696969" stroke-miterlimit="10" stroke-width="1.109"/>
          <line id="Line_14" data-name="Line 14" x2="2.328" y2="6.548" transform="translate(29.247 275.425)" fill="none" stroke="#696969" stroke-miterlimit="10" stroke-width="1.109"/>
          <g id="Group_68585" data-name="Group 68585" transform="translate(94.725 128.738)">
            <path id="Path_20215" data-name="Path 20215" d="M373.838,234.154s10.768-10.185,12.95-11.5,11.058-3.929,11.641-6.839c.582-3.056-.146-17.9-1.019-17.315s-12.368,16.879-12.368,16.879L370.2,227.025Z" transform="translate(-370.2 -198.489)" fill="#fff" stroke="#263238" stroke-miterlimit="10" stroke-width="1.109"/>
            <line id="Line_15" data-name="Line 15" x1="1.31" y2="9.894" transform="translate(17.752 12.094)" fill="#fff" stroke="#263238" stroke-miterlimit="10" stroke-width="1.109"/>
            <line id="Line_16" data-name="Line 16" x2="0.437" y2="12.077" transform="translate(22.408 7.001)" fill="#fff" stroke="#263238" stroke-miterlimit="10" stroke-width="1.109"/>
            <path id="Path_20216" data-name="Path 20216" d="M388.02,200.4s-.146,12.659,0,13.969" transform="translate(-362.12 -197.619)" fill="#fff" stroke="#263238" stroke-miterlimit="10" stroke-width="1.109"/>
            <path id="Path_20217" data-name="Path 20217" d="M390.328,211.6s3.638-4.511,2.765-7.566A5.926,5.926,0,0,0,389.6,200.1Z" transform="translate(-361.372 -197.755)" fill="#fff" stroke="#263238" stroke-miterlimit="10" stroke-width="1.109"/>
          </g>
          <path id="Path_20218" data-name="Path 20218" d="M378.945,215c.582.437,5.82,8.439,5.82,8.439l-6.4,8.585s3.2,6.111,1.31,7.566-18.188,9.894-18.188,9.894L356.1,227.659s12.077-7.566,12.659-7.275a6.622,6.622,0,0,1,1.746,1.31Z" transform="translate(-281.892 -62.237)" fill="#ff5a5f" stroke="#263238" stroke-miterlimit="10" stroke-width="1.109"/>
          <path id="Path_20219" data-name="Path 20219" d="M376.6,223.649l2.183,1.455L402.5,191.2l-2.183-1.6Z" transform="translate(-272.563 -73.795)" fill="#263238" stroke="#263238" stroke-miterlimit="10" stroke-width="1.109"/>
          <path id="Path_20220" data-name="Path 20220" d="M341.477,169.9c-1.31.728-20.225,23.427-27.064,32.448-6.984,8.876-6.257,23.427-5.966,31.429s-3.347,66.788-3.347,66.788,28.81-2.328,45.98-3.929S392.7,293.29,392.7,293.29s-6.984-30.411-10.185-43.943c-3.347-13.532-8.585-33.03-12.223-42.342a130.472,130.472,0,0,0-8.876-17.9Z" transform="translate(-305.1 -82.76)" fill="#ff5a5f"/>
          <path id="Path_20221" data-name="Path 20221" d="M340.563,161.129s21.826,21.535,21.1,24.445-4.365,4.947-4.365,4.947,1.019,5.966-.728,7.275a8.3,8.3,0,0,1-3.638,1.6s-20.807-21.535-23.427-24.736c-2.619-3.347-.728-4.947,1.019-5.675a15.64,15.64,0,0,1,3.638-1.019S336.488,160.11,340.563,161.129Z" transform="translate(-294.583 -86.793)" fill="#ff5a5f" stroke="#263238" stroke-miterlimit="10" stroke-width="1.109"/>
          <g id="Group_68586" data-name="Group 68586" transform="translate(77.41 132.649)">
            <path id="Path_20222" data-name="Path 20222" d="M358.3,235.114s9.749-23.427,10.477-25.027c.728-1.746,3.056-4.511,5.093-4.8s17.752-3.783,19.207-4.074c1.31-.291,2.328,1.31-1.31,3.783s-12.95,3.492-12.95,3.492l-1.31,10.331s9.167-7.13,9.167-3.492c0,3.783-6.839,6.111-7.857,6.548s-3.783,4.8-4.8,5.529a25.181,25.181,0,0,1-4.8,1.746s-.727,4.074-2.037,5.529c-1.31,1.31-7.566,5.82-7.566,5.82Z" transform="translate(-358.3 -201.177)" fill="#fff" stroke="#263238" stroke-miterlimit="10" stroke-width="1.109"/>
            <path id="Path_20223" data-name="Path 20223" d="M365.5,208.8s3.929-4.947,4.511-4.8c.582,0,7.566,5.966,8,6.4s-2.619,5.384-3.056,6.257-.582,1.455-1.892,1.019a8.423,8.423,0,0,1-2.474-1.455" transform="translate(-355.023 -199.893)" fill="#fff" stroke="#263238" stroke-miterlimit="10" stroke-width="1.109"/>
            <path id="Path_20224" data-name="Path 20224" d="M364.7,211.5s4.365-4.8,4.947-4.8,6.111,4.365,6.111,5.093-1.019,5.675-1.746,5.82a16.472,16.472,0,0,1-3.347-.291" transform="translate(-355.388 -198.663)" fill="#fff" stroke="#263238" stroke-miterlimit="10" stroke-width="1.109"/>
            <path id="Path_20225" data-name="Path 20225" d="M364.6,214.273a24.543,24.543,0,0,1,3.783-3.347c1.164-.582,4.22,2.037,5.966,3.347,1.746,1.164,3.783,1.892,2.91,2.91-1.019,1.164-4.656-.437-5.384-.437a8.794,8.794,0,0,1-2.619-.873l-2.037,6.257" transform="translate(-355.433 -196.778)" fill="#fff" stroke="#263238" stroke-miterlimit="10" stroke-width="1.109"/>
          </g>
          <path id="Path_20226" data-name="Path 20226" d="M350.4,232.4l11.932-9.6,5.529,10.331L357.53,243.753C357.675,243.607,350.4,242.3,350.4,232.4Z" transform="translate(-284.485 -58.687)" fill="#ff5a5f" stroke="#263238" stroke-miterlimit="10" stroke-width="1.109"/>
          <g id="Group_68589" data-name="Group 68589" transform="translate(34.689)">
            <path id="Path_20227" data-name="Path 20227" d="M362.573,178.446l-10.622,11.932L335.8,169.861l9.6-11.2s5.675-5.966,8.876-5.238C357.626,154,362.573,178.446,362.573,178.446Z" transform="translate(-325.818 -90.288)" fill="#fff" stroke="#263238" stroke-miterlimit="10" stroke-width="1.109"/>
            <path id="Path_20228" data-name="Path 20228" d="M346.5,162.2l6.4,18.043,4.8-5.82Z" transform="translate(-320.949 -86.264)" fill="#263238" stroke="#263238" stroke-miterlimit="10" stroke-width="1.109"/>
            <path id="Path_20229" data-name="Path 20229" d="M353.036,177.946s-3.929,6.257-7.275,4.947-12.223-10.913-16.151-22.845,10.622-13.823,12.95-18.479,4.365-5.238,7.566-21.535c3.347-16.151,40.305-9.894,45.98-1.31s4.656,25.755,20.225,20.225c15.569-5.675,32.448-11.641,36.086,2.328,3.638,13.823-8.294,30.7-3.929,36.668s18.188,1.6,17.17,7.275-8.294,9.312-5.966,10.622,15.278-5.238,11.641.728-11.2,12.223-12.223,9.6,0-5.966-3.638-3.929-14.551,9.894-19.207,5.675c-4.656-4.365,1.31-19.789-6.257-21.535-7.566-1.6-26.191,3.638-32.448,3.929s-6.984-1.6-18.479-7.275C367.3,177.364,353.036,177.946,353.036,177.946Z" transform="translate(-328.94 -110.013)" fill="#263238" stroke="#263238" stroke-miterlimit="10" stroke-width="1.109"/>
            <g id="Group_68588" data-name="Group 68588" transform="translate(19.704 51.2)">
              <g id="Group_68587" data-name="Group 68587" transform="translate(5.717)">
                <path id="Path_20230" data-name="Path 20230" d="M347.85,152.766s19.5,1.019,32.011-2.328S396.74,145.2,396.74,145.2s.291,12.95-2.91,16.588c-3.347,3.638-7.566,6.984-7.566,9.6s3.347,6.984,1.31,9.312-6.548,2.328-8,2.328c-1.31,0-11.932,9.894-14.842,9.894s-17.9-19.789-18.188-22.845c-.291-2.91,0-10.622,0-10.622" transform="translate(-346.411 -145.2)" fill="#fff" stroke="#263238" stroke-miterlimit="10" stroke-width="1.109"/>
                <path id="Path_20231" data-name="Path 20231" d="M373.885,158.3l-3.638,4.365A6.041,6.041,0,0,1,365.3,158.3" transform="translate(-337.815 -139.239)" fill="none" stroke="#263238" stroke-miterlimit="10" stroke-width="1.109"/>
                <path id="Path_20232" data-name="Path 20232" d="M362.8,165.2s-.291,5.238,3.929,5.966" transform="translate(-338.954 -136.099)" fill="none" stroke="#263238" stroke-miterlimit="10" stroke-width="1.109"/>
                <path id="Path_20233" data-name="Path 20233" d="M368.5,154.63s5.966-2.037,8.585,2.91" transform="translate(-336.359 -141.098)" fill="none" stroke="#263238" stroke-miterlimit="10" stroke-width="1.109"/>
              </g>
              <path id="Path_20234" data-name="Path 20234" d="M354.585,157.068s-4.947-14.551-9.6-9.312-2.037,14.551,1.6,16.588a7.275,7.275,0,0,0,6.984,0" transform="translate(-342.482 -144.555)" fill="#fff" stroke="#263238" stroke-miterlimit="10" stroke-width="1.109"/>
            </g>
          </g>
          <path id="Path_20235" data-name="Path 20235" d="M315.537,196.284a154.822,154.822,0,0,0-2.037,23.281c0,11.641,4.8,68.825,7.13,71.88s11.932,5.82,16.151,3.056c4.074-2.765,39.723-25.609,40.014-29.392s-5.529-17.461-7.857-18.479-4.511-.728-7.857,2.328c-3.492,3.056-12.368,8.148-12.368,8.148s-2.328-43.8-5.093-54.419-4.074-12.659-5.82-13.387" transform="translate(-301.277 -73.932)" fill="#ff5a5f" stroke="#263238" stroke-miterlimit="10" stroke-width="1.109"/>
        </g>
      </g>
      <g id="Floor" transform="translate(12.194 640.627)">
        <g id="Group_68592" data-name="Group 68592">
          <g id="Group_68591" data-name="Group 68591">
            <path id="Path_20236" data-name="Path 20236" d="M643.5,443.337c0,.146-141.433.436-315.75.436-174.463,0-315.75-.146-315.75-.436s141.433-.437,315.75-.437S643.5,443.045,643.5,443.337Z" transform="translate(-12 -442.9)" fill="#263238"/>
          </g>
        </g>
      </g>
      <g id="Plant" transform="translate(52.936 358.635)">
        <g id="Group_68594" data-name="Group 68594" transform="translate(0.042 0.246)">
          <g id="Group_68593" data-name="Group 68593">
            <path id="Path_20237" data-name="Path 20237" d="M81.747,331.089c13.823-21.244,13.387-52.091-3.2-71.3-5.093-5.966-12.368-11.059-20.08-10.476-8,.728-14.405,7.566-16.879,15.278s-1.6,16.006-.146,23.863c2.037,11.059,5.384,22.408,13.1,30.7,7.421,8.148,17.315,17.315,27.21,11.932" transform="translate(-40.029 -249.269)" fill="#f2818a"/>
          </g>
        </g>
        <g id="Group_68596" data-name="Group 68596" transform="translate(7.85 143.425)">
          <g id="Group_68595" data-name="Group 68595">
            <path id="Path_20238" data-name="Path 20238" d="M73.049,387.437c5.238-12.223,1.455-27.646-8.876-35.94-3.2-2.619-7.421-4.656-11.35-3.492-4.074,1.019-6.839,5.238-7.275,9.312-.582,4.22.582,8.439,2.037,12.368,2.037,5.529,4.8,11.058,9.458,14.551,4.8,3.638,11.5,6.984,16.006,3.2" transform="translate(-45.395 -347.67)" fill="#f2818a"/>
          </g>
        </g>
        <g id="Group_68598" data-name="Group 68598" transform="translate(68.167 124.533)">
          <g id="Group_68597" data-name="Group 68597">
            <path id="Path_20239" data-name="Path 20239" d="M87.651,386.07c-3.783-18.77,6.111-39.432,23.136-48.308,5.238-2.765,11.786-4.365,17.024-1.746,5.384,2.765,8,9.312,7.566,15.424s-3.347,11.641-6.548,16.879c-4.511,7.275-10.04,14.26-17.752,17.9s-18.043,6.548-23.427-.145" transform="translate(-86.848 -334.685)" fill="#f2818a"/>
          </g>
        </g>
        <g id="Group_68600" data-name="Group 68600" transform="translate(64.559 60.582)">
          <g id="Group_68599" data-name="Group 68599">
            <path id="Path_20240" data-name="Path 20240" d="M86.306,355.289c-6.693-21.39,4.656-47.29,23.281-59.658,5.82-3.783,13.241-6.4,19.643-3.929,6.693,2.474,10.476,9.894,10.622,17.024s-2.474,13.969-5.675,20.371c-4.365,8.876-10.04,17.752-18.625,22.845-8.294,5.238-22.117,10.477-29.247,3.347" transform="translate(-84.369 -290.735)" fill="#f2818a"/>
          </g>
        </g>
        <g id="Group_68603" data-name="Group 68603" transform="translate(52.964 140.85)">
          <g id="Group_68602" data-name="Group 68602">
            <g id="Group_68601" data-name="Group 68601">
              <path id="Path_20241" data-name="Path 20241" d="M76.691,434.8a2.518,2.518,0,0,0,.146-1.019q.218-1.091.437-3.056c.146-.728.146-1.31.291-2.183.146-.728.291-1.6.437-2.474a58.176,58.176,0,0,1,1.31-6.111c.291-1.164.582-2.328.873-3.638.291-1.164.728-2.474,1.164-3.783.728-2.619,1.746-5.384,2.765-8.294a153.271,153.271,0,0,1,8.294-18.334,155.806,155.806,0,0,1,10.767-17.024c1.892-2.474,3.638-4.8,5.384-6.839L111.176,359c.873-.873,1.746-1.892,2.474-2.619,1.6-1.746,3.056-3.2,4.365-4.511.728-.582,1.31-1.31,1.892-1.746.582-.582,1.164-1.019,1.6-1.455.873-.873,1.6-1.455,2.183-2.037l.728-.728a6.655,6.655,0,0,0-.873.582c-.582.436-1.455,1.164-2.328,1.892-.582.436-1.019.873-1.746,1.455a22.384,22.384,0,0,1-1.892,1.746c-1.31,1.31-2.91,2.765-4.511,4.365-.873.873-1.6,1.746-2.619,2.619l-2.619,3.056c-1.892,2.037-3.638,4.511-5.529,6.839a155.8,155.8,0,0,0-10.768,17.024,165.96,165.96,0,0,0-8.294,18.479c-1.019,2.91-2.037,5.675-2.765,8.439-.437,1.31-.728,2.619-1.019,3.783-.291,1.31-.582,2.474-.873,3.638-.582,2.328-.873,4.365-1.164,6.257l-.437,2.619c-.146.728-.146,1.455-.291,2.183-.146,1.164-.146,2.183-.291,3.056C76.691,434.514,76.546,434.8,76.691,434.8Z" transform="translate(-76.4 -345.9)" fill="#263238"/>
            </g>
          </g>
        </g>
        <g id="Group_68606" data-name="Group 68606" transform="translate(51.946 81.047)">
          <g id="Group_68605" data-name="Group 68605">
            <g id="Group_68604" data-name="Group 68604">
              <path id="Path_20242" data-name="Path 20242" d="M77.446,457.437V457a5.012,5.012,0,0,0-.146-1.31q-.218-1.746-.437-4.8c-.146-1.019-.146-2.183-.291-3.492a36.788,36.788,0,0,1-.146-4.074c-.146-2.91-.437-6.257-.291-10.04v-5.82c0-2.037.146-4.074.291-6.257.146-4.365.728-9.021,1.31-13.823a209.452,209.452,0,0,1,6.548-31.138,206.922,206.922,0,0,1,11.5-29.683,135.791,135.791,0,0,1,6.548-12.223c1.164-1.892,2.037-3.783,3.2-5.384,1.164-1.746,2.183-3.347,3.2-4.947a86.352,86.352,0,0,1,5.675-8.148c.873-1.164,1.6-2.328,2.474-3.347a20.783,20.783,0,0,1,2.183-2.619c1.31-1.6,2.183-2.765,2.91-3.783.291-.437.582-.728.728-1.019s.291-.291.291-.291l-.291.291a4.941,4.941,0,0,1-.873.873c-.728.873-1.746,2.037-3.056,3.638l-2.183,2.619c-.728,1.019-1.6,2.037-2.474,3.347-1.746,2.328-3.783,4.947-5.82,8.148-1.019,1.6-2.037,3.2-3.2,4.8-1.164,1.746-2.037,3.492-3.2,5.384a139.146,139.146,0,0,0-6.548,12.368A219.931,219.931,0,0,0,83.7,376.1a211.144,211.144,0,0,0-6.548,31.284c-.437,4.947-1.019,9.458-1.164,13.969-.146,2.183-.291,4.22-.291,6.257v5.82c0,3.783.291,7.13.437,10.04.146,1.455.146,2.91.291,4.074.145,1.31.291,2.328.437,3.492.291,2.037.437,3.638.582,4.8A3.616,3.616,0,0,1,77.592,457,1.126,1.126,0,0,0,77.446,457.437Z" transform="translate(-75.7 -304.8)" fill="#263238"/>
            </g>
          </g>
        </g>
        <g id="Group_68609" data-name="Group 68609" transform="translate(17.606 25.9)">
          <g id="Group_68608" data-name="Group 68608">
            <g id="Group_68607" data-name="Group 68607">
              <path id="Path_20243" data-name="Path 20243" d="M52.1,266.9a1.126,1.126,0,0,0,.146.436,8.575,8.575,0,0,0,.582,1.164c.582,1.019,1.31,2.474,2.328,4.22.437.873,1.164,1.892,1.746,3.056l1.892,3.783c.728,1.31,1.31,2.765,2.183,4.22.728,1.6,1.455,3.2,2.183,4.947s1.6,3.492,2.328,5.384,1.455,3.929,2.328,5.966c.437,1.019.728,2.037,1.164,3.2.437,1.019.728,2.183,1.164,3.347.728,2.183,1.455,4.511,2.328,6.839,2.91,9.458,5.675,20.08,8,31.284s3.929,22.117,5.093,31.866c1.019,9.894,1.746,18.77,1.892,26.337.146,3.783.291,7.13.291,10.185v13.823a5.011,5.011,0,0,1,.146-1.31c0-1.164.146-2.765.291-4.8s.146-4.656.146-7.712,0-6.4-.146-10.185c-.146-7.566-.873-16.442-1.746-26.337-1.164-9.894-2.765-20.807-4.947-32.011-2.328-11.2-5.238-21.826-8.148-31.429-.873-2.328-1.6-4.656-2.328-6.839-.437-1.164-.728-2.183-1.164-3.347a28.3,28.3,0,0,1-1.164-3.2c-.873-2.037-1.6-4.074-2.328-5.966s-1.6-3.638-2.474-5.384c-.728-1.746-1.455-3.347-2.183-4.947-.728-1.455-1.455-2.91-2.183-4.22s-1.31-2.619-1.892-3.638c-.582-1.164-1.31-2.183-1.746-3.056-1.019-1.746-1.892-3.2-2.474-4.074a6.161,6.161,0,0,0-.728-1.019C52.246,266.9,52.1,266.9,52.1,266.9Z" transform="translate(-52.1 -266.9)" fill="#263238"/>
            </g>
          </g>
        </g>
        <g id="Group_68612" data-name="Group 68612" transform="translate(22.408 155.838)">
          <g id="Group_68611" data-name="Group 68611">
            <g id="Group_68610" data-name="Group 68610">
              <path id="Path_20244" data-name="Path 20244" d="M55.4,356.2a20.552,20.552,0,0,0,1.455,2.619c1.019,1.6,2.474,4.074,4.074,6.984,1.6,3.056,3.492,6.693,5.238,10.767s3.492,8.73,5.093,13.678c1.455,4.947,2.619,9.749,3.492,14.26A110.511,110.511,0,0,1,76.5,416.294c.291,3.347.582,6.111.582,8,.146,1.892.146,2.91.291,2.91a22.9,22.9,0,0,0,.146-2.91c0-1.892,0-4.656-.291-8.148a109.012,109.012,0,0,0-1.6-11.932q-1.31-6.766-3.492-14.405A137.431,137.431,0,0,0,66.9,375.989c-1.892-4.074-3.783-7.712-5.384-10.768a73.6,73.6,0,0,0-4.365-6.839Z" transform="translate(-55.4 -356.2)" fill="#263238"/>
            </g>
          </g>
        </g>
        <g id="Group_68614" data-name="Group 68614" transform="translate(19.643 220.297)">
          <g id="Group_68613" data-name="Group 68613">
            <path id="Path_20245" data-name="Path 20245" d="M114.322,400.5H53.5l7.275,62.131h45.98Z" transform="translate(-53.5 -400.5)" fill="#455a64"/>
          </g>
        </g>
        <g id="Group_68616" data-name="Group 68616" transform="translate(21.681 275.735)">
          <g id="Group_68615" data-name="Group 68615">
            <path id="Path_20246" data-name="Path 20246" d="M111.357,438.6l-5.093,6.693H60.138L54.9,438.745Z" transform="translate(-54.9 -438.6)" fill="#263238"/>
          </g>
        </g>
        <g id="Group_68619" data-name="Group 68619" transform="translate(21.972 238.049)">
          <g id="Group_68618" data-name="Group 68618">
            <g id="Group_68617" data-name="Group 68617">
              <path id="Path_20247" data-name="Path 20247" d="M55.1,413.137c0,.291,12.659.436,28.228.436s28.228-.146,28.228-.436S98.9,412.7,83.328,412.7,55.1,412.991,55.1,413.137Z" transform="translate(-55.1 -412.7)" fill="#fafafa"/>
            </g>
          </g>
        </g>
        <g id="Group_68622" data-name="Group 68622" transform="translate(21.972 242.269)">
          <g id="Group_68621" data-name="Group 68621">
            <g id="Group_68620" data-name="Group 68620">
              <path id="Path_20248" data-name="Path 20248" d="M55.1,416.036c0,.291,12.659.437,28.228.437s28.228-.146,28.228-.437S98.9,415.6,83.328,415.6,55.1,415.746,55.1,416.036Z" transform="translate(-55.1 -415.6)" fill="#fafafa"/>
            </g>
          </g>
        </g>
        <g id="Group_68625" data-name="Group 68625" transform="translate(22.699 246.197)">
          <g id="Group_68624" data-name="Group 68624">
            <g id="Group_68623" data-name="Group 68623">
              <path id="Path_20249" data-name="Path 20249" d="M55.6,418.737c0,.291,12.223.437,27.21.437s27.21-.146,27.21-.437S97.8,418.3,82.81,418.3,55.6,418.591,55.6,418.737Z" transform="translate(-55.6 -418.3)" fill="#fafafa"/>
            </g>
          </g>
        </g>
        <g id="Group_68627" data-name="Group 68627" transform="translate(71.153 86.286)">
          <g id="Group_68626" data-name="Group 68626">
            <path id="Path_20250" data-name="Path 20250" d="M88.9,308.4v.582c0,.437.146,1.019.146,1.746.146,1.6.437,3.638.582,6.257.582,5.238,1.31,12.368,2.328,20.371a1.846,1.846,0,0,0,.145.873v.291h.291c7.857.146,14.842.146,19.934.291h7.566a6.524,6.524,0,0,1-1.6-.146c-1.455,0-3.492-.146-5.966-.146-5.093-.146-12.077-.291-19.934-.436l.291.291a1.846,1.846,0,0,0-.146-.873c-.873-8-1.746-15.133-2.474-20.371-.291-2.474-.582-4.656-.873-6.111-.146-.728-.146-1.164-.291-1.6Z" transform="translate(-88.9 -308.4)" fill="#263238"/>
          </g>
        </g>
        <g id="Group_68629" data-name="Group 68629" transform="translate(84.976 67.806)">
          <g id="Group_68628" data-name="Group 68628">
            <path id="Path_20251" data-name="Path 20251" d="M98.4,295.7v8.73c.146,5.384.291,12.95.437,21.1v1.31h.291c8-.582,15.278-.582,20.516-.437,2.619.146,4.656.146,6.111.291a6.523,6.523,0,0,1,1.746.146h.582a2.294,2.294,0,0,1-.582-.146c-.437,0-.873-.146-1.6-.146q-2.183-.218-6.111-.437a166.735,166.735,0,0,0-20.516.291l.291.291v-1.019c-.145-8.294-.437-15.715-.582-21.1-.146-2.619-.146-4.8-.291-6.4,0-.728-.146-1.31-.146-1.746A4.084,4.084,0,0,1,98.4,295.7Z" transform="translate(-98.4 -295.7)" fill="#263238"/>
          </g>
        </g>
        <g id="Group_68631" data-name="Group 68631" transform="translate(95.889 61.404)">
          <g id="Group_68630" data-name="Group 68630">
            <path id="Path_20252" data-name="Path 20252" d="M111.138,291.3l-.437,1.746c-.291,1.31-.582,2.91-.873,4.947-.728,4.074-2.037,9.749-3.783,16.006l-.146.728.582-.291c.291-.146.437-.291.728-.291a54.321,54.321,0,0,1,16.151-4.8,41.941,41.941,0,0,1,5.093-.436c1.164,0,1.892,0,1.892-.146h-1.892c-1.164,0-3.056,0-5.238.146a50.937,50.937,0,0,0-16.442,4.656c-.291.146-.437.291-.728.291l.437.291c1.746-6.257,2.91-11.932,3.638-16.151.291-2.037.582-3.783.728-4.947A7.03,7.03,0,0,0,111.138,291.3Z" transform="translate(-105.9 -291.3)" fill="#263238"/>
          </g>
        </g>
        <g id="Group_68633" data-name="Group 68633" transform="translate(15.278 161.804)">
          <g id="Group_68632" data-name="Group 68632">
            <path id="Path_20253" data-name="Path 20253" d="M50.5,373.25c0,.146,1.746-.146,4.656-.146a74.776,74.776,0,0,1,11.059.291c.873.146,1.746.146,2.474.291h.291V373.4c.728-3.638,1.164-6.984,1.6-9.312s.582-3.783.437-3.783-.437,1.31-.873,3.638-1.164,5.529-1.746,9.167l.291-.291a16.027,16.027,0,0,0-2.619-.291,58.64,58.64,0,0,0-11.2-.146c-1.455.146-2.619.291-3.347.437C50.937,373.1,50.5,373.1,50.5,373.25Z" transform="translate(-50.5 -360.3)" fill="#263238"/>
          </g>
        </g>
        <g id="Group_68635" data-name="Group 68635" transform="translate(9.458 148.999)">
          <g id="Group_68634" data-name="Group 68634">
            <path id="Path_20254" data-name="Path 20254" d="M46.5,365.76c0,.146,1.746-.291,4.511-.582a51.354,51.354,0,0,1,10.768-.146,7.372,7.372,0,0,1,1.892.291h.291v-.291c.437-3.783.728-7.13.873-9.6s.291-3.929.146-3.929a18.481,18.481,0,0,0-.582,3.783c-.291,2.328-.728,5.675-1.019,9.458l.291-.291c-.582-.146-1.31-.146-1.892-.291a43.335,43.335,0,0,0-10.913.291,21.734,21.734,0,0,0-3.2.728A6.632,6.632,0,0,1,46.5,365.76Z" transform="translate(-46.5 -351.5)" fill="#263238"/>
          </g>
        </g>
        <g id="Group_68637" data-name="Group 68637" transform="translate(5.384 38.85)">
          <g id="Group_68636" data-name="Group 68636">
            <path id="Path_20255" data-name="Path 20255" d="M43.7,292.1a1.593,1.593,0,0,0,.582.291c.437.146,1.019.437,1.746.728,1.6.728,3.929,1.6,6.548,2.765,5.675,2.328,13.387,5.529,21.826,9.021a10.032,10.032,0,0,1,1.164.436l.291.146.146-.291c3.638-8.148,6.839-15.424,9.167-20.807,1.164-2.619,2.037-4.656,2.765-6.257.291-.728.582-1.31.728-1.746s.291-.582.146-.582a1.593,1.593,0,0,0-.291.582,5.927,5.927,0,0,1-.873,1.6c-.728,1.6-1.746,3.638-2.91,6.257-2.474,5.384-5.675,12.659-9.312,20.662l.437-.146c-.437-.146-.728-.291-1.164-.436-8.439-3.492-16.151-6.548-21.826-8.876-2.765-1.019-4.947-2.037-6.693-2.619-.728-.291-1.31-.436-1.892-.728Z" transform="translate(-43.7 -275.8)" fill="#263238"/>
          </g>
        </g>
        <g id="Group_68639" data-name="Group 68639" transform="translate(0 12.95)">
          <g id="Group_68638" data-name="Group 68638">
            <path id="Path_20256" data-name="Path 20256" d="M40,273.86a4.3,4.3,0,0,0,.582.436c.437.291,1.019.582,1.6,1.019,1.455.873,3.492,2.183,5.966,3.638,5.093,3.056,12.077,7.421,19.789,12.077l.291.146.146-.291a2.1,2.1,0,0,0,.291-1.019c3.2-8.73,6.111-16.588,8.294-22.408,1.019-2.765,1.892-5.093,2.474-6.839a13.517,13.517,0,0,0,.582-1.892A2.547,2.547,0,0,0,80.16,258a1.593,1.593,0,0,0-.291.582c-.146.437-.437,1.019-.728,1.892-.582,1.6-1.6,3.929-2.619,6.693-2.183,5.82-5.238,13.678-8.439,22.408a2.1,2.1,0,0,0-.291,1.019l.437-.146c-7.712-4.656-14.842-8.876-19.934-11.932q-3.71-2.183-6.111-3.492a9.313,9.313,0,0,0-1.6-.873Z" transform="translate(-40 -258)" fill="#263238"/>
          </g>
        </g>
        <g id="Group_68641" data-name="Group 68641" transform="translate(1.746)">
          <g id="Group_68640" data-name="Group 68640">
            <path id="Path_20257" data-name="Path 20257" d="M41.2,263.942a13.435,13.435,0,0,0,1.31.728c.873.437,2.037,1.164,3.638,2.037a65.742,65.742,0,0,1,11.059,8.585l.728.728L57.642,275a22.606,22.606,0,0,1-.728-3.347,37.878,37.878,0,0,1,.873-16.151,40.809,40.809,0,0,1,1.6-4.656c.437-1.019.728-1.746.582-1.746,0,0-.291.582-.873,1.6a36.423,36.423,0,0,0-1.746,4.656A39.01,39.01,0,0,0,56.333,271.8a29.8,29.8,0,0,0,.728,3.492L57.5,275a59.112,59.112,0,0,0-11.2-8.585,30.174,30.174,0,0,0-3.638-1.892A7.934,7.934,0,0,0,41.2,263.942Z" transform="translate(-41.2 -249.1)" fill="#263238"/>
          </g>
        </g>
        <g id="Group_68643" data-name="Group 68643" transform="translate(71.153 151.182)">
          <g id="Group_68642" data-name="Group 68642">
            <path id="Path_20258" data-name="Path 20258" d="M88.9,353a6.5,6.5,0,0,0,.291,1.6c.146,1.019.582,2.474.873,4.22a86.411,86.411,0,0,1,1.6,14.405v.291h.291a4.028,4.028,0,0,1,1.31.146c5.966.437,11.5.728,15.424.873,1.892.146,3.492.146,4.656.146h1.746a16.463,16.463,0,0,0-1.746-.291c-1.164-.146-2.765-.291-4.656-.436-3.929-.291-9.458-.728-15.424-1.019a4.028,4.028,0,0,1-1.31-.146l.291.291a80.914,80.914,0,0,0-1.892-14.405c-.437-1.746-.728-3.2-1.019-4.22C89.191,353.582,89.046,353,88.9,353Z" transform="translate(-88.9 -353)" fill="#263238"/>
          </g>
        </g>
        <g id="Group_68645" data-name="Group 68645" transform="translate(83.084 134.157)">
          <g id="Group_68644" data-name="Group 68644">
            <path id="Path_20259" data-name="Path 20259" d="M97.1,341.3a12.6,12.6,0,0,0,.146,1.6q.218,1.746.437,4.365c.437,3.638,1.164,8.73,1.892,14.405v.291h.291c.582,0,1.31.146,1.892.146,6.111.437,11.786,1.019,15.715,1.6,1.892.291,3.492.437,4.8.582,1.164.146,1.746.291,1.746.146L122.273,364q-1.746-.437-4.8-.873c-4.074-.582-9.6-1.31-15.86-1.746-.728,0-1.31-.146-1.892-.146l.291.291c-.728-5.675-1.455-10.767-2.037-14.405-.291-1.746-.437-3.2-.728-4.365C97.246,341.737,97.246,341.3,97.1,341.3Z" transform="translate(-97.1 -341.3)" fill="#263238"/>
          </g>
        </g>
        <g id="Group_68647" data-name="Group 68647" transform="translate(97.17 126.736)">
          <g id="Group_68646" data-name="Group 68646">
            <path id="Path_20260" data-name="Path 20260" d="M106.809,336.2a42.121,42.121,0,0,0,.728,4.365,90.56,90.56,0,0,1,1.019,10.767v.291h.291c.291,0,.728-.146,1.019-.146a91.221,91.221,0,0,1,11.5-.728h4.8a4.568,4.568,0,0,0-1.31-.146c-.873-.146-2.037-.146-3.492-.291a85.864,85.864,0,0,0-11.641.437c-.291,0-.728.146-1.019.146l.291.291a62.152,62.152,0,0,0-1.164-10.767c-.291-1.31-.582-2.474-.728-3.2C106.954,336.637,106.809,336.2,106.809,336.2Z" transform="translate(-106.78 -336.2)" fill="#263238"/>
          </g>
        </g>
        <g id="Group_68649" data-name="Group 68649" transform="translate(17.013 143.9)">
          <g id="Group_68648" data-name="Group 68648">
            <path id="Path_20261" data-name="Path 20261" d="M51.7,348c-.146.146,1.164,2.765,2.765,6.111s2.765,6.111,2.91,6.111a41.016,41.016,0,0,0-2.328-6.4C53.45,350.475,51.849,347.856,51.7,348Z" transform="translate(-51.692 -347.996)" fill="#263238"/>
          </g>
        </g>
        <g id="Group_68651" data-name="Group 68651" transform="translate(9.458 151.812)">
          <g id="Group_68650" data-name="Group 68650">
            <path id="Path_20262" data-name="Path 20262" d="M46.5,353.53a62.6,62.6,0,0,1,6.984,1.455c3.783,1.164,6.4,2.91,6.548,2.765s-2.474-2.183-6.257-3.347C49.7,353.239,46.5,353.385,46.5,353.53Z" transform="translate(-46.5 -353.433)" fill="#263238"/>
          </g>
        </g>
      </g>
    </g>
  </g>
</svg>
