<?xml version="1.0" standalone="no"?>
<svg xmlns:xlink="http://www.w3.org/1999/xlink" id="wave" style="transform:rotate(0deg); transition: 0.3s" viewBox="0 0 1440 350" version="1.1" xmlns="http://www.w3.org/2000/svg"><defs><linearGradient id="sw-gradient-0" x1="0" x2="0" y1="1" y2="0"><stop stop-color="rgba(0, 125, 254, 1)" offset="0%"/><stop stop-color="rgba(169, 202, 254, 1)" offset="100%"/></linearGradient></defs><path style="transform:translate(0, 0px); opacity:1" fill="url(#sw-gradient-0)" d="M0,315L48,309.2C96,303,192,292,288,280C384,268,480,257,576,256.7C672,257,768,268,864,262.5C960,257,1056,233,1152,204.2C1248,175,1344,140,1440,128.3C1536,117,1632,128,1728,145.8C1824,163,1920,187,2016,186.7C2112,187,2208,163,2304,169.2C2400,175,2496,210,2592,227.5C2688,245,2784,245,2880,210C2976,175,3072,105,3168,105C3264,105,3360,175,3456,221.7C3552,268,3648,292,3744,262.5C3840,233,3936,152,4032,134.2C4128,117,4224,163,4320,163.3C4416,163,4512,117,4608,122.5C4704,128,4800,187,4896,204.2C4992,222,5088,198,5184,163.3C5280,128,5376,82,5472,87.5C5568,93,5664,152,5760,198.3C5856,245,5952,280,6048,256.7C6144,233,6240,152,6336,145.8C6432,140,6528,210,6624,250.8C6720,292,6816,303,6864,309.2L6912,315L6912,350L6864,350C6816,350,6720,350,6624,350C6528,350,6432,350,6336,350C6240,350,6144,350,6048,350C5952,350,5856,350,5760,350C5664,350,5568,350,5472,350C5376,350,5280,350,5184,350C5088,350,4992,350,4896,350C4800,350,4704,350,4608,350C4512,350,4416,350,4320,350C4224,350,4128,350,4032,350C3936,350,3840,350,3744,350C3648,350,3552,350,3456,350C3360,350,3264,350,3168,350C3072,350,2976,350,2880,350C2784,350,2688,350,2592,350C2496,350,2400,350,2304,350C2208,350,2112,350,2016,350C1920,350,1824,350,1728,350C1632,350,1536,350,1440,350C1344,350,1248,350,1152,350C1056,350,960,350,864,350C768,350,672,350,576,350C480,350,384,350,288,350C192,350,96,350,48,350L0,350Z"/></svg>