<?xml version="1.0" standalone="no"?>
<svg xmlns:xlink="http://www.w3.org/1999/xlink" id="wave" style="transform:rotate(0deg); transition: 0.3s" viewBox="0 0 1440 180" version="1.1" xmlns="http://www.w3.org/2000/svg"><defs><linearGradient id="sw-gradient-0" x1="0" x2="0" y1="1" y2="0"><stop stop-color="rgba(0, 157, 137, 1)" offset="0%"/><stop stop-color="rgba(16.494, 232.552, 205.029, 1)" offset="100%"/></linearGradient></defs><path style="transform:translate(0, 0px); opacity:1" fill="url(#sw-gradient-0)" d="M0,54L480,18L960,108L1440,54L1920,54L2400,126L2880,18L3360,162L3840,18L4320,126L4800,54L5280,162L5760,126L6240,90L6720,36L7200,90L7680,162L8160,36L8640,54L9120,126L9600,162L10080,144L10560,108L11040,36L11520,36L11520,180L11040,180L10560,180L10080,180L9600,180L9120,180L8640,180L8160,180L7680,180L7200,180L6720,180L6240,180L5760,180L5280,180L4800,180L4320,180L3840,180L3360,180L2880,180L2400,180L1920,180L1440,180L960,180L480,180L0,180Z"/></svg>